<?xml version="1.0" standalone="no"?>
<!DOCTYPE svg PUBLIC "-//W3C//DTD SVG 1.1//EN" "http://www.w3.org/Graphics/SVG/1.1/DTD/svg11.dtd" >
<svg xmlns="http://www.w3.org/2000/svg">
<metadata></metadata>
<defs>
<font id="aw_conqueror_carvedone" horiz-adv-x="500" >
<font-face units-per-em="1000" ascent="761" descent="-239" />
<missing-glyph horiz-adv-x="250" />
<glyph unicode="&#xd;" horiz-adv-x="250" />
<glyph unicode=" "  horiz-adv-x="250" />
<glyph unicode="&#x09;" horiz-adv-x="250" />
<glyph unicode="&#xa0;" horiz-adv-x="250" />
<glyph unicode="!" horiz-adv-x="250" d="M185 141h-124v533h124v-533zM185 0h-124v128h124v-128z" />
<glyph unicode="&#x22;" horiz-adv-x="410" d="M315 674l-8 -245h-44l-9 245h61zM155 674l-8 -245h-44l-8 245h60z" />
<glyph unicode="#" horiz-adv-x="540" d="M511 408h-77l-20 -143h97v-103h-113l-23 -162h-114l23 162h-84l-23 -162h-114l23 162h-57v103h73l20 143h-93v103h108l24 163h114l-23 -163h83l24 163h114l-23 -163h61v-103zM236 408l-20 -143h84l20 143h-84z" />
<glyph unicode="$" horiz-adv-x="508" d="M67 506q0 64 33.5 111.5t99.5 63.5v62h123v-63q79 -20 153 -101l-87 -93q-54 77 -123 77q-79 0 -79 -52q0 -15 7.5 -29t26 -29t32 -24t41.5 -26q34 -20 50 -30.5t44 -33t41.5 -43t24.5 -52t11 -67.5q0 -73 -37.5 -120t-104.5 -62v-66h-123v62q-95 13 -172 100l89 85 q62 -71 140 -71q40 0 63.5 19t23.5 45q0 19 -8.5 35.5t-27.5 32.5t-34 26t-43 26q-37 21 -60.5 37.5t-50.5 43t-40 60.5t-13 76z" />
<glyph unicode="%" horiz-adv-x="816" d="M395 503q0 -76 -44 -130.5t-123 -54.5t-123 54.5t-44 130.5t44 130t123 54t123 -54t44 -130zM756 172q0 -76 -44 -130.5t-123 -54.5t-123 54.5t-44 130.5t44 130t123 54t123 -54t44 -130zM650 674l-372 -674h-112l372 674h112zM278 500q0 25 -13 41.5t-37 16.5 q-25 0 -37.5 -16.5t-12.5 -41.5q0 -57 50 -57t50 57zM639 170q0 25 -13 41.5t-37 16.5q-25 0 -37.5 -16.5t-12.5 -41.5q0 -57 50 -57t50 57z" />
<glyph unicode="&#x26;" horiz-adv-x="806" d="M643 299v-299h-301q-110 0 -178 48.5t-68 149.5q0 55 27 100t73 66q-74 55 -74 136q0 91 61.5 139t162.5 48q67 0 117 -24.5t99 -75.5l-83 -87q-30 33 -60.5 48t-73.5 15q-99 0 -99 -61q0 -35 32.5 -55.5t90.5 -20.5h54v-127h-53q-74 0 -112 -23t-38 -62 q0 -37 32.5 -61.5t89.5 -24.5h177v298h224v-127h-100z" />
<glyph unicode="'" horiz-adv-x="250" d="M155 674l-8 -245h-44l-8 245h60z" />
<glyph unicode="(" horiz-adv-x="307" d="M303 -104h-80q-72 91 -116.5 195.5t-44.5 245.5q0 241 161 441h80q-167 -211 -167 -441t167 -441z" />
<glyph unicode=")" horiz-adv-x="307" d="M5 778h80q72 -91 116.5 -195.5t44.5 -245.5q0 -241 -161 -441h-80q167 211 167 441t-167 441z" />
<glyph unicode="*" horiz-adv-x="429" d="M250 708v-153l141 46l23 -70l-142 -44l95 -127l-61 -43l-93 128l-93 -128l-61 43l95 127l-142 44l23 70l141 -46v153h74z" />
<glyph unicode="+" d="M277 23h-55v202h-202v55h202v203h55v-203h203v-55h-203v-202z" />
<glyph unicode="," horiz-adv-x="250" d="M143 -136h-80v264h124v-123z" />
<glyph unicode="-" horiz-adv-x="250" d="M20 279v130h210v-130h-210z" />
<glyph unicode="." horiz-adv-x="250" d="M187 0h-124v128h124v-128z" />
<glyph unicode="/" horiz-adv-x="336" d="M350 674l-252 -674h-112l252 674h112z" />
<glyph unicode="0" horiz-adv-x="578" d="M412 337q0 55 -5 93t-18 69.5t-38 47t-62 15.5q-66 0 -94 -58t-28 -167q0 -222 122 -222q49 0 77 29t37 74.5t9 118.5zM536 339q0 -161 -62.5 -256.5t-184.5 -95.5q-121 0 -184 95.5t-63 256.5t62.5 254.5t184.5 93.5t184.5 -93.5t62.5 -254.5z" />
<glyph unicode="1" horiz-adv-x="353" d="M113 658l123 41v-699h-123v658z" />
<glyph unicode="2" horiz-adv-x="555" d="M133 481l-96 68q48 75 102.5 106.5t126.5 31.5q97 0 158.5 -54.5t61.5 -156.5q0 -62 -40 -122t-118 -133l-98 -92h290v-129h-485v104q51 49 114 106t94.5 86t63 63t43.5 60t12 55q0 43 -30 65t-69 22q-41 0 -70.5 -17t-59.5 -63z" />
<glyph unicode="3" horiz-adv-x="554" d="M261 687q101 0 162.5 -48t61.5 -139q0 -89 -78 -147q48 -22 76 -62t28 -93q0 -102 -69 -156.5t-177 -54.5q-130 0 -235 107l89 88q57 -75 146 -75q122 0 122 91q0 47 -36 67t-114 20h-93v129h94q58 0 90.5 22.5t32.5 62.5q0 28 -27.5 46t-71.5 18q-43 0 -73.5 -15 t-60.5 -48l-83 87q49 51 99 75.5t117 24.5z" />
<glyph unicode="4" horiz-adv-x="579" d="M463 0h-123v163h-311v106l302 405h132v-382h84v-129h-84v-163zM191 292h149v200z" />
<glyph unicode="5" horiz-adv-x="526" d="M493 214q0 -99 -64.5 -163t-179.5 -64q-73 0 -129 26.5t-108 85.5l89 88q50 -80 148 -80q57 0 89 27.5t32 75.5q0 96 -146 96q-98 0 -159 -13v381h400v-128h-277v-116h49q52 0 96 -11t81 -35.5t58 -67.5t21 -102z" />
<glyph unicode="6" horiz-adv-x="601" d="M415 215q0 46 -32.5 76t-89.5 30q-77 0 -128 -43q0 -75 34 -121.5t96 -46.5q55 0 87.5 27.5t32.5 77.5zM293 -13q-66 0 -115.5 26t-78.5 71.5t-43 101.5t-14 121q0 72 12.5 133.5t41.5 120t87 92.5t139 34q67 0 117.5 -26t103.5 -81l-88 -87q-60 71 -140 71 q-60 0 -98.5 -42t-48.5 -113q62 28 138 28q107 0 170 -60.5t63 -147.5q0 -106 -69 -174t-177 -68z" />
<glyph unicode="7" horiz-adv-x="503" d="M467 674v-99l-107 -184q-49 -84 -68.5 -149.5t-19.5 -143.5v-98h-122v97q0 94 27.5 179.5t100.5 197.5l47 72h-297v128h439z" />
<glyph unicode="8" horiz-adv-x="598" d="M298 110q56 0 91 23t35 64q0 43 -33.5 67.5t-91.5 24.5q-59 0 -93 -24.5t-34 -67.5q0 -41 35 -64t91 -23zM300 413q45 0 77 21t32 54q0 34 -30 54.5t-79 20.5t-78 -20t-29 -54q0 -33 31.5 -54.5t75.5 -21.5zM299 -13q-114 0 -181.5 56t-67.5 153q0 103 96 160 q-75 54 -75 135q0 88 66.5 142t161.5 54q96 0 162.5 -54t66.5 -142q0 -92 -76 -135q96 -56 96 -160q0 -97 -67.5 -153t-181.5 -56z" />
<glyph unicode="9" horiz-adv-x="601" d="M186 459q0 -46 32.5 -76t89.5 -30q77 0 128 43v8q0 69 -34.5 114.5t-95.5 45.5q-55 0 -87.5 -27.5t-32.5 -77.5zM308 687q66 0 115.5 -26t78.5 -71.5t43 -101.5t14 -121q0 -72 -12.5 -133.5t-41.5 -120t-87 -92.5t-139 -34q-67 0 -117.5 26t-103.5 81l88 87 q60 -71 140 -71q60 0 98.5 42t48.5 113q-30 -13 -69 -21q-34 -7 -69 -7q-107 0 -170 60.5t-63 147.5q0 106 69 174t177 68z" />
<glyph unicode=":" horiz-adv-x="250" d="M187 337h-124v128h124v-128zM187 0h-124v128h124v-128z" />
<glyph unicode=";" horiz-adv-x="250" d="M143 -136h-80v264h124v-123zM187 337h-124v128h124v-128z" />
<glyph unicode="&#x3c;" d="M109 636v-419l123 -121v61l-82 108v74l202 -201v-61l39 -41v250l-39 39v-76l-202 201v65l82 -54v54zM420 0h-338v675h338v-675z" />
<glyph unicode="=" d="M480 125h-460v55h460v-55zM480 325h-460v55h460v-55z" />
<glyph unicode="&#x3e;" d="M109 636v-419l123 -121v61l-82 108v74l202 -201v-61l39 -41v250l-39 39v-76l-202 201v65l82 -54v54zM420 0h-338v675h338v-675z" />
<glyph unicode="?" horiz-adv-x="439" d="M266 288v-147h-124v211q80 52 112 82.5t32 64.5q0 64 -73 64q-55 0 -108 -66l-81 87q46 52 92 77.5t102 25.5q78 0 133 -47t55 -138q0 -71 -37.5 -120.5t-102.5 -93.5zM266 0h-124v128h124v-128z" />
<glyph unicode="@" horiz-adv-x="784" d="M361 114h280v-129h-250q-155 0 -244 82.5t-89 253.5q0 87 28.5 158t76 116t106 69t119.5 24q65 0 124 -20t107.5 -58.5t77.5 -103.5t29 -148q0 -80 -35 -131.5t-87 -51.5h-34v233q0 75 -51.5 113t-126.5 38q-70 0 -128 -37l28 -56q42 30 95 30q55 0 87.5 -24.5 t32.5 -75.5v-38q-59 11 -138 11q-70 0 -115 -32t-45 -98q0 -62 45 -93.5t107 -31.5zM507 296v-120h-138q-48 0 -72.5 13t-24.5 48q0 70 108 70q54 0 127 -11z" />
<glyph unicode="A" horiz-adv-x="675" d="M526 0l-61 165h-255l-61 -165h-135l250 674h147l250 -674h-135zM338 508l-82 -216h162z" />
<glyph unicode="B" horiz-adv-x="682" d="M469 472q0 34 -27 53.5t-78 19.5h-146v-144h145q106 0 106 71zM632 197q0 -102 -72.5 -149.5t-191.5 -47.5h-274v674h278q98 0 163 -47.5t65 -146.5q0 -84 -68 -137q49 -17 74.5 -57t25.5 -89zM501 202q0 69 -144 69h-139v-142h143q75 0 107.5 16t32.5 57z" />
<glyph unicode="C" horiz-adv-x="682" d="M50 337q0 92 36.5 170.5t110 129t169.5 50.5q172 0 279 -146l-95 -89q-41 60 -83.5 85.5t-98.5 25.5q-83 0 -134.5 -65t-51.5 -160q0 -101 55.5 -163t133.5 -62q105 0 179 105l95 -89q-53 -72 -119.5 -106t-159.5 -34q-144 0 -230 103t-86 245z" />
<glyph unicode="D" horiz-adv-x="742" d="M560 337q0 94 -59.5 150.5t-161.5 56.5h-121v-414h121q107 0 164 57.5t57 149.5zM692 338q0 -147 -91 -242.5t-257 -95.5h-250v674h250q169 0 258.5 -95.5t89.5 -240.5z" />
<glyph unicode="E" horiz-adv-x="626" d="M563 0h-469v674h449v-129h-325v-116h295v-130h-295v-171h345v-128z" />
<glyph unicode="F" horiz-adv-x="611" d="M531 245h-313v-245h-124v674h467v-128h-343v-172h313v-129z" />
<glyph unicode="G" horiz-adv-x="694" d="M180 338q0 -101 61.5 -164t154.5 -63q63 0 111 16v102h-174v131h298v-321q-105 -52 -240 -52q-150 0 -246.5 94t-96.5 256q0 92 36 170.5t109.5 129t172.5 50.5q172 0 279 -146l-95 -89q-41 60 -83.5 85.5t-98.5 25.5q-85 0 -136.5 -67.5t-51.5 -157.5z" />
<glyph unicode="H" horiz-adv-x="779" d="M685 0h-124v272h-343v-272h-124v674h124v-273h343v273h124v-674z" />
<glyph unicode="I" horiz-adv-x="311" d="M218 0h-124v674h124v-674z" />
<glyph unicode="J" horiz-adv-x="512" d="M328 674h124v-461q0 -110 -54 -168t-162 -58q-133 0 -229 138l96 91q50 -105 137 -105q42 0 65 27t23 76v460z" />
<glyph unicode="K" horiz-adv-x="684" d="M218 0h-124v674h124v-281l266 281h173l-323 -336l322 -338h-177l-261 283v-283z" />
<glyph unicode="L" horiz-adv-x="606" d="M556 0h-462v674h124v-546h338v-128z" />
<glyph unicode="M" horiz-adv-x="847" d="M753 0h-124v454l-151 -265h-106l-154 272v-461h-124v674h155l175 -319l173 319h156v-674z" />
<glyph unicode="N" horiz-adv-x="780" d="M686 0h-162l-306 476v-476h-124v674h162l306 -482v482h124v-674z" />
<glyph unicode="O" horiz-adv-x="750" d="M379 111q90 0 141.5 65t51.5 160t-52 161t-141 66t-141.5 -65.5t-52.5 -159.5q0 -95 52.5 -161t141.5 -66zM379 -13q-143 0 -234.5 103.5t-91.5 247.5q0 143 91 246t235 103q143 0 234 -103.5t91 -247.5q0 -143 -91 -246t-234 -103z" />
<glyph unicode="P" horiz-adv-x="641" d="M467 446q0 43 -33.5 70.5t-93.5 27.5h-122v-196h121q64 0 96 26t32 72zM597 448q0 -101 -68.5 -165.5t-186.5 -64.5h-124v-218h-124v674h248q114 0 184.5 -63.5t70.5 -162.5z" />
<glyph unicode="Q" horiz-adv-x="750" d="M379 111q90 0 141.5 65t51.5 160t-52 161t-141 66t-141.5 -65.5t-52.5 -159.5q0 -95 52.5 -161t141.5 -66zM509 -176l-117 163h-13q-143 0 -234.5 103.5t-91.5 247.5q0 143 91 246t235 103q143 0 234 -103.5t91 -247.5q0 -103 -50 -189.5t-133 -126.5l149 -196h-161z" />
<glyph unicode="R" horiz-adv-x="688" d="M643 0h-154l-166 245h-105v-245h-124v674h269q106 0 172 -55t66 -151q0 -76 -42 -127.5t-102 -72.5zM469 467q0 78 -108 78h-143v-170h137q114 0 114 92z" />
<glyph unicode="S" horiz-adv-x="657" d="M600 559l-92 -90q-54 94 -165 94q-55 0 -86 -18t-31 -50q0 -26 20.5 -43.5t54 -27t73.5 -18.5t80 -24t73.5 -36.5t54 -61.5t20.5 -95q0 -92 -76.5 -147t-189.5 -55q-92 0 -161.5 28.5t-122.5 98.5l93 89q59 -92 193 -92q56 0 94 19t38 57q0 30 -28 50t-69.5 29 t-90.5 24.5t-90.5 34.5t-69.5 62t-28 104q0 82 64.5 139t182.5 57q169 0 259 -128z" />
<glyph unicode="T" horiz-adv-x="630" d="M610 545h-233v-545h-124v545h-233v129h590v-129z" />
<glyph unicode="U" horiz-adv-x="779" d="M389 -13q-131 0 -213 68.5t-82 192.5v426h124v-427q0 -67 47.5 -101.5t123.5 -34.5q79 0 125.5 34t46.5 102v427h124v-426q0 -125 -81 -193t-215 -68z" />
<glyph unicode="V" horiz-adv-x="675" d="M149 674l189 -508l188 508h135l-250 -674h-147l-250 674h135z" />
<glyph unicode="W" horiz-adv-x="940" d="M909 674l-158 -674h-159l-123 476l-125 -476h-153l-161 674h131l115 -464l118 464h155l120 -465l111 465h129z" />
<glyph unicode="X" horiz-adv-x="682" d="M663 0h-157l-166 236l-165 -236h-155l238 340l-236 334h158l163 -232l164 232h154l-235 -335z" />
<glyph unicode="Y" horiz-adv-x="642" d="M383 0h-124v308l-260 366h158l166 -238l161 238h160l-261 -367v-307z" />
<glyph unicode="Z" horiz-adv-x="620" d="M562 572l-338 -444h356v-128h-530v101l337 445h-320v128h495v-102z" />
<glyph unicode="[" horiz-adv-x="307" d="M282 -104h-213v882h213v-74h-139v-734h139v-74z" />
<glyph unicode="\" horiz-adv-x="336" d="M238 0l-252 674h112l252 -674h-112z" />
<glyph unicode="]" horiz-adv-x="307" d="M24 778h213v-882h-213v74h139v734h-139v74z" />
<glyph unicode="^" d="M109 636v-419l123 -121v61l-82 108v74l202 -201v-61l39 -41v250l-39 39v-76l-202 201v65l82 -54v54zM420 0h-338v675h338v-675z" />
<glyph unicode="_" d="M0 -268v130h500v-130h-500z" />
<glyph unicode="`" d="M242 752l70 -93h-145l-69 93h144z" />
<glyph unicode="&#x2cb;" d="M242 752l70 -93h-145l-69 93h144z" />
<glyph unicode="a" horiz-adv-x="675" d="M526 0l-61 165h-255l-61 -165h-135l250 674h147l250 -674h-135zM338 508l-82 -216h162z" />
<glyph unicode="b" horiz-adv-x="682" d="M469 472q0 34 -27 53.5t-78 19.5h-146v-144h145q106 0 106 71zM632 197q0 -102 -72.5 -149.5t-191.5 -47.5h-274v674h278q98 0 163 -47.5t65 -146.5q0 -84 -68 -137q49 -17 74.5 -57t25.5 -89zM501 199q0 72 -144 72h-139v-142h143q75 0 107.5 15.5t32.5 54.5z" />
<glyph unicode="c" horiz-adv-x="682" d="M50 337q0 92 36.5 170.5t110 129t169.5 50.5q172 0 279 -146l-95 -89q-41 60 -83.5 85.5t-98.5 25.5q-82 0 -134 -68t-52 -157q0 -90 51.5 -158.5t134.5 -68.5q56 0 97.5 25.5t84.5 80.5l95 -91q-55 -75 -114.5 -107t-162.5 -32q-148 0 -233 98.5t-85 251.5z" />
<glyph unicode="d" horiz-adv-x="742" d="M560 337q0 94 -59.5 150.5t-161.5 56.5h-121v-414h121q107 0 164 57.5t57 149.5zM692 338q0 -147 -91 -242.5t-257 -95.5h-250v674h250q169 0 258.5 -95.5t89.5 -240.5z" />
<glyph unicode="e" horiz-adv-x="626" d="M563 0h-469v674h449v-129h-325v-116h295v-130h-295v-171h345v-128z" />
<glyph unicode="f" horiz-adv-x="611" d="M531 245h-313v-245h-124v674h467v-128h-343v-172h313v-129z" />
<glyph unicode="g" horiz-adv-x="694" d="M180 338q0 -101 61.5 -164t154.5 -63q63 0 111 16v102h-174v131h298v-321q-105 -52 -240 -52q-150 0 -246.5 94t-96.5 256q0 92 36 170.5t109.5 129t172.5 50.5q172 0 279 -146l-95 -89q-41 60 -83.5 85.5t-98.5 25.5q-85 0 -136.5 -67.5t-51.5 -157.5z" />
<glyph unicode="h" horiz-adv-x="779" d="M685 0h-124v272h-343v-272h-124v674h124v-273h343v273h124v-674z" />
<glyph unicode="i" horiz-adv-x="311" d="M218 0h-124v674h124v-674z" />
<glyph unicode="j" horiz-adv-x="512" d="M328 674h124v-461q0 -110 -54 -168t-162 -58q-73 0 -124 30.5t-105 107.5l96 91q50 -105 137 -105q42 0 65 27t23 76v460z" />
<glyph unicode="k" horiz-adv-x="684" d="M218 0h-124v674h124v-281l266 281h173l-323 -336l322 -338h-177l-261 283v-283z" />
<glyph unicode="l" horiz-adv-x="606" d="M556 0h-462v674h124v-546h338v-128z" />
<glyph unicode="m" horiz-adv-x="847" d="M753 0h-124v454l-151 -265h-106l-154 272v-461h-124v674h155l175 -319l173 319h156v-674z" />
<glyph unicode="n" horiz-adv-x="780" d="M686 0h-162l-306 476v-476h-124v674h162l306 -482v482h124v-674z" />
<glyph unicode="o" horiz-adv-x="750" d="M379 111q90 0 141.5 65t51.5 160t-52 161t-141 66t-141.5 -65.5t-52.5 -159.5q0 -95 52.5 -161t141.5 -66zM379 -13q-143 0 -234.5 103.5t-91.5 247.5q0 143 91 246t235 103q143 0 234 -103.5t91 -247.5q0 -143 -91 -246t-234 -103z" />
<glyph unicode="p" horiz-adv-x="641" d="M467 446q0 43 -33.5 70.5t-93.5 27.5h-122v-196h121q64 0 96 26t32 72zM597 448q0 -101 -68.5 -165.5t-186.5 -64.5h-124v-218h-124v674h248q114 0 184.5 -63.5t70.5 -162.5z" />
<glyph unicode="q" horiz-adv-x="750" d="M379 111q90 0 141.5 65t51.5 160t-52 161t-141 66t-141.5 -65.5t-52.5 -159.5q0 -95 52.5 -161t141.5 -66zM509 -176l-117 163h-13q-143 0 -234.5 103.5t-91.5 247.5q0 143 91 246t235 103q143 0 234 -103.5t91 -247.5q0 -103 -50 -189.5t-133 -126.5l149 -196h-161z" />
<glyph unicode="r" horiz-adv-x="688" d="M643 0h-154l-166 245h-105v-245h-124v674h269q106 0 172 -55t66 -151q0 -76 -42 -127.5t-102 -72.5zM469 467q0 78 -108 78h-143v-170h137q114 0 114 92z" />
<glyph unicode="s" horiz-adv-x="657" d="M600 559l-92 -90q-54 94 -165 94q-55 0 -86 -18t-31 -50q0 -26 20.5 -43.5t54 -27t73.5 -18.5t80 -24t73.5 -36.5t54 -61.5t20.5 -95q0 -92 -76.5 -147t-189.5 -55q-92 0 -161.5 28.5t-122.5 98.5l93 89q59 -92 193 -92q56 0 94 19t38 57q0 30 -28 50t-69.5 29 t-90.5 24.5t-90.5 34.5t-69.5 62t-28 104q0 82 64.5 139t182.5 57q169 0 259 -128z" />
<glyph unicode="t" horiz-adv-x="630" d="M610 545h-233v-545h-124v545h-233v129h590v-129z" />
<glyph unicode="u" horiz-adv-x="779" d="M389 -13q-131 0 -213 68.5t-82 192.5v426h124v-427q0 -67 47.5 -101.5t123.5 -34.5q79 0 125.5 34t46.5 102v427h124v-426q0 -125 -81 -193t-215 -68z" />
<glyph unicode="v" horiz-adv-x="675" d="M149 674l189 -508l188 508h135l-250 -674h-147l-250 674h135z" />
<glyph unicode="w" horiz-adv-x="940" d="M909 674l-158 -674h-159l-123 476l-125 -476h-153l-161 674h131l115 -464l118 464h155l120 -465l111 465h129z" />
<glyph unicode="x" horiz-adv-x="682" d="M663 0h-157l-166 236l-165 -236h-155l238 340l-236 334h158l163 -232l164 232h154l-235 -335z" />
<glyph unicode="y" horiz-adv-x="642" d="M383 0h-124v308l-260 366h158l166 -238l161 238h160l-261 -367v-307z" />
<glyph unicode="z" horiz-adv-x="620" d="M562 572l-338 -444h356v-128h-530v101l337 445h-320v128h495v-102z" />
<glyph unicode="{" d="M109 636v-419l123 -121v61l-82 108v74l202 -201v-61l39 -41v250l-39 39v-76l-202 201v65l82 -54v54zM420 0h-338v675h338v-675z" />
<glyph unicode="|" horiz-adv-x="250" d="M187 -190h-124v972h124v-972z" />
<glyph unicode="}" d="M109 636v-419l123 -121v61l-82 108v74l202 -201v-61l39 -41v250l-39 39v-76l-202 201v65l82 -54v54zM420 0h-338v675h338v-675z" />
<glyph unicode="~" d="M109 636v-419l123 -121v61l-82 108v74l202 -201v-61l39 -41v250l-39 39v-76l-202 201v65l82 -54v54zM420 0h-338v675h338v-675z" />
<glyph unicode="&#xa0;" />
<glyph unicode="&#xa1;" horiz-adv-x="250" d="M61 533h124v-533h-124v533zM61 674h124v-128h-124v128z" />
<glyph unicode="&#xa2;" d="M109 636v-419l123 -121v61l-82 108v74l202 -201v-61l39 -41v250l-39 39v-76l-202 201v65l82 -54v54zM420 0h-338v675h338v-675z" />
<glyph unicode="&#xa3;" horiz-adv-x="519" d="M51 404h61v93q0 36 8 67.5t26.5 60.5t53.5 45.5t84 16.5q56 0 99.5 -24t85.5 -77l-89 -82q-24 36 -41 47.5t-43 11.5q-63 0 -63 -66v-93h175v-132h-175v-143h227v-129h-409v129h61v143h-61v132z" />
<glyph unicode="&#xa4;" d="M109 636v-419l123 -121v61l-82 108v74l202 -201v-61l39 -41v250l-39 39v-76l-202 201v65l82 -54v54zM420 0h-338v675h338v-675z" />
<glyph unicode="&#xa5;" d="M109 636v-419l123 -121v61l-82 108v74l202 -201v-61l39 -41v250l-39 39v-76l-202 201v65l82 -54v54zM420 0h-338v675h338v-675z" />
<glyph unicode="&#xa6;" d="M109 636v-419l123 -121v61l-82 108v74l202 -201v-61l39 -41v250l-39 39v-76l-202 201v65l82 -54v54zM420 0h-338v675h338v-675z" />
<glyph unicode="&#xa7;" d="M109 636v-419l123 -121v61l-82 108v74l202 -201v-61l39 -41v250l-39 39v-76l-202 201v65l82 -54v54zM420 0h-338v675h338v-675z" />
<glyph unicode="&#xa8;" d="M190 659h-124v93h124v-93zM380 659h-124v93h124v-93z" />
<glyph unicode="&#xa9;" horiz-adv-x="783" d="M207 340q0 83 52.5 143t138.5 60q93 0 147 -64l-48 -44q-26 25 -47 36.5t-51 11.5q-54 0 -87 -39.5t-33 -102.5t33 -104.5t87 -41.5q62 0 104 52l42 -44q-54 -64 -147 -64q-86 0 -138.5 60t-52.5 141zM731 337q0 -141 -99 -240.5t-240 -99.5t-240.5 100t-99.5 240 q0 141 99.5 240t240.5 99t240 -99.5t99 -239.5zM677 337q0 117 -83.5 199.5t-201.5 82.5q-119 0 -202.5 -82.5t-83.5 -199.5t84 -200t202 -83t201.5 83t83.5 200z" />
<glyph unicode="&#xaa;" d="M109 636v-419l123 -121v61l-82 108v74l202 -201v-61l39 -41v250l-39 39v-76l-202 201v65l82 -54v54zM420 0h-338v675h338v-675z" />
<glyph unicode="&#xab;" horiz-adv-x="410" d="M112 164l-90 173l90 173h132l-93 -173l93 -173h-132zM258 164l-90 173l90 173h132l-93 -173l93 -173h-132z" />
<glyph unicode="&#xac;" d="M109 636v-419l123 -121v61l-82 108v74l202 -201v-61l39 -41v250l-39 39v-76l-202 201v65l82 -54v54zM420 0h-338v675h338v-675z" />
<glyph unicode="&#xae;" horiz-adv-x="783" d="M731 337q0 -141 -99 -240.5t-240 -99.5t-240.5 100t-99.5 240q0 141 99.5 240t240.5 99t240 -99t99 -240zM677 337q0 117 -83.5 199.5t-201.5 82.5q-119 0 -202.5 -82.5t-83.5 -199.5t84 -200t202 -83t201.5 83t83.5 200zM321 146h-66v391h157q54 0 91 -28t37 -80 q0 -83 -94 -108l126 -175h-80l-112 165q-10 -1 -30 -1h-29v-164zM472 426q0 26 -20 41.5t-54 15.5h-77v-120h71q33 0 56.5 15t23.5 48z" />
<glyph unicode="&#xaf;" d="M99 659v94h273v-94h-273z" />
<glyph unicode="&#x2c9;" d="M99 659v94h273v-94h-273z" />
<glyph unicode="&#xb0;" d="M109 636v-419l123 -121v61l-82 108v74l202 -201v-61l39 -41v250l-39 39v-76l-202 201v65l82 -54v54zM420 0h-338v675h338v-675z" />
<glyph unicode="&#xb1;" d="M109 636v-419l123 -121v61l-82 108v74l202 -201v-61l39 -41v250l-39 39v-76l-202 201v65l82 -54v54zM420 0h-338v675h338v-675z" />
<glyph unicode="&#xb2;" d="M109 636v-419l123 -121v61l-82 108v74l202 -201v-61l39 -41v250l-39 39v-76l-202 201v65l82 -54v54zM420 0h-338v675h338v-675z" />
<glyph unicode="&#xb3;" d="M109 636v-419l123 -121v61l-82 108v74l202 -201v-61l39 -41v250l-39 39v-76l-202 201v65l82 -54v54zM420 0h-338v675h338v-675z" />
<glyph unicode="&#xb4;" d="M118 659l70 93h144l-69 -93h-145z" />
<glyph unicode="&#x2ca;" d="M118 659l70 93h144l-69 -93h-145z" />
<glyph unicode="&#xb5;" d="M109 636v-419l123 -121v61l-82 108v74l202 -201v-61l39 -41v250l-39 39v-76l-202 201v65l82 -54v54zM420 0h-338v675h338v-675z" />
<glyph unicode="&#xb6;" horiz-adv-x="589" d="M381 190h-73q-117 0 -186 70t-69 172q0 103 68 172.5t187 69.5h197v-628q0 -110 -54 -168t-162 -58q-73 0 -124 30.5t-105 107.5l96 91q50 -105 137 -105q42 0 65 27t23 76v143z" />
<glyph unicode="&#xb7;" horiz-adv-x="250" d="M186 279h-124v128h124v-128z" />
<glyph unicode="&#xb8;" d="M118 -89l70 93h144l-69 -93h-145z" />
<glyph unicode="&#xb9;" d="M109 636v-419l123 -121v61l-82 108v74l202 -201v-61l39 -41v250l-39 39v-76l-202 201v65l82 -54v54zM420 0h-338v675h338v-675z" />
<glyph unicode="&#xba;" d="M109 636v-419l123 -121v61l-82 108v74l202 -201v-61l39 -41v250l-39 39v-76l-202 201v65l82 -54v54zM420 0h-338v675h338v-675z" />
<glyph unicode="&#xbb;" horiz-adv-x="410" d="M251 337l-90 -173h-132l93 173l-93 173h132zM400 337l-90 -173h-132l93 173l-93 173h132z" />
<glyph unicode="&#xbc;" d="M109 636v-419l123 -121v61l-82 108v74l202 -201v-61l39 -41v250l-39 39v-76l-202 201v65l82 -54v54zM420 0h-338v675h338v-675z" />
<glyph unicode="&#xbd;" d="M109 636v-419l123 -121v61l-82 108v74l202 -201v-61l39 -41v250l-39 39v-76l-202 201v65l82 -54v54zM420 0h-338v675h338v-675z" />
<glyph unicode="&#xbe;" d="M109 636v-419l123 -121v61l-82 108v74l202 -201v-61l39 -41v250l-39 39v-76l-202 201v65l82 -54v54zM420 0h-338v675h338v-675z" />
<glyph unicode="&#xbf;" horiz-adv-x="439" d="M173 386v147h124v-211q-80 -52 -112 -82.5t-32 -64.5q0 -64 73 -64q55 0 108 66l81 -87q-46 -52 -92 -77.5t-102 -25.5q-78 0 -133 47t-55 138q0 71 37.5 120.5t102.5 93.5zM173 674h124v-128h-124v128z" />
<glyph unicode="&#xc0;" horiz-adv-x="675" d="M526 0l-61 165h-255l-61 -165h-135l250 674h147l250 -674h-135zM338 508l-82 -216h162zM400 687h-145l-48 65h144z" />
<glyph unicode="&#xc1;" horiz-adv-x="675" d="M526 0l-61 165h-255l-61 -165h-135l250 674h147l250 -674h-135zM338 508l-82 -216h162zM416 687h-145l49 65h144z" />
<glyph unicode="&#xc2;" horiz-adv-x="675" d="M526 0l-61 165h-255l-61 -165h-135l250 674h147l250 -674h-135zM429 659l-10 28h-163l-12 -28h-42l69 93h131l69 -93h-42zM338 508l-82 -216h162z" />
<glyph unicode="&#xc3;" horiz-adv-x="675" d="M526 0l-61 165h-255l-61 -165h-135l250 674h147l250 -674h-135zM338 508l-82 -216h162zM430 659l-9 28h-165l-21 -55h-34q-3 18 -0.5 40.5t8.5 42t24 33t44 13.5q15 0 50 -7t42 -7q20 0 13 33h89q0 -99 -41 -121z" />
<glyph unicode="&#xc4;" horiz-adv-x="675" d="M256 687l-11 -28h-64v97h124v-69h-49zM430 659l-12 28h-47v69h124v-97h-65zM526 0l-61 165h-255l-61 -165h-135l250 674h147l250 -674h-135zM338 508l-82 -216h162z" />
<glyph unicode="&#xc5;" horiz-adv-x="675" d="M526 0l-61 165h-255l-61 -165h-135l250 674h147l250 -674h-135zM338 508l-82 -216h162zM428 687h-178v5q0 38 24 63t65 25t65 -25.5t24 -62.5v-5z" />
<glyph unicode="&#xc6;" horiz-adv-x="972" d="M909 0h-448v271h-211l-101 -271h-135l250 674h625v-129h-304v-144h274v-130h-274v-143h324v-128zM461 545h-109l-54 -144h163v144z" />
<glyph unicode="&#xc7;" horiz-adv-x="682" d="M50 337q0 92 36.5 170.5t110 129t169.5 50.5q172 0 279 -146l-95 -89q-41 60 -83.5 85.5t-98.5 25.5q-83 0 -134.5 -65t-51.5 -160q0 -101 55.5 -163t133.5 -62q105 0 179 105l95 -89q-53 -72 -119.5 -106t-159.5 -34q-144 0 -230 103t-86 245zM447 -19l-52 -70h-145 l55 70q19 -5 62 -5t80 5z" />
<glyph unicode="&#xc8;" horiz-adv-x="626" d="M396 687h-145l-48 65h144zM563 0h-469v674h449v-129h-325v-116h295v-130h-295v-171h345v-128z" />
<glyph unicode="&#xc9;" horiz-adv-x="626" d="M411 687h-145l49 65h144zM563 0h-469v674h449v-129h-325v-116h295v-130h-295v-171h345v-128z" />
<glyph unicode="&#xca;" horiz-adv-x="626" d="M436 687h-227l48 65h131zM563 0h-469v674h449v-129h-325v-116h295v-130h-295v-171h345v-128z" />
<glyph unicode="&#xcb;" horiz-adv-x="626" d="M298 687h-124v69h124v-69zM488 687h-124v69h124v-69zM563 0h-469v674h449v-129h-325v-116h295v-130h-295v-171h345v-128z" />
<glyph unicode="&#xcc;" horiz-adv-x="311" d="M204 687h-113l-48 65h112zM218 0h-124v674h124v-674z" />
<glyph unicode="&#xcd;" horiz-adv-x="311" d="M220 687h-126l49 65h125zM218 0h-124v674h124v-674z" />
<glyph unicode="&#xce;" horiz-adv-x="311" d="M218 0h-124v674h124v-674zM231 659v28h-150v-28h-42l69 93h94l73 -93h-44z" />
<glyph unicode="&#xcf;" horiz-adv-x="311" d="M81 687v-28h-44v97h114v-69h-70zM231 687h-67v69h114v-97h-47v28zM218 0h-124v674h124v-674z" />
<glyph unicode="&#xd0;" horiz-adv-x="742" d="M10 300v130h84v244h250q169 0 258.5 -95.5t89.5 -240.5q0 -147 -91 -242.5t-257 -95.5h-250v300h-84zM218 544v-114h152v-130h-152v-170h121q107 0 164 57.5t57 149.5q0 94 -59.5 150.5t-161.5 56.5h-121z" />
<glyph unicode="&#xd1;" horiz-adv-x="780" d="M686 0h-162l-306 476v-476h-124v674h162l306 -482v482h124v-674zM300 632l-32 55q13 74 75 74q15 0 50.5 -7t43.5 -7q18 0 11 33h89q0 -26 -2 -42.5t-8.5 -37t-23 -31t-42.5 -10.5q-14 0 -43.5 3t-45.5 3q-22 0 -16 -33h-56z" />
<glyph unicode="&#xd2;" horiz-adv-x="750" d="M404 752l45 -62q-24 4 -77 4l-66 -4l-46 62h144zM379 111q90 0 141.5 65t51.5 160t-52 161t-141 66t-141.5 -65.5t-52.5 -159.5q0 -95 52.5 -161t141.5 -66zM379 -13q-143 0 -234.5 103.5t-91.5 247.5q0 143 91 246t235 103q143 0 234 -103.5t91 -247.5q0 -143 -91 -246 t-234 -103z" />
<glyph unicode="&#xd3;" horiz-adv-x="750" d="M506 752l-45 -63q-25 5 -76 5q-43 0 -69 -2l46 60h144zM379 111q90 0 141.5 65t51.5 160t-52 161t-141 66t-141.5 -65.5t-52.5 -159.5q0 -95 52.5 -161t141.5 -66zM379 -13q-143 0 -234.5 103.5t-91.5 247.5q0 143 91 246t235 103q143 0 234 -103.5t91 -247.5 q0 -143 -91 -246t-234 -103z" />
<glyph unicode="&#xd4;" horiz-adv-x="750" d="M452 752l54 -75q-65 17 -117 17q-67 0 -119 -11l51 69h131zM379 111q90 0 141.5 65t51.5 160t-52 161t-141 66t-141.5 -65.5t-52.5 -159.5q0 -95 52.5 -161t141.5 -66zM379 -13q-143 0 -234.5 103.5t-91.5 247.5q0 143 91 246t235 103q143 0 234 -103.5t91 -247.5 q0 -143 -91 -246t-234 -103z" />
<glyph unicode="&#xd5;" horiz-adv-x="750" d="M495 681q-55 12 -123 12q-71 0 -130 -21q2 26 7.5 43.5t22.5 31.5t46 14q18 0 50 -7t43 -7q18 0 11 33h90q0 -64 -17 -99zM379 111q90 0 141.5 65t51.5 160t-52 161t-141 66t-141.5 -65.5t-52.5 -159.5q0 -95 52.5 -161t141.5 -66zM379 -13q-143 0 -234.5 103.5 t-91.5 247.5q0 143 91 246t235 103q143 0 234 -103.5t91 -247.5q0 -143 -91 -246t-234 -103z" />
<glyph unicode="&#xd6;" horiz-adv-x="750" d="M338 698q-20 0 -63.5 -14t-60.5 -28v100h124v-58zM528 756v-92q-15 11 -57.5 22.5t-66.5 11.5v58h124zM379 111q90 0 141.5 65t51.5 160t-52 161t-141 66t-141.5 -65.5t-52.5 -159.5q0 -95 52.5 -161t141.5 -66zM379 -13q-143 0 -234.5 103.5t-91.5 247.5q0 143 91 246 t235 103q143 0 234 -103.5t91 -247.5q0 -143 -91 -246t-234 -103z" />
<glyph unicode="&#xd7;" d="M442 99l-39 -38l-153 152l-153 -152l-39 38l153 153l-153 154l38 39l154 -154l154 154l38 -39l-153 -154z" />
<glyph unicode="&#xd8;" horiz-adv-x="750" d="M701 687l-81 -111q84 -97 84 -240t-91 -246t-234 -103q-89 0 -159 41l-31 -43h-154l92 126q-74 95 -74 227q0 143 91 246t235 103q80 0 141 -32l23 32h158zM572 336q0 77 -31 131l-246 -337q38 -19 84 -19q90 0 141.5 65t51.5 160zM185 338q0 -61 23 -113l237 326 q-30 12 -66 12q-89 0 -141.5 -65.5t-52.5 -159.5z" />
<glyph unicode="&#xd9;" horiz-adv-x="779" d="M389 -13q-131 0 -213 68.5t-82 192.5v426h124v-427q0 -67 47.5 -101.5t123.5 -34.5q79 0 125.5 34t46.5 102v427h124v-426q0 -125 -81 -193t-215 -68zM372 752l70 -93h-145l-69 93h144z" />
<glyph unicode="&#xda;" horiz-adv-x="779" d="M389 -13q-131 0 -213 68.5t-82 192.5v426h124v-427q0 -67 47.5 -101.5t123.5 -34.5q79 0 125.5 34t46.5 102v427h124v-426q0 -125 -81 -193t-215 -68zM303 659l70 93h144l-69 -93h-145z" />
<glyph unicode="&#xdb;" horiz-adv-x="779" d="M389 -13q-131 0 -213 68.5t-82 192.5v426h124v-427q0 -67 47.5 -101.5t123.5 -34.5q79 0 125.5 34t46.5 102v427h124v-426q0 -125 -81 -193t-215 -68zM504 659h-269l69 93h131z" />
<glyph unicode="&#xdc;" horiz-adv-x="779" d="M389 -13q-131 0 -213 68.5t-82 192.5v426h124v-427q0 -67 47.5 -101.5t123.5 -34.5q79 0 125.5 34t46.5 102v427h124v-426q0 -125 -81 -193t-215 -68zM548 659h-124v97h124v-97zM355 659h-124v97h124v-97z" />
<glyph unicode="&#xdd;" horiz-adv-x="642" d="M325 752l70 -93h-145l-69 93h144zM383 0h-124v308l-260 366h158l166 -238l161 238h160l-261 -367v-307z" />
<glyph unicode="&#xde;" horiz-adv-x="641" d="M218 620h114q114 0 184.5 -63.5t70.5 -162.5q0 -101 -68.5 -165.5t-186.5 -64.5h-114v-164h-124v674h124v-54zM457 392q0 43 -33.5 70.5t-93.5 27.5h-112v-196h111q64 0 96 26t32 72z" />
<glyph unicode="&#xdf;" horiz-adv-x="1294" d="M600 559l-92 -90q-54 94 -165 94q-55 0 -86 -18t-31 -50q0 -26 20.5 -43.5t54 -27t73.5 -18.5t80 -24t73.5 -36.5t54 -61.5t20.5 -95q0 -92 -76.5 -147t-189.5 -55q-92 0 -161.5 28.5t-122.5 98.5l93 89q59 -92 193 -92q56 0 94 19t38 57q0 30 -28 50t-69.5 29 t-90.5 24.5t-90.5 34.5t-69.5 62t-28 104q0 82 64.5 139t182.5 57q169 0 259 -128zM1237 559l-92 -90q-54 94 -165 94q-55 0 -86 -18t-31 -50q0 -26 20.5 -43.5t54 -27t73.5 -18.5t80 -24t73.5 -36.5t54 -61.5t20.5 -95q0 -92 -76.5 -147t-189.5 -55q-92 0 -161.5 28.5 t-122.5 98.5l93 89q59 -92 193 -92q56 0 94 19t38 57q0 30 -28 50t-69.5 29t-90.5 24.5t-90.5 34.5t-69.5 62t-28 104q0 82 64.5 139t182.5 57q169 0 259 -128z" />
<glyph unicode="&#xe0;" horiz-adv-x="675" d="M526 0l-61 165h-255l-61 -165h-135l250 674h147l250 -674h-135zM338 508l-82 -216h162zM400 687h-145l-48 65h144z" />
<glyph unicode="&#xe1;" horiz-adv-x="675" d="M526 0l-61 165h-255l-61 -165h-135l250 674h147l250 -674h-135zM338 508l-82 -216h162zM416 687h-145l49 65h144z" />
<glyph unicode="&#xe2;" horiz-adv-x="675" d="M526 0l-61 165h-255l-61 -165h-135l250 674h147l250 -674h-135zM429 659l-10 28h-163l-12 -28h-42l69 93h131l69 -93h-42zM338 508l-82 -216h162z" />
<glyph unicode="&#xe3;" horiz-adv-x="675" d="M526 0l-61 165h-255l-61 -165h-135l250 674h147l250 -674h-135zM338 508l-82 -216h162zM430 659l-9 28h-165l-21 -55h-34q-3 18 -0.5 40.5t8.5 42t24 33t44 13.5q15 0 50 -7t42 -7q20 0 13 33h89q0 -99 -41 -121z" />
<glyph unicode="&#xe4;" horiz-adv-x="675" d="M256 687l-11 -28h-64v97h124v-69h-49zM430 659l-12 28h-47v69h124v-97h-65zM526 0l-61 165h-255l-61 -165h-135l250 674h147l250 -674h-135zM338 508l-82 -216h162z" />
<glyph unicode="&#xe5;" horiz-adv-x="675" d="M526 0l-61 165h-255l-61 -165h-135l250 674h147l250 -674h-135zM338 508l-82 -216h162zM428 687h-178v5q0 38 24 63t65 25t65 -25.5t24 -62.5v-5z" />
<glyph unicode="&#xe6;" horiz-adv-x="972" d="M909 0h-448v271h-211l-101 -271h-135l250 674h625v-129h-304v-144h274v-130h-274v-143h324v-128zM461 545h-109l-54 -144h163v144z" />
<glyph unicode="&#xe7;" horiz-adv-x="682" d="M50 337q0 92 36.5 170.5t110 129t169.5 50.5q172 0 279 -146l-95 -89q-41 60 -83.5 85.5t-98.5 25.5q-83 0 -134.5 -65t-51.5 -160q0 -101 55.5 -163t133.5 -62q105 0 179 105l95 -89q-53 -72 -119.5 -106t-159.5 -34q-144 0 -230 103t-86 245zM447 -19l-52 -70h-145 l55 70q19 -5 62 -5t80 5z" />
<glyph unicode="&#xe8;" horiz-adv-x="626" d="M396 687h-145l-48 65h144zM563 0h-469v674h449v-129h-325v-116h295v-130h-295v-171h345v-128z" />
<glyph unicode="&#xe9;" horiz-adv-x="626" d="M411 687h-145l49 65h144zM563 0h-469v674h449v-129h-325v-116h295v-130h-295v-171h345v-128z" />
<glyph unicode="&#xea;" horiz-adv-x="626" d="M436 687h-227l48 65h131zM563 0h-469v674h449v-129h-325v-116h295v-130h-295v-171h345v-128z" />
<glyph unicode="&#xeb;" horiz-adv-x="626" d="M298 687h-124v69h124v-69zM488 687h-124v69h124v-69zM563 0h-469v674h449v-129h-325v-116h295v-130h-295v-171h345v-128z" />
<glyph unicode="&#xec;" horiz-adv-x="311" d="M204 687h-113l-48 65h112zM218 0h-124v674h124v-674z" />
<glyph unicode="&#xed;" horiz-adv-x="311" d="M220 687h-126l49 65h125zM218 0h-124v674h124v-674z" />
<glyph unicode="&#xee;" horiz-adv-x="311" d="M218 0h-124v674h124v-674zM231 659v28h-150v-28h-42l69 93h94l73 -93h-44z" />
<glyph unicode="&#xef;" horiz-adv-x="311" d="M81 687v-28h-44v97h114v-69h-70zM231 687h-67v69h114v-97h-47v28zM218 0h-124v674h124v-674z" />
<glyph unicode="&#xf0;" horiz-adv-x="742" d="M10 300v130h84v244h250q169 0 258.5 -95.5t89.5 -240.5q0 -147 -91 -242.5t-257 -95.5h-250v300h-84zM218 544v-114h152v-130h-152v-170h121q107 0 164 57.5t57 149.5q0 94 -59.5 150.5t-161.5 56.5h-121z" />
<glyph unicode="&#xf1;" horiz-adv-x="780" d="M686 0h-162l-306 476v-476h-124v674h162l306 -482v482h124v-674zM300 632l-32 55q13 74 75 74q15 0 50.5 -7t43.5 -7q18 0 11 33h89q0 -26 -2 -42.5t-8.5 -37t-23 -31t-42.5 -10.5q-14 0 -43.5 3t-45.5 3q-22 0 -16 -33h-56z" />
<glyph unicode="&#xf2;" horiz-adv-x="750" d="M404 752l45 -62q-24 4 -77 4l-66 -4l-46 62h144zM379 111q90 0 141.5 65t51.5 160t-52 161t-141 66t-141.5 -65.5t-52.5 -159.5q0 -95 52.5 -161t141.5 -66zM379 -13q-143 0 -234.5 103.5t-91.5 247.5q0 143 91 246t235 103q143 0 234 -103.5t91 -247.5q0 -143 -91 -246 t-234 -103z" />
<glyph unicode="&#xf3;" horiz-adv-x="750" d="M506 752l-45 -63q-25 5 -76 5q-43 0 -69 -2l46 60h144zM379 111q90 0 141.5 65t51.5 160t-52 161t-141 66t-141.5 -65.5t-52.5 -159.5q0 -95 52.5 -161t141.5 -66zM379 -13q-143 0 -234.5 103.5t-91.5 247.5q0 143 91 246t235 103q143 0 234 -103.5t91 -247.5 q0 -143 -91 -246t-234 -103z" />
<glyph unicode="&#xf4;" horiz-adv-x="750" d="M452 752l54 -75q-65 17 -117 17q-67 0 -119 -11l51 69h131zM379 111q90 0 141.5 65t51.5 160t-52 161t-141 66t-141.5 -65.5t-52.5 -159.5q0 -95 52.5 -161t141.5 -66zM379 -13q-143 0 -234.5 103.5t-91.5 247.5q0 143 91 246t235 103q143 0 234 -103.5t91 -247.5 q0 -143 -91 -246t-234 -103z" />
<glyph unicode="&#xf5;" horiz-adv-x="750" d="M495 681q-55 12 -123 12q-71 0 -130 -21q2 26 7.5 43.5t22.5 31.5t46 14q18 0 50 -7t43 -7q18 0 11 33h90q0 -64 -17 -99zM379 111q90 0 141.5 65t51.5 160t-52 161t-141 66t-141.5 -65.5t-52.5 -159.5q0 -95 52.5 -161t141.5 -66zM379 -13q-143 0 -234.5 103.5 t-91.5 247.5q0 143 91 246t235 103q143 0 234 -103.5t91 -247.5q0 -143 -91 -246t-234 -103z" />
<glyph unicode="&#xf6;" horiz-adv-x="750" d="M338 698q-20 0 -63.5 -14t-60.5 -28v100h124v-58zM528 756v-92q-15 11 -57.5 22.5t-66.5 11.5v58h124zM379 111q90 0 141.5 65t51.5 160t-52 161t-141 66t-141.5 -65.5t-52.5 -159.5q0 -95 52.5 -161t141.5 -66zM379 -13q-143 0 -234.5 103.5t-91.5 247.5q0 143 91 246 t235 103q143 0 234 -103.5t91 -247.5q0 -143 -91 -246t-234 -103z" />
<glyph unicode="&#xf7;" d="M480 225h-460v55h460v-55zM201 402q0 21 13.5 35t34.5 14t35 -14t14 -35t-14 -34.5t-35 -13.5t-34.5 13.5t-13.5 34.5zM201 102q0 21 13.5 35t34.5 14t35 -14t14 -35t-14 -34.5t-35 -13.5t-34.5 13.5t-13.5 34.5z" />
<glyph unicode="&#xf8;" horiz-adv-x="750" d="M701 687l-81 -111q84 -97 84 -240t-91 -246t-234 -103q-89 0 -159 41l-31 -43h-154l92 126q-74 95 -74 227q0 143 91 246t235 103q80 0 141 -32l23 32h158zM572 336q0 77 -31 131l-246 -337q38 -19 84 -19q90 0 141.5 65t51.5 160zM185 338q0 -61 23 -113l237 326 q-30 12 -66 12q-89 0 -141.5 -65.5t-52.5 -159.5z" />
<glyph unicode="&#xf9;" horiz-adv-x="779" d="M389 -13q-131 0 -213 68.5t-82 192.5v426h124v-427q0 -67 47.5 -101.5t123.5 -34.5q79 0 125.5 34t46.5 102v427h124v-426q0 -125 -81 -193t-215 -68zM372 752l70 -93h-145l-69 93h144z" />
<glyph unicode="&#xfa;" horiz-adv-x="779" d="M389 -13q-131 0 -213 68.5t-82 192.5v426h124v-427q0 -67 47.5 -101.5t123.5 -34.5q79 0 125.5 34t46.5 102v427h124v-426q0 -125 -81 -193t-215 -68zM303 659l70 93h144l-69 -93h-145z" />
<glyph unicode="&#xfb;" horiz-adv-x="779" d="M389 -13q-131 0 -213 68.5t-82 192.5v426h124v-427q0 -67 47.5 -101.5t123.5 -34.5q79 0 125.5 34t46.5 102v427h124v-426q0 -125 -81 -193t-215 -68zM504 659h-269l69 93h131z" />
<glyph unicode="&#xfc;" horiz-adv-x="779" d="M389 -13q-131 0 -213 68.5t-82 192.5v426h124v-427q0 -67 47.5 -101.5t123.5 -34.5q79 0 125.5 34t46.5 102v427h124v-426q0 -125 -81 -193t-215 -68zM548 659h-124v97h124v-97zM355 659h-124v97h124v-97z" />
<glyph unicode="&#xfd;" horiz-adv-x="642" d="M325 752l70 -93h-145l-69 93h144zM383 0h-124v308l-260 366h158l166 -238l161 238h160l-261 -367v-307z" />
<glyph unicode="&#xfe;" horiz-adv-x="641" d="M218 620h114q114 0 184.5 -63.5t70.5 -162.5q0 -101 -68.5 -165.5t-186.5 -64.5h-114v-164h-124v674h124v-54zM457 392q0 43 -33.5 70.5t-93.5 27.5h-112v-196h111q64 0 96 26t32 72z" />
<glyph unicode="&#xff;" horiz-adv-x="642" d="M474 684l-18 -25h-106v97h124v-72zM183 659l-23 33v64h124v-97h-101zM383 0h-124v308l-260 366h158l166 -238l161 238h160l-261 -367v-307z" />
<glyph unicode="&#x131;" horiz-adv-x="311" d="M218 0h-124v674h124v-674z" />
<glyph unicode="&#x141;" horiz-adv-x="606" d="M218 674v-219h127l-127 -156v-171h338v-128h-462v272h-100l100 121v281h124z" />
<glyph unicode="&#x142;" horiz-adv-x="606" d="M218 674v-219h127l-127 -156v-171h338v-128h-462v272h-100l100 121v281h124z" />
<glyph unicode="&#x152;" horiz-adv-x="1037" d="M402 674h552v-129h-329v-116h299v-130h-299v-171h349v-128h-572q-166 0 -257 95.5t-91 242.5q0 145 89.5 240.5t258.5 95.5zM186 337q0 -92 57 -149.5t164 -57.5h94v414h-94q-102 0 -161.5 -56.5t-59.5 -150.5z" />
<glyph unicode="&#x153;" horiz-adv-x="1037" d="M402 674h552v-129h-329v-116h299v-130h-299v-171h349v-128h-572q-166 0 -257 95.5t-91 242.5q0 145 89.5 240.5t258.5 95.5zM186 337q0 -92 57 -149.5t164 -57.5h94v414h-94q-102 0 -161.5 -56.5t-59.5 -150.5z" />
<glyph unicode="&#x160;" horiz-adv-x="657" d="M477 752l-46 -63q-53 5 -84 5t-93 -6l-46 64h269zM600 559l-92 -90q-54 94 -165 94q-55 0 -86 -18t-31 -50q0 -26 20.5 -43.5t54 -27t73.5 -18.5t80 -24t73.5 -36.5t54 -61.5t20.5 -95q0 -92 -76.5 -147t-189.5 -55q-92 0 -161.5 28.5t-122.5 98.5l93 89q59 -92 193 -92 q56 0 94 19t38 57q0 30 -28 50t-69.5 29t-90.5 24.5t-90.5 34.5t-69.5 62t-28 104q0 82 64.5 139t182.5 57q169 0 259 -128z" />
<glyph unicode="&#x161;" horiz-adv-x="657" d="M477 752l-46 -63q-53 5 -84 5t-93 -6l-46 64h269zM600 559l-92 -90q-54 94 -165 94q-55 0 -86 -18t-31 -50q0 -26 20.5 -43.5t54 -27t73.5 -18.5t80 -24t73.5 -36.5t54 -61.5t20.5 -95q0 -92 -76.5 -147t-189.5 -55q-92 0 -161.5 28.5t-122.5 98.5l93 89q59 -92 193 -92 q56 0 94 19t38 57q0 30 -28 50t-69.5 29t-90.5 24.5t-90.5 34.5t-69.5 62t-28 104q0 82 64.5 139t182.5 57q169 0 259 -128z" />
<glyph unicode="&#x178;" horiz-adv-x="642" d="M474 684l-18 -25h-106v97h124v-72zM183 659l-23 33v64h124v-97h-101zM383 0h-124v308l-260 366h158l166 -238l161 238h160l-261 -367v-307z" />
<glyph unicode="&#x17d;" horiz-adv-x="620" d="M409 687h-173l-48 65h269zM562 572l-338 -444h356v-128h-530v101l337 445h-320v128h495v-102z" />
<glyph unicode="&#x17e;" horiz-adv-x="620" d="M409 687h-173l-48 65h269zM562 572l-338 -444h356v-128h-530v101l337 445h-320v128h495v-102z" />
<glyph unicode="&#x192;" d="M109 636v-419l123 -121v61l-82 108v74l202 -201v-61l39 -41v250l-39 39v-76l-202 201v65l82 -54v54zM420 0h-338v675h338v-675z" />
<glyph unicode="&#x2c6;" d="M340 659h-269l69 93h131z" />
<glyph unicode="&#x2c7;" d="M90 752h269l-68 -93h-133z" />
<glyph unicode="&#x2d8;" d="M141 752h178v-29q0 -37 -24 -62t-65 -25t-65 25t-24 62v29z" />
<glyph unicode="&#x2d9;" d="M285 659h-124v93h124v-93z" />
<glyph unicode="&#x2da;" d="M319 692q0 -37 -24 -62t-65 -25t-65 25t-24 62q0 38 24 63t65 25t65 -25.5t24 -62.5z" />
<glyph unicode="&#x2db;" d="M242 4l70 -93h-145l-69 93h144z" />
<glyph unicode="&#x2dc;" horiz-adv-x="390" d="M303 780q0 -26 -2 -42.5t-8.5 -37t-23 -31t-42.5 -10.5q-14 0 -43.5 3t-45.5 3q-22 0 -16 -33h-89q-3 18 -0.5 40.5t8.5 42t24 33t44 13.5q15 0 49.5 -7t42.5 -7q19 0 13 33h89z" />
<glyph unicode="&#x2dd;" d="M198 659l70 93h144l-69 -93h-145zM38 659l70 93h144l-69 -93h-145z" />
<glyph unicode="&#x312;" d="M109 636v-419l123 -121v61l-82 108v74l202 -201v-61l39 -41v250l-39 39v-76l-202 201v65l82 -54v54zM420 0h-338v675h338v-675z" />
<glyph unicode="&#xe026;" d="M109 636v-419l123 -121v61l-82 108v74l202 -201v-61l39 -41v250l-39 39v-76l-202 201v65l82 -54v54zM420 0h-338v675h338v-675z" />
<glyph unicode="&#x326;" d="M109 636v-419l123 -121v61l-82 108v74l202 -201v-61l39 -41v250l-39 39v-76l-202 201v65l82 -54v54zM420 0h-338v675h338v-675z" />
<glyph unicode="&#x3c0;" d="M109 636v-419l123 -121v61l-82 108v74l202 -201v-61l39 -41v250l-39 39v-76l-202 201v65l82 -54v54zM420 0h-338v675h338v-675z" />
<glyph unicode="&#x2013;" d="M20 279v130h460v-130h-460z" />
<glyph unicode="&#x2014;" horiz-adv-x="1000" d="M20 279v130h960v-130h-960z" />
<glyph unicode="&#x2018;" horiz-adv-x="250" d="M107 674h80v-264h-124v123z" />
<glyph unicode="&#x2019;" horiz-adv-x="250" d="M143 410h-80v264h124v-123z" />
<glyph unicode="&#x201a;" horiz-adv-x="250" d="M143 -136h-80v264h124v-123z" />
<glyph unicode="&#x201c;" horiz-adv-x="410" d="M92 674h80v-264h-124v123zM282 674h80v-264h-124v123z" />
<glyph unicode="&#x201d;" horiz-adv-x="410" d="M318 410h-80v264h124v-123zM128 410h-80v264h124v-123z" />
<glyph unicode="&#x201e;" horiz-adv-x="410" d="M318 -136h-80v264h124v-123zM128 -136h-80v264h124v-123z" />
<glyph unicode="&#x2020;" horiz-adv-x="294" d="M189 533q55 0 55 -24q0 -18 -20 -18q-15 0 -15 13q0 1 0.5 3t0.5 4q0 7 -27 7q-17 0 -28 -1q2 -31 22 -45q0 -23 -5.5 -203t-6.5 -243q0 -19 -17 -41q-17 25 -17 41q-1 60 -5.5 239.5t-4.5 206.5q17 12 21 43q-30 -2 -33 -2q-59 0 -59 44q0 35 28 74q11 18 22 19l1 -8 q-3 -5 -8 -15l-7 -14t-5 -11t-4.5 -11.5t-2.5 -11t-1 -12.5q0 -38 50 -38q7 0 19 1q0 22 -19 41q12 36 12 74q0 22 -18 22q10 20 31 20q20 0 32 -20q-11 0 -15 -5t-4 -17q0 -38 12 -74q-18 -20 -18 -40q18 2 34 2z" />
<glyph unicode="&#x2021;" d="M109 636v-419l123 -121v61l-82 108v74l202 -201v-61l39 -41v250l-39 39v-76l-202 201v65l82 -54v54zM420 0h-338v675h338v-675z" />
<glyph unicode="&#x2022;" horiz-adv-x="342" d="M287 225h-231v236h231v-236z" />
<glyph unicode="&#x2026;" horiz-adv-x="1000" d="M233 0h-124v128h124v-128zM563 0h-124v128h124v-128zM892 0h-124v128h124v-128z" />
<glyph unicode="&#x2030;" d="M109 636v-419l123 -121v61l-82 108v74l202 -201v-61l39 -41v250l-39 39v-76l-202 201v65l82 -54v54zM420 0h-338v675h338v-675z" />
<glyph unicode="&#x2039;" horiz-adv-x="250" d="M90 164l-90 173l90 173h132l-93 -173l93 -173h-132z" />
<glyph unicode="&#x203a;" horiz-adv-x="250" d="M250 337l-90 -173h-132l93 173l-93 173h132z" />
<glyph unicode="&#x2044;" d="M109 636v-419l123 -121v61l-82 108v74l202 -201v-61l39 -41v250l-39 39v-76l-202 201v65l82 -54v54zM420 0h-338v675h338v-675z" />
<glyph unicode="&#x20ac;" horiz-adv-x="611" d="M33 414h82q11 128 67 200.5t160 72.5q108 0 195 -105l-90 -84q-54 65 -104 65t-75.5 -36.5t-31.5 -112.5h158v-130h-160q13 -175 109 -175q50 0 105 71l90 -85q-45 -56 -90 -81.5t-106 -25.5q-209 0 -228 296h-81v130z" />
<glyph unicode="&#x2113;" d="M109 636v-419l123 -121v61l-82 108v74l202 -201v-61l39 -41v250l-39 39v-76l-202 201v65l82 -54v54zM420 0h-338v675h338v-675z" />
<glyph unicode="&#x2116;" d="M109 636v-419l123 -121v61l-82 108v74l202 -201v-61l39 -41v250l-39 39v-76l-202 201v65l82 -54v54zM420 0h-338v675h338v-675z" />
<glyph unicode="&#x2122;" horiz-adv-x="916" d="M826 283h-66v281l-101 -162h-52l-101 162v-281h-62v397h68l125 -204l128 204h61v-397zM385 616h-144v-333h-66v333h-145v58h355v-58z" />
<glyph unicode="&#x2126;" d="M109 636v-419l123 -121v61l-82 108v74l202 -201v-61l39 -41v250l-39 39v-76l-202 201v65l82 -54v54zM420 0h-338v675h338v-675z" />
<glyph unicode="&#x212e;" d="M109 636v-419l123 -121v61l-82 108v74l202 -201v-61l39 -41v250l-39 39v-76l-202 201v65l82 -54v54zM420 0h-338v675h338v-675z" />
<glyph unicode="&#x2202;" d="M109 636v-419l123 -121v61l-82 108v74l202 -201v-61l39 -41v250l-39 39v-76l-202 201v65l82 -54v54zM420 0h-338v675h338v-675z" />
<glyph unicode="&#x2206;" d="M109 636v-419l123 -121v61l-82 108v74l202 -201v-61l39 -41v250l-39 39v-76l-202 201v65l82 -54v54zM420 0h-338v675h338v-675z" />
<glyph unicode="&#x220f;" d="M109 636v-419l123 -121v61l-82 108v74l202 -201v-61l39 -41v250l-39 39v-76l-202 201v65l82 -54v54zM420 0h-338v675h338v-675z" />
<glyph unicode="&#x2211;" d="M109 636v-419l123 -121v61l-82 108v74l202 -201v-61l39 -41v250l-39 39v-76l-202 201v65l82 -54v54zM420 0h-338v675h338v-675z" />
<glyph unicode="&#x2212;" d="M480 225h-460v55h460v-55z" />
<glyph unicode="&#x221a;" d="M109 636v-419l123 -121v61l-82 108v74l202 -201v-61l39 -41v250l-39 39v-76l-202 201v65l82 -54v54zM420 0h-338v675h338v-675z" />
<glyph unicode="&#x221e;" d="M109 636v-419l123 -121v61l-82 108v74l202 -201v-61l39 -41v250l-39 39v-76l-202 201v65l82 -54v54zM420 0h-338v675h338v-675z" />
<glyph unicode="&#x222b;" d="M109 636v-419l123 -121v61l-82 108v74l202 -201v-61l39 -41v250l-39 39v-76l-202 201v65l82 -54v54zM420 0h-338v675h338v-675z" />
<glyph unicode="&#x2248;" d="M109 636v-419l123 -121v61l-82 108v74l202 -201v-61l39 -41v250l-39 39v-76l-202 201v65l82 -54v54zM420 0h-338v675h338v-675z" />
<glyph unicode="&#x2260;" d="M109 636v-419l123 -121v61l-82 108v74l202 -201v-61l39 -41v250l-39 39v-76l-202 201v65l82 -54v54zM420 0h-338v675h338v-675z" />
<glyph unicode="&#x2264;" d="M109 636v-419l123 -121v61l-82 108v74l202 -201v-61l39 -41v250l-39 39v-76l-202 201v65l82 -54v54zM420 0h-338v675h338v-675z" />
<glyph unicode="&#x2265;" d="M109 636v-419l123 -121v61l-82 108v74l202 -201v-61l39 -41v250l-39 39v-76l-202 201v65l82 -54v54zM420 0h-338v675h338v-675z" />
<glyph unicode="&#x25ca;" d="M109 636v-419l123 -121v61l-82 108v74l202 -201v-61l39 -41v250l-39 39v-76l-202 201v65l82 -54v54zM420 0h-338v675h338v-675z" />
<glyph unicode="&#xe000;" horiz-adv-x="675" d="M0 675h675v-675h-675v675z" />
<glyph unicode="&#xe01a;" d="M242 752l70 -93h-145l-69 93h144z" />
<glyph unicode="&#xe01b;" d="M118 659l70 93h144l-69 -93h-145z" />
<glyph unicode="&#xe01c;" d="M340 659h-269l69 93h131z" />
<glyph unicode="&#xe01d;" d="M90 752h269l-68 -93h-133z" />
<glyph unicode="&#xe01e;" d="M109 636v-419l123 -121v61l-82 108v74l202 -201v-61l39 -41v250l-39 39v-76l-202 201v65l82 -54v54zM420 0h-338v675h338v-675z" />
<glyph unicode="&#xe01f;" horiz-adv-x="390" d="M303 780q0 -26 -2 -42.5t-8.5 -37t-23 -31t-42.5 -10.5q-14 0 -43.5 3t-45.5 3q-22 0 -16 -33h-89q-3 18 -0.5 40.5t8.5 42t24 33t44 13.5q15 0 49.5 -7t42.5 -7q19 0 13 33h89z" />
<glyph unicode="&#xe020;" d="M190 659h-124v93h124v-93zM380 659h-124v93h124v-93z" />
<glyph unicode="&#xe021;" d="M99 659v94h273v-94h-273z" />
<glyph unicode="&#xe022;" d="M141 752h178v-29q0 -37 -24 -62t-65 -25t-65 25t-24 62v29z" />
<glyph unicode="&#xe023;" d="M319 692q0 -37 -24 -62t-65 -25t-65 25t-24 62q0 38 24 63t65 25t65 -25.5t24 -62.5z" />
<glyph unicode="&#xe024;" d="M198 659l70 93h144l-69 -93h-145zM38 659l70 93h144l-69 -93h-145z" />
<glyph unicode="&#xe025;" d="M285 659h-124v93h124v-93z" />
<glyph unicode="&#xe039;" horiz-adv-x="783" d="M731 337q0 -141 -99 -240.5t-240 -99.5t-240.5 100t-99.5 240q0 141 99.5 240t240.5 99t240 -99t99 -240zM677 337q0 117 -83.5 199.5t-201.5 82.5q-119 0 -202.5 -82.5t-83.5 -199.5t84 -200t202 -83t201.5 83t83.5 200zM561 414q0 -57 -38 -90t-105 -33h-83v-145h-66 v391h149q67 0 105 -33t38 -90zM493 414q0 32 -22 50.5t-61 18.5h-75v-138h75q83 0 83 69z" />
<glyph unicode="&#xe0aa;" horiz-adv-x="1294" d="M600 559l-92 -90q-54 94 -165 94q-55 0 -86 -18t-31 -50q0 -26 20.5 -43.5t54 -27t73.5 -18.5t80 -24t73.5 -36.5t54 -61.5t20.5 -95q0 -92 -76.5 -147t-189.5 -55q-92 0 -161.5 28.5t-122.5 98.5l93 89q59 -92 193 -92q56 0 94 19t38 57q0 30 -28 50t-69.5 29 t-90.5 24.5t-90.5 34.5t-69.5 62t-28 104q0 82 64.5 139t182.5 57q169 0 259 -128zM1237 559l-92 -90q-54 94 -165 94q-55 0 -86 -18t-31 -50q0 -26 20.5 -43.5t54 -27t73.5 -18.5t80 -24t73.5 -36.5t54 -61.5t20.5 -95q0 -92 -76.5 -147t-189.5 -55q-92 0 -161.5 28.5 t-122.5 98.5l93 89q59 -92 193 -92q56 0 94 19t38 57q0 30 -28 50t-69.5 29t-90.5 24.5t-90.5 34.5t-69.5 62t-28 104q0 82 64.5 139t182.5 57q169 0 259 -128z" />
<glyph unicode="&#xe0b6;" horiz-adv-x="706" d="M368 111q134 0 144 118h-179v131h326q4 -76 -8.5 -139.5t-43 -118t-89.5 -85t-143 -30.5q-145 0 -235 97t-90 253q0 92 36.5 170.5t110 129t169.5 50.5q172 0 279 -146l-95 -89q-41 60 -83.5 85.5t-98.5 25.5q-86 0 -136 -67t-50 -158q0 -94 50.5 -160.5t135.5 -66.5z " />
<glyph unicode="&#xe0b9;" horiz-adv-x="750" d="M379 111q90 0 141.5 65t51.5 160t-52 161t-141 66t-141.5 -65.5t-52.5 -159.5q0 -95 52.5 -161t141.5 -66zM379 -13q-143 0 -234.5 103.5t-91.5 247.5q0 143 91 246t235 103q143 0 234 -103.5t91 -247.5q0 -143 -91 -246t-234 -103zM375 -26q-119 0 -193 -90l84 -93 q38 59 94 59q27 0 59 -17.5t58 -38t69.5 -38t91.5 -17.5q106 0 177 91l-84 93q-38 -58 -94 -58q-32 0 -65 17t-57 37.5t-61.5 37.5t-78.5 17z" />
<glyph unicode="&#xe0ba;" horiz-adv-x="688" d="M426 285q12 -8 22.5 -23t16 -26.5t15 -35.5t12.5 -31q31 -71 79 -71q33 0 52 19l41 -98q-47 -38 -115 -38q-35 0 -63 9t-44.5 20t-31.5 33.5t-21.5 37t-18.5 43.5q-23 56 -47.5 88.5t-61.5 32.5h-43v-245h-124v674h269q106 0 172 -55t66 -151q0 -78 -52 -128.5 t-123 -54.5zM469 467q0 78 -108 78h-143v-170h137q114 0 114 92z" />
<glyph unicode="&#xe352;" horiz-adv-x="739" d="M521 218h-303v-217h-124v426q0 124 76 192.5t199 68.5q126 0 201 -68t75 -193v-426h-124v217zM521 345v83q0 68 -40.5 102t-111.5 34q-68 0 -109.5 -34.5t-41.5 -101.5v-83h303z" />
<glyph unicode="&#xe3fb;" d="M109 636v-419l123 -121v61l-82 108v74l202 -201v-61l39 -41v250l-39 39v-76l-202 201v65l82 -54v54zM420 0h-338v675h338v-675z" />
<glyph unicode="&#xe3fc;" d="M109 636v-419l123 -121v61l-82 108v74l202 -201v-61l39 -41v250l-39 39v-76l-202 201v65l82 -54v54zM420 0h-338v675h338v-675z" />
<glyph unicode="&#xe3fd;" d="M109 636v-419l123 -121v61l-82 108v74l202 -201v-61l39 -41v250l-39 39v-76l-202 201v65l82 -54v54zM420 0h-338v675h338v-675z" />
<glyph unicode="&#xe3fe;" d="M109 636v-419l123 -121v61l-82 108v74l202 -201v-61l39 -41v250l-39 39v-76l-202 201v65l82 -54v54zM420 0h-338v675h338v-675z" />
<glyph unicode="&#xe3ff;" d="M109 636v-419l123 -121v61l-82 108v74l202 -201v-61l39 -41v250l-39 39v-76l-202 201v65l82 -54v54zM420 0h-338v675h338v-675z" />
<glyph unicode="&#xe411;" d="M109 636v-419l123 -121v61l-82 108v74l202 -201v-61l39 -41v250l-39 39v-76l-202 201v65l82 -54v54zM420 0h-338v675h338v-675z" />
<glyph unicode="&#xe412;" d="M109 636v-419l123 -121v61l-82 108v74l202 -201v-61l39 -41v250l-39 39v-76l-202 201v65l82 -54v54zM420 0h-338v675h338v-675z" />
<glyph unicode="&#xe413;" d="M109 636v-419l123 -121v61l-82 108v74l202 -201v-61l39 -41v250l-39 39v-76l-202 201v65l82 -54v54zM420 0h-338v675h338v-675z" />
<glyph unicode="&#xe414;" d="M109 636v-419l123 -121v61l-82 108v74l202 -201v-61l39 -41v250l-39 39v-76l-202 201v65l82 -54v54zM420 0h-338v675h338v-675z" />
<glyph unicode="&#xe415;" d="M109 636v-419l123 -121v61l-82 108v74l202 -201v-61l39 -41v250l-39 39v-76l-202 201v65l82 -54v54zM420 0h-338v675h338v-675z" />
<glyph unicode="&#xe416;" d="M109 636v-419l123 -121v61l-82 108v74l202 -201v-61l39 -41v250l-39 39v-76l-202 201v65l82 -54v54zM420 0h-338v675h338v-675z" />
<glyph unicode="&#xe417;" d="M109 636v-419l123 -121v61l-82 108v74l202 -201v-61l39 -41v250l-39 39v-76l-202 201v65l82 -54v54zM420 0h-338v675h338v-675z" />
<glyph horiz-adv-x="750" d="M704 336q0 -131 -73.5 -228.5t-196.5 -115.5v-169h-124v171q-117 23 -187 121t-70 223q0 143 91 246t235 103q143 0 234 -103.5t91 -247.5zM379 111q90 0 141.5 65t51.5 160t-52 161t-141 66t-141.5 -65.5t-52.5 -159.5q0 -95 52.5 -161t141.5 -66z" />
</font>
</defs>
</svg>
