<?xml version="1.0" standalone="no"?>
<!DOCTYPE svg PUBLIC "-//W3C//DTD SVG 1.1//EN" "http://www.w3.org/Graphics/SVG/1.1/DTD/svg11.dtd" >
<svg xmlns="http://www.w3.org/2000/svg">
<metadata></metadata>
<defs>
<font id="aw_conqueror_carvedthree" horiz-adv-x="500" >
<font-face units-per-em="1000" ascent="761" descent="-239" />
<missing-glyph horiz-adv-x="250" />
<glyph unicode="&#xd;" horiz-adv-x="250" />
<glyph unicode=" "  horiz-adv-x="250" />
<glyph unicode="&#x09;" horiz-adv-x="250" />
<glyph unicode="&#xa0;" horiz-adv-x="250" />
<glyph unicode="!" horiz-adv-x="250" d="M93 455l33 -4h27l3 -5l-3 -5h-27l-33 -5l-5 10zM93 318l33 -4h27l3 -5l-3 -5h-27l-33 -4l-5 9zM93 373l33 -4h27l3 -5l-3 -5h-27l-33 -4l-5 9zM93 266l33 -4h27l3 -5l-3 -5h-27l-33 -4l-5 9zM93 73l33 -4h27l3 -5l-3 -5h-27l-33 -4l-5 9zM93 564l33 -4h27l3 -5l-3 -5h-27 l-33 -4l-5 9zM93 537l33 -4h27l3 -5l-3 -5h-27l-33 -4l-5 9zM93 510l33 -4h27l3 -5l-3 -5h-27l-33 -4l-5 9zM93 482l33 -4h27l3 -5l-3 -5h-27l-33 -4l-5 9zM93 213l33 -4h27l3 -5l-3 -5h-27l-33 -4l-5 9zM93 592l33 -4h27l3 -5l-3 -5h-27l-33 -4l-5 9zM93 619l33 -4h27l3 -5 l-3 -5h-27l-33 -4l-5 9zM93 292l33 -4h27l3 -5l-3 -5h-27l-33 -4l-5 9zM93 346l33 -4h27l3 -5l-3 -5h-27l-33 -4l-5 9zM93 428l33 -4h27l3 -5l-3 -5h-27l-33 -4l-5 9zM93 100l33 -4h27l3 -5l-3 -5h-27l-33 -4l-5 9zM93 239l33 -4h27l3 -5l-3 -5h-27l-33 -4l-5 9zM93 187 l33 -4h27l3 -5l-3 -5h-27l-33 -4l-5 9zM93 399l33 -3h27l3 -5l-3 -5h-27l-33 -4l-5 9zM93 46l33 -4h27l3 -5l-3 -5h-60l-5 5zM93 642h60l3 -5l-3 -5h-27l-33 -4l-5 9z" />
<glyph unicode="&#x22;" horiz-adv-x="410" d="M315 674l-8 -245h-44l-9 245h61zM155 674l-8 -245h-44l-8 245h60z" />
<glyph unicode="#" horiz-adv-x="540" d="M61 478h418l3 -5l-3 -5h-385l-33 -4l-5 9zM61 232h418l3 -5l-3 -5h-385l-33 -4l-5 9zM61 455l33 -4h385l3 -5l-3 -5h-418l-5 5zM61 209l33 -4h385l3 -5l-3 -5h-418l-5 5zM113 127l33 -4h15l3 -5l-3 -5h-15l-33 -5l-5 10zM141 318l33 -4h16l3 -5l-3 -5h-16l-33 -4l-5 9z M120 182l33 -4h16l3 -5l-3 -5h-16l-33 -4l-5 9zM108 100l33 -4h16l3 -5l-3 -5h-16l-33 -4l-5 9zM104 73l33 -4h16l3 -5l-3 -5h-16l-33 -4l-5 9zM138 291l33 -4h15l3 -5l-3 -5h-15l-33 -4l-5 9zM134 263l33 -4h15l3 -5l-3 -5h-15l-33 -4l-5 9zM117 154l33 -4h15l3 -5l-3 -5 h-15l-33 -4l-5 9zM146 346l33 -4h15l3 -5l-3 -5h-15l-33 -4l-5 9zM179 564l33 -4h15l3 -5l-3 -5h-15l-33 -4l-5 9zM188 619l33 -4h15l3 -5l-3 -5h-15l-33 -4l-5 9zM183 592l33 -4h15l3 -5l-3 -5h-15l-33 -4l-5 9zM175 537l33 -4h15l3 -5l-3 -5h-15l-33 -4l-5 9zM171 510 l33 -4h15l3 -5l-3 -5h-15l-33 -4l-5 9zM158 428l33 -4h15l3 -5l-3 -5h-15l-33 -4l-5 9zM150 373l33 -4h15l3 -5l-3 -5h-15l-33 -4l-5 9zM154 399l33 -3h16l3 -5l-3 -5h-16l-33 -4l-5 9zM191 642h50l3 -5l-3 -5h-17l-33 -4l-5 9zM100 46l33 -4h16l3 -5l-3 -5h-49l-5 5z M309 123h50l3 -5l-3 -6h-50l-3 6zM387 642h52l3 -5l-3 -5h-52l-3 5zM300 69h51l3 -5l-3 -5h-51l-3 5zM337 314h51l3 -5l-3 -5h-51l-3 5zM304 96h51l3 -5l-3 -5h-51l-3 5zM316 178h51l3 -5l-3 -5h-51l-3 5zM296 42h51l3 -5l-3 -5h-51l-3 5zM367 506h50l3 -5l-3 -5h-50l-3 5z M375 560h50l3 -5l-3 -5h-50l-3 5zM384 615h50l3 -5l-3 -5h-50l-3 5zM379 588h50l3 -5l-3 -5h-50l-3 5zM346 369h50l3 -5l-3 -5h-50l-3 5zM354 424h50l3 -5l-3 -5h-50l-3 5zM313 150h50l3 -5l-3 -5h-50l-3 5zM330 260h50l3 -5l-3 -5h-50l-3 5zM342 342h50l3 -5l-3 -5h-50 l-3 5zM334 287h50l3 -5l-3 -5h-50l-3 5zM371 533h50l3 -5l-3 -5h-50l-3 5zM350 395l51 1l3 -5l-3 -5h-51l-3 5z" />
<glyph unicode="$" horiz-adv-x="508" d="M192 32l34 -4h94l3 -5l-3 -5h-128l-5 5zM197 655h129l3 -5l-3 -5h-95l-34 -4l-5 9zM124 605l34 -4h259l3 -5l-3 -5h-259l-34 -4l-5 9zM128 59l34 -4h215l3 -5l-3 -5h-215l-34 -4l-5 9zM349 249l34 -4h40l3 -5l-3 -5h-40l-34 -4l-5 9zM111 577l34 -4h39l3 -5l-6 -5h-36 l-34 -4l-5 9zM231 686l33 -4h26l3 -5l-3 -5h-26l-33 -4l-5 9zM264 -10l-33 -4l-5 9l5 9l33 -4h26l3 -5l-3 -5h-26zM376 195l36 -4h21l3 -5l-3 -5h-21l-36 -4l-5 9zM423 563h-69l-8 5l3 5h74l3 -5zM93 86l34 -4h277l3 -5l-3 -5h-277l-34 -4l-5 9zM149 632l33 -4h200l3 -5 l-3 -5h-200l-34 -4l-5 9zM190 359l34 -4h104l3 -5l-3 -5h-104l-34 -4l-5 9zM160 386l34 -4h91l3 -5l-3 -5h-91l-34 -4l-5 9zM241 331l34 -4h88l3 -5l-3 -5h-88l-34 -4l-5 9zM277 304l34 -4h78l3 -5l-3 -5h-78l-34 -4l-5 9zM137 412l34 -3h68l3 -5l-3 -5h-68l-34 -4l-5 9z M319 277l34 -4h56l3 -5l-3 -5h-56l-34 -4l-5 9zM118 441l34 -4h49l3 -5l-3 -5h-49l-34 -4l-5 9zM107 468l34 -4h35l3 -5l-3 -5h-35l-34 -5l-5 10zM356 113l29 -4h34l3 -5l-3 -5h-34l-34 -4l-5 9zM365 222l34 -4h31l3 -5l-3 -5h-31l-34 -4l-5 9zM91 113l34 -4h27l8 -5l-3 -5 h-32l-34 -4l-5 9zM370 140l34 -4h24l3 -5l-3 -5h-24l-34 -5l-5 10zM104 550l34 -4h24l3 -5l-3 -5h-24l-34 -4l-5 9zM101 495l34 -4h24l3 -5l-3 -5h-24l-34 -4l-5 9zM100 523l34 -4h22l3 -5l-3 -5h-22l-34 -4l-5 9zM377 167l34 -4h21l3 -5l-3 -5h-21l-34 -4l-5 9zM230 711h60 l3 -5l-3 -5h-27l-33 -4l-5 9zM290 -39h-60l-5 5l5 9l33 -4h27l3 -5zM398 536h-13l-4 5l3 5h14l3 -5zM121 124l-8 -3l-3 8l3 8l8 -3l3 -5z" />
<glyph unicode="%" horiz-adv-x="816" d="M554 642h14l-336 -610h-14zM284 563l-7 5l3 5h72l3 -5l-3 -5h-68zM179 573l3 -5l-8 -5h-35l-34 -4l-5 9l5 9l34 -4h40zM142 632l34 -4h141l3 -5l-3 -5h-141l-34 -4l-5 9zM117 605l34 -4h189l3 -5l-3 -5h-189l-34 -4l-5 9zM300 536l-3 5l3 5h59l3 -5l-3 -5h-59zM156 546 l3 -5l-3 -5h-24l-34 -4l-5 9l5 9l34 -4h24zM309 509l-3 5l3 5h54l3 -5l-3 -5h-54zM148 519l3 -5l-3 -5h-20l-34 -4l-5 9l5 9l34 -4h20zM177 655h103l8 -5l-3 -5h-74l-34 -4l-5 9zM310 482l-3 5l3 5h52l3 -5l-3 -5h-52zM148 492l3 -5l-3 -5h-18l-34 -4l-5 9l5 9l34 -4h18z M301 455l-3 5l3 5h57l3 -5l-3 -5h-57zM157 465l3 -5l-3 -5h-23l-34 -4l-5 9l5 9l34 -4h23zM276 429l-3 5l8 5h70l3 -5l-3 -5h-75zM175 439l8 -5l-3 -5h-38l-34 -4l-5 9l5 9l34 -4h33zM121 416l34 -4h183l3 -5l-3 -5h-183l-34 -4l-5 9zM143 389l34 -4h140l3 -5l-3 -5h-140 l-34 -4l-5 9zM189 363l34 -4h52l3 -5l-8 -5h-81l-5 5zM584 642h14l-336 -610h-14zM645 233l-7 5l3 5h72l3 -5l-3 -5h-68zM540 243l3 -5l-8 -5h-35l-34 -4l-5 9l5 9l34 -4h40zM503 302l34 -4h141l3 -5l-3 -5h-141l-34 -4l-5 9zM478 275l34 -4h189l3 -5l-3 -5h-189l-34 -4 l-5 9zM661 206l-3 5l3 5h59l3 -5l-3 -5h-59zM517 216l3 -5l-3 -5h-24l-34 -4l-5 9l5 9l34 -4h24zM670 179l-3 5l3 5h54l3 -5l-3 -5h-54zM509 189l3 -5l-3 -5h-20l-34 -4l-5 9l5 9l34 -4h20zM538 325h103l8 -5l-3 -5h-74l-34 -4l-5 9zM671 152l-3 5l3 5h52l3 -5l-3 -5h-52z M509 162l3 -5l-3 -5h-18l-34 -4l-5 9l5 9l34 -4h18zM662 125l-3 5l3 5h57l3 -5l-3 -5h-57zM518 135l3 -5l-3 -5h-23l-34 -4l-5 9l5 9l34 -4h23zM637 99l-3 5l8 5h70l3 -5l-3 -5h-75zM536 109l8 -5l-3 -5h-38l-34 -4l-5 9l5 9l34 -4h33zM482 86l34 -4h183l3 -5l-3 -5h-183 l-34 -4l-5 9zM504 59l34 -4h140l3 -5l-3 -5h-140l-34 -4l-5 9zM550 33l34 -4h52l3 -5l-8 -5h-81l-5 5z" />
<glyph unicode="&#x26;" horiz-adv-x="806" d="M249 384l-33 -4l-5 9l5 9l33 -4h143l3 -5l-3 -5h-143zM307 646l-34 -4l-5 9l5 5h147l3 -5l-3 -5h-113zM177 114l-33 -4l-5 9l5 9l33 -4h72l8 -5l-3 -5h-77zM205 568l-34 -4l-5 9l5 9l34 -4h58l3 -5l-8 -5h-53zM431 578h77l3 -5l-3 -5h-72l-8 5zM225 594l-34 -4l-5 9l5 9 l34 -4h281l3 -5l-3 -5h-281zM196 86l-33 -4l-5 9l5 9l33 -4h416l3 -5l-3 -5h-416zM232 59l-33 -4l-5 9l5 9l33 -4h380l3 -5l-3 -5h-380zM612 32h-357l-5 5l5 9l33 -4h324l3 -5zM255 620l-34 -4l-5 9l5 9l34 -4h220l3 -5l-3 -5h-220zM245 331l-33 -4l-5 9l5 9l33 -4h147l3 -5 l-3 -5h-147zM270 358l-33 -4l-5 9l5 9l33 -4h122l3 -5l-3 -5h-122zM552 341h160l3 -5l-3 -5h-160l-3 5zM552 368h160l3 -5l-3 -5h-160l-3 5zM552 394h160l3 -5l-3 -5h-160l-3 5zM220 410l-33 -4l-5 9l5 9l33 -4h52l8 -5l-3 -5h-57zM209 305l-33 -4l-5 9l5 9l33 -4h55l3 -5 l-8 -5h-50zM168 141l-33 -4l-5 9l5 9l33 -4h51l3 -5l-3 -5h-51zM201 437l-34 -4l-5 9l5 9l34 -4h38l3 -5l-3 -5h-38zM184 278l-33 -4l-5 9l5 10l33 -5h37l3 -5l-3 -5h-37zM196 542l-34 -4l-5 9l5 10l34 -5h34l3 -5l-3 -5h-34zM163 168l-33 -4l-5 9l5 9l33 -4h36l3 -5l-3 -5 h-36zM193 463l-34 -4l-5 9l5 9l34 -4h29l3 -5l-3 -5h-29zM161 196l-33 -3l-5 8l5 9l33 -4h29l3 -5l-3 -5h-29zM173 251l-33 -4l-5 9l5 9l33 -4h27l3 -5l-3 -5h-27zM190 489l-34 -4l-5 9l5 9l34 -4h25l3 -5l-3 -5h-25zM191 516l-34 -4l-5 9l5 9l34 -4h25l3 -5l-3 -5h-25z M165 223l-33 -4l-5 9l5 9l33 -4h25l3 -5l-3 -5h-25zM552 178h60l3 -5l-3 -5h-60l-3 5zM552 288h60l3 -5l-3 -5h-60l-3 5zM552 260h60l3 -5l-3 -5h-60l-3 5zM552 206h60l3 -5l-3 -5h-60l-3 5zM552 315h60l3 -5l-3 -5h-60l-3 5zM552 151h60l3 -5l-3 -5h-60l-3 5zM552 124h60 l3 -5l-3 -5h-60l-3 5zM552 233h60l3 -5l-3 -5h-60l-3 5zM472 552h16l3 -5l-3 -5h-16l-3 5z" />
<glyph unicode="'" horiz-adv-x="250" d="M155 674l-8 -245h-44l-8 245h60z" />
<glyph unicode="(" horiz-adv-x="307" d="M244 -72l-4 -3l-8 3q-139 189 -139 409q0 223 142 413l8 3l5 -3q-144 -194 -144 -413q0 -218 140 -409z" />
<glyph unicode=")" horiz-adv-x="307" d="M64 746l4 3l8 -3q139 -189 139 -409q0 -223 -142 -413l-8 -3l-5 3q144 194 144 413q0 218 -140 409z" />
<glyph unicode="*" horiz-adv-x="429" d="M55 562l153 -51v165l5 3l5 -3v-164l154 51l5 -4l-2 -6l-152 -51l98 -134l-2 -7h-7l-99 138l-99 -137h-7l-2 6l99 134l-153 50l-1 7z" />
<glyph unicode="+" d="M277 23h-55v202h-202v55h202v203h55v-203h203v-55h-203v-202z" />
<glyph unicode="," horiz-adv-x="250" d="M95 96h60l3 -5l-3 -5h-27l-33 -4l-5 9zM95 73l33 -4h27l3 -5l-3 -5h-27l-33 -4l-5 9zM95 46l33 -4h27l3 -5l-3 -5h-27l-33 -4l-5 9zM95 18l33 -4h27l3 -5l-3 -5h-27l-33 -4l-5 9zM95 -9l33 -4h18l3 -5l-3 -5h-18l-33 -5l-5 10zM95 -36l33 -4h9l3 -5l-3 -5h-9l-33 -4l-5 9 zM95 -63l33 -4l3 -5l-3 -5l-33 -4l-5 9zM95 -90l23 -4l3 -5l-3 -5h-23l-5 5z" />
<glyph unicode="-" horiz-adv-x="250" d="M52 376h146l3 -5l-3 -5h-113l-33 -4l-5 9zM52 353l33 -4h113l3 -5l-3 -5h-113l-33 -4l-5 9zM52 326l33 -4h113l3 -5l-3 -5h-146l-5 5z" />
<glyph unicode="." horiz-adv-x="250" d="M95 96h60l3 -5l-3 -5h-27l-33 -4l-5 9zM95 73l33 -4h27l3 -5l-3 -5h-27l-33 -4l-5 9zM95 46l33 -4h27l3 -5l-3 -5h-60l-5 5z" />
<glyph unicode="/" horiz-adv-x="336" d="M260 642h14l-229 -610h-14zM290 642h14l-229 -610h-14z" />
<glyph unicode="0" horiz-adv-x="578" d="M145 605l34 -4h256l3 -5l-3 -5h-256l-34 -4l-5 9zM125 577l34 -4h53l3 -5l-10 -5h-46l-34 -4l-5 9zM93 495l34 -4h28l3 -5l-3 -5h-28l-34 -4l-5 9zM488 481h-61l-3 5l3 5h61l3 -5zM87 468l34 -4h26l3 -5l-3 -5h-26l-34 -5l-5 10zM82 441l34 -4h26l3 -5l-3 -5h-26l-34 -4 l-5 9zM494 454h-61l-3 5l3 5h61l3 -5zM499 427h-62l-3 5l3 5h62l3 -5zM176 632l34 -4h198l3 -5l-3 -5h-198l-34 -4l-5 9zM112 550l34 -4h38l3 -5l-3 -5h-38l-34 -4l-5 9zM102 523l34 -4h31l3 -5l-3 -5h-31l-34 -4l-5 9zM79 412l34 -3h26l3 -5l-3 -5h-26l-34 -4l-5 9zM77 386 l34 -4h26l3 -5l-3 -5h-26l-34 -4l-5 9zM76 359l34 -4h25l3 -5l-3 -5h-25l-34 -4l-5 9zM76 331l34 -4h25l3 -5l-3 -5h-25l-34 -4l-5 9zM77 304l34 -4h25l3 -5l-3 -5h-25l-34 -4l-5 9zM78 277l34 -4h27l3 -5l-3 -5h-27l-34 -4l-5 9zM82 249l34 -4h26l3 -5l-3 -5h-26l-34 -4 l-5 9zM87 222l34 -4h26l3 -5l-3 -5h-26l-34 -4l-5 9zM93 195l34 -4h29l3 -5l-3 -5h-29l-34 -4l-5 9zM102 167l34 -4h32l3 -5l-3 -5h-32l-34 -4l-5 9zM114 140l34 -4h41l3 -5l-3 -5h-41l-34 -5l-5 10zM129 113l34 -4h48l8 -5l-3 -5h-53l-34 -4l-5 9zM149 86l34 -4h251l3 -5 l-3 -5h-251l-34 -4l-5 9zM229 32l34 -4h90l3 -5l-3 -5h-124l-5 5zM218 655h142l3 -5l-3 -5h-108l-34 -4l-5 9zM184 59l34 -4h183l3 -5l-3 -5h-183l-34 -4l-5 9zM455 563h-81l-8 5l3 5h86l3 -5zM469 536h-70l-3 5l3 5h70l3 -5zM480 509h-64l-3 5l3 5h64l3 -5zM503 399h-64 l-3 5l3 5h64l3 -5zM503 372h-61l-3 5l3 5h61l3 -5zM505 345h-62l-3 5l3 5h62l3 -5zM505 317h-62l-3 5l3 5h62l3 -5zM503 290h-61l-3 5l3 5h61l3 -5zM499 263h-60l-3 5l3 5h60l3 -5zM498 235h-60l-3 5l3 5h60l3 -5zM493 208h-61l-3 5l3 5h61l3 -5zM487 181h-62l-3 5l3 5h62 l3 -5zM477 153h-65l-3 5l3 5h65l3 -5zM468 126h-69l-3 5l3 5h69l3 -5zM453 99h-83l-3 5l8 5h78l3 -5z" />
<glyph unicode="1" horiz-adv-x="353" d="M151 644h53l3 -5l-3 -5h-20l-33 -4l-5 9zM145 619l33 -4h26l3 -5l-3 -5h-26l-33 -4l-5 9zM145 592l33 -4h26l3 -5l-3 -5h-26l-33 -4l-5 9zM145 564l33 -4h26l3 -5l-3 -5h-26l-33 -4l-5 9zM145 537l33 -4h26l3 -5l-3 -5h-26l-33 -4l-5 9zM145 510l33 -4h26l3 -5l-3 -5h-26 l-33 -4l-5 9zM145 482l33 -4h26l3 -5l-3 -5h-26l-33 -4l-5 9zM145 455l33 -4h26l3 -5l-3 -5h-26l-33 -5l-5 10zM145 428l33 -4h26l3 -5l-3 -5h-26l-33 -4l-5 9zM145 399l33 -3h26l3 -5l-3 -5h-26l-33 -4l-5 9zM145 373l33 -4h26l3 -5l-3 -5h-26l-33 -4l-5 9zM145 346l33 -4 h26l3 -5l-3 -5h-26l-33 -4l-5 9zM145 318l33 -4h26l3 -5l-3 -5h-26l-33 -4l-5 9zM145 291l33 -4h26l3 -5l-3 -5h-26l-33 -4l-5 9zM145 264l33 -4h26l3 -5l-3 -5h-26l-33 -4l-5 9zM145 236l33 -4h26l3 -5l-3 -5h-26l-33 -4l-5 9zM145 209l33 -4h26l3 -5l-3 -5h-26l-33 -4 l-5 9zM145 182l33 -4h26l3 -5l-3 -5h-26l-33 -4l-5 9zM145 154l33 -4h26l3 -5l-3 -5h-26l-33 -4l-5 9zM145 127l33 -4h26l3 -5l-3 -5h-26l-33 -5l-5 10zM145 100l33 -4h26l3 -5l-3 -5h-26l-33 -4l-5 9zM145 73l33 -4h26l3 -5l-3 -5h-26l-33 -4l-5 9zM145 46l33 -4h26l3 -5 l-3 -5h-59l-5 5z" />
<glyph unicode="2" horiz-adv-x="555" d="M129 114l-33 -4l-5 9l5 9l33 -4h49l3 -5l-3 -5h-49zM123 568l-34 -4l-5 9l5 9l34 -4h63l3 -5l-3 -5h-63zM186 168l-33 -4l-5 9l5 9l33 -4h54l3 -5l-3 -5h-54zM151 594l-34 -4l-5 9l5 9l34 -4h266l3 -5l-3 -5h-266zM488 32h-421l-5 5l5 9l33 -4h388l3 -5zM100 59l-33 -4 l-5 9l5 9l33 -4h388l3 -5l-3 -5h-388zM101 86l-33 -4l-5 9l5 9l33 -4h387l3 -5l-3 -5h-387zM157 141l-33 -4l-5 9l5 9l33 -4h52l3 -5l-3 -5h-52zM216 196l-33 -4l-5 9l5 9l33 -4h53l3 -5l-3 -5h-53zM246 223l-33 -4l-5 9l5 10l33 -5h52l3 -5l-3 -5h-52zM275 250l-33 -4l-5 9 l5 9l33 -4h51l3 -5l-3 -5h-51zM305 278l-33 -3l-5 8l5 9l33 -4h49l3 -5l-3 -5h-49zM333 305l-33 -4l-5 9l5 9l33 -4h47l3 -5l-3 -5h-47zM358 331l-33 -4l-5 9l5 9l33 -4h41l3 -5l-3 -5h-41zM381 358l-33 -4l-5 9l5 9l33 -4h37l3 -5l-3 -5h-37zM399 384l-33 -4l-5 9l5 9 l33 -4h34l3 -5l-3 -5h-34zM416 410l-33 -4l-5 9l5 9l33 -4h27l3 -5l-3 -5h-27zM424 437l-34 -4l-5 9l5 9l34 -4h27l3 -5l-3 -5h-27zM427 463l-34 -4l-5 9l5 9l34 -4h27l3 -5l-3 -5h-27zM426 489l-34 -4l-5 9l5 9l34 -4h27l3 -5l-3 -5h-27zM419 516l-34 -4l-5 9l5 9l34 -4h31 l3 -5l-3 -5h-31zM135 542l-34 -4l-5 9l5 10l34 -5h9l3 -5l-3 -5h-9zM237 646l-34 -4l-5 9l5 5h139l3 -5l-3 -5h-105zM184 620l-34 -4l-5 9l5 9l34 -4h203l3 -5l-3 -5h-203zM378 568l-34 -4l-5 9l5 9l34 -4h56l3 -5l-3 -5h-56zM405 542l-34 -4l-5 9l5 10l34 -5h39l3 -5l-3 -5 h-39z" />
<glyph unicode="3" horiz-adv-x="554" d="M179 386l34 -4h176l3 -5l-3 -5h-176l-34 -4l-5 9zM441 563h-82l-9 5l3 5h88l3 -5zM453 509h-63l-3 5l3 5h63l3 -5zM457 99h-93l-3 5l8 5h88l3 -5zM415 399h-86l-3 5l8 5h81l3 -5zM445 290h-86l-8 5l3 5h91l3 -5zM99 117l34 -4h20l8 -5l-3 -5h-25l-34 -4l-5 9zM470 126 h-73l-3 5l3 5h73l3 -5zM449 536h-70l-3 5l3 5h70l3 -5zM447 454h-63l-3 5l3 5h63l3 -5zM437 427h-72l-3 5l3 5h72l3 -5zM135 632l34 -4h225l3 -5l-3 -5h-225l-34 -4l-5 9zM96 605l34 -4h295l3 -5l-3 -5h-295l-34 -4l-5 9zM177 359l34 -4h153l3 -5l-3 -5h-153l-34 -4l-5 9z M177 331l34 -4h198l3 -5l-3 -5h-198l-34 -4l-5 9zM99 86l34 -4h306l3 -5l-3 -5h-306l-34 -4l-5 9zM207 32l34 -4h103l3 -5l-3 -5h-137l-5 5zM191 655h138l3 -5l-3 -5h-104l-34 -4l-5 9zM140 59l34 -4h236l3 -5l-3 -5h-236l-34 -4l-5 9zM476 153h-64l-3 5l3 5h64l3 -5z M453 481h-62l-3 5l3 5h62l3 -5zM463 263h-72l-3 5l3 5h72l3 -5zM473 235h-62l-3 5l3 5h62l3 -5zM478 208h-61l-3 5l3 5h61l3 -5zM478 181h-61l-3 5l3 5h61l3 -5zM113 573l34 -4h5l3 -5l-8 -5l-34 -4l-5 9z" />
<glyph unicode="4" horiz-adv-x="579" d="M431 168h-59l-3 5l3 5h59l3 -5zM431 332h-59l-3 5l3 5h59l3 -5zM431 277h-59l-3 5l3 5h59l3 -5zM81 291l33 -4h30l3 -5l-3 -5h-30l-33 -4l-5 9zM432 496h-60l-3 5l3 5h60l3 -5zM432 468h-60l-3 5l3 5h60l3 -5zM431 140h-59l-3 5l3 5h59l3 -5zM242 510l33 -4h31l3 -5 l-3 -5h-31l-33 -4l-5 9zM220 482l33 -4h32l3 -5l-3 -5h-32l-33 -4l-5 9zM117 346l33 -4h35l3 -5l-3 -5h-35l-33 -4l-5 9zM432 550h-60l-3 5l3 5h60l3 -5zM432 523h-60l-3 5l3 5h60l3 -5zM432 441h-60l-3 5l3 5h60l3 -5zM432 414h-60l-3 5l3 5h60l3 -5zM432 386h-60l-3 5l3 5 h60l3 -5zM432 359h-60l-3 5l3 5h60l3 -5zM431 304h-59l-3 5l3 5h59l3 -5zM431 113h-59l-3 5l3 5h59l3 -5zM431 86h-59l-3 5l3 5h59l3 -5zM431 59h-59l-3 5l3 5h59l3 -5zM431 32h-59l-3 5l3 5h59l3 -5zM344 642h87l3 -5l-3 -5h-54l-33 -4l-5 9zM324 619l33 -4h74l3 -5l-3 -5 h-74l-33 -4l-5 9zM304 592l33 -4h94l3 -5l-3 -5h-94l-33 -4l-5 9zM282 564l33 -4h31l3 -5l-3 -5h-31l-33 -4l-5 9zM262 537l33 -4h31l3 -5l-3 -5h-31l-33 -4l-5 9zM200 455l33 -4h32l3 -5l-3 -5h-32l-33 -5l-5 10zM181 428l33 -4h31l3 -5l-3 -5h-31l-33 -4l-5 9zM159 399 l33 -3h33l3 -5l-3 -5h-33l-33 -4l-5 9zM138 373l33 -4h35l3 -5l-3 -5h-35l-33 -4l-5 9zM96 318l33 -4h36l3 -5l-3 -5h-36l-33 -4l-5 9zM63 264l33 -4h419l3 -5l-3 -5h-419l-33 -4l-5 9zM63 236l33 -4h419l3 -5l-3 -5h-419l-33 -4l-5 9zM63 209l33 -4h419l3 -5l-3 -5h-419 l-33 -4l-5 9z" />
<glyph unicode="5" horiz-adv-x="526" d="M97 564l33 -4h26l3 -5l-3 -5h-26l-33 -4l-5 9zM97 537l33 -4h26l3 -5l-3 -5h-26l-33 -4l-5 9zM97 428l33 -4h26l3 -5l-3 -5h-26l-33 -4l-5 9zM97 347l33 -4h294l3 -5l-3 -5h-294l-33 -4l-5 9zM441 306h-90l-8 5l3 5h95l3 -5zM63 110l34 -4h56l10 -5l-3 -5h-63l-34 -4 l-5 9zM97 642h336l3 -5l-3 -5h-303l-33 -4l-5 9zM97 619l33 -4h303l3 -5l-3 -5h-303l-33 -4l-5 9zM97 592l33 -4h303l3 -5l-3 -5h-303l-33 -4l-5 9zM97 510l33 -4h26l3 -5l-3 -5h-26l-33 -4l-5 9zM97 482l33 -4h26l3 -5l-3 -5h-26l-33 -4l-5 9zM97 455l33 -4h26l3 -5l-3 -5 h-26l-33 -5l-5 10zM97 399l33 -3h204l3 -5l-3 -5h-204l-33 -4l-5 9zM98 373l33 -4h265l3 -5l-3 -5h-265l-33 -4l-5 9zM452 280h-76l-3 5l3 5h76l3 -5zM458 254h-67l-3 5l3 5h67l3 -5zM461 227h-60l-4 5l4 5h60l3 -5zM461 201h-59l-3 5l3 5h59l3 -5zM459 175h-61l-3 5l3 5h61 l3 -5zM454 148h-67l-3 5l3 5h67l3 -5zM445 122h-76l-3 5l3 5h76l3 -5zM93 137l16 -4l3 -5l-3 -5l-16 -5l-5 10zM78 84l34 -4h299l4 -5l-4 -5h-299l-34 -4l-5 9zM164 32l34 -4h127l3 -5l-3 -5h-161l-5 5zM116 58l34 -4h228l3 -5l-3 -5h-228l-34 -4l-5 9zM431 96h-93l-3 5l8 5 h88l3 -5z" />
<glyph unicode="6" horiz-adv-x="601" d="M99 167l34 -4h29l3 -5l-3 -5h-29l-34 -4l-5 9zM123 113l34 -4h55l7 -5l-3 -5h-59l-34 -4l-5 9zM87 441l34 -4h23l3 -5l-3 -5h-23l-34 -4l-5 9zM161 605l34 -4h294l3 -5l-3 -5h-294l-34 -4l-5 9zM77 359l34 -4h347l3 -5l-3 -5h-347l-34 -4l-5 9zM196 632l34 -4h228l3 -5 l-3 -5h-228l-34 -4l-5 9zM138 577l34 -4h55l3 -5l-8 -5h-50l-34 -4l-5 9zM122 550l34 -4h39l3 -5l-3 -5h-39l-34 -4l-5 9zM110 523l34 -4h29l3 -5l-3 -5h-29l-34 -4l-5 9zM100 495l34 -4h24l3 -5l-3 -5h-24l-34 -4l-5 9zM93 468l34 -4h23l3 -5l-3 -5h-23l-34 -5l-5 10z M82 412l34 -3h24l3 -5l-3 -5h-24l-34 -4l-5 9zM79 386l34 -4h22l3 -5l-3 -5h-22l-34 -4l-5 9zM76 331l34 -4h70l3 -5l-8 -5h-65l-34 -4l-5 9zM76 304l34 -4h27l3 -5l-3 -5h-27l-34 -4l-5 9zM77 277l34 -4h22l3 -5l-3 -5h-22l-34 -4l-5 9zM80 249l34 -4h20l3 -5l-3 -5h-20 l-34 -4l-5 9zM84 222l34 -4h21l3 -5l-3 -5h-21l-34 -4l-5 9zM91 195l34 -4h23l3 -5l-3 -5h-23l-34 -4l-5 9zM110 140l34 -4h38l3 -5l-3 -5h-38l-34 -5l-5 10zM144 86l34 -4h273l3 -5l-3 -5h-273l-34 -4l-5 9zM233 32l34 -4h89l3 -5l-3 -5h-123l-5 5zM256 655h140l3 -5l-3 -5 h-106l-34 -4l-5 9zM180 59l34 -4h202l3 -5l-3 -5h-202l-34 -4l-5 9zM490 563h-68l-8 5l3 5h73l3 -5zM467 536h-17l-3 5l3 5h17l3 -5zM497 153h-63l-3 5l3 5h63l3 -5zM487 126h-71l-3 5l3 5h71l3 -5zM471 99h-86l-3 5l8 5h81l3 -5zM368 399h-128l-3 5l3 5h128l3 -5zM426 372 h-255l-3 5l3 5h255l3 -5zM483 317h-88l-8 5l3 5h93l3 -5zM496 290h-77l-3 5l3 5h77l3 -5zM503 263h-67l-3 5l3 5h67l3 -5zM507 235h-62l-3 5l3 5h62l3 -5zM506 208h-58l-3 5l3 5h58l3 -5zM504 181h-59l-3 5l3 5h59l3 -5z" />
<glyph unicode="7" horiz-adv-x="503" d="M365 564l33 -4h28l3 -5l-3 -5h-28l-33 -4l-5 9zM345 537l33 -4h31l3 -5l-3 -5h-31l-33 -4l-5 9zM211 291l33 -4h28l3 -5l-3 -5h-28l-33 -4l-5 9zM62 642h373l3 -5l-3 -5h-340l-33 -4l-5 9zM62 619l33 -4h340l3 -5l-3 -5h-340l-33 -4l-5 9zM62 592l33 -4h340l3 -5l-3 -5 h-340l-33 -4l-5 9zM329 510l33 -4h31l3 -5l-3 -5h-31l-33 -4l-5 9zM312 482l33 -4h31l3 -5l-3 -5h-31l-33 -4l-5 9zM296 455l33 -4h31l3 -5l-3 -5h-31l-33 -5l-5 10zM279 428l33 -4h32l3 -5l-3 -5h-32l-33 -4l-5 9zM263 399l33 -3h31l3 -5l-3 -5h-31l-33 -4l-5 9zM246 373 l33 -4l33 1l3 -5l-3 -5l-33 -1l-33 -4l-5 9zM234 346l33 -4h31l3 -5l-3 -5h-31l-33 -4l-5 9zM220 318l33 -4h29l3 -5l-3 -5h-29l-33 -4l-5 9zM200 264l33 -4h31l3 -5l-3 -5h-31l-33 -4l-5 9zM196 236l33 -4h28l3 -5l-3 -5h-28l-33 -4l-5 9zM190 209l33 -4h24l3 -5l-3 -5h-24 l-33 -4l-5 9zM187 182l33 -4h23l3 -5l-3 -5h-23l-33 -4l-5 9zM183 154l33 -4h25l3 -5l-3 -5h-25l-33 -4l-5 9zM183 127l33 -4h24l3 -5l-3 -5h-24l-33 -5l-5 10zM182 100l33 -4h25l3 -5l-3 -5h-25l-33 -4l-5 9zM182 73l33 -4h25l3 -5l-3 -5h-25l-33 -4l-5 9zM182 46l33 -4h25 l3 -5l-3 -5h-58l-5 5z" />
<glyph unicode="8" horiz-adv-x="598" d="M118 304l34 -4h49l3 -5l-8 -5h-44l-34 -4l-5 9zM106 113l34 -4h55l9 -5l-3 -5h-61l-34 -4l-5 9zM168 59l34 -4h237l3 -5l-3 -5h-237l-34 -4l-5 9zM123 577l34 -4h54l3 -5l-9 -5h-48l-34 -4l-5 9zM478 563h-78l-8 5l3 5h83l3 -5zM175 386l34 -4h221l3 -5l-3 -5h-221 l-34 -4l-5 9zM145 605l34 -4h280l3 -5l-3 -5h-280l-34 -4l-5 9zM105 495l33 -4h23l3 -5l-3 -5h-23l-33 -4l-5 9zM496 481h-56l-3 5l3 5h56l3 -5zM109 468l34 -4h25l3 -5l-3 -5h-25l-34 -5l-5 10zM118 441l34 -4h34l3 -5l-3 -5h-34l-34 -4l-5 9zM149 331l34 -4h274l3 -5 l-3 -5h-274l-34 -4l-5 9zM493 454h-58l-3 5l3 5h58l3 -5zM484 427h-67l-3 5l3 5h67l3 -5zM177 632l34 -4h216l3 -5l-3 -5h-216l-34 -4l-5 9zM112 550l34 -4h33l3 -5l-3 -5h-33l-34 -4l-5 9zM106 523l34 -4h25l3 -5l-3 -5h-25l-34 -4l-5 9zM140 412l34 -3h38l8 -5l-3 -5h-43 l-34 -4l-5 9zM195 359l34 -4h178l3 -5l-3 -5h-178l-34 -4l-5 9zM100 277l34 -4h34l3 -5l-3 -5h-34l-34 -4l-5 9zM90 249l34 -4h25l3 -5l-3 -5h-25l-34 -4l-5 9zM85 222l34 -4h22l3 -5l-3 -5h-22l-34 -4l-5 9zM84 195l34 -4h23l3 -5l-3 -5h-23l-34 -4l-5 9zM87 167l34 -4h27 l3 -5l-3 -5h-27l-34 -4l-5 9zM94 140l34 -4h40l3 -5l-3 -5h-40l-34 -5l-5 10zM129 86l34 -4h313l3 -5l-3 -5h-313l-34 -4l-5 9zM232 32l34 -4h107l3 -5l-3 -5h-141l-5 5zM231 655h134l3 -5l-3 -5h-100l-34 -4l-5 9zM489 536h-66l-3 5l3 5h66l3 -5zM495 509h-59l-3 5l3 5h59 l3 -5zM468 399h-87l-3 5l7 5h83l3 -5zM483 290h-83l-8 5l3 5h88l3 -5zM500 263h-69l-3 5l3 5h69l3 -5zM511 235h-64l-3 5l3 5h64l3 -5zM516 208h-61l-3 5l3 5h61l3 -5zM516 181h-61l-3 5l3 5h61l3 -5zM513 153h-64l-3 5l3 5h64l3 -5zM506 126h-77l-3 5l3 5h77l3 -5zM494 99 h-103l-3 5l8 5h98l3 -5z" />
<glyph unicode="9" horiz-adv-x="601" d="M152 101l-34 -4l-5 9l5 9l34 -4h26l8 -5l-3 -5h-31zM166 565l-34 -4l-5 9l5 9l34 -4h48l3 -5l-9 -5h-42zM504 511h-65l-3 5l3 5h65l3 -5zM211 292l-34 -4l-5 9l5 9l34 -4h215l3 -5l-3 -5h-215zM524 292h-59l-3 5l3 5h59l3 -5zM517 237h-58l-3 5l3 5h58l3 -5zM150 538 l-34 -4l-5 9l5 10l34 -5h34l3 -5l-3 -5h-34zM494 538h-74l-3 5l3 5h74l3 -5zM130 429l-34 -4l-5 9l5 9l34 -4h26l3 -5l-3 -5h-26zM130 456l-34 -4l-5 9l5 9l34 -4h24l3 -5l-3 -5h-24zM133 483l-34 -4l-5 9l5 9l34 -4h24l3 -5l-3 -5h-24zM513 483h-61l-3 5l3 5h61l3 -5z M519 456h-57l-3 5l3 5h57l3 -5zM523 429h-57l-3 5l3 5h57l3 -5zM188 46l-34 -4l-5 9l5 9l34 -4h222l3 -5l-3 -5h-222zM155 73l-34 -4l-5 9l5 9l34 -4h289l3 -5l-3 -5h-289zM176 319l-34 -4l-5 9l5 9l34 -4h350l3 -5l-3 -5h-350zM154 347l-34 -4l-5 9l5 9l34 -4h44l8 -5 l-3 -5h-49zM142 374l-34 -4l-5 9l5 9l34 -4h39l3 -5l-3 -5h-39zM134 401l-34 -4l-5 9l5 9l34 -4h31l3 -5l-3 -5h-31zM140 511l-34 -4l-5 9l5 9l34 -4h26l3 -5l-3 -5h-26zM188 592l-34 -4l-5 9l5 9l34 -4h272l3 -5l-3 -5h-272zM278 646l-34 -4l-5 9l5 5h130l3 -5l-3 -5h-96z M351 19h-141l-5 5l5 9l34 -4h107l3 -5zM224 619l-34 -4l-5 9l5 9l34 -4h204l3 -5l-3 -5h-204zM355 265h-113l-5 5l5 9l34 -4h79l3 -5zM479 565h-83l-8 5l3 5h88l3 -5zM526 401h-58l-3 5l3 5h58l3 -5zM528 374h-65l-3 5l3 5h65l3 -5zM527 345h-105l-3 5l8 5h100l3 -5z M521 265h-58l-3 5l3 5h58l3 -5zM511 210h-59l-3 5l3 5h59l3 -5zM503 183h-60l-3 5l3 5h60l3 -5zM494 155h-66l-3 5l3 5h66l3 -5zM482 128h-77l-3 5l3 5h77l3 -5zM466 101h-94l-3 5l7 5h90l3 -5z" />
<glyph unicode=":" horiz-adv-x="250" d="M95 433h60l3 -5l-3 -5h-27l-33 -4l-5 9zM95 410l33 -4h27l3 -5l-3 -5h-27l-33 -4l-5 9zM95 383l33 -4h27l3 -5l-3 -5h-60l-5 5zM95 96h60l3 -5l-3 -5h-27l-33 -4l-5 9zM95 73l33 -4h27l3 -5l-3 -5h-27l-33 -4l-5 9zM95 46l33 -4h27l3 -5l-3 -5h-60l-5 5z" />
<glyph unicode=";" horiz-adv-x="250" d="M95 96h60l3 -5l-3 -5h-27l-33 -4l-5 9zM95 73l33 -4h27l3 -5l-3 -5h-27l-33 -4l-5 9zM95 46l33 -4h27l3 -5l-3 -5h-27l-33 -4l-5 9zM95 18l33 -4h27l3 -5l-3 -5h-27l-33 -4l-5 9zM95 -9l33 -4h18l3 -5l-3 -5h-18l-33 -5l-5 10zM95 -36l33 -4h9l3 -5l-3 -5h-9l-33 -4l-5 9 zM95 -63l33 -4l3 -5l-3 -5l-33 -4l-5 9zM95 -90l23 -4l3 -5l-3 -5h-23l-5 5zM95 433h60l3 -5l-3 -5h-27l-33 -4l-5 9zM95 410l33 -4h27l3 -5l-3 -5h-27l-33 -4l-5 9zM95 383l33 -4h27l3 -5l-3 -5h-60l-5 5z" />
<glyph unicode="&#x3c;" d="M109 636v-419l123 -121v61l-82 108v74l202 -201v-61l39 -41v250l-39 39v-76l-202 201v65l82 -54v54zM420 0h-338v675h338v-675z" />
<glyph unicode="=" d="M480 125h-460v55h460v-55zM480 325h-460v55h460v-55z" />
<glyph unicode="&#x3e;" d="M109 636v-419l123 -121v61l-82 108v74l202 -201v-61l39 -41v250l-39 39v-76l-202 201v65l82 -54v54zM420 0h-338v675h338v-675z" />
<glyph unicode="?" horiz-adv-x="439" d="M295 577l34 -4h34l3 -5l-3 -5h-34l-34 -4l-5 9zM87 577l35 -4h8l3 -5l-3 -5h-8l-35 -4l-5 9zM78 605l34 -4h238l3 -5l-3 -5h-238l-34 -4l-5 9zM113 632l34 -4h183l3 -5l-3 -5h-183l-34 -4l-5 9zM169 655h105l3 -5l-3 -5h-71l-34 -4l-5 9zM198 357l34 -4h62l3 -5l-3 -5 h-62l-34 -4l-5 9zM234 385l34 -4h57l3 -5l-3 -5h-57l-34 -4l-5 9zM173 328l34 -4h52l3 -5l-3 -5h-52l-34 -4l-5 9zM269 412l34 -3h43l3 -5l-3 -5h-43l-34 -4l-5 9zM291 441l34 -4h36l3 -5l-3 -5h-36l-34 -4l-5 9zM310 550l34 -4h27l3 -5l-3 -5h-27l-34 -4l-5 9zM310 468 l34 -4h25l3 -5l-3 -5h-25l-34 -5l-5 10zM174 215l34 -4h26l3 -5l-3 -5h-26l-34 -4l-5 9zM174 272l34 -4h26l3 -5l-3 -5h-26l-34 -4l-5 9zM174 300l34 -4h26l3 -5l-3 -5h-26l-34 -4l-5 9zM174 243l34 -4h26l3 -5l-3 -5h-26l-34 -4l-5 9zM174 73l33 -4h27l3 -5l-3 -5h-27 l-33 -4l-5 9zM318 523l34 -4h23l3 -5l-3 -5h-23l-34 -4l-5 9zM317 495l34 -4h22l3 -5l-3 -5h-22l-34 -4l-5 9zM174 187l34 -4h26l3 -5l-3 -5h-60l-5 5zM174 96h60l3 -5l-3 -5h-27l-33 -4l-5 9zM174 46l33 -4h27l3 -5l-3 -5h-60l-5 5z" />
<glyph unicode="@" horiz-adv-x="784" d="M184 86l34 -4h391l3 -5l-3 -5h-391l-34 -4l-5 9zM208 605l34 -4h349l3 -5l-3 -5h-349l-34 -4l-5 9zM227 59l34 -4h348l3 -5l-3 -5h-348l-34 -4l-5 9zM99 412l34 -3h342l3 -5l-3 -5h-342l-34 -4l-5 9zM106 441l34 -4h335l3 -5l-3 -5h-335l-34 -4l-5 9zM294 32l34 -4h281 l3 -5l-3 -5h-315l-5 5zM255 632l34 -4h262l3 -5l-3 -5h-262l-34 -4l-5 9zM95 386l34 -4h148l3 -5l-9 -5h-142l-34 -4l-5 9zM311 655h159l3 -5l-3 -5h-125l-34 -4l-5 9zM305 245h170l3 -5l-3 -5h-170l-3 5zM115 468l34 -4h114l3 -5l-3 -5h-114l-34 -5l-5 10zM310 218h165 l3 -5l-3 -5h-160l-8 5zM319 273h155l4 -5l-3 -5h-161l-3 5zM93 359l34 -4h100l3 -5l-3 -5h-100l-34 -4l-5 9zM125 495l34 -4h95l3 -5l-3 -5h-95l-34 -4l-5 9zM179 577l34 -4h84l3 -5l-9 -5h-78l-34 -4l-5 9zM156 113l34 -4h75l8 -5l-3 -5h-80l-34 -4l-5 9zM92 331l34 -4h76 l3 -5l-3 -5h-76l-34 -4l-5 9zM495 573h127l3 -5l-3 -5h-122l-8 5zM338 464h113l8 -5l-3 -5h-123l-3 5zM134 140l34 -4h63l3 -5l-3 -5h-63l-34 -5l-5 10zM137 523l34 -4h63l3 -5l-3 -5h-63l-34 -4l-5 9zM92 304l34 -4h62l3 -5l-3 -5h-62l-34 -4l-5 9zM156 550l34 -4h54l3 -5 l-8 -5h-49l-34 -4l-5 9zM94 277l34 -4h51l3 -5l-3 -5h-51l-34 -4l-5 9zM544 546h99l3 -5l-3 -5h-99l-3 5zM120 167l34 -4h48l3 -5l-3 -5h-48l-34 -4l-5 9zM98 249l34 -4h45l3 -5l-3 -5h-45l-34 -4l-5 9zM566 519h93l3 -5l-3 -5h-93l-3 5zM110 195l34 -4h42l3 -5l-3 -5h-42 l-34 -4l-5 9zM602 355h92l3 -5l-3 -5h-92l-3 5zM602 382h92l3 -5l-3 -5h-92l-3 5zM104 222l34 -4h40l3 -5l-3 -5h-40l-34 -4l-5 9zM602 327h90l3 -5l-3 -5h-90l-3 5zM602 409h90l3 -5l-3 -5h-90l-3 5zM595 464h87l3 -5l-3 -5h-87l-3 5zM601 437h87l3 -5l-3 -5h-87l-3 5z M585 491h87l3 -5l-3 -5h-87l-3 5zM602 300h86l3 -5l-3 -5h-86l-3 5zM602 273h78l3 -5l-3 -5h-78l-3 5zM602 245h66l3 -5l-3 -5h-66l-3 5zM602 218h36l3 -5l-3 -5h-36l-3 5z" />
<glyph unicode="A" horiz-adv-x="675" d="M495 178h69l3 -5l-3 -5h-69l-3 5zM146 168l-33 -4l-5 9l5 9l33 -4h36l3 -5l-3 -5h-36zM454 288h70l3 -5l-3 -5h-70l-3 5zM186 278l-33 -3l-5 8l5 9l33 -4h37l3 -5l-3 -5h-37zM382 479h71l3 -5l-3 -5h-71l-3 5zM372 506h71l3 -5l-3 -5h-71l-3 5zM196 305l-33 -4l-5 9l5 9 l33 -4h37l3 -5l-3 -5h-37zM257 469l-33 -4l-5 9l5 9l33 -4h38l3 -5l-3 -5h-38zM266 496l-33 -4l-5 9l5 9l33 -4h39l3 -5l-3 -5h-39zM535 69h69l3 -5l-3 -5h-69l-3 5zM525 96h69l3 -5l-3 -5h-69l-3 5zM515 124h69l3 -5l-3 -5h-69l-3 5zM505 151h69l3 -5l-3 -5h-69l-3 5z M443 315h71l3 -5l-3 -5h-71l-3 5zM434 342h70l3 -5l-3 -5h-70l-3 5zM423 370h71l3 -5l-3 -5h-71l-3 5zM413 397h70l3 -5l-3 -5h-70l-3 5zM403 424h70l3 -5l-3 -5h-70l-3 5zM392 452h71l3 -5l-3 -5h-71l-3 5zM362 534h71l3 -5l-3 -5h-71l-3 5zM351 561h72l3 -5l-3 -5h-72 l-3 5zM545 42h69l3 -5l-3 -5h-69l-3 5zM130 32h-67l-5 5l5 9l33 -4h34l3 -5zM106 59l-33 -4l-5 9l5 9l33 -4h35l3 -5l-3 -5h-35zM116 86l-33 -4l-5 9l5 9l33 -4h35l3 -5l-3 -5h-35zM126 114l-33 -4l-5 9l5 9l33 -4h36l3 -5l-3 -5h-36zM136 141l-33 -4l-5 9l5 9l33 -4h36 l3 -5l-3 -5h-36zM206 332l-33 -4l-5 9l5 9l33 -4h37l3 -5l-3 -5h-37zM217 360l-33 -4l-5 9l5 9l33 -4h36l3 -5l-3 -5h-36zM227 387l-33 -4l-5 9l5 9l33 -4h36l3 -5l-3 -5h-36zM236 414l-33 -4l-5 9l5 9l33 -4h38l3 -5l-3 -5h-38zM247 442l-33 -4l-5 9l5 9l33 -4h37l3 -5 l-3 -5h-37zM277 524l-33 -4l-5 9l5 9l33 -4h38l3 -5l-3 -5h-38zM287 551l-33 -4l-5 9l5 10l33 -5h38l3 -5l-3 -5h-38zM297 578l-33 -4l-5 9l5 9l33 -4h116l3 -5l-3 -5h-116zM307 605l-33 -4l-5 9l5 9l33 -4h96l3 -5l-3 -5h-96zM316 632l-33 -4l-5 9l5 5h111l3 -5l-3 -5h-78z M156 196l-33 -4l-5 9l5 9l33 -4h398l3 -5l-3 -5h-398zM166 223l-33 -4l-5 9l5 10l33 -5h378l3 -5l-3 -5h-378zM176 250l-33 -4l-5 9l5 9l33 -4h358l3 -5l-3 -5h-358z" />
<glyph unicode="B" horiz-adv-x="682" d="M126 564l33 -4h27l3 -5l-3 -5h-27l-33 -4l-5 9zM126 399l33 -3h27l3 -5l-3 -5h-27l-33 -4l-5 9zM552 550h-100l-8 5l3 5h105l3 -5zM538 386h-87l-3 5l8 5h82l3 -5zM126 373l33 -4h352l3 -5l-3 -5h-352l-33 -4l-5 9zM126 510l33 -4h27l3 -5l-3 -5h-27l-33 -4l-5 9z M126 482l33 -4h27l3 -5l-3 -5h-27l-33 -4l-5 9zM126 318l33 -4h381l3 -5l-3 -5h-381l-33 -4l-5 9zM600 195h-67l-3 5l3 5h67l3 -5zM126 455l33 -4h27l3 -5l-3 -5h-27l-33 -5l-5 10zM564 441l-67 -1l-3 5l3 5l67 1l3 -5zM567 496h-68l-3 5l3 5h68l3 -5zM569 468h-72l-3 5l3 5 h72l3 -5zM126 642h324l3 -5l-3 -5h-291l-33 -4l-5 9zM126 619l33 -4h350l3 -5l-3 -5h-350l-33 -4l-5 9zM126 592l33 -4h374l3 -5l-3 -5h-374l-33 -4l-5 9zM126 537l33 -4h27l3 -5l-3 -5h-27l-33 -4l-5 9zM126 428l33 -4h27l3 -5l-3 -5h-27l-33 -4l-5 9zM126 346l33 -4h331 l3 -5l-3 -5h-331l-33 -4l-5 9zM126 291l33 -4h27l3 -5l-3 -5h-27l-33 -4l-5 9zM126 264l33 -4h27l3 -5l-3 -5h-27l-33 -4l-5 9zM126 236l33 -4h27l3 -5l-3 -5h-27l-33 -4l-5 9zM126 209l33 -4h27l3 -5l-3 -5h-27l-33 -4l-5 9zM126 182l33 -4h27l3 -5l-3 -5h-27l-33 -4l-5 9z M126 154l33 -4h27l3 -5l-3 -5h-27l-33 -4l-5 9zM126 127l33 -4h27l3 -5l-3 -5h-27l-33 -5l-5 10zM126 100l33 -4h407l3 -5l-3 -5h-407l-33 -4l-5 9zM126 73l33 -4h375l3 -5l-3 -5h-375l-33 -4l-5 9zM126 46l33 -4h306l3 -5l-3 -5h-339l-5 5zM562 523h-78l-3 5l3 5h78l3 -5z M553 414h-70l-3 5l3 5h70l3 -5zM575 277h-105l-8 5l3 5h110l3 -5zM590 250h-76l-3 5l3 5h76l3 -5zM595 222h-67l-3 5l3 5h67l3 -5zM599 168h-69l-3 5l3 5h69l3 -5zM593 140h-78l-3 5l3 5h78l3 -5zM583 113h-106l-3 5l8 5h101l3 -5z" />
<glyph unicode="C" horiz-adv-x="682" d="M161 577l34 -4h77l3 -5l-8 -5h-72l-34 -4l-5 9zM122 167l34 -4h57l3 -5l-3 -5h-57l-34 -4l-5 9zM588 563h-114l-8 5l3 5h119l3 -5zM569 153h-33l-3 5l3 5h33l3 -5zM228 632l34 -4h251l3 -5l-3 -5h-251l-34 -4l-5 9zM190 605l34 -4h328l3 -5l-3 -5h-328l-34 -4l-5 9z M141 550l34 -4h61l3 -5l-3 -5h-61l-34 -4l-5 9zM125 523l34 -4h51l3 -5l-3 -5h-51l-34 -4l-5 9zM113 495l34 -4h43l3 -5l-3 -5h-43l-34 -4l-5 9zM102 468l34 -4h41l3 -5l-3 -5h-41l-34 -5l-5 10zM95 441l34 -4h37l3 -5l-3 -5h-37l-34 -4l-5 9zM89 412l34 -3h33l3 -5l-3 -5 h-33l-34 -4l-5 9zM85 386l34 -4h33l3 -5l-3 -5h-33l-34 -4l-5 9zM83 359l34 -4h33l3 -5l-3 -5h-33l-34 -4l-5 9zM83 331l34 -4h33l3 -5l-3 -5h-33l-34 -4l-5 9zM85 304l34 -4h33l3 -5l-3 -5h-33l-34 -4l-5 9zM89 277l34 -4h33l3 -5l-3 -5h-33l-34 -4l-5 9zM94 249l34 -4h39 l3 -5l-3 -5h-39l-34 -4l-5 9zM101 222l34 -4h44l3 -5l-3 -5h-44l-34 -4l-5 9zM110 195l34 -4h49l3 -5l-3 -5h-49l-34 -4l-5 9zM140 140l34 -4h63l3 -5l-3 -5h-63l-34 -5l-5 10zM159 113l34 -4h79l8 -5l-3 -5h-84l-34 -4l-5 9zM192 86l34 -4h329l3 -5l-3 -5h-329l-34 -4l-5 9 zM301 32l34 -4h115l3 -5l-3 -5h-149l-5 5zM284 655h156l3 -5l-3 -5h-122l-34 -4l-5 9zM232 59l34 -4h252l3 -5l-3 -5h-252l-34 -4l-5 9zM598 536h-88l-3 5l3 5h88l3 -5zM571 509h-28l-3 5l3 5h28l3 -5zM597 126h-88l-3 5l3 5h88l3 -5zM589 99h-125l-3 5l8 5h120l3 -5z" />
<glyph unicode="D" horiz-adv-x="742" d="M126 564l33 -4h27l3 -5l-3 -5h-27l-33 -4l-5 9zM126 510l33 -4h27l3 -5l-3 -5h-27l-33 -4l-5 9zM622 496h-91l-3 5l3 5h91l3 -5zM126 642h311l3 -5l-3 -5h-278l-33 -4l-5 9zM126 619l33 -4h353l3 -5l-3 -5h-353l-33 -4l-5 9zM126 592l33 -4h394l3 -5l-3 -5h-394l-33 -4 l-5 9zM126 537l33 -4h27l3 -5l-3 -5h-27l-33 -4l-5 9zM126 482l33 -4h27l3 -5l-3 -5h-27l-33 -4l-5 9zM126 455l33 -4h27l3 -5l-3 -5h-27l-33 -5l-5 10zM126 428l33 -4h27l3 -5l-3 -5h-27l-33 -4l-5 9zM126 399l33 -3h27l3 -5l-3 -5h-27l-33 -4l-5 9zM126 373l33 -4h27l3 -5 l-3 -5h-27l-33 -4l-5 9zM126 346l33 -4h27l3 -5l-3 -5h-27l-33 -4l-5 9zM126 318l33 -4h27l3 -5l-3 -5h-27l-33 -4l-5 9zM126 291l33 -4h27l3 -5l-3 -5h-27l-33 -4l-5 9zM126 264l33 -4h27l3 -5l-3 -5h-27l-33 -4l-5 9zM126 236l33 -4h27l3 -5l-3 -5h-27l-33 -4l-5 9z M126 209l33 -4h27l3 -5l-3 -5h-27l-33 -4l-5 9zM126 182l33 -4h27l3 -5l-3 -5h-27l-33 -4l-5 9zM126 154l33 -4h27l3 -5l-3 -5h-27l-33 -4l-5 9zM126 127l33 -4h27l3 -5l-3 -5h-27l-33 -5l-5 10zM126 100l33 -4h394l3 -5l-3 -5h-394l-33 -4l-5 9zM126 73l33 -4h353l3 -5 l-3 -5h-353l-33 -4l-5 9zM126 46l33 -4h278l3 -5l-3 -5h-311l-5 5zM582 550h-133l-8 5l3 5h138l3 -5zM604 523h-106l-3 5l3 5h106l3 -5zM635 468h-83l-3 5l3 5h83l3 -5zM645 441h-77l-3 5l3 5h77l3 -5zM651 414h-72l-3 5l3 5h72l3 -5zM656 386h-69l-3 5l3 5h69l3 -5z M660 359h-69l-3 5l3 5h69l3 -5zM661 332h-69l-3 5l3 5h69l3 -5zM660 304h-69l-3 5l3 5h69l3 -5zM656 277h-69l-3 5l3 5h69l3 -5zM652 250h-73l-3 5l3 5h73l3 -5zM645 222h-77l-3 5l3 5h77l3 -5zM635 195h-83l-3 5l3 5h83l3 -5zM622 168h-91l-3 5l3 5h91l3 -5zM604 140h-106 l-3 5l3 5h106l3 -5zM582 113h-138l-3 5l8 5h133l3 -5z" />
<glyph unicode="E" horiz-adv-x="626" d="M126 564l33 -4h27l3 -5l-3 -5h-27l-33 -4l-5 9zM126 428l33 -4h27l3 -5l-3 -5h-27l-33 -4l-5 9zM126 318l33 -4h27l3 -5l-3 -5h-27l-33 -4l-5 9zM126 127l33 -4h27l3 -5l-3 -5h-27l-33 -5l-5 10zM126 510l33 -4h27l3 -5l-3 -5h-27l-33 -4l-5 9zM126 642h385l3 -5l-3 -5 h-352l-33 -4l-5 9zM126 619l33 -4h352l3 -5l-3 -5h-352l-33 -4l-5 9zM126 592l33 -4h352l3 -5l-3 -5h-352l-33 -4l-5 9zM126 537l33 -4h27l3 -5l-3 -5h-27l-33 -4l-5 9zM126 482l33 -4h27l3 -5l-3 -5h-27l-33 -4l-5 9zM126 455l33 -4h27l3 -5l-3 -5h-27l-33 -5l-5 10z M126 399l33 -3h322l3 -5l-3 -5h-322l-33 -4l-5 9zM126 373l33 -4h322l3 -5l-3 -5h-322l-33 -4l-5 9zM126 346l33 -4h322l3 -5l-3 -5h-322l-33 -4l-5 9zM126 291l33 -4h27l3 -5l-3 -5h-27l-33 -4l-5 9zM126 264l33 -4h27l3 -5l-3 -5h-27l-33 -4l-5 9zM126 236l33 -4h27l3 -5 l-3 -5h-27l-33 -4l-5 9zM126 209l33 -4h27l3 -5l-3 -5h-27l-33 -4l-5 9zM126 182l33 -4h27l3 -5l-3 -5h-27l-33 -4l-5 9zM126 154l33 -4h27l3 -5l-3 -5h-27l-33 -4l-5 9zM126 100l33 -4h373l3 -5l-3 -5h-373l-33 -4l-5 9zM126 73l33 -4h373l3 -5l-3 -5h-373l-33 -4l-5 9z M126 46l33 -4h373l3 -5l-3 -5h-406l-5 5z" />
<glyph unicode="F" horiz-adv-x="611" d="M126 373l33 -4h27l3 -5l-3 -5h-27l-33 -4l-5 9zM126 264l33 -4h27l3 -5l-3 -5h-27l-33 -4l-5 9zM126 564l33 -4h27l3 -5l-3 -5h-27l-33 -4l-5 9zM126 236l33 -4h27l3 -5l-3 -5h-27l-33 -4l-5 9zM126 642h403l3 -5l-3 -5h-370l-33 -4l-5 9zM126 619l33 -4h370l3 -5l-3 -5 h-370l-33 -4l-5 9zM126 592l33 -4h370l3 -5l-3 -5h-370l-33 -4l-5 9zM126 537l33 -4h27l3 -5l-3 -5h-27l-33 -4l-5 9zM126 510l33 -4h27l3 -5l-3 -5h-27l-33 -4l-5 9zM126 482l33 -4h27l3 -5l-3 -5h-27l-33 -4l-5 9zM126 455l33 -4h27l3 -5l-3 -5h-27l-33 -5l-5 10zM126 428 l33 -4h27l3 -5l-3 -5h-27l-33 -4l-5 9zM126 399l33 -3h27l3 -5l-3 -5h-27l-33 -4l-5 9zM126 346l33 -4h340l3 -5l-3 -5h-340l-33 -4l-5 9zM126 318l33 -4h340l3 -5l-3 -5h-340l-33 -4l-5 9zM126 291l33 -4h340l3 -5l-3 -5h-340l-33 -4l-5 9zM126 209l33 -4h27l3 -5l-3 -5 h-27l-33 -4l-5 9zM126 182l33 -4h27l3 -5l-3 -5h-27l-33 -4l-5 9zM126 154l33 -4h27l3 -5l-3 -5h-27l-33 -4l-5 9zM126 127l33 -4h27l3 -5l-3 -5h-27l-33 -5l-5 10zM126 100l33 -4h27l3 -5l-3 -5h-27l-33 -4l-5 9zM126 73l33 -4h27l3 -5l-3 -5h-27l-33 -4l-5 9zM126 46 l33 -4h27l3 -5l-3 -5h-60l-5 5z" />
<glyph unicode="G" horiz-adv-x="694" d="M200 86l34 -4h365l3 -5l-3 -5h-365l-34 -4l-5 9zM599 235h-60l-3 5l3 5h60l3 -5zM161 577l34 -4h75l3 -5l-8 -5h-70l-34 -4l-5 9zM588 563h-114l-8 5l3 5h119l3 -5zM598 536h-88l-3 5l3 5h88l3 -5zM81 359l34 -4h33l3 -5l-3 -5h-33l-34 -4l-5 9zM81 331l34 -4h33l3 -5 l-3 -5h-33l-34 -4l-5 9zM83 304l34 -4h33l3 -5l-3 -5h-33l-34 -4l-5 9zM86 277l34 -4h34l3 -5l-3 -5h-34l-34 -4l-5 9zM92 249l34 -4h40l3 -5l-3 -5h-40l-34 -4l-5 9zM100 222l34 -4h43l3 -5l-3 -5h-43l-34 -4l-5 9zM111 195l34 -4h48l3 -5l-3 -5h-48l-34 -4l-5 9zM125 167 l34 -4h59l3 -5l-3 -5h-59l-34 -4l-5 9zM146 140l34 -4h66l3 -5l-3 -5h-66l-34 -5l-5 10zM170 113l34 -4h79l8 -5l-3 -5h-84l-34 -4l-5 9zM310 32l34 -4h139l3 -5l-3 -5h-173l-5 5zM247 59l34 -4h298l3 -5l-3 -5h-298l-34 -4l-5 9zM599 317h-233l-3 5l3 5h233l3 -5zM599 290 h-233l-3 5l3 5h233l3 -5zM599 263h-233l-3 5l3 5h233l3 -5zM599 208h-60l-3 5l3 5h60l3 -5zM599 181h-60l-3 5l3 5h60l3 -5zM599 153h-60l-3 5l3 5h60l3 -5zM599 126h-60l-3 5l3 5h60l3 -5zM599 99h-60l-3 5l3 5h60l3 -5zM231 632l34 -4h248l3 -5l-3 -5h-248l-34 -4l-5 9z M190 605l34 -4h328l3 -5l-3 -5h-328l-34 -4l-5 9zM140 550l34 -4h58l3 -5l-3 -5h-58l-34 -4l-5 9zM123 523l34 -4h50l3 -5l-3 -5h-50l-34 -4l-5 9zM110 495l34 -4h45l3 -5l-3 -5h-45l-34 -4l-5 9zM99 468l34 -4h41l3 -5l-3 -5h-41l-34 -5l-5 10zM91 441l34 -4h39l3 -5l-3 -5 h-39l-34 -4l-5 9zM86 412l34 -3h34l3 -5l-3 -5h-34l-34 -4l-5 9zM83 386l34 -4h33l3 -5l-3 -5h-33l-34 -4l-5 9zM291 655h149l3 -5l-3 -5h-105l-44 -4l-5 9zM571 509h-28l-3 5l3 5h28l3 -5z" />
<glyph unicode="H" horiz-adv-x="779" d="M126 399l33 -3h27l3 -5l-3 -5h-27l-33 -4l-5 9zM126 291l33 -4h27l3 -5l-3 -5h-27l-33 -4l-5 9zM653 386h-60l-3 5l3 5h60l3 -5zM653 277h-60l-3 5l3 5h60l3 -5zM126 455l33 -4h27l3 -5l-3 -5h-27l-33 -5l-5 10zM126 236l33 -4h27l3 -5l-3 -5h-27l-33 -4l-5 9zM653 222 h-60l-3 5l3 5h60l3 -5zM126 510l33 -4h27l3 -5l-3 -5h-27l-33 -4l-5 9zM126 482l33 -4h27l3 -5l-3 -5h-27l-33 -4l-5 9zM653 496h-60l-3 5l3 5h60l3 -5zM653 468h-60l-3 5l3 5h60l3 -5zM126 642h60l3 -5l-3 -5h-27l-33 -4l-5 9zM126 619l33 -4h27l3 -5l-3 -5h-27l-33 -4 l-5 9zM126 592l33 -4h27l3 -5l-3 -5h-27l-33 -4l-5 9zM126 564l33 -4h27l3 -5l-3 -5h-27l-33 -4l-5 9zM126 537l33 -4h27l3 -5l-3 -5h-27l-33 -4l-5 9zM126 428l33 -4h27l3 -5l-3 -5h-27l-33 -4l-5 9zM126 373l33 -4h494l3 -5l-3 -5h-494l-33 -4l-5 9zM126 346l33 -4h494 l3 -5l-3 -5h-494l-33 -4l-5 9zM126 318l33 -4h494l3 -5l-3 -5h-494l-33 -4l-5 9zM126 264l33 -4h27l3 -5l-3 -5h-27l-33 -4l-5 9zM126 209l33 -4h27l3 -5l-3 -5h-27l-33 -4l-5 9zM126 182l33 -4h27l3 -5l-3 -5h-27l-33 -4l-5 9zM126 154l33 -4h27l3 -5l-3 -5h-27l-33 -4 l-5 9zM126 127l33 -4h27l3 -5l-3 -5h-27l-33 -5l-5 10zM126 100l33 -4h27l3 -5l-3 -5h-27l-33 -4l-5 9zM126 73l33 -4h27l3 -5l-3 -5h-27l-33 -4l-5 9zM126 46l33 -4h27l3 -5l-3 -5h-60l-5 5zM652 605h-59l-3 5l3 5h59l3 -5zM652 578h-59l-3 5l3 5h59l3 -5zM653 550h-60 l-3 5l3 5h60l3 -5zM653 523h-60l-3 5l3 5h60l3 -5zM653 441h-60l-3 5l3 5h60l3 -5zM653 414h-60l-3 5l3 5h60l3 -5zM653 250h-60l-3 5l3 5h60l3 -5zM653 195h-60l-3 5l3 5h60l3 -5zM653 168h-60l-3 5l3 5h60l3 -5zM653 140h-60l-3 5l3 5h60l3 -5zM653 113h-60l-3 5l3 5h60 l3 -5zM653 86h-60l-3 5l3 5h60l3 -5zM653 59h-60l-3 5l3 5h60l3 -5zM652 632h-59l-3 5l3 5h59l3 -5zM653 32h-60l-3 5l3 5h60l3 -5z" />
<glyph unicode="I" horiz-adv-x="311" d="M126 564l33 -4h27l3 -5l-3 -5h-27l-33 -4l-5 9zM126 428l33 -4h27l3 -5l-3 -5h-27l-33 -4l-5 9zM126 318l33 -4h27l3 -5l-3 -5h-27l-33 -4l-5 9zM126 127l33 -4h27l3 -5l-3 -5h-27l-33 -5l-5 10zM126 510l33 -4h27l3 -5l-3 -5h-27l-33 -4l-5 9zM126 642h60l3 -5l-3 -5 h-27l-33 -4l-5 9zM126 619l33 -4h27l3 -5l-3 -5h-27l-33 -4l-5 9zM126 592l33 -4h27l3 -5l-3 -5h-27l-33 -4l-5 9zM126 537l33 -4h27l3 -5l-3 -5h-27l-33 -4l-5 9zM126 482l33 -4h27l3 -5l-3 -5h-27l-33 -4l-5 9zM126 455l33 -4h27l3 -5l-3 -5h-27l-33 -5l-5 10zM126 399 l33 -3h27l3 -5l-3 -5h-27l-33 -4l-5 9zM126 373l33 -4h27l3 -5l-3 -5h-27l-33 -4l-5 9zM126 346l33 -4h27l3 -5l-3 -5h-27l-33 -4l-5 9zM126 291l33 -4h27l3 -5l-3 -5h-27l-33 -4l-5 9zM126 264l33 -4h27l3 -5l-3 -5h-27l-33 -4l-5 9zM126 236l33 -4h27l3 -5l-3 -5h-27 l-33 -4l-5 9zM126 209l33 -4h27l3 -5l-3 -5h-27l-33 -4l-5 9zM126 182l33 -4h27l3 -5l-3 -5h-27l-33 -4l-5 9zM126 154l33 -4h27l3 -5l-3 -5h-27l-33 -4l-5 9zM126 100l33 -4h27l3 -5l-3 -5h-27l-33 -4l-5 9zM126 73l33 -4h27l3 -5l-3 -5h-27l-33 -4l-5 9zM126 46l33 -4h27 l3 -5l-3 -5h-60l-5 5z" />
<glyph unicode="J" horiz-adv-x="512" d="M318 110l34 -4h47l3 -5l-3 -5h-47l-34 -4l-5 9zM70 110l34 -4h52l8 -5l-3 -5h-57l-34 -4l-5 9zM360 642h60l3 -5l-3 -5h-27l-33 -4l-5 9zM360 619l33 -4h27l3 -5l-3 -5h-27l-33 -4l-5 9zM360 592l33 -4h27l3 -5l-3 -5h-27l-33 -4l-5 9zM360 564l33 -4h27l3 -5l-3 -5h-27 l-33 -4l-5 9zM360 537l33 -4h27l3 -5l-3 -5h-27l-33 -4l-5 9zM360 510l33 -4h27l3 -5l-3 -5h-27l-33 -4l-5 9zM360 482l33 -4h27l3 -5l-3 -5h-27l-33 -4l-5 9zM360 455l33 -4h27l3 -5l-3 -5h-27l-33 -5l-5 10zM360 428l33 -4h27l3 -5l-3 -5h-27l-33 -4l-5 9zM360 399l33 -3 h27l3 -5l-3 -5h-27l-33 -4l-5 9zM360 373l33 -4h27l3 -5l-3 -5h-27l-33 -4l-5 9zM360 345l33 -4h27l3 -5l-3 -5h-27l-33 -4l-5 9zM360 320l33 -4h27l3 -5l-3 -5h-27l-33 -4l-5 9zM360 294l33 -4h27l3 -5l-3 -5h-27l-33 -4l-5 9zM360 268l33 -4h27l3 -5l-3 -5h-27l-33 -4 l-5 9zM360 241l34 -4h26l3 -5l-3 -5h-26l-34 -4l-5 9zM360 215l34 -4h26l3 -5l-3 -5h-26l-34 -4l-5 9zM358 189l34 -4h27l3 -5l-3 -5h-27l-34 -4l-5 9zM354 162l37 -4h24l3 -5l-3 -5h-24l-37 -4l-5 9zM93 84l34 -4h255l3 -5l-3 -5h-255l-34 -4l-5 9zM179 32l34 -4h91l3 -5 l-3 -5h-125l-5 5zM123 58l34 -4h196l3 -5l-3 -5h-196l-34 -4l-5 9zM53 136l34 -4h39l3 -5l-3 -5h-39l-34 -5l-5 10zM78 162l29 -4l3 -5l-3 -5l-29 -4l-5 9zM341 136l37 -4h31l3 -5l-3 -5h-31l-37 -4l-5 9z" />
<glyph unicode="K" horiz-adv-x="684" d="M126 510l33 -4h27l3 -5l-3 -5h-27l-33 -4l-5 9zM126 482l33 -4h27l3 -5l-3 -5h-27l-33 -4l-5 9zM451 496h-92l-3 5l3 5h92l3 -5zM423 468h-91l-3 5l3 5h91l3 -5zM126 642h60l3 -5l-3 -5h-27l-33 -4l-5 9zM126 619l33 -4h27l3 -5l-3 -5h-27l-33 -4l-5 9zM126 592l33 -4h27 l3 -5l-3 -5h-27l-33 -4l-5 9zM126 564l33 -4h27l3 -5l-3 -5h-27l-33 -4l-5 9zM126 537l33 -4h27l3 -5l-3 -5h-27l-33 -4l-5 9zM126 455l33 -4h27l3 -5l-3 -5h-27l-33 -5l-5 10zM126 428l33 -4h27l3 -5l-3 -5h-27l-33 -4l-5 9zM126 399l33 -3h27l3 -5l-3 -5h-27l-33 -4l-5 9z M126 373l33 -4h27l3 -5l-3 -5h-27l-33 -4l-5 9zM126 346l33 -4h134l3 -5l-3 -5h-134l-33 -4l-5 9zM126 318l33 -4h27l3 -5l-3 -5h-27l-33 -4l-5 9zM126 291l33 -4h27l3 -5l-3 -5h-27l-33 -4l-5 9zM126 264l33 -4h27l3 -5l-3 -5h-27l-33 -4l-5 9zM126 236l33 -4h27l3 -5 l-3 -5h-27l-33 -4l-5 9zM126 209l33 -4h27l3 -5l-3 -5h-27l-33 -4l-5 9zM126 182l33 -4h27l3 -5l-3 -5h-27l-33 -4l-5 9zM126 154l33 -4h27l3 -5l-3 -5h-27l-33 -4l-5 9zM126 127l33 -4h27l3 -5l-3 -5h-27l-33 -5l-5 10zM126 100l33 -4h27l3 -5l-3 -5h-27l-33 -4l-5 9z M126 73l33 -4h27l3 -5l-3 -5h-27l-33 -4l-5 9zM126 46l33 -4h27l3 -5l-3 -5h-60l-5 5zM555 605h-94l-3 5l3 5h94l3 -5zM529 578h-94l-3 5l3 5h94l3 -5zM502 550h-92l-3 5l3 5h92l3 -5zM476 523h-92l-3 5l3 5h92l3 -5zM398 441h-92l-3 5l3 5h92l3 -5zM372 414h-91l-3 5l3 5 h91l3 -5zM345 386h-91l-3 5l3 5h91l3 -5zM320 359h-92l-3 5l3 5h92l3 -5zM323 304h-93l-3 5l3 5h93l3 -5zM348 277h-93l-3 5l3 5h93l3 -5zM374 250h-93l-3 5l3 5h93l3 -5zM401 222h-94l-3 5l3 5h94l3 -5zM427 195h-95l-3 5l3 5h95l3 -5zM454 168h-96l-3 5l3 5h96l3 -5z M480 140h-96l-3 5l3 5h96l3 -5zM506 113h-97l-3 5l3 5h97l3 -5zM531 86h-97l-3 5l3 5h97l3 -5zM558 59h-98l-3 5l3 5h98l3 -5zM580 632h-92l-3 5l3 5h92l3 -5zM583 32h-97l-3 5l3 5h97l3 -5z" />
<glyph unicode="L" horiz-adv-x="606" d="M126 564l33 -4h27l3 -5l-3 -5h-27l-33 -4l-5 9zM126 428l33 -4h27l3 -5l-3 -5h-27l-33 -4l-5 9zM126 318l33 -4h27l3 -5l-3 -5h-27l-33 -4l-5 9zM126 127l33 -4h27l3 -5l-3 -5h-27l-33 -5l-5 10zM126 510l33 -4h27l3 -5l-3 -5h-27l-33 -4l-5 9zM126 642h60l3 -5l-3 -5 h-27l-33 -4l-5 9zM126 619l33 -4h27l3 -5l-3 -5h-27l-33 -4l-5 9zM126 592l33 -4h27l3 -5l-3 -5h-27l-33 -4l-5 9zM126 537l33 -4h27l3 -5l-3 -5h-27l-33 -4l-5 9zM126 482l33 -4h27l3 -5l-3 -5h-27l-33 -4l-5 9zM126 455l33 -4h27l3 -5l-3 -5h-27l-33 -5l-5 10zM126 399 l33 -3h27l3 -5l-3 -5h-27l-33 -4l-5 9zM126 373l33 -4h27l3 -5l-3 -5h-27l-33 -4l-5 9zM126 346l33 -4h27l3 -5l-3 -5h-27l-33 -4l-5 9zM126 291l33 -4h27l3 -5l-3 -5h-27l-33 -4l-5 9zM126 264l33 -4h27l3 -5l-3 -5h-27l-33 -4l-5 9zM126 236l33 -4h27l3 -5l-3 -5h-27 l-33 -4l-5 9zM126 209l33 -4h27l3 -5l-3 -5h-27l-33 -4l-5 9zM126 182l33 -4h27l3 -5l-3 -5h-27l-33 -4l-5 9zM126 154l33 -4h27l3 -5l-3 -5h-27l-33 -4l-5 9zM126 100l33 -4h366l3 -5l-3 -5h-366l-33 -4l-5 9zM126 73l33 -4h366l3 -5l-3 -5h-366l-33 -4l-5 9zM126 46l33 -4 h366l3 -5l-3 -5h-399l-5 5z" />
<glyph unicode="M" horiz-adv-x="847" d="M127 564l33 -4h27l3 -5l-3 -5h-27l-33 -4l-5 9zM280 550h-78l-3 5l3 5h78l3 -5zM127 510l33 -4h27l3 -5l-3 -5h-27l-33 -4l-5 9zM127 482l33 -4h27l3 -5l-3 -5h-27l-33 -4l-5 9zM721 496h-60l-3 5l3 5h60l3 -5zM721 468h-60l-3 5l3 5h60l3 -5zM310 496h-77l-3 5l3 5h77 l3 -5zM326 468h-78l-3 5l3 5h78l3 -5zM617 496h-80l-3 5l3 5h80l3 -5zM601 468h-80l-3 5l3 5h80l3 -5zM127 642h108l3 -5l-3 -5h-75l-33 -4l-5 9zM127 619l33 -4h90l3 -5l-3 -5h-90l-33 -4l-5 9zM127 592l33 -4h105l3 -5l-3 -5h-105l-33 -4l-5 9zM127 537l33 -4h27l3 -5 l-3 -5h-27l-33 -4l-5 9zM127 455l33 -4h27l3 -5l-3 -5h-27l-33 -5l-5 10zM127 428l33 -4h27l3 -5l-3 -5h-27l-33 -4l-5 9zM127 399l33 -3h27l3 -5l-3 -5h-27l-33 -4l-5 9zM127 373l33 -4h27l3 -5l-3 -5h-27l-33 -4l-5 9zM127 346l33 -4h27l3 -5l-3 -5h-27l-33 -4l-5 9z M127 318l33 -4h27l3 -5l-3 -5h-27l-33 -4l-5 9zM127 291l33 -4h27l3 -5l-3 -5h-27l-33 -4l-5 9zM127 264l33 -4h27l3 -5l-3 -5h-27l-33 -4l-5 9zM127 236l33 -4h27l3 -5l-3 -5h-27l-33 -4l-5 9zM127 209l33 -4h27l3 -5l-3 -5h-27l-33 -4l-5 9zM127 182l33 -4h27l3 -5l-3 -5 h-27l-33 -4l-5 9zM127 154l33 -4h27l3 -5l-3 -5h-27l-33 -4l-5 9zM127 127l33 -4h27l3 -5l-3 -5h-27l-33 -5l-5 10zM127 100l33 -4h27l3 -5l-3 -5h-27l-33 -4l-5 9zM127 73l33 -4h27l3 -5l-3 -5h-27l-33 -4l-5 9zM127 46l33 -4h27l3 -5l-3 -5h-60l-5 5zM720 605h-123l-3 5 l3 5h123l3 -5zM720 578h-139l-3 5l3 5h139l3 -5zM721 550h-60l-3 5l3 5h60l3 -5zM721 523h-60l-3 5l3 5h60l3 -5zM721 441h-60l-3 5l3 5h60l3 -5zM721 414h-60l-3 5l3 5h60l3 -5zM721 386h-60l-3 5l3 5h60l3 -5zM721 359h-60l-3 5l3 5h60l3 -5zM721 332h-60l-3 5l3 5h60 l3 -5zM721 304h-60l-3 5l3 5h60l3 -5zM721 277h-60l-3 5l3 5h60l3 -5zM721 250h-60l-3 5l3 5h60l3 -5zM721 222h-60l-3 5l3 5h60l3 -5zM721 195h-60l-3 5l3 5h60l3 -5zM721 168h-60l-3 5l3 5h60l3 -5zM721 140h-60l-3 5l3 5h60l3 -5zM721 113h-60l-3 5l3 5h60l3 -5zM721 86 h-60l-3 5l3 5h60l3 -5zM721 59h-60l-3 5l3 5h60l3 -5zM720 632h-109l-3 5l3 5h109l3 -5zM721 32h-60l-3 5l3 5h60l3 -5zM295 523h-74l-3 5l3 5h74l3 -5zM341 441h-79l-3 5l3 5h79l3 -5zM356 414h-78l-3 5l3 5h78l3 -5zM371 386h-78l-3 5l3 5h78l3 -5zM386 359h-78l-3 5l3 5 h78l3 -5zM401 332h-78l-3 5l3 5h78l3 -5zM417 304h-78l-3 5l3 5h78l3 -5zM496 277h-142l-3 5l3 5h142l3 -5zM481 250h-112l-3 5l3 5h112l3 -5zM466 222h-82l-3 5l3 5h82l3 -5zM645 550h-79l-3 5l3 5h79l3 -5zM631 523h-80l-3 5l3 5h80l3 -5zM586 441h-80l-3 5l3 5h80l3 -5z M571 414h-80l-3 5l3 5h80l3 -5zM556 386h-80l-3 5l3 5h80l3 -5zM541 359h-80l-3 5l3 5h80l3 -5zM526 332h-80l-3 5l3 5h80l3 -5zM511 304h-79l-3 5l3 5h79l3 -5z" />
<glyph unicode="N" horiz-adv-x="780" d="M654 140h-60l-3 5l3 5h60l3 -5zM295 550h-89l-3 5l3 5h89l3 -5zM126 510l33 -4h27l3 -5l-3 -5h-27l-33 -4l-5 9zM126 482l33 -4h27l3 -5l-3 -5h-27l-33 -4l-5 9zM654 496h-60l-3 5l3 5h60l3 -5zM654 468h-60l-3 5l3 5h60l3 -5zM329 496h-89l-3 5l3 5h89l3 -5zM347 468 h-88l-3 5l3 5h88l3 -5zM126 642h116l3 -5l-3 -5h-83l-33 -4l-5 9zM126 619l33 -4h101l3 -5l-3 -5h-101l-33 -4l-5 9zM126 592l33 -4h118l3 -5l-3 -5h-118l-33 -4l-5 9zM126 564l33 -4h27l3 -5l-3 -5h-27l-33 -4l-5 9zM126 537l33 -4h27l3 -5l-3 -5h-27l-33 -4l-5 9zM126 455 l33 -4h27l3 -5l-3 -5h-27l-33 -5l-5 10zM126 428l33 -4h27l3 -5l-3 -5h-27l-33 -4l-5 9zM126 399l33 -3h27l3 -5l-3 -5h-27l-33 -4l-5 9zM126 373l33 -4h27l3 -5l-3 -5h-27l-33 -4l-5 9zM126 346l33 -4h27l3 -5l-3 -5h-27l-33 -4l-5 9zM126 318l33 -4h27l3 -5l-3 -5h-27 l-33 -4l-5 9zM126 291l33 -4h27l3 -5l-3 -5h-27l-33 -4l-5 9zM126 264l33 -4h27l3 -5l-3 -5h-27l-33 -4l-5 9zM126 236l33 -4h27l3 -5l-3 -5h-27l-33 -4l-5 9zM126 209l33 -4h27l3 -5l-3 -5h-27l-33 -4l-5 9zM126 182l33 -4h27l3 -5l-3 -5h-27l-33 -4l-5 9zM126 154l33 -4 h27l3 -5l-3 -5h-27l-33 -4l-5 9zM126 127l33 -4h27l3 -5l-3 -5h-27l-33 -5l-5 10zM126 100l33 -4h27l3 -5l-3 -5h-27l-33 -4l-5 9zM126 73l33 -4h27l3 -5l-3 -5h-27l-33 -4l-5 9zM126 46l33 -4h27l3 -5l-3 -5h-60l-5 5zM653 605h-59l-3 5l3 5h59l3 -5zM653 578h-59l-3 5l3 5 h59l3 -5zM654 550h-60l-3 5l3 5h60l3 -5zM654 523h-60l-3 5l3 5h60l3 -5zM654 441h-60l-3 5l3 5h60l3 -5zM654 414h-60l-3 5l3 5h60l3 -5zM654 386h-60l-3 5l3 5h60l3 -5zM654 359h-60l-3 5l3 5h60l3 -5zM654 332h-60l-3 5l3 5h60l3 -5zM654 304h-60l-3 5l3 5h60l3 -5z M654 277h-60l-3 5l3 5h60l3 -5zM654 250h-60l-3 5l3 5h60l3 -5zM654 222h-60l-3 5l3 5h60l3 -5zM654 195h-60l-3 5l3 5h60l3 -5zM654 168h-60l-3 5l3 5h60l3 -5zM654 113h-60l-3 5l3 5h60l3 -5zM654 86h-151l-3 5l3 5h151l3 -5zM654 59h-133l-3 5l3 5h133l3 -5zM653 632h-59 l-3 5l3 5h59l3 -5zM654 32h-116l-3 5l3 5h116l3 -5zM312 523h-89l-3 5l3 5h89l3 -5zM364 441h-89l-3 5l3 5h89l3 -5zM382 414h-89l-3 5l3 5h89l3 -5zM399 386h-88l-3 5l3 5h88l3 -5zM415 359h-87l-3 5l3 5h87l3 -5zM434 332h-88l-3 5l3 5h88l3 -5zM451 304h-88l-3 5l3 5h88 l3 -5zM469 277h-88l-3 5l3 5h88l3 -5zM486 250h-88l-3 5l3 5h88l3 -5zM504 222h-87l-3 5l3 5h87l3 -5zM521 195h-87l-3 5l3 5h87l3 -5zM537 168h-86l-3 5l3 5h86l3 -5zM556 140h-87l-3 5l3 5h87l3 -5zM572 113h-86l-3 5l3 5h86l3 -5z" />
<glyph unicode="O" horiz-adv-x="750" d="M165 577l34 -4h80l3 -5l-9 -5h-74l-34 -4l-5 9zM591 563h-113l-9 5l3 5h119l3 -5zM112 495l34 -4h47l3 -5l-3 -5h-47l-34 -4l-5 9zM642 481h-78l-3 5l3 5h78l3 -5zM102 468l34 -4h42l3 -5l-3 -5h-42l-34 -5l-5 10zM94 441l34 -4h41l3 -5l-3 -5h-37l-34 -4l-5 9zM202 86 l34 -4h324l3 -5l-3 -5h-324l-34 -4l-5 9zM653 454h-76l-3 5l3 5h76l3 -5zM660 427h-72l-3 5l3 5h72l3 -5zM233 632l34 -4h256l3 -5l-3 -5h-256l-34 -4l-5 9zM193 605l34 -4h332l3 -5l-3 -5h-332l-34 -4l-5 9zM143 550l34 -4h60l3 -5l-3 -5h-60l-34 -4l-5 9zM126 523l34 -4 h53l3 -5l-3 -5h-53l-34 -4l-5 9zM92 412l24 -3h45l3 -5l-3 -5h-45l-24 -4l-5 9zM88 386l34 -4h33l3 -5l-3 -5h-33l-34 -4l-5 9zM86 359l34 -4h33l3 -5l-3 -5h-33l-34 -4l-5 9zM86 331l34 -4h33l3 -5l-3 -5h-33l-34 -4l-5 9zM88 304l34 -4h33l3 -5l-3 -5h-33l-34 -4l-5 9z M92 277l30 -4h39l3 -5l-3 -5h-39l-29 -4l-5 9zM98 249l34 -4h37l3 -5l-3 -5h-37l-34 -4l-5 9zM107 222l34 -4h39l3 -5l-3 -5h-39l-34 -4l-5 9zM118 195l34 -4h43l3 -5l-3 -5h-43l-34 -4l-5 9zM132 167l34 -4h50l3 -5l-3 -5h-50l-34 -4l-5 9zM150 140l34 -4h61l3 -5l-3 -5 h-61l-34 -5l-5 10zM171 113l34 -4h78l8 -5l-3 -5h-83l-34 -4l-5 9zM310 32l34 -4h113l3 -5l-3 -5h-147l-5 5zM303 655h149l3 -5l-3 -5h-115l-34 -4l-5 9zM247 59l34 -4h240l3 -5l-3 -5h-240l-34 -4l-5 9zM612 536h-98l-3 5l3 5h98l3 -5zM629 509h-86l-3 5l3 5h86l3 -5z M628 153h-86l-3 5l3 5h86l3 -5zM611 126h-94l-3 5l3 5h94l3 -5zM590 99h-120l-3 5l8 5h115l3 -5zM667 399h-70l-3 5l3 5h70l3 -5zM672 372h-70l-3 5l3 5h70l3 -5zM673 345h-69l-3 5l3 5h69l3 -5zM673 317h-69l-3 5l3 5h69l3 -5zM670 290h-68l-3 5l3 5h68l3 -5zM667 263h-70 l-3 5l3 5h70l3 -5zM661 235h-74l-3 5l3 5h74l3 -5zM653 208h-75l-3 5l3 5h75l3 -5zM642 181h-80l-3 5l3 5h80l3 -5z" />
<glyph unicode="P" horiz-adv-x="641" d="M126 564l33 -4h27l3 -5l-3 -5h-27l-33 -4l-5 9zM126 346l33 -4h27l3 -5l-3 -5h-27l-33 -4l-5 9zM126 236l33 -4h27l3 -5l-3 -5h-27l-33 -4l-5 9zM126 209l33 -4h27l3 -5l-3 -5h-27l-33 -4l-5 9zM126 510l33 -4h27l3 -5l-3 -5h-27l-33 -4l-5 9zM126 482l33 -4h27l3 -5 l-3 -5h-27l-33 -4l-5 9zM558 496h-71l-3 5l3 5h71l3 -5zM563 468h-66l-3 5l3 5h66l3 -5zM126 642h290l3 -5l-3 -5h-257l-33 -4l-5 9zM126 619l33 -4h322l3 -5l-3 -5h-322l-33 -4l-5 9zM126 592l33 -4h355l3 -5l-3 -5h-355l-33 -4l-5 9zM126 537l33 -4h27l3 -5l-3 -5h-27 l-33 -4l-5 9zM126 455l33 -4h27l3 -5l-3 -5h-27l-33 -5l-5 10zM126 428l33 -4h27l3 -5l-3 -5h-27l-33 -4l-5 9zM126 399l33 -3h27l3 -5l-3 -5h-27l-33 -4l-5 9zM126 373l33 -4h27l3 -5l-3 -5h-27l-33 -4l-5 9zM126 318l33 -4h355l3 -5l-3 -5h-355l-33 -4l-5 9zM126 291 l33 -4h322l3 -5l-3 -5h-322l-33 -4l-5 9zM126 264l33 -4h257l3 -5l-3 -5h-257l-33 -4l-5 9zM126 182l33 -4h27l3 -5l-3 -5h-27l-33 -4l-5 9zM126 154l33 -4h27l3 -5l-3 -5h-27l-33 -4l-5 9zM126 127l33 -4h27l3 -5l-3 -5h-27l-33 -5l-5 10zM126 100l33 -4h27l3 -5l-3 -5h-27 l-33 -4l-5 9zM126 73l33 -4h27l3 -5l-3 -5h-27l-33 -4l-5 9zM126 46l33 -4h27l3 -5l-3 -5h-60l-5 5zM537 550h-107l-8 5l3 5h112l3 -5zM549 523h-81l-3 5l3 5h81l3 -5zM565 441h-66l-3 5l3 5h66l3 -5zM563 414h-66l-3 5l3 5h66l3 -5zM558 386h-71l-3 5l3 5h71l3 -5zM549 359 h-80l-3 5l3 5h80l3 -5zM537 332h-107l-3 5l8 5h102l3 -5z" />
<glyph unicode="Q" horiz-adv-x="750" d="M165 577l34 -4h80l3 -5l-9 -5h-74l-34 -4l-5 9zM591 563h-113l-9 5l3 5h119l3 -5zM112 495l34 -4h47l3 -5l-3 -5h-47l-34 -4l-5 9zM642 481h-78l-3 5l3 5h78l3 -5zM102 468l34 -4h42l3 -5l-3 -5h-42l-34 -5l-5 10zM94 441l34 -4h41l3 -5l-3 -5h-37l-34 -4l-5 9zM202 86 l34 -4h324l3 -5l-3 -5h-324l-34 -4l-5 9zM653 454h-76l-3 5l3 5h76l3 -5zM660 427h-72l-3 5l3 5h72l3 -5zM233 632l34 -4h256l3 -5l-3 -5h-256l-34 -4l-5 9zM193 605l34 -4h332l3 -5l-3 -5h-332l-34 -4l-5 9zM143 550l34 -4h60l3 -5l-3 -5h-60l-34 -4l-5 9zM126 523l34 -4 h53l3 -5l-3 -5h-53l-34 -4l-5 9zM92 412l24 -3h45l3 -5l-3 -5h-45l-24 -4l-5 9zM88 386l34 -4h33l3 -5l-3 -5h-33l-34 -4l-5 9zM86 359l34 -4h33l3 -5l-3 -5h-33l-34 -4l-5 9zM86 331l34 -4h33l3 -5l-3 -5h-33l-34 -4l-5 9zM88 304l34 -4h33l3 -5l-3 -5h-33l-34 -4l-5 9z M92 277l30 -4h39l3 -5l-3 -5h-39l-29 -4l-5 9zM98 249l34 -4h37l3 -5l-3 -5h-37l-34 -4l-5 9zM107 222l34 -4h39l3 -5l-3 -5h-39l-34 -4l-5 9zM118 195l34 -4h43l3 -5l-3 -5h-43l-34 -4l-5 9zM132 167l34 -4h50l3 -5l-3 -5h-50l-34 -4l-5 9zM150 140l34 -4h61l3 -5l-3 -5 h-61l-34 -5l-5 10zM171 113l34 -4h78l8 -5l-3 -5h-83l-34 -4l-5 9zM310 32l34 -4h137l3 -5l-3 -5h-171l-5 5zM303 655h149l3 -5l-3 -5h-115l-34 -4l-5 9zM247 59l34 -4h240l3 -5l-3 -5h-240l-34 -4l-5 9zM612 536h-98l-3 5l3 5h98l3 -5zM629 509h-86l-3 5l3 5h86l3 -5z M628 153h-86l-3 5l3 5h86l3 -5zM611 126h-94l-3 5l3 5h94l3 -5zM590 99h-120l-3 5l8 5h115l3 -5zM667 399h-70l-3 5l3 5h70l3 -5zM672 372h-70l-3 5l3 5h70l3 -5zM673 345h-69l-3 5l3 5h69l3 -5zM673 317h-69l-3 5l3 5h69l3 -5zM670 290h-68l-3 5l3 5h68l3 -5zM667 263h-70 l-3 5l3 5h70l3 -5zM661 235h-74l-3 5l3 5h74l3 -5zM653 208h-75l-3 5l3 5h75l3 -5zM642 181h-80l-3 5l3 5h80l3 -5zM424 5l34 -4h44l3 -5l-3 -5h-44l-34 -4l-5 9zM464 -49l34 -4h44l3 -5l-3 -5h-44l-34 -4l-5 9zM522 -130l34 -4h48l3 -5l-3 -5h-82l-5 5zM444 -22l34 -4h44 l3 -5l-3 -5h-44l-34 -4l-5 9zM483 -76l34 -4h46l3 -5l-3 -5h-46l-34 -4l-5 9zM503 -103l34 -4h47l3 -5l-3 -5h-47l-34 -4l-5 9z" />
<glyph unicode="R" horiz-adv-x="688" d="M126 264l33 -4h27l3 -5l-3 -5h-27l-33 -4l-5 9zM126 510l33 -4h27l3 -5l-3 -5h-27l-33 -4l-5 9zM126 482l33 -4h27l3 -5l-3 -5h-27l-33 -4l-5 9zM126 291l33 -4h262l3 -5l-3 -5h-262l-33 -4l-5 9zM431 250h-78l-3 5l3 5h78l3 -5zM450 222h-79l-3 5l3 5h79l3 -5zM126 373 l33 -3h27l3 -5l-3 -5h-27l-33 -4l-5 9zM539 360h-103l-3 4l8 5h98l3 -5zM567 496h-71l-3 5l3 5h71l3 -5zM569 468h-68l-3 5l3 5h68l3 -5zM126 642h312l3 -5l-3 -5h-279l-33 -4l-5 9zM126 619l33 -4h340l3 -5l-3 -5h-340l-33 -4l-5 9zM126 592l33 -4h372l3 -5l-3 -5h-372 l-33 -4l-5 9zM126 564l33 -4h27l3 -5l-3 -5h-27l-33 -4l-5 9zM126 537l33 -4h27l3 -5l-3 -5h-27l-33 -4l-5 9zM126 455l33 -4h27l3 -5l-3 -5h-27l-33 -5l-5 10zM126 428l33 -4h27l3 -5l-3 -5h-27l-33 -4l-5 9zM126 399l33 -3h27l3 -5l-3 -5h-27l-33 -4l-5 9zM126 346l33 -4 h355l3 -5l-3 -5h-355l-33 -4l-5 9zM126 318l33 -4h314l3 -5l-3 -5h-314l-33 -4l-5 9zM126 236l33 -4h27l3 -5l-3 -5h-27l-33 -4l-5 9zM126 209l33 -4h27l3 -5l-3 -5h-27l-33 -4l-5 9zM126 182l33 -4h27l3 -5l-3 -5h-27l-33 -4l-5 9zM126 154l33 -4h27l3 -5l-3 -5h-27l-33 -4 l-5 9zM126 127l33 -4h27l3 -5l-3 -5h-27l-33 -5l-5 10zM126 100l33 -4h27l3 -5l-3 -5h-27l-33 -4l-5 9zM126 73l33 -4h27l3 -5l-3 -5h-27l-33 -4l-5 9zM126 46l33 -4h27l3 -5l-3 -5h-60l-5 5zM550 550h-102l-8 5l3 5h107l3 -5zM561 523h-81l-3 5l3 5h81l3 -5zM568 441h-68 l-3 5l3 5h68l3 -5zM563 414h-71l-3 5l3 5h71l3 -5zM554 386h-81l-3 5l3 5h81l3 -5zM469 195h-79l-3 5l3 5h79l3 -5zM487 168h-79l-3 5l3 5h79l3 -5zM506 140h-78l-3 5l3 5h78l3 -5zM525 113h-80l-3 5l3 5h80l3 -5zM545 86h-81l-3 5l3 5h81l3 -5zM563 59h-82l-3 5l3 5h82 l3 -5zM581 32h-81l-3 5l3 5h81l3 -5z" />
<glyph unicode="S" horiz-adv-x="657" d="M150 577l34 -4h50l3 -5l-6 -5h-47l-34 -4l-5 9zM500 222l34 -4h36l3 -5l-3 -5h-36l-34 -4l-5 9zM556 563h-99l-8 5l3 5h104l3 -5zM172 605l34 -4h320l3 -5l-3 -5h-320l-34 -4l-5 9zM208 632l33 -4h245l3 -5l-3 -5h-245l-34 -4l-5 9zM136 550l34 -4h39l3 -5l-3 -5h-39 l-34 -4l-5 9zM129 523l34 -4h33l3 -5l-3 -5h-33l-34 -4l-5 9zM127 495l34 -4h34l3 -5l-3 -5h-34l-34 -4l-5 9zM129 468l34 -4h39l3 -5l-3 -5h-39l-34 -5l-5 10zM137 441l34 -4h51l3 -5l-3 -5h-51l-34 -4l-5 9zM153 412l34 -3h86l3 -5l-3 -5h-86l-34 -4l-5 9zM175 386l34 -4 h156l3 -5l-3 -5h-156l-34 -4l-5 9zM214 359l34 -4h210l3 -5l-3 -5h-210l-34 -4l-5 9zM286 331l34 -4h187l3 -5l-3 -5h-187l-34 -4l-5 9zM386 304l34 -4h118l3 -5l-3 -5h-118l-34 -4l-5 9zM461 277l34 -4h60l3 -5l-3 -5h-60l-29 -4l-10 9zM489 249l34 -4h42l3 -5l-3 -5h-42 l-34 -4l-5 9zM502 195l36 -4h33l3 -5l-3 -5h-33l-36 -4l-5 9zM501 167l34 -4h32l3 -5l-3 -5h-32l-34 -4l-5 9zM486 140l34 -4h40l3 -5l-3 -5h-40l-34 -5l-5 10zM462 113l29 -4h54l3 -5l-3 -5h-54l-34 -4l-5 9zM137 86l34 -4h346l3 -5l-3 -5h-346l-34 -4l-5 9zM253 32l34 -4 h126l3 -5l-3 -5h-160l-5 5zM258 655h165l3 -5l-3 -5h-131l-34 -4l-5 9zM179 59l34 -4h264l3 -5l-3 -5h-264l-34 -4l-5 9zM101 113l34 -4h76l8 -5l-3 -5h-81l-34 -4l-5 9zM118 140l34 -4h17l8 -5l-3 -5h-22l-34 -5l-5 10zM540 536h-45l-4 5l3 5h46l3 -5zM519 514h-8l-3 5l3 5 h8l3 -5zM148 153l-8 -3l-3 8l3 8l8 -3l3 -5z" />
<glyph unicode="T" horiz-adv-x="630" d="M286 564l33 -4h27l3 -5l-3 -5h-27l-33 -4l-5 9zM286 428l33 -4h27l3 -5l-3 -5h-27l-33 -4l-5 9zM286 318l33 -4h27l3 -5l-3 -5h-27l-33 -4l-5 9zM286 127l33 -4h27l3 -5l-3 -5h-27l-33 -5l-5 10zM286 510l33 -4h27l3 -5l-3 -5h-27l-33 -4l-5 9zM53 642h526l3 -5l-3 -5 h-493l-33 -4l-5 9zM53 619l33 -4h493l3 -5l-3 -5h-493l-33 -4l-5 9zM53 592l33 -4h493l3 -5l-3 -5h-526l-5 5zM286 537l33 -4h27l3 -5l-3 -5h-27l-33 -4l-5 9zM286 482l33 -4h27l3 -5l-3 -5h-27l-33 -4l-5 9zM286 455l33 -4h27l3 -5l-3 -5h-27l-33 -5l-5 10zM286 399l33 -3 h27l3 -5l-3 -5h-27l-33 -4l-5 9zM286 373l33 -4h27l3 -5l-3 -5h-27l-33 -4l-5 9zM286 346l33 -4h27l3 -5l-3 -5h-27l-33 -4l-5 9zM286 291l33 -4h27l3 -5l-3 -5h-27l-33 -4l-5 9zM286 264l33 -4h27l3 -5l-3 -5h-27l-33 -4l-5 9zM286 236l33 -4h27l3 -5l-3 -5h-27l-33 -4 l-5 9zM286 209l33 -4h27l3 -5l-3 -5h-27l-33 -4l-5 9zM286 182l33 -4h27l3 -5l-3 -5h-27l-33 -4l-5 9zM286 154l33 -4h27l3 -5l-3 -5h-27l-33 -4l-5 9zM286 100l33 -4h27l3 -5l-3 -5h-27l-33 -4l-5 9zM286 73l33 -4h27l3 -5l-3 -5h-27l-33 -4l-5 9zM286 46l33 -4h27l3 -5 l-3 -5h-60l-5 5z" />
<glyph unicode="U" horiz-adv-x="779" d="M176 110l34 -4h76l8 -5l-3 -5h-81l-34 -4l-5 9zM608 96h-119l-3 5l8 5h114l3 -5zM127 510l33 -4h27l3 -5l-3 -5h-27l-33 -4l-5 9zM127 482l33 -4h27l3 -5l-3 -5h-27l-33 -4l-5 9zM654 496h-62l-3 5l3 5h62l3 -5zM654 468h-62l-3 5l3 5h62l3 -5zM127 642h60l3 -5l-3 -5 h-27l-33 -4l-5 9zM127 619l33 -4h27l3 -5l-3 -5h-27l-33 -4l-5 9zM127 592l33 -4h27l3 -5l-3 -5h-27l-33 -4l-5 9zM127 564l33 -4h27l3 -5l-3 -5h-27l-33 -4l-5 9zM127 537l33 -4h27l3 -5l-3 -5h-27l-33 -4l-5 9zM127 455l33 -4h27l3 -5l-3 -5h-27l-33 -5l-5 10zM127 428 l33 -4h27l3 -5l-3 -5h-27l-33 -4l-5 9zM127 399l33 -3h27l3 -5l-3 -5h-27l-33 -4l-5 9zM127 373l33 -4h27l3 -5l-3 -5h-27l-33 -4l-5 9zM127 347l33 -4h27l3 -5l-3 -5h-27l-33 -4l-5 9zM127 320l33 -4h27l3 -5l-3 -5h-27l-33 -4l-5 9zM127 294l33 -4h27l3 -5l-3 -5h-27 l-33 -4l-5 9zM127 268l33 -4h27l3 -5l-3 -5h-27l-33 -4l-5 9zM654 605h-62l-3 5l3 5h62l3 -5zM654 578h-62l-3 5l3 5h62l3 -5zM654 550h-62l-3 5l3 5h62l3 -5zM654 523h-62l-3 5l3 5h62l3 -5zM654 441h-62l-3 5l3 5h62l3 -5zM654 414h-62l-3 5l3 5h62l3 -5zM654 386h-62 l-3 5l3 5h62l3 -5zM654 359h-62l-3 5l3 5h62l3 -5zM654 333h-62l-3 5l3 5h62l3 -5zM654 306h-62l-3 5l3 5h62l3 -5zM654 280h-62l-3 5l3 5h62l3 -5zM654 254h-62l-3 5l3 5h62l3 -5zM654 227h-61l-4 5l4 5h61l3 -5zM651 201h-63l-3 5l3 5h63l3 -5zM646 175h-68l-3 5l3 5h68 l3 -5zM637 148h-74l-3 5l3 5h74l3 -5zM625 122h-87l-3 5l3 5h87l3 -5zM654 632h-62l-3 5l3 5h62l3 -5zM127 241l34 -4h27l3 -5l-3 -5h-27l-34 -4l-5 9zM130 215l34 -4h28l3 -5l-3 -5h-28l-34 -4l-5 9zM135 189l34 -4h33l3 -5l-3 -5h-33l-34 -4l-5 9zM144 162l34 -4h41l3 -5 l-3 -5h-41l-34 -4l-5 9zM156 136l34 -4h52l3 -5l-3 -5h-52l-34 -5l-5 10zM204 84l34 -4h345l3 -5l-3 -5h-345l-34 -4l-5 9zM310 32l34 -4h134l3 -5l-3 -5h-168l-5 5zM245 58l34 -4h262l3 -5l-3 -5h-262l-34 -4l-5 9z" />
<glyph unicode="V" horiz-adv-x="675" d="M562 496h-66l-3 5l3 5h66l3 -5zM552 468h-67l-3 5l3 5h67l3 -5zM114 510l33 -4h33l3 -5l-3 -5h-33l-33 -4l-5 9zM124 482l33 -4h33l3 -5l-3 -5h-33l-33 -4l-5 9zM602 605h-66l-3 5l3 5h66l3 -5zM592 578h-66l-3 5l3 5h66l3 -5zM582 550h-66l-3 5l3 5h66l3 -5zM572 523 h-66l-3 5l3 5h66l3 -5zM542 441h-67l-3 5l3 5h67l3 -5zM532 414h-67l-3 5l3 5h67l3 -5zM522 386h-67l-3 5l3 5h67l3 -5zM512 359h-68l-3 5l3 5h68l3 -5zM502 332h-67l-3 5l3 5h67l3 -5zM492 304h-68l-3 5l3 5h68l3 -5zM481 277h-67l-3 5l3 5h67l3 -5zM471 250h-67l-3 5l3 5 h67l3 -5zM461 222h-68l-3 5l3 5h68l3 -5zM451 195h-68l-3 5l3 5h68l3 -5zM441 168h-68l-3 5l3 5h68l3 -5zM431 140h-68l-3 5l3 5h68l3 -5zM421 113h-69l-3 5l3 5h69l3 -5zM612 632h-66l-3 5l3 5h66l3 -5zM64 642h65l3 -5l-3 -5h-32l-33 -4l-5 9zM74 619l33 -4h32l3 -5l-3 -5 h-32l-33 -4l-5 9zM84 592l33 -4h32l3 -5l-3 -5h-32l-33 -4l-5 9zM94 564l33 -4h33l3 -5l-3 -5h-33l-33 -4l-5 9zM104 537l33 -4h33l3 -5l-3 -5h-33l-33 -4l-5 9zM134 455l33 -4h33l3 -5l-3 -5h-33l-33 -5l-5 10zM144 428l33 -4h33l3 -5l-3 -5h-33l-33 -4l-5 9zM154 399 l33 -3h33l3 -5l-3 -5h-33l-33 -4l-5 9zM164 373l33 -4h33l3 -5l-3 -5h-33l-33 -4l-5 9zM174 346l33 -4h33l3 -5l-3 -5h-33l-33 -4l-5 9zM185 318l33 -4h32l3 -5l-3 -5h-32l-33 -4l-5 9zM195 291l33 -4h32l3 -5l-3 -5h-32l-33 -4l-5 9zM205 264l33 -4h33l3 -5l-3 -5h-33 l-33 -4l-5 9zM216 236l33 -4h32l3 -5l-3 -5h-32l-33 -4l-5 9zM226 209l33 -4h33l3 -5l-3 -5h-33l-33 -4l-5 9zM235 182l33 -4h34l3 -5l-3 -5h-34l-33 -4l-5 9zM246 154l33 -4h33l3 -5l-3 -5h-33l-33 -4l-5 9zM256 127l33 -4h33l3 -5l-3 -5h-33l-33 -5l-5 10zM266 100l33 -4 h112l3 -5l-3 -5h-112l-33 -4l-5 9zM276 73l33 -4h92l3 -5l-3 -5h-92l-33 -4l-5 9zM286 46l33 -4h73l3 -5l-3 -5h-106l-5 5z" />
<glyph unicode="W" horiz-adv-x="940" d="M347 140h-55l-3 5l3 5h55l3 -5zM109 510l33 -4h29l3 -5l-3 -5h-29l-33 -4l-5 9zM114 482l33 -4h28l3 -5l-3 -5h-28l-33 -4l-5 9zM442 496h-58l-3 5l3 5h58l3 -5zM434 468h-57l-3 5l3 5h57l3 -5zM559 496h-63l-3 5l3 5h63l3 -5zM566 468h-63l-3 5l3 5h63l3 -5zM834 496 h-63l-3 5l3 5h63l3 -5zM828 468h-63l-3 5l3 5h63l3 -5zM77 642h58l3 -5l-3 -5h-25l-33 -4l-5 9zM82 619l33 -4h27l3 -5l-3 -5h-27l-33 -4l-5 9zM89 592l33 -4h26l3 -5l-3 -5h-26l-33 -4l-5 9zM96 564l33 -4h26l3 -5l-3 -5h-26l-33 -4l-5 9zM102 537l33 -4h27l3 -5l-3 -5h-27 l-33 -4l-5 9zM121 455l33 -4h28l3 -5l-3 -5h-28l-33 -4l-5 9zM128 428l33 -4h30l3 -5l-3 -5h-30l-33 -4l-5 9zM135 400l33 -4h28l3 -5l-3 -5h-28l-33 -4l-5 9zM140 373l33 -4h29l3 -5l-3 -5h-29l-33 -4l-5 9zM147 346l33 -4h29l3 -5l-3 -5h-29l-33 -4l-5 9zM153 318l33 -4 h30l3 -5l-3 -5h-30l-33 -4l-5 9zM160 291l33 -4h30l3 -5l-3 -5h-30l-33 -4l-5 9zM166 264l33 -4h30l3 -5l-3 -5h-30l-33 -4l-5 9zM173 236l33 -4h30l3 -5l-3 -5h-30l-33 -4l-5 9zM179 209l33 -4h32l3 -5l-3 -5h-32l-33 -4l-5 9zM185 182l33 -4h31l3 -5l-3 -5h-31l-33 -4 l-5 9zM192 154l33 -4h31l3 -5l-3 -5h-31l-33 -4l-5 9zM198 127l33 -4h32l3 -5l-3 -5h-32l-33 -5l-5 10zM205 100l33 -4h95l3 -5l-3 -5h-95l-33 -4l-5 9zM211 73l33 -4h81l3 -5l-3 -5h-81l-33 -4l-5 9zM217 46l33 -4h68l3 -5l-3 -5h-101l-5 5zM531 605h-119l-3 5l3 5h119 l3 -5zM538 578h-132l-3 5l3 5h132l3 -5zM456 550h-58l-3 5l3 5h58l3 -5zM449 523h-58l-3 5l3 5h58l3 -5zM427 441h-57l-3 5l3 5h57l3 -5zM420 414h-57l-3 5l3 5h57l3 -5zM412 386h-55l-3 5l3 5h55l3 -5zM405 359h-56l-3 5l3 5h56l3 -5zM398 332h-56l-3 5l3 5h56l3 -5z M390 304h-55l-3 5l3 5h55l3 -5zM383 277h-55l-3 5l3 5h55l3 -5zM377 250h-56l-3 5l3 5h56l3 -5zM368 222h-54l-3 5l3 5h54l3 -5zM361 195h-54l-3 5l3 5h54l3 -5zM354 168h-54l-3 5l3 5h54l3 -5zM340 113h-55l-3 5l3 5h55l3 -5zM524 632h-104l-3 5l3 5h104l3 -5zM545 550h-63 l-3 5l3 5h63l3 -5zM551 523h-62l-3 5l3 5h62l3 -5zM573 441h-62l-3 5l3 5h62l3 -5zM580 414h-63l-3 5l3 5h63l3 -5zM587 386h-62l-3 5l3 5h62l3 -5zM595 359h-63l-3 5l3 5h63l3 -5zM601 332h-62l-3 5l3 5h62l3 -5zM609 304h-63l-3 5l3 5h63l3 -5zM616 277h-63l-3 5l3 5h63 l3 -5zM623 250h-63l-3 5l3 5h63l3 -5zM630 222h-62l-3 5l3 5h62l3 -5zM637 195h-62l-3 5l3 5h62l3 -5zM644 168h-62l-3 5l3 5h62l3 -5zM651 140h-62l-3 5l3 5h62l3 -5zM658 113h-62l-3 5l3 5h62l3 -5zM739 86h-136l-3 5l3 5h136l3 -5zM732 59h-122l-3 5l3 5h122l3 -5z M726 32h-109l-3 5l3 5h109l3 -5zM859 605h-62l-3 5l3 5h62l3 -5zM853 578h-62l-3 5l3 5h62l3 -5zM846 550h-64l-3 5l3 5h64l3 -5zM842 523h-64l-3 5l3 5h64l3 -5zM821 441h-63l-3 5l3 5h63l3 -5zM815 414h-63l-3 5l3 5h63l3 -5zM808 386h-63l-3 5l3 5h63l3 -5zM802 359h-63 l-3 5l3 5h63l3 -5zM798 332h-66l-3 5l3 5h66l3 -5zM789 304h-64l-3 5l3 5h64l3 -5zM783 277h-64l-3 5l3 5h64l3 -5zM776 250h-63l-3 5l3 5h63l3 -5zM770 222h-64l-3 5l3 5h64l3 -5zM764 195h-65l-3 5l3 5h65l3 -5zM758 168h-65l-3 5l3 5h65l3 -5zM751 140h-65l-3 5l3 5h65 l3 -5zM745 113h-65l-3 5l3 5h65l3 -5zM866 632h-62l-3 5l3 5h62l3 -5z" />
<glyph unicode="X" horiz-adv-x="682" d="M281 373l33 -4h92l3 -5l-3 -5h-92l-33 -4l-5 9zM184 510l33 -4h47l3 -5l-3 -5h-47l-33 -4l-5 9zM204 482l33 -4h46l3 -5l-3 -5h-46l-33 -4l-5 9zM257 291l33 -4h44l3 -5l-3 -5h-44l-33 -4l-5 9zM429 277h-81l-3 5l3 5h81l3 -5zM503 496h-82l-3 5l3 5h82l3 -5zM483 468 h-81l-3 5l3 5h81l3 -5zM88 642h81l3 -5l-3 -5h-48l-33 -4l-5 9zM107 619l33 -4h48l3 -5l-3 -5h-48l-33 -4l-5 9zM126 592l33 -4h48l3 -5l-3 -5h-48l-33 -4l-5 9zM146 564l33 -4h47l3 -5l-3 -5h-47l-33 -4l-5 9zM165 537l33 -4h47l3 -5l-3 -5h-47l-33 -4l-5 9zM224 455l33 -4 h46l3 -5l-3 -5h-46l-33 -5l-5 10zM242 428l33 -4h46l3 -5l-3 -5h-46l-33 -4l-5 9zM262 399l33 -3h39l3 -5l-3 -5h-39l-33 -4l-5 9zM294 346l33 -4h61l3 -5l-3 -5h-61l-33 -4l-5 9zM276 318l33 -4h101l3 -5l-3 -5h-101l-33 -4l-5 9zM238 264l33 -4h44l3 -5l-3 -5h-44l-33 -4 l-5 9zM218 236l33 -4h45l3 -5l-3 -5h-45l-33 -4l-5 9zM199 209l33 -4h45l3 -5l-3 -5h-45l-33 -4l-5 9zM181 182l33 -4h44l3 -5l-3 -5h-44l-33 -4l-5 9zM161 154l33 -4h44l3 -5l-3 -5h-44l-33 -4l-5 9zM142 127l33 -4h45l3 -5l-3 -5h-45l-33 -5l-5 10zM123 100l33 -4h45l3 -5 l-3 -5h-45l-33 -4l-5 9zM104 73l33 -4h46l3 -5l-3 -5h-46l-33 -4l-5 9zM85 46l33 -4h46l3 -5l-3 -5h-79l-5 5zM579 605h-81l-3 5l3 5h81l3 -5zM560 578h-81l-3 5l3 5h81l3 -5zM541 550h-82l-3 5l3 5h82l3 -5zM522 523h-81l-3 5l3 5h81l3 -5zM464 441h-81l-3 5l3 5h81l3 -5z M445 414h-81l-3 5l3 5h81l3 -5zM426 386h-73l-3 5l3 5h73l3 -5zM448 250h-84l-3 5l3 5h84l3 -5zM468 222h-85l-3 5l3 5h85l3 -5zM486 195h-84l-3 5l3 5h84l3 -5zM505 168h-84l-3 5l3 5h84l3 -5zM525 140h-84l-3 5l3 5h84l3 -5zM544 113h-84l-3 5l3 5h84l3 -5zM563 86h-84 l-3 5l3 5h84l3 -5zM582 59h-84l-3 5l3 5h84l3 -5zM598 632h-81l-3 5l3 5h81l3 -5zM601 32h-84l-3 5l3 5h84l3 -5z" />
<glyph unicode="Y" horiz-adv-x="642" d="M161 510l33 -4h48l3 -5l-3 -5h-48l-33 -4l-5 9zM181 482l33 -4h47l3 -5l-3 -5h-47l-33 -4l-5 9zM483 496h-81l-3 5l3 5h81l3 -5zM463 468h-79l-3 5l3 5h79l3 -5zM65 642h81l3 -5l-3 -5h-48l-33 -4l-5 9zM84 619l33 -4h48l3 -5l-3 -5h-48l-33 -4l-5 9zM103 592l33 -4h48 l3 -5l-3 -5h-48l-33 -4l-5 9zM123 564l33 -4h48l3 -5l-3 -5h-48l-33 -4l-5 9zM142 537l33 -4h48l3 -5l-3 -5h-48l-33 -4l-5 9zM201 455l33 -4h46l3 -5l-3 -5h-46l-33 -5l-5 10zM219 428l33 -4h47l3 -5l-3 -5h-47l-33 -4l-5 9zM239 399l33 -3h133l3 -5l-3 -5h-133l-33 -4 l-5 9zM258 373l33 -4h95l3 -5l-3 -5h-95l-33 -4l-5 9zM277 346l33 -4h57l3 -5l-3 -5h-57l-33 -4l-5 9zM560 605h-84l-3 5l3 5h84l3 -5zM541 578h-84l-3 5l3 5h84l3 -5zM521 550h-82l-3 5l3 5h82l3 -5zM502 523h-81l-3 5l3 5h81l3 -5zM444 441h-79l-3 5l3 5h79l3 -5zM425 414 h-78l-3 5l3 5h78l3 -5zM579 632h-85l-3 5l3 5h85l3 -5zM292 318l33 -4h27l3 -5l-3 -5h-27l-33 -4l-5 9zM292 127l33 -4h27l3 -5l-3 -5h-27l-33 -5l-5 10zM292 291l33 -4h27l3 -5l-3 -5h-27l-33 -4l-5 9zM292 264l33 -4h27l3 -5l-3 -5h-27l-33 -4l-5 9zM292 236l33 -4h27 l3 -5l-3 -5h-27l-33 -4l-5 9zM292 209l33 -4h27l3 -5l-3 -5h-27l-33 -4l-5 9zM292 182l33 -4h27l3 -5l-3 -5h-27l-33 -4l-5 9zM292 154l33 -4h27l3 -5l-3 -5h-27l-33 -4l-5 9zM292 100l33 -4h27l3 -5l-3 -5h-27l-33 -4l-5 9zM292 73l33 -4h27l3 -5l-3 -5h-27l-33 -4l-5 9z M292 46l33 -4h27l3 -5l-3 -5h-60l-5 5z" />
<glyph unicode="Z" horiz-adv-x="620" d="M103 127l33 -4h46l3 -5l-3 -5h-46l-33 -5l-5 10zM431 564l33 -4h48l3 -5l-3 -5h-48l-33 -4l-5 9zM391 510l33 -4h47l3 -5l-3 -5h-47l-33 -4l-5 9zM144 182l33 -4h46l3 -5l-3 -5h-46l-33 -4l-5 9zM82 100l33 -4h433l3 -5l-3 -5h-433l-33 -4l-5 9zM82 73l33 -4h433l3 -5 l-3 -5h-433l-33 -4l-5 9zM82 46l33 -4h433l3 -5l-3 -5h-466l-5 5zM99 642h431l3 -5l-3 -5h-398l-33 -4l-5 9zM99 619l33 -4h398l3 -5l-3 -5h-398l-33 -4l-5 9zM99 592l33 -4h398l3 -5l-3 -5h-398l-33 -4l-5 9zM411 537l33 -4h48l3 -5l-3 -5h-48l-33 -4l-5 9zM370 482l33 -4 h47l3 -5l-3 -5h-47l-33 -4l-5 9zM349 455l33 -4h47l3 -5l-3 -5h-47l-33 -5l-5 10zM329 428l33 -4h47l3 -5l-3 -5h-47l-33 -4l-5 9zM308 399l33 -3h47l3 -5l-3 -5h-47l-33 -4l-5 9zM287 373l33 -4h47l3 -5l-3 -5h-47l-33 -4l-5 9zM268 346l33 -4h46l3 -5l-3 -5h-46l-33 -4 l-5 9zM247 318l33 -4h46l3 -5l-3 -5h-46l-33 -4l-5 9zM226 291l33 -4h47l3 -5l-3 -5h-47l-33 -4l-5 9zM206 264l33 -4h46l3 -5l-3 -5h-46l-33 -4l-5 9zM184 236l33 -4h47l3 -5l-3 -5h-47l-33 -4l-5 9zM165 209l33 -4h46l3 -5l-3 -5h-46l-33 -4l-5 9zM123 154l33 -4h46l3 -5 l-3 -5h-46l-33 -4l-5 9z" />
<glyph unicode="[" horiz-adv-x="307" d="M250 -72h-149v818h153l3 -5l-3 -5h-143v-798h139l3 -5z" />
<glyph unicode="\" horiz-adv-x="336" d="M61 642h14l229 -610h-14zM31 642h14l229 -610h-14z" />
<glyph unicode="]" horiz-adv-x="307" d="M56 746h149v-818h-153l-3 5l3 5h143v798h-139l-3 5z" />
<glyph unicode="^" d="M109 636v-419l123 -121v61l-82 108v74l202 -201v-61l39 -41v250l-39 39v-76l-202 201v65l82 -54v54zM420 0h-338v675h338v-675z" />
<glyph unicode="_" d="M32 -171h436l3 -5l-3 -5h-403l-33 -4l-5 9zM32 -194l33 -4h403l3 -5l-3 -5h-403l-33 -4l-5 9zM32 -221l33 -4h403l3 -5l-3 -5h-436l-5 5z" />
<glyph unicode="`" d="M251 687h-69l-5 5l5 9l33 -4h36l3 -5zM161 724h71l3 -5l-3 -5h-38l-33 -4l-5 9z" />
<glyph unicode="&#x2cb;" d="M251 687h-69l-5 5l5 9l33 -4h36l3 -5zM161 724h71l3 -5l-3 -5h-38l-33 -4l-5 9z" />
<glyph unicode="a" horiz-adv-x="675" d="M495 178h69l3 -5l-3 -5h-69l-3 5zM146 168l-33 -4l-5 9l5 9l33 -4h36l3 -5l-3 -5h-36zM454 288h70l3 -5l-3 -5h-70l-3 5zM186 278l-33 -3l-5 8l5 9l33 -4h37l3 -5l-3 -5h-37zM382 479h71l3 -5l-3 -5h-71l-3 5zM372 506h71l3 -5l-3 -5h-71l-3 5zM196 305l-33 -4l-5 9l5 9 l33 -4h37l3 -5l-3 -5h-37zM257 469l-33 -4l-5 9l5 9l33 -4h38l3 -5l-3 -5h-38zM266 496l-33 -4l-5 9l5 9l33 -4h39l3 -5l-3 -5h-39zM535 69h69l3 -5l-3 -5h-69l-3 5zM525 96h69l3 -5l-3 -5h-69l-3 5zM515 124h69l3 -5l-3 -5h-69l-3 5zM505 151h69l3 -5l-3 -5h-69l-3 5z M443 315h71l3 -5l-3 -5h-71l-3 5zM434 342h70l3 -5l-3 -5h-70l-3 5zM423 370h71l3 -5l-3 -5h-71l-3 5zM413 397h70l3 -5l-3 -5h-70l-3 5zM403 424h70l3 -5l-3 -5h-70l-3 5zM392 452h71l3 -5l-3 -5h-71l-3 5zM362 534h71l3 -5l-3 -5h-71l-3 5zM351 561h72l3 -5l-3 -5h-72 l-3 5zM545 42h69l3 -5l-3 -5h-69l-3 5zM130 32h-67l-5 5l5 9l33 -4h34l3 -5zM106 59l-33 -4l-5 9l5 9l33 -4h35l3 -5l-3 -5h-35zM116 86l-33 -4l-5 9l5 9l33 -4h35l3 -5l-3 -5h-35zM126 114l-33 -4l-5 9l5 9l33 -4h36l3 -5l-3 -5h-36zM136 141l-33 -4l-5 9l5 9l33 -4h36 l3 -5l-3 -5h-36zM206 332l-33 -4l-5 9l5 9l33 -4h37l3 -5l-3 -5h-37zM217 360l-33 -4l-5 9l5 9l33 -4h36l3 -5l-3 -5h-36zM227 387l-33 -4l-5 9l5 9l33 -4h36l3 -5l-3 -5h-36zM236 414l-33 -4l-5 9l5 9l33 -4h38l3 -5l-3 -5h-38zM247 442l-33 -4l-5 9l5 9l33 -4h37l3 -5 l-3 -5h-37zM277 524l-33 -4l-5 9l5 9l33 -4h38l3 -5l-3 -5h-38zM287 551l-33 -4l-5 9l5 10l33 -5h38l3 -5l-3 -5h-38zM297 578l-33 -4l-5 9l5 9l33 -4h116l3 -5l-3 -5h-116zM307 605l-33 -4l-5 9l5 9l33 -4h96l3 -5l-3 -5h-96zM316 632l-33 -4l-5 9l5 5h111l3 -5l-3 -5h-78z M156 196l-33 -4l-5 9l5 9l33 -4h398l3 -5l-3 -5h-398zM166 223l-33 -4l-5 9l5 10l33 -5h378l3 -5l-3 -5h-378zM176 250l-33 -4l-5 9l5 9l33 -4h358l3 -5l-3 -5h-358z" />
<glyph unicode="b" horiz-adv-x="682" d="M126 564l33 -4h27l3 -5l-3 -5h-27l-33 -4l-5 9zM126 399l33 -3h27l3 -5l-3 -5h-27l-33 -4l-5 9zM552 550h-100l-8 5l3 5h105l3 -5zM538 386h-87l-3 5l8 5h82l3 -5zM126 373l33 -4h352l3 -5l-3 -5h-352l-33 -4l-5 9zM126 510l33 -4h27l3 -5l-3 -5h-27l-33 -4l-5 9z M126 482l33 -4h27l3 -5l-3 -5h-27l-33 -4l-5 9zM126 318l33 -4h381l3 -5l-3 -5h-381l-33 -4l-5 9zM600 195h-67l-3 5l3 5h67l3 -5zM126 455l33 -4h27l3 -5l-3 -5h-27l-33 -5l-5 10zM564 441l-67 -1l-3 5l3 5l67 1l3 -5zM567 496h-68l-3 5l3 5h68l3 -5zM569 468h-72l-3 5l3 5 h72l3 -5zM126 642h324l3 -5l-3 -5h-291l-33 -4l-5 9zM126 619l33 -4h350l3 -5l-3 -5h-350l-33 -4l-5 9zM126 592l33 -4h374l3 -5l-3 -5h-374l-33 -4l-5 9zM126 537l33 -4h27l3 -5l-3 -5h-27l-33 -4l-5 9zM126 428l33 -4h27l3 -5l-3 -5h-27l-33 -4l-5 9zM126 346l33 -4h331 l3 -5l-3 -5h-331l-33 -4l-5 9zM126 291l33 -4h27l3 -5l-3 -5h-27l-33 -4l-5 9zM126 264l33 -4h27l3 -5l-3 -5h-27l-33 -4l-5 9zM126 236l33 -4h27l3 -5l-3 -5h-27l-33 -4l-5 9zM126 209l33 -4h27l3 -5l-3 -5h-27l-33 -4l-5 9zM126 182l33 -4h27l3 -5l-3 -5h-27l-33 -4l-5 9z M126 154l33 -4h27l3 -5l-3 -5h-27l-33 -4l-5 9zM126 127l33 -4h27l3 -5l-3 -5h-27l-33 -5l-5 10zM126 100l33 -4h407l3 -5l-3 -5h-407l-33 -4l-5 9zM126 73l33 -4h375l3 -5l-3 -5h-375l-33 -4l-5 9zM126 46l33 -4h306l3 -5l-3 -5h-339l-5 5zM562 523h-78l-3 5l3 5h78l3 -5z M553 414h-70l-3 5l3 5h70l3 -5zM575 277h-105l-8 5l3 5h110l3 -5zM590 250h-76l-3 5l3 5h76l3 -5zM595 222h-67l-3 5l3 5h67l3 -5zM599 168h-69l-3 5l3 5h69l3 -5zM593 140h-78l-3 5l3 5h78l3 -5zM583 113h-106l-3 5l8 5h101l3 -5z" />
<glyph unicode="c" horiz-adv-x="682" d="M161 577l34 -4h77l3 -5l-8 -5h-72l-34 -4l-5 9zM122 167l34 -4h57l3 -5l-3 -5h-57l-34 -4l-5 9zM588 563h-114l-8 5l3 5h119l3 -5zM569 153h-31l-3 5l3 5h31l3 -5zM228 632l34 -4h251l3 -5l-3 -5h-251l-34 -4l-5 9zM190 605l34 -4h328l3 -5l-3 -5h-328l-34 -4l-5 9z M141 550l34 -4h61l3 -5l-3 -5h-61l-34 -4l-5 9zM125 523l34 -4h51l3 -5l-3 -5h-51l-34 -4l-5 9zM113 495l34 -4h43l3 -5l-3 -5h-43l-34 -4l-5 9zM102 468l34 -4h41l3 -5l-3 -5h-41l-34 -5l-5 10zM95 441l34 -4h37l3 -5l-3 -5h-37l-34 -4l-5 9zM89 412l34 -3h33l3 -5l-3 -5 h-33l-34 -4l-5 9zM85 386l34 -4h33l3 -5l-3 -5h-33l-34 -4l-5 9zM83 359l34 -4h33l3 -5l-3 -5h-33l-34 -4l-5 9zM83 331l34 -4h33l3 -5l-3 -5h-33l-34 -4l-5 9zM85 304l34 -4h33l3 -5l-3 -5h-33l-34 -4l-5 9zM89 277l34 -4h33l3 -5l-3 -5h-33l-34 -4l-5 9zM94 249l34 -4h39 l3 -5l-3 -5h-39l-34 -4l-5 9zM101 222l34 -4h44l3 -5l-3 -5h-44l-34 -4l-5 9zM110 195l34 -4h49l3 -5l-3 -5h-49l-34 -4l-5 9zM138 140l34 -4h65l3 -5l-3 -5h-65l-34 -5l-5 10zM157 113l34 -4h81l8 -5l-3 -5h-86l-34 -4l-5 9zM190 86l34 -4h331l3 -5l-3 -5h-331l-34 -4l-5 9 zM297 32l34 -4h119l3 -5l-3 -5h-153l-5 5zM284 655h156l3 -5l-3 -5h-122l-34 -4l-5 9zM228 59l34 -4h256l3 -5l-3 -5h-256l-34 -4l-5 9zM598 536h-88l-3 5l3 5h88l3 -5zM571 509h-28l-3 5l3 5h28l3 -5zM597 126h-86l-3 5l3 5h86l3 -5zM589 99h-122l-3 5l8 5h117l3 -5z" />
<glyph unicode="d" horiz-adv-x="742" d="M126 564l33 -4h27l3 -5l-3 -5h-27l-33 -4l-5 9zM126 510l33 -4h27l3 -5l-3 -5h-27l-33 -4l-5 9zM622 496h-91l-3 5l3 5h91l3 -5zM126 642h311l3 -5l-3 -5h-278l-33 -4l-5 9zM126 619l33 -4h353l3 -5l-3 -5h-353l-33 -4l-5 9zM126 592l33 -4h394l3 -5l-3 -5h-394l-33 -4 l-5 9zM126 537l33 -4h27l3 -5l-3 -5h-27l-33 -4l-5 9zM126 482l33 -4h27l3 -5l-3 -5h-27l-33 -4l-5 9zM126 455l33 -4h27l3 -5l-3 -5h-27l-33 -5l-5 10zM126 428l33 -4h27l3 -5l-3 -5h-27l-33 -4l-5 9zM126 399l33 -3h27l3 -5l-3 -5h-27l-33 -4l-5 9zM126 373l33 -4h27l3 -5 l-3 -5h-27l-33 -4l-5 9zM126 346l33 -4h27l3 -5l-3 -5h-27l-33 -4l-5 9zM126 318l33 -4h27l3 -5l-3 -5h-27l-33 -4l-5 9zM126 291l33 -4h27l3 -5l-3 -5h-27l-33 -4l-5 9zM126 264l33 -4h27l3 -5l-3 -5h-27l-33 -4l-5 9zM126 236l33 -4h27l3 -5l-3 -5h-27l-33 -4l-5 9z M126 209l33 -4h27l3 -5l-3 -5h-27l-33 -4l-5 9zM126 182l33 -4h27l3 -5l-3 -5h-27l-33 -4l-5 9zM126 154l33 -4h27l3 -5l-3 -5h-27l-33 -4l-5 9zM126 127l33 -4h27l3 -5l-3 -5h-27l-33 -5l-5 10zM126 100l33 -4h394l3 -5l-3 -5h-394l-33 -4l-5 9zM126 73l33 -4h353l3 -5 l-3 -5h-353l-33 -4l-5 9zM126 46l33 -4h278l3 -5l-3 -5h-311l-5 5zM582 550h-133l-8 5l3 5h138l3 -5zM604 523h-106l-3 5l3 5h106l3 -5zM635 468h-83l-3 5l3 5h83l3 -5zM645 441h-77l-3 5l3 5h77l3 -5zM651 414h-72l-3 5l3 5h72l3 -5zM656 386h-69l-3 5l3 5h69l3 -5z M660 359h-69l-3 5l3 5h69l3 -5zM661 332h-69l-3 5l3 5h69l3 -5zM660 304h-69l-3 5l3 5h69l3 -5zM656 277h-69l-3 5l3 5h69l3 -5zM652 250h-73l-3 5l3 5h73l3 -5zM645 222h-77l-3 5l3 5h77l3 -5zM635 195h-83l-3 5l3 5h83l3 -5zM622 168h-91l-3 5l3 5h91l3 -5zM604 140h-106 l-3 5l3 5h106l3 -5zM582 113h-138l-3 5l8 5h133l3 -5z" />
<glyph unicode="e" horiz-adv-x="626" d="M126 564l33 -4h27l3 -5l-3 -5h-27l-33 -4l-5 9zM126 428l33 -4h27l3 -5l-3 -5h-27l-33 -4l-5 9zM126 318l33 -4h27l3 -5l-3 -5h-27l-33 -4l-5 9zM126 127l33 -4h27l3 -5l-3 -5h-27l-33 -5l-5 10zM126 510l33 -4h27l3 -5l-3 -5h-27l-33 -4l-5 9zM126 642h385l3 -5l-3 -5 h-352l-33 -4l-5 9zM126 619l33 -4h352l3 -5l-3 -5h-352l-33 -4l-5 9zM126 592l33 -4h352l3 -5l-3 -5h-352l-33 -4l-5 9zM126 537l33 -4h27l3 -5l-3 -5h-27l-33 -4l-5 9zM126 482l33 -4h27l3 -5l-3 -5h-27l-33 -4l-5 9zM126 455l33 -4h27l3 -5l-3 -5h-27l-33 -5l-5 10z M126 399l33 -3h322l3 -5l-3 -5h-322l-33 -4l-5 9zM126 373l33 -4h322l3 -5l-3 -5h-322l-33 -4l-5 9zM126 346l33 -4h322l3 -5l-3 -5h-322l-33 -4l-5 9zM126 291l33 -4h27l3 -5l-3 -5h-27l-33 -4l-5 9zM126 264l33 -4h27l3 -5l-3 -5h-27l-33 -4l-5 9zM126 236l33 -4h27l3 -5 l-3 -5h-27l-33 -4l-5 9zM126 209l33 -4h27l3 -5l-3 -5h-27l-33 -4l-5 9zM126 182l33 -4h27l3 -5l-3 -5h-27l-33 -4l-5 9zM126 154l33 -4h27l3 -5l-3 -5h-27l-33 -4l-5 9zM126 100l33 -4h373l3 -5l-3 -5h-373l-33 -4l-5 9zM126 73l33 -4h373l3 -5l-3 -5h-373l-33 -4l-5 9z M126 46l33 -4h373l3 -5l-3 -5h-406l-5 5z" />
<glyph unicode="f" horiz-adv-x="611" d="M126 373l33 -4h27l3 -5l-3 -5h-27l-33 -4l-5 9zM126 264l33 -4h27l3 -5l-3 -5h-27l-33 -4l-5 9zM126 564l33 -4h27l3 -5l-3 -5h-27l-33 -4l-5 9zM126 236l33 -4h27l3 -5l-3 -5h-27l-33 -4l-5 9zM126 642h403l3 -5l-3 -5h-370l-33 -4l-5 9zM126 619l33 -4h370l3 -5l-3 -5 h-370l-33 -4l-5 9zM126 592l33 -4h370l3 -5l-3 -5h-370l-33 -4l-5 9zM126 537l33 -4h27l3 -5l-3 -5h-27l-33 -4l-5 9zM126 510l33 -4h27l3 -5l-3 -5h-27l-33 -4l-5 9zM126 482l33 -4h27l3 -5l-3 -5h-27l-33 -4l-5 9zM126 455l33 -4h27l3 -5l-3 -5h-27l-33 -5l-5 10zM126 428 l33 -4h27l3 -5l-3 -5h-27l-33 -4l-5 9zM126 399l33 -3h27l3 -5l-3 -5h-27l-33 -4l-5 9zM126 346l33 -4h340l3 -5l-3 -5h-340l-33 -4l-5 9zM126 318l33 -4h340l3 -5l-3 -5h-340l-33 -4l-5 9zM126 291l33 -4h340l3 -5l-3 -5h-340l-33 -4l-5 9zM126 209l33 -4h27l3 -5l-3 -5 h-27l-33 -4l-5 9zM126 182l33 -4h27l3 -5l-3 -5h-27l-33 -4l-5 9zM126 154l33 -4h27l3 -5l-3 -5h-27l-33 -4l-5 9zM126 127l33 -4h27l3 -5l-3 -5h-27l-33 -5l-5 10zM126 100l33 -4h27l3 -5l-3 -5h-27l-33 -4l-5 9zM126 73l33 -4h27l3 -5l-3 -5h-27l-33 -4l-5 9zM126 46 l33 -4h27l3 -5l-3 -5h-60l-5 5z" />
<glyph unicode="g" horiz-adv-x="694" d="M200 86l34 -4h365l3 -5l-3 -5h-365l-34 -4l-5 9zM599 235h-60l-3 5l3 5h60l3 -5zM161 577l34 -4h75l3 -5l-8 -5h-70l-34 -4l-5 9zM588 563h-114l-8 5l3 5h119l3 -5zM598 536h-88l-3 5l3 5h88l3 -5zM81 359l34 -4h33l3 -5l-3 -5h-33l-34 -4l-5 9zM81 331l34 -4h33l3 -5 l-3 -5h-33l-34 -4l-5 9zM83 304l34 -4h33l3 -5l-3 -5h-33l-34 -4l-5 9zM86 277l34 -4h34l3 -5l-3 -5h-34l-34 -4l-5 9zM92 249l34 -4h40l3 -5l-3 -5h-40l-34 -4l-5 9zM100 222l34 -4h43l3 -5l-3 -5h-43l-34 -4l-5 9zM111 195l34 -4h48l3 -5l-3 -5h-48l-34 -4l-5 9zM125 167 l34 -4h59l3 -5l-3 -5h-59l-34 -4l-5 9zM146 140l34 -4h66l3 -5l-3 -5h-66l-34 -5l-5 10zM170 113l34 -4h79l8 -5l-3 -5h-84l-34 -4l-5 9zM310 32l34 -4h139l3 -5l-3 -5h-173l-5 5zM247 59l34 -4h298l3 -5l-3 -5h-298l-34 -4l-5 9zM599 317h-233l-3 5l3 5h233l3 -5zM599 290 h-233l-3 5l3 5h233l3 -5zM599 263h-233l-3 5l3 5h233l3 -5zM599 208h-60l-3 5l3 5h60l3 -5zM599 181h-60l-3 5l3 5h60l3 -5zM599 153h-60l-3 5l3 5h60l3 -5zM599 126h-60l-3 5l3 5h60l3 -5zM599 99h-60l-3 5l3 5h60l3 -5zM231 632l34 -4h248l3 -5l-3 -5h-248l-34 -4l-5 9z M190 605l34 -4h328l3 -5l-3 -5h-328l-34 -4l-5 9zM140 550l34 -4h58l3 -5l-3 -5h-58l-34 -4l-5 9zM123 523l34 -4h50l3 -5l-3 -5h-50l-34 -4l-5 9zM110 495l34 -4h45l3 -5l-3 -5h-45l-34 -4l-5 9zM99 468l34 -4h41l3 -5l-3 -5h-41l-34 -5l-5 10zM91 441l34 -4h39l3 -5l-3 -5 h-39l-34 -4l-5 9zM86 412l34 -3h34l3 -5l-3 -5h-34l-34 -4l-5 9zM83 386l34 -4h33l3 -5l-3 -5h-33l-34 -4l-5 9zM291 655h149l3 -5l-3 -5h-105l-44 -4l-5 9zM571 509h-28l-3 5l3 5h28l3 -5z" />
<glyph unicode="h" horiz-adv-x="779" d="M126 399l33 -3h27l3 -5l-3 -5h-27l-33 -4l-5 9zM126 291l33 -4h27l3 -5l-3 -5h-27l-33 -4l-5 9zM653 386h-60l-3 5l3 5h60l3 -5zM653 277h-60l-3 5l3 5h60l3 -5zM126 455l33 -4h27l3 -5l-3 -5h-27l-33 -5l-5 10zM126 236l33 -4h27l3 -5l-3 -5h-27l-33 -4l-5 9zM653 222 h-60l-3 5l3 5h60l3 -5zM126 510l33 -4h27l3 -5l-3 -5h-27l-33 -4l-5 9zM126 482l33 -4h27l3 -5l-3 -5h-27l-33 -4l-5 9zM653 496h-60l-3 5l3 5h60l3 -5zM653 468h-60l-3 5l3 5h60l3 -5zM126 642h60l3 -5l-3 -5h-27l-33 -4l-5 9zM126 619l33 -4h27l3 -5l-3 -5h-27l-33 -4 l-5 9zM126 592l33 -4h27l3 -5l-3 -5h-27l-33 -4l-5 9zM126 564l33 -4h27l3 -5l-3 -5h-27l-33 -4l-5 9zM126 537l33 -4h27l3 -5l-3 -5h-27l-33 -4l-5 9zM126 428l33 -4h27l3 -5l-3 -5h-27l-33 -4l-5 9zM126 373l33 -4h494l3 -5l-3 -5h-494l-33 -4l-5 9zM126 346l33 -4h494 l3 -5l-3 -5h-494l-33 -4l-5 9zM126 318l33 -4h494l3 -5l-3 -5h-494l-33 -4l-5 9zM126 264l33 -4h27l3 -5l-3 -5h-27l-33 -4l-5 9zM126 209l33 -4h27l3 -5l-3 -5h-27l-33 -4l-5 9zM126 182l33 -4h27l3 -5l-3 -5h-27l-33 -4l-5 9zM126 154l33 -4h27l3 -5l-3 -5h-27l-33 -4 l-5 9zM126 127l33 -4h27l3 -5l-3 -5h-27l-33 -5l-5 10zM126 100l33 -4h27l3 -5l-3 -5h-27l-33 -4l-5 9zM126 73l33 -4h27l3 -5l-3 -5h-27l-33 -4l-5 9zM126 46l33 -4h27l3 -5l-3 -5h-60l-5 5zM652 605h-59l-3 5l3 5h59l3 -5zM652 578h-59l-3 5l3 5h59l3 -5zM653 550h-60 l-3 5l3 5h60l3 -5zM653 523h-60l-3 5l3 5h60l3 -5zM653 441h-60l-3 5l3 5h60l3 -5zM653 414h-60l-3 5l3 5h60l3 -5zM653 250h-60l-3 5l3 5h60l3 -5zM653 195h-60l-3 5l3 5h60l3 -5zM653 168h-60l-3 5l3 5h60l3 -5zM653 140h-60l-3 5l3 5h60l3 -5zM653 113h-60l-3 5l3 5h60 l3 -5zM653 86h-60l-3 5l3 5h60l3 -5zM653 59h-60l-3 5l3 5h60l3 -5zM652 632h-59l-3 5l3 5h59l3 -5zM653 32h-60l-3 5l3 5h60l3 -5z" />
<glyph unicode="i" horiz-adv-x="311" d="M126 564l33 -4h27l3 -5l-3 -5h-27l-33 -4l-5 9zM126 428l33 -4h27l3 -5l-3 -5h-27l-33 -4l-5 9zM126 318l33 -4h27l3 -5l-3 -5h-27l-33 -4l-5 9zM126 127l33 -4h27l3 -5l-3 -5h-27l-33 -5l-5 10zM126 510l33 -4h27l3 -5l-3 -5h-27l-33 -4l-5 9zM126 642h60l3 -5l-3 -5 h-27l-33 -4l-5 9zM126 619l33 -4h27l3 -5l-3 -5h-27l-33 -4l-5 9zM126 592l33 -4h27l3 -5l-3 -5h-27l-33 -4l-5 9zM126 537l33 -4h27l3 -5l-3 -5h-27l-33 -4l-5 9zM126 482l33 -4h27l3 -5l-3 -5h-27l-33 -4l-5 9zM126 455l33 -4h27l3 -5l-3 -5h-27l-33 -5l-5 10zM126 399 l33 -3h27l3 -5l-3 -5h-27l-33 -4l-5 9zM126 373l33 -4h27l3 -5l-3 -5h-27l-33 -4l-5 9zM126 346l33 -4h27l3 -5l-3 -5h-27l-33 -4l-5 9zM126 291l33 -4h27l3 -5l-3 -5h-27l-33 -4l-5 9zM126 264l33 -4h27l3 -5l-3 -5h-27l-33 -4l-5 9zM126 236l33 -4h27l3 -5l-3 -5h-27 l-33 -4l-5 9zM126 209l33 -4h27l3 -5l-3 -5h-27l-33 -4l-5 9zM126 182l33 -4h27l3 -5l-3 -5h-27l-33 -4l-5 9zM126 154l33 -4h27l3 -5l-3 -5h-27l-33 -4l-5 9zM126 100l33 -4h27l3 -5l-3 -5h-27l-33 -4l-5 9zM126 73l33 -4h27l3 -5l-3 -5h-27l-33 -4l-5 9zM126 46l33 -4h27 l3 -5l-3 -5h-60l-5 5z" />
<glyph unicode="j" horiz-adv-x="512" d="M318 110l34 -4h47l3 -5l-3 -5h-47l-34 -4l-5 9zM70 110l34 -4h52l8 -5l-3 -5h-57l-34 -4l-5 9zM360 642h60l3 -5l-3 -5h-27l-33 -4l-5 9zM360 619l33 -4h27l3 -5l-3 -5h-27l-33 -4l-5 9zM360 592l33 -4h27l3 -5l-3 -5h-27l-33 -4l-5 9zM360 564l33 -4h27l3 -5l-3 -5h-27 l-33 -4l-5 9zM360 537l33 -4h27l3 -5l-3 -5h-27l-33 -4l-5 9zM360 510l33 -4h27l3 -5l-3 -5h-27l-33 -4l-5 9zM360 482l33 -4h27l3 -5l-3 -5h-27l-33 -4l-5 9zM360 455l33 -4h27l3 -5l-3 -5h-27l-33 -5l-5 10zM360 428l33 -4h27l3 -5l-3 -5h-27l-33 -4l-5 9zM360 399l33 -3 h27l3 -5l-3 -5h-27l-33 -4l-5 9zM360 373l33 -4h27l3 -5l-3 -5h-27l-33 -4l-5 9zM360 345l33 -4h27l3 -5l-3 -5h-27l-33 -4l-5 9zM360 320l33 -4h27l3 -5l-3 -5h-27l-33 -4l-5 9zM360 294l33 -4h27l3 -5l-3 -5h-27l-33 -4l-5 9zM360 268l33 -4h27l3 -5l-3 -5h-27l-33 -4 l-5 9zM360 241l34 -4h26l3 -5l-3 -5h-26l-34 -4l-5 9zM360 215l34 -4h26l3 -5l-3 -5h-26l-34 -4l-5 9zM358 189l34 -4h27l3 -5l-3 -5h-27l-34 -4l-5 9zM354 162l37 -4h24l3 -5l-3 -5h-24l-37 -4l-5 9zM93 84l34 -4h255l3 -5l-3 -5h-255l-34 -4l-5 9zM179 32l34 -4h91l3 -5 l-3 -5h-125l-5 5zM123 58l34 -4h196l3 -5l-3 -5h-196l-34 -4l-5 9zM53 136l34 -4h39l3 -5l-3 -5h-39l-34 -5l-5 10zM78 162l29 -4l3 -5l-3 -5l-29 -4l-5 9zM341 136l37 -4h31l3 -5l-3 -5h-31l-37 -4l-5 9z" />
<glyph unicode="k" horiz-adv-x="684" d="M126 510l33 -4h27l3 -5l-3 -5h-27l-33 -4l-5 9zM126 482l33 -4h27l3 -5l-3 -5h-27l-33 -4l-5 9zM451 496h-92l-3 5l3 5h92l3 -5zM423 468h-91l-3 5l3 5h91l3 -5zM126 642h60l3 -5l-3 -5h-27l-33 -4l-5 9zM126 619l33 -4h27l3 -5l-3 -5h-27l-33 -4l-5 9zM126 592l33 -4h27 l3 -5l-3 -5h-27l-33 -4l-5 9zM126 564l33 -4h27l3 -5l-3 -5h-27l-33 -4l-5 9zM126 537l33 -4h27l3 -5l-3 -5h-27l-33 -4l-5 9zM126 455l33 -4h27l3 -5l-3 -5h-27l-33 -5l-5 10zM126 428l33 -4h27l3 -5l-3 -5h-27l-33 -4l-5 9zM126 399l33 -3h27l3 -5l-3 -5h-27l-33 -4l-5 9z M126 373l33 -4h27l3 -5l-3 -5h-27l-33 -4l-5 9zM126 346l33 -4h134l3 -5l-3 -5h-134l-33 -4l-5 9zM126 318l33 -4h27l3 -5l-3 -5h-27l-33 -4l-5 9zM126 291l33 -4h27l3 -5l-3 -5h-27l-33 -4l-5 9zM126 264l33 -4h27l3 -5l-3 -5h-27l-33 -4l-5 9zM126 236l33 -4h27l3 -5 l-3 -5h-27l-33 -4l-5 9zM126 209l33 -4h27l3 -5l-3 -5h-27l-33 -4l-5 9zM126 182l33 -4h27l3 -5l-3 -5h-27l-33 -4l-5 9zM126 154l33 -4h27l3 -5l-3 -5h-27l-33 -4l-5 9zM126 127l33 -4h27l3 -5l-3 -5h-27l-33 -5l-5 10zM126 100l33 -4h27l3 -5l-3 -5h-27l-33 -4l-5 9z M126 73l33 -4h27l3 -5l-3 -5h-27l-33 -4l-5 9zM126 46l33 -4h27l3 -5l-3 -5h-60l-5 5zM555 605h-94l-3 5l3 5h94l3 -5zM529 578h-94l-3 5l3 5h94l3 -5zM502 550h-92l-3 5l3 5h92l3 -5zM476 523h-92l-3 5l3 5h92l3 -5zM398 441h-92l-3 5l3 5h92l3 -5zM372 414h-91l-3 5l3 5 h91l3 -5zM345 386h-91l-3 5l3 5h91l3 -5zM320 359h-92l-3 5l3 5h92l3 -5zM323 304h-93l-3 5l3 5h93l3 -5zM348 277h-93l-3 5l3 5h93l3 -5zM374 250h-93l-3 5l3 5h93l3 -5zM401 222h-94l-3 5l3 5h94l3 -5zM427 195h-95l-3 5l3 5h95l3 -5zM454 168h-96l-3 5l3 5h96l3 -5z M480 140h-96l-3 5l3 5h96l3 -5zM506 113h-97l-3 5l3 5h97l3 -5zM531 86h-97l-3 5l3 5h97l3 -5zM558 59h-98l-3 5l3 5h98l3 -5zM580 632h-92l-3 5l3 5h92l3 -5zM583 32h-97l-3 5l3 5h97l3 -5z" />
<glyph unicode="l" horiz-adv-x="606" d="M126 564l33 -4h27l3 -5l-3 -5h-27l-33 -4l-5 9zM126 428l33 -4h27l3 -5l-3 -5h-27l-33 -4l-5 9zM126 318l33 -4h27l3 -5l-3 -5h-27l-33 -4l-5 9zM126 127l33 -4h27l3 -5l-3 -5h-27l-33 -5l-5 10zM126 510l33 -4h27l3 -5l-3 -5h-27l-33 -4l-5 9zM126 642h60l3 -5l-3 -5 h-27l-33 -4l-5 9zM126 619l33 -4h27l3 -5l-3 -5h-27l-33 -4l-5 9zM126 592l33 -4h27l3 -5l-3 -5h-27l-33 -4l-5 9zM126 537l33 -4h27l3 -5l-3 -5h-27l-33 -4l-5 9zM126 482l33 -4h27l3 -5l-3 -5h-27l-33 -4l-5 9zM126 455l33 -4h27l3 -5l-3 -5h-27l-33 -5l-5 10zM126 399 l33 -3h27l3 -5l-3 -5h-27l-33 -4l-5 9zM126 373l33 -4h27l3 -5l-3 -5h-27l-33 -4l-5 9zM126 346l33 -4h27l3 -5l-3 -5h-27l-33 -4l-5 9zM126 291l33 -4h27l3 -5l-3 -5h-27l-33 -4l-5 9zM126 264l33 -4h27l3 -5l-3 -5h-27l-33 -4l-5 9zM126 236l33 -4h27l3 -5l-3 -5h-27 l-33 -4l-5 9zM126 209l33 -4h27l3 -5l-3 -5h-27l-33 -4l-5 9zM126 182l33 -4h27l3 -5l-3 -5h-27l-33 -4l-5 9zM126 154l33 -4h27l3 -5l-3 -5h-27l-33 -4l-5 9zM126 100l33 -4h366l3 -5l-3 -5h-366l-33 -4l-5 9zM126 73l33 -4h366l3 -5l-3 -5h-366l-33 -4l-5 9zM126 46l33 -4 h366l3 -5l-3 -5h-399l-5 5z" />
<glyph unicode="m" horiz-adv-x="847" d="M127 564l33 -4h27l3 -5l-3 -5h-27l-33 -4l-5 9zM280 550h-78l-3 5l3 5h78l3 -5zM127 510l33 -4h27l3 -5l-3 -5h-27l-33 -4l-5 9zM127 482l33 -4h27l3 -5l-3 -5h-27l-33 -4l-5 9zM721 496h-60l-3 5l3 5h60l3 -5zM721 468h-60l-3 5l3 5h60l3 -5zM310 496h-77l-3 5l3 5h77 l3 -5zM326 468h-78l-3 5l3 5h78l3 -5zM617 496h-80l-3 5l3 5h80l3 -5zM601 468h-80l-3 5l3 5h80l3 -5zM127 642h108l3 -5l-3 -5h-75l-33 -4l-5 9zM127 619l33 -4h90l3 -5l-3 -5h-90l-33 -4l-5 9zM127 592l33 -4h105l3 -5l-3 -5h-105l-33 -4l-5 9zM127 537l33 -4h27l3 -5 l-3 -5h-27l-33 -4l-5 9zM127 455l33 -4h27l3 -5l-3 -5h-27l-33 -5l-5 10zM127 428l33 -4h27l3 -5l-3 -5h-27l-33 -4l-5 9zM127 399l33 -3h27l3 -5l-3 -5h-27l-33 -4l-5 9zM127 373l33 -4h27l3 -5l-3 -5h-27l-33 -4l-5 9zM127 346l33 -4h27l3 -5l-3 -5h-27l-33 -4l-5 9z M127 318l33 -4h27l3 -5l-3 -5h-27l-33 -4l-5 9zM127 291l33 -4h27l3 -5l-3 -5h-27l-33 -4l-5 9zM127 264l33 -4h27l3 -5l-3 -5h-27l-33 -4l-5 9zM127 236l33 -4h27l3 -5l-3 -5h-27l-33 -4l-5 9zM127 209l33 -4h27l3 -5l-3 -5h-27l-33 -4l-5 9zM127 182l33 -4h27l3 -5l-3 -5 h-27l-33 -4l-5 9zM127 154l33 -4h27l3 -5l-3 -5h-27l-33 -4l-5 9zM127 127l33 -4h27l3 -5l-3 -5h-27l-33 -5l-5 10zM127 100l33 -4h27l3 -5l-3 -5h-27l-33 -4l-5 9zM127 73l33 -4h27l3 -5l-3 -5h-27l-33 -4l-5 9zM127 46l33 -4h27l3 -5l-3 -5h-60l-5 5zM720 605h-123l-3 5 l3 5h123l3 -5zM720 578h-139l-3 5l3 5h139l3 -5zM721 550h-60l-3 5l3 5h60l3 -5zM721 523h-60l-3 5l3 5h60l3 -5zM721 441h-60l-3 5l3 5h60l3 -5zM721 414h-60l-3 5l3 5h60l3 -5zM721 386h-60l-3 5l3 5h60l3 -5zM721 359h-60l-3 5l3 5h60l3 -5zM721 332h-60l-3 5l3 5h60 l3 -5zM721 304h-60l-3 5l3 5h60l3 -5zM721 277h-60l-3 5l3 5h60l3 -5zM721 250h-60l-3 5l3 5h60l3 -5zM721 222h-60l-3 5l3 5h60l3 -5zM721 195h-60l-3 5l3 5h60l3 -5zM721 168h-60l-3 5l3 5h60l3 -5zM721 140h-60l-3 5l3 5h60l3 -5zM721 113h-60l-3 5l3 5h60l3 -5zM721 86 h-60l-3 5l3 5h60l3 -5zM721 59h-60l-3 5l3 5h60l3 -5zM720 632h-109l-3 5l3 5h109l3 -5zM721 32h-60l-3 5l3 5h60l3 -5zM295 523h-74l-3 5l3 5h74l3 -5zM341 441h-79l-3 5l3 5h79l3 -5zM356 414h-78l-3 5l3 5h78l3 -5zM371 386h-78l-3 5l3 5h78l3 -5zM386 359h-78l-3 5l3 5 h78l3 -5zM401 332h-78l-3 5l3 5h78l3 -5zM417 304h-78l-3 5l3 5h78l3 -5zM496 277h-142l-3 5l3 5h142l3 -5zM481 250h-112l-3 5l3 5h112l3 -5zM466 222h-82l-3 5l3 5h82l3 -5zM645 550h-79l-3 5l3 5h79l3 -5zM631 523h-80l-3 5l3 5h80l3 -5zM586 441h-80l-3 5l3 5h80l3 -5z M571 414h-80l-3 5l3 5h80l3 -5zM556 386h-80l-3 5l3 5h80l3 -5zM541 359h-80l-3 5l3 5h80l3 -5zM526 332h-80l-3 5l3 5h80l3 -5zM511 304h-79l-3 5l3 5h79l3 -5z" />
<glyph unicode="n" horiz-adv-x="780" d="M654 140h-60l-3 5l3 5h60l3 -5zM295 550h-89l-3 5l3 5h89l3 -5zM126 510l33 -4h27l3 -5l-3 -5h-27l-33 -4l-5 9zM126 482l33 -4h27l3 -5l-3 -5h-27l-33 -4l-5 9zM654 496h-60l-3 5l3 5h60l3 -5zM654 468h-60l-3 5l3 5h60l3 -5zM329 496h-89l-3 5l3 5h89l3 -5zM347 468 h-88l-3 5l3 5h88l3 -5zM126 642h116l3 -5l-3 -5h-83l-33 -4l-5 9zM126 619l33 -4h101l3 -5l-3 -5h-101l-33 -4l-5 9zM126 592l33 -4h118l3 -5l-3 -5h-118l-33 -4l-5 9zM126 564l33 -4h27l3 -5l-3 -5h-27l-33 -4l-5 9zM126 537l33 -4h27l3 -5l-3 -5h-27l-33 -4l-5 9zM126 455 l33 -4h27l3 -5l-3 -5h-27l-33 -5l-5 10zM126 428l33 -4h27l3 -5l-3 -5h-27l-33 -4l-5 9zM126 399l33 -3h27l3 -5l-3 -5h-27l-33 -4l-5 9zM126 373l33 -4h27l3 -5l-3 -5h-27l-33 -4l-5 9zM126 346l33 -4h27l3 -5l-3 -5h-27l-33 -4l-5 9zM126 318l33 -4h27l3 -5l-3 -5h-27 l-33 -4l-5 9zM126 291l33 -4h27l3 -5l-3 -5h-27l-33 -4l-5 9zM126 264l33 -4h27l3 -5l-3 -5h-27l-33 -4l-5 9zM126 236l33 -4h27l3 -5l-3 -5h-27l-33 -4l-5 9zM126 209l33 -4h27l3 -5l-3 -5h-27l-33 -4l-5 9zM126 182l33 -4h27l3 -5l-3 -5h-27l-33 -4l-5 9zM126 154l33 -4 h27l3 -5l-3 -5h-27l-33 -4l-5 9zM126 127l33 -4h27l3 -5l-3 -5h-27l-33 -5l-5 10zM126 100l33 -4h27l3 -5l-3 -5h-27l-33 -4l-5 9zM126 73l33 -4h27l3 -5l-3 -5h-27l-33 -4l-5 9zM126 46l33 -4h27l3 -5l-3 -5h-60l-5 5zM653 605h-59l-3 5l3 5h59l3 -5zM653 578h-59l-3 5l3 5 h59l3 -5zM654 550h-60l-3 5l3 5h60l3 -5zM654 523h-60l-3 5l3 5h60l3 -5zM654 441h-60l-3 5l3 5h60l3 -5zM654 414h-60l-3 5l3 5h60l3 -5zM654 386h-60l-3 5l3 5h60l3 -5zM654 359h-60l-3 5l3 5h60l3 -5zM654 332h-60l-3 5l3 5h60l3 -5zM654 304h-60l-3 5l3 5h60l3 -5z M654 277h-60l-3 5l3 5h60l3 -5zM654 250h-60l-3 5l3 5h60l3 -5zM654 222h-60l-3 5l3 5h60l3 -5zM654 195h-60l-3 5l3 5h60l3 -5zM654 168h-60l-3 5l3 5h60l3 -5zM654 113h-60l-3 5l3 5h60l3 -5zM654 86h-151l-3 5l3 5h151l3 -5zM654 59h-133l-3 5l3 5h133l3 -5zM653 632h-59 l-3 5l3 5h59l3 -5zM654 32h-116l-3 5l3 5h116l3 -5zM312 523h-89l-3 5l3 5h89l3 -5zM364 441h-89l-3 5l3 5h89l3 -5zM382 414h-89l-3 5l3 5h89l3 -5zM399 386h-88l-3 5l3 5h88l3 -5zM415 359h-87l-3 5l3 5h87l3 -5zM434 332h-88l-3 5l3 5h88l3 -5zM451 304h-88l-3 5l3 5h88 l3 -5zM469 277h-88l-3 5l3 5h88l3 -5zM486 250h-88l-3 5l3 5h88l3 -5zM504 222h-87l-3 5l3 5h87l3 -5zM521 195h-87l-3 5l3 5h87l3 -5zM537 168h-86l-3 5l3 5h86l3 -5zM556 140h-87l-3 5l3 5h87l3 -5zM572 113h-86l-3 5l3 5h86l3 -5z" />
<glyph unicode="o" horiz-adv-x="750" d="M165 577l34 -4h80l3 -5l-9 -5h-74l-34 -4l-5 9zM591 563h-113l-9 5l3 5h119l3 -5zM112 495l34 -4h47l3 -5l-3 -5h-47l-34 -4l-5 9zM642 481h-78l-3 5l3 5h78l3 -5zM102 468l34 -4h42l3 -5l-3 -5h-42l-34 -5l-5 10zM94 441l34 -4h41l3 -5l-3 -5h-37l-34 -4l-5 9zM202 86 l34 -4h324l3 -5l-3 -5h-324l-34 -4l-5 9zM653 454h-76l-3 5l3 5h76l3 -5zM660 427h-72l-3 5l3 5h72l3 -5zM233 632l34 -4h256l3 -5l-3 -5h-256l-34 -4l-5 9zM193 605l34 -4h332l3 -5l-3 -5h-332l-34 -4l-5 9zM143 550l34 -4h60l3 -5l-3 -5h-60l-34 -4l-5 9zM126 523l34 -4 h53l3 -5l-3 -5h-53l-34 -4l-5 9zM92 412l24 -3h45l3 -5l-3 -5h-45l-24 -4l-5 9zM88 386l34 -4h33l3 -5l-3 -5h-33l-34 -4l-5 9zM86 359l34 -4h33l3 -5l-3 -5h-33l-34 -4l-5 9zM86 331l34 -4h33l3 -5l-3 -5h-33l-34 -4l-5 9zM88 304l34 -4h33l3 -5l-3 -5h-33l-34 -4l-5 9z M92 277l30 -4h39l3 -5l-3 -5h-39l-29 -4l-5 9zM98 249l34 -4h37l3 -5l-3 -5h-37l-34 -4l-5 9zM107 222l34 -4h39l3 -5l-3 -5h-39l-34 -4l-5 9zM118 195l34 -4h43l3 -5l-3 -5h-43l-34 -4l-5 9zM132 167l34 -4h50l3 -5l-3 -5h-50l-34 -4l-5 9zM150 140l34 -4h61l3 -5l-3 -5 h-61l-34 -5l-5 10zM171 113l34 -4h78l8 -5l-3 -5h-83l-34 -4l-5 9zM310 32l34 -4h113l3 -5l-3 -5h-147l-5 5zM303 655h149l3 -5l-3 -5h-115l-34 -4l-5 9zM247 59l34 -4h240l3 -5l-3 -5h-240l-34 -4l-5 9zM612 536h-98l-3 5l3 5h98l3 -5zM629 509h-86l-3 5l3 5h86l3 -5z M628 153h-86l-3 5l3 5h86l3 -5zM611 126h-94l-3 5l3 5h94l3 -5zM590 99h-120l-3 5l8 5h115l3 -5zM667 399h-70l-3 5l3 5h70l3 -5zM672 372h-70l-3 5l3 5h70l3 -5zM673 345h-69l-3 5l3 5h69l3 -5zM673 317h-69l-3 5l3 5h69l3 -5zM670 290h-68l-3 5l3 5h68l3 -5zM667 263h-70 l-3 5l3 5h70l3 -5zM661 235h-74l-3 5l3 5h74l3 -5zM653 208h-75l-3 5l3 5h75l3 -5zM642 181h-80l-3 5l3 5h80l3 -5z" />
<glyph unicode="p" horiz-adv-x="641" d="M126 564l33 -4h27l3 -5l-3 -5h-27l-33 -4l-5 9zM126 346l33 -4h27l3 -5l-3 -5h-27l-33 -4l-5 9zM126 236l33 -4h27l3 -5l-3 -5h-27l-33 -4l-5 9zM126 209l33 -4h27l3 -5l-3 -5h-27l-33 -4l-5 9zM126 510l33 -4h27l3 -5l-3 -5h-27l-33 -4l-5 9zM126 482l33 -4h27l3 -5 l-3 -5h-27l-33 -4l-5 9zM558 496h-71l-3 5l3 5h71l3 -5zM563 468h-66l-3 5l3 5h66l3 -5zM126 642h290l3 -5l-3 -5h-257l-33 -4l-5 9zM126 619l33 -4h322l3 -5l-3 -5h-322l-33 -4l-5 9zM126 592l33 -4h355l3 -5l-3 -5h-355l-33 -4l-5 9zM126 537l33 -4h27l3 -5l-3 -5h-27 l-33 -4l-5 9zM126 455l33 -4h27l3 -5l-3 -5h-27l-33 -5l-5 10zM126 428l33 -4h27l3 -5l-3 -5h-27l-33 -4l-5 9zM126 399l33 -3h27l3 -5l-3 -5h-27l-33 -4l-5 9zM126 373l33 -4h27l3 -5l-3 -5h-27l-33 -4l-5 9zM126 318l33 -4h355l3 -5l-3 -5h-355l-33 -4l-5 9zM126 291 l33 -4h322l3 -5l-3 -5h-322l-33 -4l-5 9zM126 264l33 -4h257l3 -5l-3 -5h-257l-33 -4l-5 9zM126 182l33 -4h27l3 -5l-3 -5h-27l-33 -4l-5 9zM126 154l33 -4h27l3 -5l-3 -5h-27l-33 -4l-5 9zM126 127l33 -4h27l3 -5l-3 -5h-27l-33 -5l-5 10zM126 100l33 -4h27l3 -5l-3 -5h-27 l-33 -4l-5 9zM126 73l33 -4h27l3 -5l-3 -5h-27l-33 -4l-5 9zM126 46l33 -4h27l3 -5l-3 -5h-60l-5 5zM537 550h-107l-8 5l3 5h112l3 -5zM549 523h-81l-3 5l3 5h81l3 -5zM565 441h-66l-3 5l3 5h66l3 -5zM563 414h-66l-3 5l3 5h66l3 -5zM558 386h-71l-3 5l3 5h71l3 -5zM549 359 h-80l-3 5l3 5h80l3 -5zM537 332h-107l-3 5l8 5h102l3 -5z" />
<glyph unicode="q" horiz-adv-x="750" d="M165 577l34 -4h80l3 -5l-9 -5h-74l-34 -4l-5 9zM591 563h-113l-9 5l3 5h119l3 -5zM112 495l34 -4h47l3 -5l-3 -5h-47l-34 -4l-5 9zM642 481h-78l-3 5l3 5h78l3 -5zM102 468l34 -4h42l3 -5l-3 -5h-42l-34 -5l-5 10zM94 441l34 -4h41l3 -5l-3 -5h-37l-34 -4l-5 9zM202 86 l34 -4h324l3 -5l-3 -5h-324l-34 -4l-5 9zM653 454h-76l-3 5l3 5h76l3 -5zM660 427h-72l-3 5l3 5h72l3 -5zM233 632l34 -4h256l3 -5l-3 -5h-256l-34 -4l-5 9zM193 605l34 -4h332l3 -5l-3 -5h-332l-34 -4l-5 9zM143 550l34 -4h60l3 -5l-3 -5h-60l-34 -4l-5 9zM126 523l34 -4 h53l3 -5l-3 -5h-53l-34 -4l-5 9zM92 412l24 -3h45l3 -5l-3 -5h-45l-24 -4l-5 9zM88 386l34 -4h33l3 -5l-3 -5h-33l-34 -4l-5 9zM86 359l34 -4h33l3 -5l-3 -5h-33l-34 -4l-5 9zM86 331l34 -4h33l3 -5l-3 -5h-33l-34 -4l-5 9zM88 304l34 -4h33l3 -5l-3 -5h-33l-34 -4l-5 9z M92 277l30 -4h39l3 -5l-3 -5h-39l-29 -4l-5 9zM98 249l34 -4h37l3 -5l-3 -5h-37l-34 -4l-5 9zM107 222l34 -4h39l3 -5l-3 -5h-39l-34 -4l-5 9zM118 195l34 -4h43l3 -5l-3 -5h-43l-34 -4l-5 9zM132 167l34 -4h50l3 -5l-3 -5h-50l-34 -4l-5 9zM150 140l34 -4h61l3 -5l-3 -5 h-61l-34 -5l-5 10zM171 113l34 -4h78l8 -5l-3 -5h-83l-34 -4l-5 9zM310 32l34 -4h137l3 -5l-3 -5h-171l-5 5zM303 655h149l3 -5l-3 -5h-115l-34 -4l-5 9zM247 59l34 -4h240l3 -5l-3 -5h-240l-34 -4l-5 9zM612 536h-98l-3 5l3 5h98l3 -5zM629 509h-86l-3 5l3 5h86l3 -5z M628 153h-86l-3 5l3 5h86l3 -5zM611 126h-94l-3 5l3 5h94l3 -5zM590 99h-120l-3 5l8 5h115l3 -5zM667 399h-70l-3 5l3 5h70l3 -5zM672 372h-70l-3 5l3 5h70l3 -5zM673 345h-69l-3 5l3 5h69l3 -5zM673 317h-69l-3 5l3 5h69l3 -5zM670 290h-68l-3 5l3 5h68l3 -5zM667 263h-70 l-3 5l3 5h70l3 -5zM661 235h-74l-3 5l3 5h74l3 -5zM653 208h-75l-3 5l3 5h75l3 -5zM642 181h-80l-3 5l3 5h80l3 -5zM424 5l34 -4h44l3 -5l-3 -5h-44l-34 -4l-5 9zM464 -49l34 -4h44l3 -5l-3 -5h-44l-34 -4l-5 9zM522 -130l34 -4h48l3 -5l-3 -5h-82l-5 5zM444 -22l34 -4h44 l3 -5l-3 -5h-44l-34 -4l-5 9zM483 -76l34 -4h46l3 -5l-3 -5h-46l-34 -4l-5 9zM503 -103l34 -4h47l3 -5l-3 -5h-47l-34 -4l-5 9z" />
<glyph unicode="r" horiz-adv-x="688" d="M126 264l33 -4h27l3 -5l-3 -5h-27l-33 -4l-5 9zM126 510l33 -4h27l3 -5l-3 -5h-27l-33 -4l-5 9zM126 482l33 -4h27l3 -5l-3 -5h-27l-33 -4l-5 9zM126 291l33 -4h262l3 -5l-3 -5h-262l-33 -4l-5 9zM431 250h-78l-3 5l3 5h78l3 -5zM450 222h-79l-3 5l3 5h79l3 -5zM126 373 l33 -3h27l3 -5l-3 -5h-27l-33 -4l-5 9zM539 360h-103l-3 4l8 5h98l3 -5zM567 496h-71l-3 5l3 5h71l3 -5zM569 468h-68l-3 5l3 5h68l3 -5zM126 642h312l3 -5l-3 -5h-279l-33 -4l-5 9zM126 619l33 -4h340l3 -5l-3 -5h-340l-33 -4l-5 9zM126 592l33 -4h372l3 -5l-3 -5h-372 l-33 -4l-5 9zM126 564l33 -4h27l3 -5l-3 -5h-27l-33 -4l-5 9zM126 537l33 -4h27l3 -5l-3 -5h-27l-33 -4l-5 9zM126 455l33 -4h27l3 -5l-3 -5h-27l-33 -5l-5 10zM126 428l33 -4h27l3 -5l-3 -5h-27l-33 -4l-5 9zM126 399l33 -3h27l3 -5l-3 -5h-27l-33 -4l-5 9zM126 346l33 -4 h355l3 -5l-3 -5h-355l-33 -4l-5 9zM126 318l33 -4h314l3 -5l-3 -5h-314l-33 -4l-5 9zM126 236l33 -4h27l3 -5l-3 -5h-27l-33 -4l-5 9zM126 209l33 -4h27l3 -5l-3 -5h-27l-33 -4l-5 9zM126 182l33 -4h27l3 -5l-3 -5h-27l-33 -4l-5 9zM126 154l33 -4h27l3 -5l-3 -5h-27l-33 -4 l-5 9zM126 127l33 -4h27l3 -5l-3 -5h-27l-33 -5l-5 10zM126 100l33 -4h27l3 -5l-3 -5h-27l-33 -4l-5 9zM126 73l33 -4h27l3 -5l-3 -5h-27l-33 -4l-5 9zM126 46l33 -4h27l3 -5l-3 -5h-60l-5 5zM550 550h-102l-8 5l3 5h107l3 -5zM561 523h-81l-3 5l3 5h81l3 -5zM568 441h-68 l-3 5l3 5h68l3 -5zM563 414h-71l-3 5l3 5h71l3 -5zM554 386h-81l-3 5l3 5h81l3 -5zM469 195h-79l-3 5l3 5h79l3 -5zM487 168h-79l-3 5l3 5h79l3 -5zM506 140h-78l-3 5l3 5h78l3 -5zM525 113h-80l-3 5l3 5h80l3 -5zM545 86h-81l-3 5l3 5h81l3 -5zM563 59h-82l-3 5l3 5h82 l3 -5zM581 32h-81l-3 5l3 5h81l3 -5z" />
<glyph unicode="s" horiz-adv-x="657" d="M150 577l34 -4h50l3 -5l-6 -5h-47l-34 -4l-5 9zM500 222l34 -4h36l3 -5l-3 -5h-36l-34 -4l-5 9zM556 563h-99l-8 5l3 5h104l3 -5zM172 605l34 -4h320l3 -5l-3 -5h-320l-34 -4l-5 9zM208 632l33 -4h245l3 -5l-3 -5h-245l-34 -4l-5 9zM136 550l34 -4h39l3 -5l-3 -5h-39 l-34 -4l-5 9zM129 523l34 -4h33l3 -5l-3 -5h-33l-34 -4l-5 9zM127 495l34 -4h34l3 -5l-3 -5h-34l-34 -4l-5 9zM129 468l34 -4h39l3 -5l-3 -5h-39l-34 -5l-5 10zM137 441l34 -4h51l3 -5l-3 -5h-51l-34 -4l-5 9zM153 412l34 -3h86l3 -5l-3 -5h-86l-34 -4l-5 9zM175 386l34 -4 h156l3 -5l-3 -5h-156l-34 -4l-5 9zM214 359l34 -4h210l3 -5l-3 -5h-210l-34 -4l-5 9zM286 331l34 -4h187l3 -5l-3 -5h-187l-34 -4l-5 9zM386 304l34 -4h118l3 -5l-3 -5h-118l-34 -4l-5 9zM461 277l34 -4h60l3 -5l-3 -5h-60l-29 -4l-10 9zM489 249l34 -4h42l3 -5l-3 -5h-42 l-34 -4l-5 9zM502 195l36 -4h33l3 -5l-3 -5h-33l-36 -4l-5 9zM501 167l34 -4h32l3 -5l-3 -5h-32l-34 -4l-5 9zM486 140l34 -4h40l3 -5l-3 -5h-40l-34 -5l-5 10zM462 113l29 -4h54l3 -5l-3 -5h-54l-34 -4l-5 9zM137 86l34 -4h346l3 -5l-3 -5h-346l-34 -4l-5 9zM253 32l34 -4 h126l3 -5l-3 -5h-160l-5 5zM258 655h165l3 -5l-3 -5h-131l-34 -4l-5 9zM179 59l34 -4h264l3 -5l-3 -5h-264l-34 -4l-5 9zM101 113l34 -4h76l8 -5l-3 -5h-81l-34 -4l-5 9zM118 140l34 -4h17l8 -5l-3 -5h-22l-34 -5l-5 10zM540 536h-45l-4 5l3 5h46l3 -5zM519 514h-8l-3 5l3 5 h8l3 -5zM148 153l-8 -3l-3 8l3 8l8 -3l3 -5z" />
<glyph unicode="t" horiz-adv-x="630" d="M286 564l33 -4h27l3 -5l-3 -5h-27l-33 -4l-5 9zM286 428l33 -4h27l3 -5l-3 -5h-27l-33 -4l-5 9zM286 318l33 -4h27l3 -5l-3 -5h-27l-33 -4l-5 9zM286 127l33 -4h27l3 -5l-3 -5h-27l-33 -5l-5 10zM286 510l33 -4h27l3 -5l-3 -5h-27l-33 -4l-5 9zM53 642h526l3 -5l-3 -5 h-493l-33 -4l-5 9zM53 619l33 -4h493l3 -5l-3 -5h-493l-33 -4l-5 9zM53 592l33 -4h493l3 -5l-3 -5h-526l-5 5zM286 537l33 -4h27l3 -5l-3 -5h-27l-33 -4l-5 9zM286 482l33 -4h27l3 -5l-3 -5h-27l-33 -4l-5 9zM286 455l33 -4h27l3 -5l-3 -5h-27l-33 -5l-5 10zM286 399l33 -3 h27l3 -5l-3 -5h-27l-33 -4l-5 9zM286 373l33 -4h27l3 -5l-3 -5h-27l-33 -4l-5 9zM286 346l33 -4h27l3 -5l-3 -5h-27l-33 -4l-5 9zM286 291l33 -4h27l3 -5l-3 -5h-27l-33 -4l-5 9zM286 264l33 -4h27l3 -5l-3 -5h-27l-33 -4l-5 9zM286 236l33 -4h27l3 -5l-3 -5h-27l-33 -4 l-5 9zM286 209l33 -4h27l3 -5l-3 -5h-27l-33 -4l-5 9zM286 182l33 -4h27l3 -5l-3 -5h-27l-33 -4l-5 9zM286 154l33 -4h27l3 -5l-3 -5h-27l-33 -4l-5 9zM286 100l33 -4h27l3 -5l-3 -5h-27l-33 -4l-5 9zM286 73l33 -4h27l3 -5l-3 -5h-27l-33 -4l-5 9zM286 46l33 -4h27l3 -5 l-3 -5h-60l-5 5z" />
<glyph unicode="u" horiz-adv-x="779" d="M176 110l34 -4h76l8 -5l-3 -5h-81l-34 -4l-5 9zM608 96h-119l-3 5l8 5h114l3 -5zM127 510l33 -4h27l3 -5l-3 -5h-27l-33 -4l-5 9zM127 482l33 -4h27l3 -5l-3 -5h-27l-33 -4l-5 9zM654 496h-62l-3 5l3 5h62l3 -5zM654 468h-62l-3 5l3 5h62l3 -5zM127 642h60l3 -5l-3 -5 h-27l-33 -4l-5 9zM127 619l33 -4h27l3 -5l-3 -5h-27l-33 -4l-5 9zM127 592l33 -4h27l3 -5l-3 -5h-27l-33 -4l-5 9zM127 564l33 -4h27l3 -5l-3 -5h-27l-33 -4l-5 9zM127 537l33 -4h27l3 -5l-3 -5h-27l-33 -4l-5 9zM127 455l33 -4h27l3 -5l-3 -5h-27l-33 -5l-5 10zM127 428 l33 -4h27l3 -5l-3 -5h-27l-33 -4l-5 9zM127 399l33 -3h27l3 -5l-3 -5h-27l-33 -4l-5 9zM127 373l33 -4h27l3 -5l-3 -5h-27l-33 -4l-5 9zM127 347l33 -4h27l3 -5l-3 -5h-27l-33 -4l-5 9zM127 320l33 -4h27l3 -5l-3 -5h-27l-33 -4l-5 9zM127 294l33 -4h27l3 -5l-3 -5h-27 l-33 -4l-5 9zM127 268l33 -4h27l3 -5l-3 -5h-27l-33 -4l-5 9zM654 605h-62l-3 5l3 5h62l3 -5zM654 578h-62l-3 5l3 5h62l3 -5zM654 550h-62l-3 5l3 5h62l3 -5zM654 523h-62l-3 5l3 5h62l3 -5zM654 441h-62l-3 5l3 5h62l3 -5zM654 414h-62l-3 5l3 5h62l3 -5zM654 386h-62 l-3 5l3 5h62l3 -5zM654 359h-62l-3 5l3 5h62l3 -5zM654 333h-62l-3 5l3 5h62l3 -5zM654 306h-62l-3 5l3 5h62l3 -5zM654 280h-62l-3 5l3 5h62l3 -5zM654 254h-62l-3 5l3 5h62l3 -5zM654 227h-61l-4 5l4 5h61l3 -5zM651 201h-63l-3 5l3 5h63l3 -5zM646 175h-68l-3 5l3 5h68 l3 -5zM637 148h-74l-3 5l3 5h74l3 -5zM625 122h-87l-3 5l3 5h87l3 -5zM654 632h-62l-3 5l3 5h62l3 -5zM127 241l34 -4h27l3 -5l-3 -5h-27l-34 -4l-5 9zM130 215l34 -4h28l3 -5l-3 -5h-28l-34 -4l-5 9zM135 189l34 -4h33l3 -5l-3 -5h-33l-34 -4l-5 9zM144 162l34 -4h41l3 -5 l-3 -5h-41l-34 -4l-5 9zM156 136l34 -4h52l3 -5l-3 -5h-52l-34 -5l-5 10zM204 84l34 -4h345l3 -5l-3 -5h-345l-34 -4l-5 9zM310 32l34 -4h134l3 -5l-3 -5h-168l-5 5zM245 58l34 -4h262l3 -5l-3 -5h-262l-34 -4l-5 9z" />
<glyph unicode="v" horiz-adv-x="675" d="M562 496h-66l-3 5l3 5h66l3 -5zM552 468h-67l-3 5l3 5h67l3 -5zM114 510l33 -4h33l3 -5l-3 -5h-33l-33 -4l-5 9zM124 482l33 -4h33l3 -5l-3 -5h-33l-33 -4l-5 9zM602 605h-66l-3 5l3 5h66l3 -5zM592 578h-66l-3 5l3 5h66l3 -5zM582 550h-66l-3 5l3 5h66l3 -5zM572 523 h-66l-3 5l3 5h66l3 -5zM542 441h-67l-3 5l3 5h67l3 -5zM532 414h-67l-3 5l3 5h67l3 -5zM522 386h-67l-3 5l3 5h67l3 -5zM512 359h-68l-3 5l3 5h68l3 -5zM502 332h-67l-3 5l3 5h67l3 -5zM492 304h-68l-3 5l3 5h68l3 -5zM481 277h-67l-3 5l3 5h67l3 -5zM471 250h-67l-3 5l3 5 h67l3 -5zM461 222h-68l-3 5l3 5h68l3 -5zM451 195h-68l-3 5l3 5h68l3 -5zM441 168h-68l-3 5l3 5h68l3 -5zM431 140h-68l-3 5l3 5h68l3 -5zM421 113h-69l-3 5l3 5h69l3 -5zM612 632h-66l-3 5l3 5h66l3 -5zM64 642h65l3 -5l-3 -5h-32l-33 -4l-5 9zM74 619l33 -4h32l3 -5l-3 -5 h-32l-33 -4l-5 9zM84 592l33 -4h32l3 -5l-3 -5h-32l-33 -4l-5 9zM94 564l33 -4h33l3 -5l-3 -5h-33l-33 -4l-5 9zM104 537l33 -4h33l3 -5l-3 -5h-33l-33 -4l-5 9zM134 455l33 -4h33l3 -5l-3 -5h-33l-33 -5l-5 10zM144 428l33 -4h33l3 -5l-3 -5h-33l-33 -4l-5 9zM154 399 l33 -3h33l3 -5l-3 -5h-33l-33 -4l-5 9zM164 373l33 -4h33l3 -5l-3 -5h-33l-33 -4l-5 9zM174 346l33 -4h33l3 -5l-3 -5h-33l-33 -4l-5 9zM185 318l33 -4h32l3 -5l-3 -5h-32l-33 -4l-5 9zM195 291l33 -4h32l3 -5l-3 -5h-32l-33 -4l-5 9zM205 264l33 -4h33l3 -5l-3 -5h-33 l-33 -4l-5 9zM216 236l33 -4h32l3 -5l-3 -5h-32l-33 -4l-5 9zM226 209l33 -4h33l3 -5l-3 -5h-33l-33 -4l-5 9zM235 182l33 -4h34l3 -5l-3 -5h-34l-33 -4l-5 9zM246 154l33 -4h33l3 -5l-3 -5h-33l-33 -4l-5 9zM256 127l33 -4h33l3 -5l-3 -5h-33l-33 -5l-5 10zM266 100l33 -4 h112l3 -5l-3 -5h-112l-33 -4l-5 9zM276 73l33 -4h92l3 -5l-3 -5h-92l-33 -4l-5 9zM286 46l33 -4h73l3 -5l-3 -5h-106l-5 5z" />
<glyph unicode="w" horiz-adv-x="940" d="M347 140h-55l-3 5l3 5h55l3 -5zM109 510l33 -4h29l3 -5l-3 -5h-29l-33 -4l-5 9zM114 482l33 -4h28l3 -5l-3 -5h-28l-33 -4l-5 9zM442 496h-58l-3 5l3 5h58l3 -5zM434 468h-57l-3 5l3 5h57l3 -5zM559 496h-63l-3 5l3 5h63l3 -5zM566 468h-63l-3 5l3 5h63l3 -5zM834 496 h-63l-3 5l3 5h63l3 -5zM828 468h-63l-3 5l3 5h63l3 -5zM77 642h58l3 -5l-3 -5h-25l-33 -4l-5 9zM82 619l33 -4h27l3 -5l-3 -5h-27l-33 -4l-5 9zM89 592l33 -4h26l3 -5l-3 -5h-26l-33 -4l-5 9zM96 564l33 -4h26l3 -5l-3 -5h-26l-33 -4l-5 9zM102 537l33 -4h27l3 -5l-3 -5h-27 l-33 -4l-5 9zM121 455l33 -4h28l3 -5l-3 -5h-28l-33 -4l-5 9zM128 428l33 -4h30l3 -5l-3 -5h-30l-33 -4l-5 9zM135 400l33 -4h28l3 -5l-3 -5h-28l-33 -4l-5 9zM140 373l33 -4h29l3 -5l-3 -5h-29l-33 -4l-5 9zM147 346l33 -4h29l3 -5l-3 -5h-29l-33 -4l-5 9zM153 318l33 -4 h30l3 -5l-3 -5h-30l-33 -4l-5 9zM160 291l33 -4h30l3 -5l-3 -5h-30l-33 -4l-5 9zM166 264l33 -4h30l3 -5l-3 -5h-30l-33 -4l-5 9zM173 236l33 -4h30l3 -5l-3 -5h-30l-33 -4l-5 9zM179 209l33 -4h32l3 -5l-3 -5h-32l-33 -4l-5 9zM185 182l33 -4h31l3 -5l-3 -5h-31l-33 -4 l-5 9zM192 154l33 -4h31l3 -5l-3 -5h-31l-33 -4l-5 9zM198 127l33 -4h32l3 -5l-3 -5h-32l-33 -5l-5 10zM205 100l33 -4h95l3 -5l-3 -5h-95l-33 -4l-5 9zM211 73l33 -4h81l3 -5l-3 -5h-81l-33 -4l-5 9zM217 46l33 -4h68l3 -5l-3 -5h-101l-5 5zM531 605h-119l-3 5l3 5h119 l3 -5zM538 578h-132l-3 5l3 5h132l3 -5zM456 550h-58l-3 5l3 5h58l3 -5zM449 523h-58l-3 5l3 5h58l3 -5zM427 441h-57l-3 5l3 5h57l3 -5zM420 414h-57l-3 5l3 5h57l3 -5zM412 386h-55l-3 5l3 5h55l3 -5zM405 359h-56l-3 5l3 5h56l3 -5zM398 332h-56l-3 5l3 5h56l3 -5z M390 304h-55l-3 5l3 5h55l3 -5zM383 277h-55l-3 5l3 5h55l3 -5zM377 250h-56l-3 5l3 5h56l3 -5zM368 222h-54l-3 5l3 5h54l3 -5zM361 195h-54l-3 5l3 5h54l3 -5zM354 168h-54l-3 5l3 5h54l3 -5zM340 113h-55l-3 5l3 5h55l3 -5zM524 632h-104l-3 5l3 5h104l3 -5zM545 550h-63 l-3 5l3 5h63l3 -5zM551 523h-62l-3 5l3 5h62l3 -5zM573 441h-62l-3 5l3 5h62l3 -5zM580 414h-63l-3 5l3 5h63l3 -5zM587 386h-62l-3 5l3 5h62l3 -5zM595 359h-63l-3 5l3 5h63l3 -5zM601 332h-62l-3 5l3 5h62l3 -5zM609 304h-63l-3 5l3 5h63l3 -5zM616 277h-63l-3 5l3 5h63 l3 -5zM623 250h-63l-3 5l3 5h63l3 -5zM630 222h-62l-3 5l3 5h62l3 -5zM637 195h-62l-3 5l3 5h62l3 -5zM644 168h-62l-3 5l3 5h62l3 -5zM651 140h-62l-3 5l3 5h62l3 -5zM658 113h-62l-3 5l3 5h62l3 -5zM739 86h-136l-3 5l3 5h136l3 -5zM732 59h-122l-3 5l3 5h122l3 -5z M726 32h-109l-3 5l3 5h109l3 -5zM859 605h-62l-3 5l3 5h62l3 -5zM853 578h-62l-3 5l3 5h62l3 -5zM846 550h-64l-3 5l3 5h64l3 -5zM842 523h-64l-3 5l3 5h64l3 -5zM821 441h-63l-3 5l3 5h63l3 -5zM815 414h-63l-3 5l3 5h63l3 -5zM808 386h-63l-3 5l3 5h63l3 -5zM802 359h-63 l-3 5l3 5h63l3 -5zM798 332h-66l-3 5l3 5h66l3 -5zM789 304h-64l-3 5l3 5h64l3 -5zM783 277h-64l-3 5l3 5h64l3 -5zM776 250h-63l-3 5l3 5h63l3 -5zM770 222h-64l-3 5l3 5h64l3 -5zM764 195h-65l-3 5l3 5h65l3 -5zM758 168h-65l-3 5l3 5h65l3 -5zM751 140h-65l-3 5l3 5h65 l3 -5zM745 113h-65l-3 5l3 5h65l3 -5zM866 632h-62l-3 5l3 5h62l3 -5z" />
<glyph unicode="x" horiz-adv-x="682" d="M281 373l33 -4h92l3 -5l-3 -5h-92l-33 -4l-5 9zM184 510l33 -4h47l3 -5l-3 -5h-47l-33 -4l-5 9zM204 482l33 -4h46l3 -5l-3 -5h-46l-33 -4l-5 9zM257 291l33 -4h44l3 -5l-3 -5h-44l-33 -4l-5 9zM429 277h-81l-3 5l3 5h81l3 -5zM503 496h-82l-3 5l3 5h82l3 -5zM483 468 h-81l-3 5l3 5h81l3 -5zM88 642h81l3 -5l-3 -5h-48l-33 -4l-5 9zM107 619l33 -4h48l3 -5l-3 -5h-48l-33 -4l-5 9zM126 592l33 -4h48l3 -5l-3 -5h-48l-33 -4l-5 9zM146 564l33 -4h47l3 -5l-3 -5h-47l-33 -4l-5 9zM165 537l33 -4h47l3 -5l-3 -5h-47l-33 -4l-5 9zM224 455l33 -4 h46l3 -5l-3 -5h-46l-33 -5l-5 10zM242 428l33 -4h46l3 -5l-3 -5h-46l-33 -4l-5 9zM262 399l33 -3h39l3 -5l-3 -5h-39l-33 -4l-5 9zM294 346l33 -4h61l3 -5l-3 -5h-61l-33 -4l-5 9zM276 318l33 -4h101l3 -5l-3 -5h-101l-33 -4l-5 9zM238 264l33 -4h44l3 -5l-3 -5h-44l-33 -4 l-5 9zM218 236l33 -4h45l3 -5l-3 -5h-45l-33 -4l-5 9zM199 209l33 -4h45l3 -5l-3 -5h-45l-33 -4l-5 9zM181 182l33 -4h44l3 -5l-3 -5h-44l-33 -4l-5 9zM161 154l33 -4h44l3 -5l-3 -5h-44l-33 -4l-5 9zM142 127l33 -4h45l3 -5l-3 -5h-45l-33 -5l-5 10zM123 100l33 -4h45l3 -5 l-3 -5h-45l-33 -4l-5 9zM104 73l33 -4h46l3 -5l-3 -5h-46l-33 -4l-5 9zM85 46l33 -4h46l3 -5l-3 -5h-79l-5 5zM579 605h-81l-3 5l3 5h81l3 -5zM560 578h-81l-3 5l3 5h81l3 -5zM541 550h-82l-3 5l3 5h82l3 -5zM522 523h-81l-3 5l3 5h81l3 -5zM464 441h-81l-3 5l3 5h81l3 -5z M445 414h-81l-3 5l3 5h81l3 -5zM426 386h-73l-3 5l3 5h73l3 -5zM448 250h-84l-3 5l3 5h84l3 -5zM468 222h-85l-3 5l3 5h85l3 -5zM486 195h-84l-3 5l3 5h84l3 -5zM505 168h-84l-3 5l3 5h84l3 -5zM525 140h-84l-3 5l3 5h84l3 -5zM544 113h-84l-3 5l3 5h84l3 -5zM563 86h-84 l-3 5l3 5h84l3 -5zM582 59h-84l-3 5l3 5h84l3 -5zM598 632h-81l-3 5l3 5h81l3 -5zM601 32h-84l-3 5l3 5h84l3 -5z" />
<glyph unicode="y" horiz-adv-x="642" d="M161 510l33 -4h48l3 -5l-3 -5h-48l-33 -4l-5 9zM181 482l33 -4h47l3 -5l-3 -5h-47l-33 -4l-5 9zM483 496h-81l-3 5l3 5h81l3 -5zM463 468h-79l-3 5l3 5h79l3 -5zM65 642h81l3 -5l-3 -5h-48l-33 -4l-5 9zM84 619l33 -4h48l3 -5l-3 -5h-48l-33 -4l-5 9zM103 592l33 -4h48 l3 -5l-3 -5h-48l-33 -4l-5 9zM123 564l33 -4h48l3 -5l-3 -5h-48l-33 -4l-5 9zM142 537l33 -4h48l3 -5l-3 -5h-48l-33 -4l-5 9zM201 455l33 -4h46l3 -5l-3 -5h-46l-33 -5l-5 10zM219 428l33 -4h47l3 -5l-3 -5h-47l-33 -4l-5 9zM239 399l33 -3h133l3 -5l-3 -5h-133l-33 -4 l-5 9zM258 373l33 -4h95l3 -5l-3 -5h-95l-33 -4l-5 9zM277 346l33 -4h57l3 -5l-3 -5h-57l-33 -4l-5 9zM560 605h-84l-3 5l3 5h84l3 -5zM541 578h-84l-3 5l3 5h84l3 -5zM521 550h-82l-3 5l3 5h82l3 -5zM502 523h-81l-3 5l3 5h81l3 -5zM444 441h-79l-3 5l3 5h79l3 -5zM425 414 h-78l-3 5l3 5h78l3 -5zM579 632h-85l-3 5l3 5h85l3 -5zM292 318l33 -4h27l3 -5l-3 -5h-27l-33 -4l-5 9zM292 127l33 -4h27l3 -5l-3 -5h-27l-33 -5l-5 10zM292 291l33 -4h27l3 -5l-3 -5h-27l-33 -4l-5 9zM292 264l33 -4h27l3 -5l-3 -5h-27l-33 -4l-5 9zM292 236l33 -4h27 l3 -5l-3 -5h-27l-33 -4l-5 9zM292 209l33 -4h27l3 -5l-3 -5h-27l-33 -4l-5 9zM292 182l33 -4h27l3 -5l-3 -5h-27l-33 -4l-5 9zM292 154l33 -4h27l3 -5l-3 -5h-27l-33 -4l-5 9zM292 100l33 -4h27l3 -5l-3 -5h-27l-33 -4l-5 9zM292 73l33 -4h27l3 -5l-3 -5h-27l-33 -4l-5 9z M292 46l33 -4h27l3 -5l-3 -5h-60l-5 5z" />
<glyph unicode="z" horiz-adv-x="620" d="M103 127l33 -4h46l3 -5l-3 -5h-46l-33 -5l-5 10zM431 564l33 -4h48l3 -5l-3 -5h-48l-33 -4l-5 9zM391 510l33 -4h47l3 -5l-3 -5h-47l-33 -4l-5 9zM144 182l33 -4h46l3 -5l-3 -5h-46l-33 -4l-5 9zM82 100l33 -4h433l3 -5l-3 -5h-433l-33 -4l-5 9zM82 73l33 -4h433l3 -5 l-3 -5h-433l-33 -4l-5 9zM82 46l33 -4h433l3 -5l-3 -5h-466l-5 5zM99 642h431l3 -5l-3 -5h-398l-33 -4l-5 9zM99 619l33 -4h398l3 -5l-3 -5h-398l-33 -4l-5 9zM99 592l33 -4h398l3 -5l-3 -5h-398l-33 -4l-5 9zM411 537l33 -4h48l3 -5l-3 -5h-48l-33 -4l-5 9zM370 482l33 -4 h47l3 -5l-3 -5h-47l-33 -4l-5 9zM349 455l33 -4h47l3 -5l-3 -5h-47l-33 -5l-5 10zM329 428l33 -4h47l3 -5l-3 -5h-47l-33 -4l-5 9zM308 399l33 -3h47l3 -5l-3 -5h-47l-33 -4l-5 9zM287 373l33 -4h47l3 -5l-3 -5h-47l-33 -4l-5 9zM268 346l33 -4h46l3 -5l-3 -5h-46l-33 -4 l-5 9zM247 318l33 -4h46l3 -5l-3 -5h-46l-33 -4l-5 9zM226 291l33 -4h47l3 -5l-3 -5h-47l-33 -4l-5 9zM206 264l33 -4h46l3 -5l-3 -5h-46l-33 -4l-5 9zM184 236l33 -4h47l3 -5l-3 -5h-47l-33 -4l-5 9zM165 209l33 -4h46l3 -5l-3 -5h-46l-33 -4l-5 9zM123 154l33 -4h46l3 -5 l-3 -5h-46l-33 -4l-5 9z" />
<glyph unicode="{" d="M109 636v-419l123 -121v61l-82 108v74l202 -201v-61l39 -41v250l-39 39v-76l-202 201v65l82 -54v54zM420 0h-338v675h338v-675z" />
<glyph unicode="|" horiz-adv-x="250" d="M96 564l33 -4h27l3 -5l-3 -5h-27l-33 -4l-5 9zM96 428l33 -4h27l3 -5l-3 -5h-27l-33 -4l-5 9zM96 318l33 -4h27l3 -5l-3 -5h-27l-33 -4l-5 9zM96 127l33 -4h27l3 -5l-3 -5h-27l-33 -5l-5 10zM96 510l33 -4h27l3 -5l-3 -5h-27l-33 -4l-5 9zM96 750h60l3 -5l-3 -5h-27 l-33 -4l-5 9zM96 619l33 -4h27l3 -5l-3 -5h-27l-33 -4l-5 9zM96 592l33 -4h27l3 -5l-3 -5h-27l-33 -4l-5 9zM96 537l33 -4h27l3 -5l-3 -5h-27l-33 -4l-5 9zM96 482l33 -4h27l3 -5l-3 -5h-27l-33 -4l-5 9zM96 455l33 -4h27l3 -5l-3 -5h-27l-33 -5l-5 10zM96 399l33 -3h27 l3 -5l-3 -5h-27l-33 -4l-5 9zM96 373l33 -4h27l3 -5l-3 -5h-27l-33 -4l-5 9zM96 346l33 -4h27l3 -5l-3 -5h-27l-33 -4l-5 9zM96 291l33 -4h27l3 -5l-3 -5h-27l-33 -4l-5 9zM96 264l33 -4h27l3 -5l-3 -5h-27l-33 -4l-5 9zM96 236l33 -4h27l3 -5l-3 -5h-27l-33 -4l-5 9z M96 209l33 -4h27l3 -5l-3 -5h-27l-33 -4l-5 9zM96 182l33 -4h27l3 -5l-3 -5h-27l-33 -4l-5 9zM96 154l33 -4h27l3 -5l-3 -5h-27l-33 -4l-5 9zM96 100l33 -4h27l3 -5l-3 -5h-27l-33 -4l-5 9zM96 73l33 -4h27l3 -5l-3 -5h-27l-33 -4l-5 9zM96 -143l33 -4h27l3 -5l-3 -5h-60 l-5 5zM96 46l33 -4h27l3 -5l-3 -5h-27l-33 -5l-5 10zM96 19l33 -4h27l3 -5l-3 -5h-27l-33 -4l-5 9zM96 -8l33 -4h27l3 -5l-3 -5h-27l-33 -4l-5 9zM96 -35l33 -4h27l3 -5l-3 -5h-27l-33 -5l-5 10zM96 -62l33 -4h27l3 -5l-3 -5h-27l-33 -4l-5 9zM96 -89l33 -4h27l3 -5l-3 -5 h-27l-33 -4l-5 9zM96 -116l33 -4h27l3 -5l-3 -5h-27l-33 -4l-5 9zM96 645l33 -4h27l3 -5l-3 -5h-27l-33 -4l-5 9zM96 700l33 -4h27l3 -5l-3 -5h-27l-33 -4l-5 9zM96 673l33 -4h27l3 -5l-3 -5h-27l-33 -4l-5 9zM96 727l33 -4h27l3 -5l-3 -5h-27l-33 -4l-5 9z" />
<glyph unicode="}" d="M109 636v-419l123 -121v61l-82 108v74l202 -201v-61l39 -41v250l-39 39v-76l-202 201v65l82 -54v54zM420 0h-338v675h338v-675z" />
<glyph unicode="~" d="M109 636v-419l123 -121v61l-82 108v74l202 -201v-61l39 -41v250l-39 39v-76l-202 201v65l82 -54v54zM420 0h-338v675h338v-675z" />
<glyph unicode="&#xa0;" />
<glyph unicode="&#xa1;" horiz-adv-x="250" d="M126 223l-33 -4l-5 9l5 10l33 -5h27l3 -5l-3 -5h-27zM126 360l-33 -4l-5 9l5 9l33 -4h27l3 -5l-3 -5h-27zM126 305l-33 -4l-5 9l5 9l33 -4h27l3 -5l-3 -5h-27zM126 412l-33 -4l-5 9l5 9l33 -4h27l3 -5l-3 -5h-27zM126 605l-33 -4l-5 9l5 9l33 -4h27l3 -5l-3 -5h-27z M126 114l-33 -4l-5 9l5 9l33 -4h27l3 -5l-3 -5h-27zM126 141l-33 -4l-5 9l5 9l33 -4h27l3 -5l-3 -5h-27zM126 168l-33 -4l-5 9l5 9l33 -4h27l3 -5l-3 -5h-27zM126 196l-33 -4l-5 9l5 9l33 -4h27l3 -5l-3 -5h-27zM126 465l-33 -4l-5 9l5 9l33 -4h27l3 -5l-3 -5h-27zM126 86 l-33 -4l-5 9l5 9l33 -4h27l3 -5l-3 -5h-27zM126 59l-33 -4l-5 9l5 9l33 -4h27l3 -5l-3 -5h-27zM126 386l-33 -4l-5 9l5 9l33 -4h27l3 -5l-3 -5h-27zM126 332l-33 -4l-5 9l5 9l33 -4h27l3 -5l-3 -5h-27zM126 250l-33 -4l-5 9l5 9l33 -4h27l3 -5l-3 -5h-27zM126 578l-33 -4 l-5 9l5 9l33 -4h27l3 -5l-3 -5h-27zM126 439l-33 -4l-5 9l5 9l33 -4h27l3 -5l-3 -5h-27zM126 491l-33 -4l-5 9l5 9l33 -4h27l3 -5l-3 -5h-27zM126 278l-33 -3l-5 8l5 9l33 -4h27l3 -5l-3 -5h-27zM126 632l-33 -4l-5 9l5 5h60l3 -5l-3 -5h-27zM153 32h-60l-5 5l5 9l33 -4h27 l3 -5z" />
<glyph unicode="&#xa2;" d="M109 636v-419l123 -121v61l-82 108v74l202 -201v-61l39 -41v250l-39 39v-76l-202 201v65l82 -54v54zM420 0h-338v675h338v-675z" />
<glyph unicode="&#xa3;" horiz-adv-x="519" d="M145 127l33 -4h23l3 -5l-3 -5h-23l-33 -5l-5 10zM145 291l33 -4h23l3 -5l-3 -5h-23l-33 -4l-5 9zM145 401l33 -3h23l3 -5l-3 -5h-23l-33 -4l-5 11zM145 236l33 -4h23l3 -5l-3 -5h-23l-33 -4l-5 9zM164 601l33 -4h230l3 -5l-3 -5h-230l-33 -4l-5 9zM154 572l33 -4h34l3 -5 l-7 -5h-30l-33 -4l-5 9zM145 459l33 -4h23l3 -5l-3 -5h-23l-33 -5l-5 10zM408 563h-42l-7 5l3 5h46l3 -5zM84 73l33 -4h311l3 -5l-3 -5h-311l-33 -4l-5 9zM84 96h344l3 -5l-3 -5h-311l-33 -4l-5 9zM84 46l33 -4h311l3 -5l-3 -5h-344l-5 5zM84 374l33 -4h260l3 -5l-3 -5h-260 l-33 -4l-5 9zM84 346l33 -4h260l3 -5l-3 -5h-260l-33 -4l-5 9zM84 318l33 -4h260l3 -5l-3 -5h-260l-33 -4l-5 9zM185 629l33 -4h178l3 -5l-3 -5h-178l-33 -4l-5 9zM225 655h120l3 -5l-3 -5h-86l-34 -4l-5 9zM145 544l33 -4h29l3 -5l-3 -5h-29l-33 -4l-5 9zM145 516l33 -4h23 l3 -5l-3 -5h-23l-33 -4l-5 9zM145 264l33 -4h23l3 -5l-3 -5h-23l-33 -4l-5 9zM145 209l33 -4h23l3 -5l-3 -5h-23l-33 -4l-5 9zM145 431l33 -4h23l3 -5l-3 -5h-23l-33 -4l-5 9zM145 182l33 -4h23l3 -5l-3 -5h-23l-33 -4l-5 9zM145 154l33 -4h23l3 -5l-3 -5h-23l-33 -4l-5 9z M145 487l33 -4h23l3 -5l-3 -5h-23l-33 -4l-5 9zM389 542h-8l-3 5l3 5h8l3 -5z" />
<glyph unicode="&#xa4;" d="M109 636v-419l123 -121v61l-82 108v74l202 -201v-61l39 -41v250l-39 39v-76l-202 201v65l82 -54v54zM420 0h-338v675h338v-675z" />
<glyph unicode="&#xa5;" d="M109 636v-419l123 -121v61l-82 108v74l202 -201v-61l39 -41v250l-39 39v-76l-202 201v65l82 -54v54zM420 0h-338v675h338v-675z" />
<glyph unicode="&#xa6;" d="M109 636v-419l123 -121v61l-82 108v74l202 -201v-61l39 -41v250l-39 39v-76l-202 201v65l82 -54v54zM420 0h-338v675h338v-675z" />
<glyph unicode="&#xa7;" d="M109 636v-419l123 -121v61l-82 108v74l202 -201v-61l39 -41v250l-39 39v-76l-202 201v65l82 -54v54zM420 0h-338v675h338v-675z" />
<glyph unicode="&#xa8;" d="M288 724h60l3 -5l-3 -5h-27l-33 -4l-5 9zM98 724h60l3 -5l-3 -5h-27l-33 -4l-5 9zM98 701l33 -4h27l3 -5l-3 -5h-60l-5 5zM288 701l33 -4h27l3 -5l-3 -5h-60l-5 5z" />
<glyph unicode="&#xa9;" horiz-adv-x="783" d="M207 340q0 83 52.5 143t138.5 60q93 0 147 -64l-48 -44q-26 25 -47 36.5t-51 11.5q-54 0 -87 -39.5t-33 -102.5t33 -104.5t87 -41.5q62 0 104 52l42 -44q-54 -64 -147 -64q-86 0 -138.5 60t-52.5 141zM731 337q0 -141 -99 -240.5t-240 -99.5t-240.5 100t-99.5 240 q0 141 99.5 240t240.5 99t240 -99.5t99 -239.5zM677 337q0 117 -83.5 199.5t-201.5 82.5q-119 0 -202.5 -82.5t-83.5 -199.5t84 -200t202 -83t201.5 83t83.5 200z" />
<glyph unicode="&#xaa;" d="M109 636v-419l123 -121v61l-82 108v74l202 -201v-61l39 -41v250l-39 39v-76l-202 201v65l82 -54v54zM420 0h-338v675h338v-675z" />
<glyph unicode="&#xab;" horiz-adv-x="410" d="M61 346l33 -4h20l3 -5l-3 -5h-20l-33 -4l-5 9zM108 359l-33 -4l-5 9l5 9l33 -4h20l3 -5l-3 -5h-20zM122 386l-33 -4l-5 9l5 9l33 -4h21l3 -5l-3 -5h-21zM136 413l-33 -4l-5 9l5 9l33 -4h21l3 -5l-3 -5h-21zM150 441l-33 -4l-5 9l5 9l33 -4h22l3 -5l-3 -5h-22zM165 468 l-33 -4l-5 9l5 9l33 -4h21l3 -5l-3 -5h-21zM75 319l33 -4h20l3 -5l-3 -5h-20l-33 -4l-5 9zM89 292l33 -4h21l3 -5l-3 -5h-21l-33 -4l-5 9zM103 265l33 -4h21l3 -5l-3 -5h-21l-33 -4l-5 9zM117 237l33 -4h22l3 -5l-3 -5h-22l-33 -4l-5 9zM132 210l33 -4h21l3 -5l-3 -5h-21 l-33 -4l-5 9zM207 346l33 -4h20l3 -5l-3 -5h-20l-33 -4l-5 9zM254 359l-33 -4l-5 9l5 9l33 -4h20l3 -5l-3 -5h-20zM268 386l-33 -4l-5 9l5 9l33 -4h21l3 -5l-3 -5h-21zM282 413l-33 -4l-5 9l5 9l33 -4h21l3 -5l-3 -5h-21zM296 441l-33 -4l-5 9l5 9l33 -4h22l3 -5l-3 -5h-22z M311 468l-33 -4l-5 9l5 9l33 -4h21l3 -5l-3 -5h-21zM221 319l33 -4h20l3 -5l-3 -5h-20l-33 -4l-5 9zM235 292l33 -4h21l3 -5l-3 -5h-21l-33 -4l-5 9zM249 265l33 -4h21l3 -5l-3 -5h-21l-33 -4l-5 9zM263 237l33 -4h22l3 -5l-3 -5h-22l-33 -4l-5 9zM278 210l33 -4h21l3 -5 l-3 -5h-21l-33 -4l-5 9z" />
<glyph unicode="&#xac;" d="M109 636v-419l123 -121v61l-82 108v74l202 -201v-61l39 -41v250l-39 39v-76l-202 201v65l82 -54v54zM420 0h-338v675h338v-675z" />
<glyph unicode="&#xae;" horiz-adv-x="783" d="M731 337q0 -141 -99 -240.5t-240 -99.5t-240.5 100t-99.5 240q0 141 99.5 240t240.5 99t240 -99t99 -240zM677 337q0 117 -83.5 199.5t-201.5 82.5q-119 0 -202.5 -82.5t-83.5 -199.5t84 -200t202 -83t201.5 83t83.5 200zM321 146h-66v391h157q54 0 91 -28t37 -80 q0 -83 -94 -108l126 -175h-80l-112 165q-10 -1 -30 -1h-29v-164zM472 426q0 26 -20 41.5t-54 15.5h-77v-120h71q33 0 56.5 15t23.5 48z" />
<glyph unicode="&#xaf;" d="M131 724h209l3 -5l-3 -5h-176l-33 -4l-5 9zM131 701l33 -4h176l3 -5l-3 -5h-209l-5 5z" />
<glyph unicode="&#x2c9;" d="M131 724h209l3 -5l-3 -5h-176l-33 -4l-5 9zM131 701l33 -4h176l3 -5l-3 -5h-209l-5 5z" />
<glyph unicode="&#xb0;" d="M109 636v-419l123 -121v61l-82 108v74l202 -201v-61l39 -41v250l-39 39v-76l-202 201v65l82 -54v54zM420 0h-338v675h338v-675z" />
<glyph unicode="&#xb1;" d="M109 636v-419l123 -121v61l-82 108v74l202 -201v-61l39 -41v250l-39 39v-76l-202 201v65l82 -54v54zM420 0h-338v675h338v-675z" />
<glyph unicode="&#xb2;" d="M109 636v-419l123 -121v61l-82 108v74l202 -201v-61l39 -41v250l-39 39v-76l-202 201v65l82 -54v54zM420 0h-338v675h338v-675z" />
<glyph unicode="&#xb3;" d="M109 636v-419l123 -121v61l-82 108v74l202 -201v-61l39 -41v250l-39 39v-76l-202 201v65l82 -54v54zM420 0h-338v675h338v-675z" />
<glyph unicode="&#xb4;" d="M250 687h-69l-5 5l5 9l33 -4h36l3 -5zM200 724h71l3 -5l-3 -5h-38l-33 -4l-5 9z" />
<glyph unicode="&#x2ca;" d="M250 687h-69l-5 5l5 9l33 -4h36l3 -5zM200 724h71l3 -5l-3 -5h-38l-33 -4l-5 9z" />
<glyph unicode="&#xb5;" d="M109 636v-419l123 -121v61l-82 108v74l202 -201v-61l39 -41v250l-39 39v-76l-202 201v65l82 -54v54zM420 0h-338v675h338v-675z" />
<glyph unicode="&#xb6;" horiz-adv-x="589" d="M371 -57l34 -4h47l3 -5l-3 -5h-47l-34 -4l-5 9zM123 -57l34 -4h52l8 -5l-3 -5h-57l-34 -4l-5 9zM90 400l33 -4h350l3 -5l-3 -5h-350l-33 -4l-5 9zM97 373l33 -4h343l3 -5l-3 -5h-343l-33 -4l-5 9zM106 345l33 -4h334l3 -5l-3 -5h-334l-33 -4l-5 9zM124 318l33 -4h316 l3 -5l-3 -5h-316l-33 -4l-5 9zM146 291l33 -4h294l3 -5l-3 -5h-294l-33 -4l-5 9zM234 236l33 -4h206l3 -5l-3 -5h-239l-5 5zM413 209l33 -4h27l3 -5l-3 -5h-27l-33 -4l-5 9zM413 180l33 -3h27l3 -5l-3 -5h-27l-33 -4l-5 9zM413 154l33 -4h27l3 -5l-3 -5h-27l-33 -4l-5 9z M413 126l33 -4h27l3 -5l-3 -5h-27l-33 -4l-5 9zM413 101l33 -4h27l3 -5l-3 -5h-27l-33 -4l-5 9zM413 74l34 -4h26l3 -5l-3 -5h-26l-34 -4l-5 9zM413 48l34 -4h26l3 -5l-3 -5h-26l-34 -4l-5 9zM411 22l34 -4h27l3 -5l-3 -5h-27l-34 -4l-5 9zM407 -5l37 -4h24l3 -5l-3 -5h-24 l-37 -4l-5 9zM146 -83l34 -4h255l3 -5l-3 -5h-255l-34 -4l-5 9zM232 -135l34 -4h91l3 -5l-3 -5h-125l-5 5zM176 -109l34 -4h196l3 -5l-3 -5h-196l-34 -4l-5 9zM106 -31l34 -4h39l3 -5l-3 -5h-39l-34 -5l-5 10zM131 -5l29 -4l3 -5l-3 -5l-29 -4l-5 9zM394 -31l37 -4h31l3 -5 l-3 -5h-31l-37 -4l-5 9zM231 642h242l3 -5l-3 -5h-209l-33 -4l-5 9zM180 619l33 -4h260l3 -5l-3 -5h-260l-33 -4l-5 9zM146 592l33 -4h294l3 -5l-3 -5h-294l-33 -4l-5 9zM123 564l33 -4h317l3 -5l-3 -5h-317l-33 -4l-5 9zM106 537l33 -4h334l3 -5l-3 -5h-334l-33 -4l-5 9z M97 510l33 -4h343l3 -5l-3 -5h-343l-33 -4l-5 9zM90 482l33 -4h350l3 -5l-3 -5h-350l-33 -4l-5 9zM87 455l33 -4h353l3 -5l-3 -5h-353l-33 -5l-5 10zM87 428l33 -4h353l3 -5l-3 -5h-353l-33 -5l-5 10zM180 264l33 -4h260l3 -5l-3 -5h-260l-33 -4l-5 9z" />
<glyph unicode="&#xb7;" horiz-adv-x="250" d="M94 375h60l3 -5l-3 -5h-27l-33 -4l-5 9zM94 352l33 -4h27l3 -5l-3 -5h-27l-33 -4l-5 9zM94 325l33 -4h27l3 -5l-3 -5h-60l-5 5z" />
<glyph unicode="&#xb8;" d="M250 -61h-69l-5 5l5 9l33 -4h36l3 -5zM200 -24h71l3 -5l-3 -5h-38l-33 -4l-5 9z" />
<glyph unicode="&#xb9;" d="M109 636v-419l123 -121v61l-82 108v74l202 -201v-61l39 -41v250l-39 39v-76l-202 201v65l82 -54v54zM420 0h-338v675h338v-675z" />
<glyph unicode="&#xba;" d="M109 636v-419l123 -121v61l-82 108v74l202 -201v-61l39 -41v250l-39 39v-76l-202 201v65l82 -54v54zM420 0h-338v675h338v-675z" />
<glyph unicode="&#xbb;" horiz-adv-x="410" d="M161 346l33 -4h20l3 -5l-3 -5h-20l-33 -4l-5 9zM180 359l-33 -4l-5 9l5 9l33 -4h20l3 -5l-3 -5h-20zM165 386l-33 -4l-5 9l5 9l33 -4h21l3 -5l-3 -5h-21zM151 413l-33 -4l-5 9l5 9l33 -4h21l3 -5l-3 -5h-21zM136 441l-33 -4l-5 9l5 9l33 -4h22l3 -5l-3 -5h-22zM122 468 l-33 -4l-5 9l5 9l33 -4h21l3 -5l-3 -5h-21zM147 319l33 -4h20l3 -5l-3 -5h-20l-33 -4l-5 9zM132 292l33 -4h21l3 -5l-3 -5h-21l-33 -4l-5 9zM118 265l33 -4h21l3 -5l-3 -5h-21l-33 -4l-5 9zM103 237l33 -4h22l3 -5l-3 -5h-22l-33 -4l-5 9zM89 210l33 -4h21l3 -5l-3 -5h-21 l-33 -4l-5 9zM310 346l33 -4h20l3 -5l-3 -5h-20l-33 -4l-5 9zM329 359l-33 -4l-5 9l5 9l33 -4h20l3 -5l-3 -5h-20zM314 386l-33 -4l-5 9l5 9l33 -4h21l3 -5l-3 -5h-21zM300 413l-33 -4l-5 9l5 9l33 -4h21l3 -5l-3 -5h-21zM285 441l-33 -4l-5 9l5 9l33 -4h22l3 -5l-3 -5h-22z M271 468l-33 -4l-5 9l5 9l33 -4h21l3 -5l-3 -5h-21zM296 319l33 -4h20l3 -5l-3 -5h-20l-33 -4l-5 9zM281 292l33 -4h21l3 -5l-3 -5h-21l-33 -4l-5 9zM267 265l33 -4h21l3 -5l-3 -5h-21l-33 -4l-5 9zM252 237l33 -4h22l3 -5l-3 -5h-22l-33 -4l-5 9zM238 210l33 -4h21l3 -5 l-3 -5h-21l-33 -4l-5 9z" />
<glyph unicode="&#xbc;" d="M109 636v-419l123 -121v61l-82 108v74l202 -201v-61l39 -41v250l-39 39v-76l-202 201v65l82 -54v54zM420 0h-338v675h338v-675z" />
<glyph unicode="&#xbd;" d="M109 636v-419l123 -121v61l-82 108v74l202 -201v-61l39 -41v250l-39 39v-76l-202 201v65l82 -54v54zM420 0h-338v675h338v-675z" />
<glyph unicode="&#xbe;" d="M109 636v-419l123 -121v61l-82 108v74l202 -201v-61l39 -41v250l-39 39v-76l-202 201v65l82 -54v54zM420 0h-338v675h338v-675z" />
<glyph unicode="&#xbf;" horiz-adv-x="439" d="M112 101l-34 -4l-5 9l5 9l34 -4h34l3 -5l-3 -5h-34zM346 101l-35 -4l-5 9l5 9l35 -4h8l3 -5l-3 -5h-8zM125 73l-34 -4l-5 9l5 9l34 -4h238l3 -5l-3 -5h-238zM150 46l-34 -4l-5 9l5 9l34 -4h183l3 -5l-3 -5h-183zM272 19h-105l-5 5l5 9l34 -4h71l3 -5zM181 321l-34 -4 l-5 9l5 9l34 -4h62l3 -5l-3 -5h-62zM150 293l-34 -4l-5 9l5 9l34 -4h57l3 -5l-3 -5h-57zM216 350l-34 -4l-5 9l5 9l34 -4h52l3 -5l-3 -5h-52zM129 265l-34 -3l-5 8l5 9l34 -4h43l3 -5l-3 -5h-43zM114 237l-34 -4l-5 9l5 9l34 -4h36l3 -5l-3 -5h-36zM104 128l-34 -4l-5 9l5 9 l34 -4h27l3 -5l-3 -5h-27zM106 210l-34 -4l-5 9l5 10l34 -5h25l3 -5l-3 -5h-25zM241 463l-34 -4l-5 9l5 9l34 -4h26l3 -5l-3 -5h-26zM241 406l-34 -4l-5 9l5 9l34 -4h26l3 -5l-3 -5h-26zM241 378l-34 -4l-5 9l5 9l34 -4h26l3 -5l-3 -5h-26zM241 435l-34 -4l-5 9l5 9l34 -4 h26l3 -5l-3 -5h-26zM240 605l-33 -4l-5 9l5 9l33 -4h27l3 -5l-3 -5h-27zM100 155l-34 -4l-5 9l5 9l34 -4h23l3 -5l-3 -5h-23zM102 183l-34 -4l-5 9l5 9l34 -4h22l3 -5l-3 -5h-22zM241 491l-34 -4l-5 9l5 5h60l3 -5l-3 -5h-26zM267 578h-60l-5 5l5 9l33 -4h27l3 -5zM240 632 l-33 -4l-5 9l5 5h60l3 -5l-3 -5h-27z" />
<glyph unicode="&#xc0;" horiz-adv-x="675" d="M495 178h69l3 -5l-3 -5h-69l-3 5zM146 168l-33 -4l-5 9l5 9l33 -4h36l3 -5l-3 -5h-36zM454 288h70l3 -5l-3 -5h-70l-3 5zM186 278l-33 -3l-5 8l5 9l33 -4h37l3 -5l-3 -5h-37zM360 687h-69l-5 5l5 9l33 -4h36l3 -5zM382 479h71l3 -5l-3 -5h-71l-3 5zM372 506h71l3 -5 l-3 -5h-71l-3 5zM196 305l-33 -4l-5 9l5 9l33 -4h37l3 -5l-3 -5h-37zM257 469l-33 -4l-5 9l5 9l33 -4h38l3 -5l-3 -5h-38zM266 496l-33 -4l-5 9l5 9l33 -4h39l3 -5l-3 -5h-39zM270 724h71l3 -5l-3 -5h-38l-33 -4l-5 9zM535 69h69l3 -5l-3 -5h-69l-3 5zM525 96h69l3 -5l-3 -5 h-69l-3 5zM515 124h69l3 -5l-3 -5h-69l-3 5zM505 151h69l3 -5l-3 -5h-69l-3 5zM443 315h71l3 -5l-3 -5h-71l-3 5zM434 342h70l3 -5l-3 -5h-70l-3 5zM423 370h71l3 -5l-3 -5h-71l-3 5zM413 397h70l3 -5l-3 -5h-70l-3 5zM403 424h70l3 -5l-3 -5h-70l-3 5zM392 452h71l3 -5 l-3 -5h-71l-3 5zM362 534h71l3 -5l-3 -5h-71l-3 5zM351 561h72l3 -5l-3 -5h-72l-3 5zM545 42h69l3 -5l-3 -5h-69l-3 5zM130 32h-67l-5 5l5 9l33 -4h34l3 -5zM106 59l-33 -4l-5 9l5 9l33 -4h35l3 -5l-3 -5h-35zM116 86l-33 -4l-5 9l5 9l33 -4h35l3 -5l-3 -5h-35zM126 114 l-33 -4l-5 9l5 9l33 -4h36l3 -5l-3 -5h-36zM136 141l-33 -4l-5 9l5 9l33 -4h36l3 -5l-3 -5h-36zM206 332l-33 -4l-5 9l5 9l33 -4h37l3 -5l-3 -5h-37zM217 360l-33 -4l-5 9l5 9l33 -4h36l3 -5l-3 -5h-36zM227 387l-33 -4l-5 9l5 9l33 -4h36l3 -5l-3 -5h-36zM236 414l-33 -4 l-5 9l5 9l33 -4h38l3 -5l-3 -5h-38zM247 442l-33 -4l-5 9l5 9l33 -4h37l3 -5l-3 -5h-37zM277 524l-33 -4l-5 9l5 9l33 -4h38l3 -5l-3 -5h-38zM287 551l-33 -4l-5 9l5 10l33 -5h38l3 -5l-3 -5h-38zM297 578l-33 -4l-5 9l5 9l33 -4h116l3 -5l-3 -5h-116zM307 605l-33 -4l-5 9 l5 9l33 -4h96l3 -5l-3 -5h-96zM316 632l-33 -4l-5 9l5 5h111l3 -5l-3 -5h-78zM156 196l-33 -4l-5 9l5 9l33 -4h398l3 -5l-3 -5h-398zM166 223l-33 -4l-5 9l5 10l33 -5h378l3 -5l-3 -5h-378zM176 250l-33 -4l-5 9l5 9l33 -4h358l3 -5l-3 -5h-358z" />
<glyph unicode="&#xc1;" horiz-adv-x="675" d="M495 178h69l3 -5l-3 -5h-69l-3 5zM146 168l-33 -4l-5 9l5 9l33 -4h36l3 -5l-3 -5h-36zM454 288h70l3 -5l-3 -5h-70l-3 5zM186 278l-33 -3l-5 8l5 9l33 -4h37l3 -5l-3 -5h-37zM382 687h-69l-5 5l5 9l33 -4h36l3 -5zM382 479h71l3 -5l-3 -5h-71l-3 5zM372 506h71l3 -5 l-3 -5h-71l-3 5zM196 305l-33 -4l-5 9l5 9l33 -4h37l3 -5l-3 -5h-37zM257 469l-33 -4l-5 9l5 9l33 -4h38l3 -5l-3 -5h-38zM266 496l-33 -4l-5 9l5 9l33 -4h39l3 -5l-3 -5h-39zM332 724h71l3 -5l-3 -5h-38l-33 -4l-5 9zM535 69h69l3 -5l-3 -5h-69l-3 5zM525 96h69l3 -5l-3 -5 h-69l-3 5zM515 124h69l3 -5l-3 -5h-69l-3 5zM505 151h69l3 -5l-3 -5h-69l-3 5zM443 315h71l3 -5l-3 -5h-71l-3 5zM434 342h70l3 -5l-3 -5h-70l-3 5zM423 370h71l3 -5l-3 -5h-71l-3 5zM413 397h70l3 -5l-3 -5h-70l-3 5zM403 424h70l3 -5l-3 -5h-70l-3 5zM392 452h71l3 -5 l-3 -5h-71l-3 5zM362 534h71l3 -5l-3 -5h-71l-3 5zM351 561h72l3 -5l-3 -5h-72l-3 5zM545 42h69l3 -5l-3 -5h-69l-3 5zM130 32h-67l-5 5l5 9l33 -4h34l3 -5zM106 59l-33 -4l-5 9l5 9l33 -4h35l3 -5l-3 -5h-35zM116 86l-33 -4l-5 9l5 9l33 -4h35l3 -5l-3 -5h-35zM126 114 l-33 -4l-5 9l5 9l33 -4h36l3 -5l-3 -5h-36zM136 141l-33 -4l-5 9l5 9l33 -4h36l3 -5l-3 -5h-36zM206 332l-33 -4l-5 9l5 9l33 -4h37l3 -5l-3 -5h-37zM217 360l-33 -4l-5 9l5 9l33 -4h36l3 -5l-3 -5h-36zM227 387l-33 -4l-5 9l5 9l33 -4h36l3 -5l-3 -5h-36zM236 414l-33 -4 l-5 9l5 9l33 -4h38l3 -5l-3 -5h-38zM247 442l-33 -4l-5 9l5 9l33 -4h37l3 -5l-3 -5h-37zM277 524l-33 -4l-5 9l5 9l33 -4h38l3 -5l-3 -5h-38zM287 551l-33 -4l-5 9l5 10l33 -5h38l3 -5l-3 -5h-38zM297 578l-33 -4l-5 9l5 9l33 -4h116l3 -5l-3 -5h-116zM307 605l-33 -4l-5 9 l5 9l33 -4h96l3 -5l-3 -5h-96zM316 632l-33 -4l-5 9l5 5h111l3 -5l-3 -5h-78zM156 196l-33 -4l-5 9l5 9l33 -4h398l3 -5l-3 -5h-398zM166 223l-33 -4l-5 9l5 10l33 -5h378l3 -5l-3 -5h-378zM176 250l-33 -4l-5 9l5 9l33 -4h358l3 -5l-3 -5h-358z" />
<glyph unicode="&#xc2;" horiz-adv-x="675" d="M146 168l-33 -4l-5 9l5 9l33 -4h36l3 -5l-3 -5h-36zM495 178h69l3 -5l-3 -5h-69l-3 5zM186 278l-33 -3l-5 8l5 9l33 -4h37l3 -5l-3 -5h-37zM454 288h70l3 -5l-3 -5h-70l-3 5zM196 305l-33 -4l-5 9l5 9l33 -4h37l3 -5l-3 -5h-37zM266 496l-33 -4l-5 9l5 9l33 -4h39l3 -5 l-3 -5h-39zM257 469l-33 -4l-5 9l5 9l33 -4h38l3 -5l-3 -5h-38zM382 479h71l3 -5l-3 -5h-71l-3 5zM372 506h71l3 -5l-3 -5h-71l-3 5zM156 196l-33 -4l-5 9l5 9l33 -4h398l3 -5l-3 -5h-398zM166 223l-33 -4l-5 9l5 10l33 -5h378l3 -5l-3 -5h-378zM176 250l-33 -4l-5 9l5 9 l33 -4h358l3 -5l-3 -5h-358zM297 578l-33 -4l-5 9l5 9l33 -4h116l3 -5l-3 -5h-116zM263 687l-5 5l5 9l33 -4h114l3 -5l-3 -5h-147zM307 605l-33 -4l-5 9l5 9l33 -4h96l3 -5l-3 -5h-96zM316 632l-33 -4l-5 9l5 5h111l3 -5l-3 -5h-78zM285 724h106l3 -5l-3 -5h-73l-33 -4l-5 9 zM287 551l-33 -4l-5 9l5 10l33 -5h38l3 -5l-3 -5h-38zM236 414l-33 -4l-5 9l5 9l33 -4h38l3 -5l-3 -5h-38zM277 524l-33 -4l-5 9l5 9l33 -4h38l3 -5l-3 -5h-38zM206 332l-33 -4l-5 9l5 9l33 -4h37l3 -5l-3 -5h-37zM247 442l-33 -4l-5 9l5 9l33 -4h37l3 -5l-3 -5h-37z M136 141l-33 -4l-5 9l5 9l33 -4h36l3 -5l-3 -5h-36zM217 360l-33 -4l-5 9l5 9l33 -4h36l3 -5l-3 -5h-36zM126 114l-33 -4l-5 9l5 9l33 -4h36l3 -5l-3 -5h-36zM227 387l-33 -4l-5 9l5 9l33 -4h36l3 -5l-3 -5h-36zM106 59l-33 -4l-5 9l5 9l33 -4h35l3 -5l-3 -5h-35zM116 86 l-33 -4l-5 9l5 9l33 -4h35l3 -5l-3 -5h-35zM130 32h-67l-5 5l5 9l33 -4h34l3 -5zM351 561h72l3 -5l-3 -5h-72l-3 5zM443 315h71l3 -5l-3 -5h-71l-3 5zM423 370h71l3 -5l-3 -5h-71l-3 5zM392 452h71l3 -5l-3 -5h-71l-3 5zM362 534h71l3 -5l-3 -5h-71l-3 5zM434 342h70l3 -5 l-3 -5h-70l-3 5zM403 424h70l3 -5l-3 -5h-70l-3 5zM413 397h70l3 -5l-3 -5h-70l-3 5zM515 124h69l3 -5l-3 -5h-69l-3 5zM505 151h69l3 -5l-3 -5h-69l-3 5zM545 42h69l3 -5l-3 -5h-69l-3 5zM525 96h69l3 -5l-3 -5h-69l-3 5zM535 69h69l3 -5l-3 -5h-69l-3 5z" />
<glyph unicode="&#xc3;" horiz-adv-x="675" d="M156 196l-33 -4l-5 9l5 9l33 -4h398l3 -5l-3 -5h-398zM166 223l-33 -4l-5 9l5 10l33 -5h378l3 -5l-3 -5h-378zM176 250l-33 -4l-5 9l5 9l33 -4h358l3 -5l-3 -5h-358zM230 701l33 -4h164l3 -5l-3 -5h-164l-33 -4l-5 9zM246 729l33 -4h160l3 -5l-3 -5h-160l-33 -4l-5 9z M297 578l-33 -4l-5 9l5 9l33 -4h116l3 -5l-3 -5h-116zM307 605l-33 -4l-5 9l5 9l33 -4h96l3 -5l-3 -5h-96zM316 632l-33 -4l-5 9l5 5h111l3 -5l-3 -5h-78zM287 551l-33 -4l-5 9l5 10l33 -5h38l3 -5l-3 -5h-38zM266 496l-33 -4l-5 9l5 9l33 -4h39l3 -5l-3 -5h-39zM236 414 l-33 -4l-5 9l5 9l33 -4h38l3 -5l-3 -5h-38zM257 469l-33 -4l-5 9l5 9l33 -4h38l3 -5l-3 -5h-38zM277 524l-33 -4l-5 9l5 9l33 -4h38l3 -5l-3 -5h-38zM196 305l-33 -4l-5 9l5 9l33 -4h37l3 -5l-3 -5h-37zM206 332l-33 -4l-5 9l5 9l33 -4h37l3 -5l-3 -5h-37zM247 442l-33 -4 l-5 9l5 9l33 -4h37l3 -5l-3 -5h-37zM217 360l-33 -4l-5 9l5 9l33 -4h36l3 -5l-3 -5h-36zM227 387l-33 -4l-5 9l5 9l33 -4h36l3 -5l-3 -5h-36zM126 114l-33 -4l-5 9l5 9l33 -4h36l3 -5l-3 -5h-36zM136 141l-33 -4l-5 9l5 9l33 -4h36l3 -5l-3 -5h-36zM146 168l-33 -4l-5 9l5 9 l33 -4h36l3 -5l-3 -5h-36zM186 278l-33 -3l-5 8l5 9l33 -4h37l3 -5l-3 -5h-37zM106 59l-33 -4l-5 9l5 9l33 -4h35l3 -5l-3 -5h-35zM116 86l-33 -4l-5 9l5 9l33 -4h35l3 -5l-3 -5h-35zM130 32h-67l-5 5l5 9l33 -4h34l3 -5zM351 561h72l3 -5l-3 -5h-72l-3 5zM443 315h71l3 -5 l-3 -5h-71l-3 5zM372 506h71l3 -5l-3 -5h-71l-3 5zM423 370h71l3 -5l-3 -5h-71l-3 5zM392 452h71l3 -5l-3 -5h-71l-3 5zM382 479h71l3 -5l-3 -5h-71l-3 5zM362 534h71l3 -5l-3 -5h-71l-3 5zM454 288h70l3 -5l-3 -5h-70l-3 5zM434 342h70l3 -5l-3 -5h-70l-3 5zM413 397h70 l3 -5l-3 -5h-70l-3 5zM403 424h70l3 -5l-3 -5h-70l-3 5zM545 42h69l3 -5l-3 -5h-69l-3 5zM495 178h69l3 -5l-3 -5h-69l-3 5zM525 96h69l3 -5l-3 -5h-69l-3 5zM505 151h69l3 -5l-3 -5h-69l-3 5zM515 124h69l3 -5l-3 -5h-69l-3 5zM535 69h69l3 -5l-3 -5h-69l-3 5zM409 753 l34 -1l3 -5l-3 -5l-34 -4l-5 9zM245 659h-14l-5 6l5 9l14 -5l3 -5z" />
<glyph unicode="&#xc4;" horiz-adv-x="675" d="M403 724h60l3 -5l-3 -5h-27l-33 -4l-5 9zM266 496l-33 -4l-5 9l5 9l33 -4h39l3 -5l-3 -5h-39zM213 724h60l3 -5l-3 -5h-27l-33 -4l-5 9zM257 469l-33 -4l-5 9l5 9l33 -4h38l3 -5l-3 -5h-38zM213 701l33 -4h27l3 -5l-3 -5h-60l-5 5zM403 701l33 -4h27l3 -5l-3 -5h-60l-5 5 zM146 168l-33 -4l-5 9l5 9l33 -4h36l3 -5l-3 -5h-36zM495 178h69l3 -5l-3 -5h-69l-3 5zM186 278l-33 -3l-5 8l5 9l33 -4h37l3 -5l-3 -5h-37zM454 288h70l3 -5l-3 -5h-70l-3 5zM196 305l-33 -4l-5 9l5 9l33 -4h37l3 -5l-3 -5h-37zM382 479h71l3 -5l-3 -5h-71l-3 5zM372 506 h71l3 -5l-3 -5h-71l-3 5zM156 196l-33 -4l-5 9l5 9l33 -4h398l3 -5l-3 -5h-398zM166 223l-33 -4l-5 9l5 10l33 -5h378l3 -5l-3 -5h-378zM176 250l-33 -4l-5 9l5 9l33 -4h358l3 -5l-3 -5h-358zM297 578l-33 -4l-5 9l5 9l33 -4h116l3 -5l-3 -5h-116zM307 605l-33 -4l-5 9l5 9 l33 -4h96l3 -5l-3 -5h-96zM316 632l-33 -4l-5 9l5 5h111l3 -5l-3 -5h-78zM287 551l-33 -4l-5 9l5 10l33 -5h38l3 -5l-3 -5h-38zM236 414l-33 -4l-5 9l5 9l33 -4h38l3 -5l-3 -5h-38zM277 524l-33 -4l-5 9l5 9l33 -4h38l3 -5l-3 -5h-38zM206 332l-33 -4l-5 9l5 9l33 -4h37 l3 -5l-3 -5h-37zM247 442l-33 -4l-5 9l5 9l33 -4h37l3 -5l-3 -5h-37zM136 141l-33 -4l-5 9l5 9l33 -4h36l3 -5l-3 -5h-36zM126 114l-33 -4l-5 9l5 9l33 -4h36l3 -5l-3 -5h-36zM217 360l-33 -4l-5 9l5 9l33 -4h36l3 -5l-3 -5h-36zM227 387l-33 -4l-5 9l5 9l33 -4h36l3 -5 l-3 -5h-36zM106 59l-33 -4l-5 9l5 9l33 -4h35l3 -5l-3 -5h-35zM116 86l-33 -4l-5 9l5 9l33 -4h35l3 -5l-3 -5h-35zM130 32h-67l-5 5l5 9l33 -4h34l3 -5zM351 561h72l3 -5l-3 -5h-72l-3 5zM443 315h71l3 -5l-3 -5h-71l-3 5zM423 370h71l3 -5l-3 -5h-71l-3 5zM392 452h71l3 -5 l-3 -5h-71l-3 5zM362 534h71l3 -5l-3 -5h-71l-3 5zM413 397h70l3 -5l-3 -5h-70l-3 5zM403 424h70l3 -5l-3 -5h-70l-3 5zM434 342h70l3 -5l-3 -5h-70l-3 5zM505 151h69l3 -5l-3 -5h-69l-3 5zM545 42h69l3 -5l-3 -5h-69l-3 5zM525 96h69l3 -5l-3 -5h-69l-3 5zM535 69h69l3 -5 l-3 -5h-69l-3 5zM515 124h69l3 -5l-3 -5h-69l-3 5z" />
<glyph unicode="&#xc5;" horiz-adv-x="675" d="M321 752l35 -1h2l3 -5l-3 -5h-2l-35 -4l-5 9zM287 729l33 -4h76l3 -5l-3 -5h-76l-33 -4l-5 9zM281 701l33 -4l3 -5l-3 -5l-33 -4l-5 9zM363 697h34l3 -5l-3 -5h-34l-3 5zM535 69h69l3 -5l-3 -5h-69l-3 5zM525 96h69l3 -5l-3 -5h-69l-3 5zM515 124h69l3 -5l-3 -5h-69l-3 5 zM505 151h69l3 -5l-3 -5h-69l-3 5zM495 178h69l3 -5l-3 -5h-69l-3 5zM454 288h70l3 -5l-3 -5h-70l-3 5zM443 315h71l3 -5l-3 -5h-71l-3 5zM434 342h70l3 -5l-3 -5h-70l-3 5zM423 370h71l3 -5l-3 -5h-71l-3 5zM413 397h70l3 -5l-3 -5h-70l-3 5zM403 424h70l3 -5l-3 -5h-70 l-3 5zM392 452h71l3 -5l-3 -5h-71l-3 5zM382 479h71l3 -5l-3 -5h-71l-3 5zM372 506h71l3 -5l-3 -5h-71l-3 5zM362 534h71l3 -5l-3 -5h-71l-3 5zM351 561h72l3 -5l-3 -5h-72l-3 5zM545 42h69l3 -5l-3 -5h-69l-3 5zM130 32h-67l-5 5l5 9l33 -4h34l3 -5zM106 59l-33 -4l-5 9 l5 9l33 -4h35l3 -5l-3 -5h-35zM116 86l-33 -4l-5 9l5 9l33 -4h35l3 -5l-3 -5h-35zM126 114l-33 -4l-5 9l5 9l33 -4h36l3 -5l-3 -5h-36zM136 141l-33 -4l-5 9l5 9l33 -4h36l3 -5l-3 -5h-36zM146 168l-33 -4l-5 9l5 9l33 -4h36l3 -5l-3 -5h-36zM186 278l-33 -3l-5 8l5 9l33 -4 h37l3 -5l-3 -5h-37zM196 305l-33 -4l-5 9l5 9l33 -4h37l3 -5l-3 -5h-37zM206 332l-33 -4l-5 9l5 9l33 -4h37l3 -5l-3 -5h-37zM217 360l-33 -4l-5 9l5 9l33 -4h36l3 -5l-3 -5h-36zM227 387l-33 -4l-5 9l5 9l33 -4h36l3 -5l-3 -5h-36zM236 414l-33 -4l-5 9l5 9l33 -4h38l3 -5 l-3 -5h-38zM247 442l-33 -4l-5 9l5 9l33 -4h37l3 -5l-3 -5h-37zM257 469l-33 -4l-5 9l5 9l33 -4h38l3 -5l-3 -5h-38zM266 496l-33 -4l-5 9l5 9l33 -4h39l3 -5l-3 -5h-39zM277 524l-33 -4l-5 9l5 9l33 -4h38l3 -5l-3 -5h-38zM287 551l-33 -4l-5 9l5 10l33 -5h38l3 -5l-3 -5 h-38zM297 578l-33 -4l-5 9l5 9l33 -4h116l3 -5l-3 -5h-116zM307 605l-33 -4l-5 9l5 9l33 -4h96l3 -5l-3 -5h-96zM316 632l-33 -4l-5 9l5 5h111l3 -5l-3 -5h-78zM156 196l-33 -4l-5 9l5 9l33 -4h398l3 -5l-3 -5h-398zM166 223l-33 -4l-5 9l5 10l33 -5h378l3 -5l-3 -5h-378z M176 250l-33 -4l-5 9l5 9l33 -4h358l3 -5l-3 -5h-358z" />
<glyph unicode="&#xc6;" horiz-adv-x="972" d="M185 276l-33 -4l-5 9l5 9l33 -4h36l3 -5l-3 -5h-36zM553 386h-60l-3 5l3 5h60l3 -5zM553 113h-60l-3 5l3 5h60l3 -5zM553 550h-60l-3 5l3 5h60l3 -5zM266 496l-33 -4l-5 9l5 9l33 -4h39l3 -5l-3 -5h-39zM126 114l-33 -4l-5 9l5 9l33 -4h36l3 -5l-3 -5h-36zM146 168 l-33 -4l-5 9l5 9l33 -4h36l3 -5l-3 -5h-36zM116 86l-33 -4l-5 9l5 9l33 -4h35l3 -5l-3 -5h-35zM553 277h-60l-3 5l3 5h60l3 -5zM553 168h-60l-3 5l3 5h60l3 -5zM553 414h-60l-3 5l3 5h60l3 -5zM287 551l-33 -4l-5 9l5 10l33 -5h38l3 -5l-3 -5h-38zM227 385l-33 -4l-5 9l5 9 l33 -4h36l3 -5l-3 -5h-36zM236 414l-33 -4l-5 9l5 9l33 -4h38l3 -5l-3 -5h-38zM163 318l33 -4h631l3 -5l-3 -5h-631l-33 -4l-5 9zM173 345l33 -4h621l3 -5l-3 -5h-621l-33 -4l-5 9zM184 371l33 -3h610l3 -5l-3 -5h-610l-33 -4l-5 9zM297 578l-33 -4l-5 9l5 9l33 -4h560l3 -5 l-3 -5h-560zM307 605l-33 -4l-5 9l5 9l33 -4h550l3 -5l-3 -5h-550zM316 632l-33 -4l-5 9l5 5h574l3 -5l-3 -5h-541zM878 32h-385l-3 5l3 5h385l3 -5zM878 59h-385l-3 5l3 5h385l3 -5zM878 86h-385l-3 5l3 5h385l3 -5zM257 469l-33 -4l-5 9l5 9l33 -4h38l3 -5l-3 -5h-38z M277 524l-33 -4l-5 9l5 9l33 -4h38l3 -5l-3 -5h-38zM247 442l-33 -4l-5 9l5 9l33 -4h37l3 -5l-3 -5h-37zM136 141l-33 -4l-5 9l5 9l33 -4h36l3 -5l-3 -5h-36zM175 249l-33 -4l-5 9l5 9l33 -4h36l3 -5l-3 -5h-36zM155 195l-33 -4l-5 9l5 9l33 -4h36l3 -5l-3 -5h-36zM165 222 l-33 -4l-5 9l5 9l33 -4h36l3 -5l-3 -5h-36zM106 59l-33 -4l-5 9l5 9l33 -4h35l3 -5l-3 -5h-35zM130 32h-67l-5 5l5 9l33 -4h34l3 -5zM553 523h-60l-3 5l3 5h60l3 -5zM553 140h-60l-3 5l3 5h60l3 -5zM553 468h-60l-3 5l3 5h60l3 -5zM553 441h-60l-3 5l3 5h60l3 -5zM553 250 h-60l-3 5l3 5h60l3 -5zM553 496h-60l-3 5l3 5h60l3 -5zM553 195h-60l-3 5l3 5h60l3 -5zM553 222h-60l-3 5l3 5h60l3 -5z" />
<glyph unicode="&#xc7;" horiz-adv-x="682" d="M192 86l34 -4h329l3 -5l-3 -5h-329l-34 -4l-5 9zM190 605l34 -4h328l3 -5l-3 -5h-328l-34 -4l-5 9zM232 59l34 -4h252l3 -5l-3 -5h-252l-34 -4l-5 9zM228 632l34 -4h251l3 -5l-3 -5h-251l-34 -4l-5 9zM284 655h156l3 -5l-3 -5h-122l-34 -4l-5 9zM301 32l34 -4h115l3 -5 l-3 -5h-149l-5 5zM159 113l34 -4h79l8 -5l-3 -5h-84l-34 -4l-5 9zM161 577l34 -4h77l3 -5l-8 -5h-72l-34 -4l-5 9zM589 99h-125l-3 5l8 5h120l3 -5zM588 563h-114l-8 5l3 5h119l3 -5zM140 140l34 -4h63l3 -5l-3 -5h-63l-34 -5l-5 10zM141 550l34 -4h61l3 -5l-3 -5h-61 l-34 -4l-5 9zM122 167l34 -4h57l3 -5l-3 -5h-57l-34 -4l-5 9zM125 523l34 -4h51l3 -5l-3 -5h-51l-34 -4l-5 9zM110 195l34 -4h49l3 -5l-3 -5h-49l-34 -4l-5 9zM101 222l34 -4h44l3 -5l-3 -5h-44l-34 -4l-5 9zM113 495l34 -4h43l3 -5l-3 -5h-43l-34 -4l-5 9zM102 468l34 -4 h41l3 -5l-3 -5h-41l-34 -5l-5 10zM94 249l34 -4h39l3 -5l-3 -5h-39l-34 -4l-5 9zM598 536h-88l-3 5l3 5h88l3 -5zM597 126h-88l-3 5l3 5h88l3 -5zM95 441l34 -4h37l3 -5l-3 -5h-37l-34 -4l-5 9zM85 386l34 -4h33l3 -5l-3 -5h-33l-34 -4l-5 9zM83 331l34 -4h33l3 -5l-3 -5 h-33l-34 -4l-5 9zM89 277l34 -4h33l3 -5l-3 -5h-33l-34 -4l-5 9zM83 359l34 -4h33l3 -5l-3 -5h-33l-34 -4l-5 9zM85 304l34 -4h33l3 -5l-3 -5h-33l-34 -4l-5 9zM89 412l34 -3h33l3 -5l-3 -5h-33l-34 -4l-5 9zM332 -24h71l3 -5l-3 -5h-38l-33 -4l-5 9zM382 -61h-69l-5 5l5 9 l33 -4h36l3 -5zM569 153h-33l-3 5l3 5h33l3 -5zM571 509h-28l-3 5l3 5h28l3 -5z" />
<glyph unicode="&#xc8;" horiz-adv-x="626" d="M356 687h-69l-5 5l5 9l33 -4h36l3 -5zM266 724h71l3 -5l-3 -5h-38l-33 -4l-5 9zM126 564l33 -4h27l3 -5l-3 -5h-27l-33 -4l-5 9zM126 428l33 -4h27l3 -5l-3 -5h-27l-33 -4l-5 9zM126 318l33 -4h27l3 -5l-3 -5h-27l-33 -4l-5 9zM126 127l33 -4h27l3 -5l-3 -5h-27l-33 -5 l-5 10zM126 510l33 -4h27l3 -5l-3 -5h-27l-33 -4l-5 9zM126 642h385l3 -5l-3 -5h-352l-33 -4l-5 9zM126 619l33 -4h352l3 -5l-3 -5h-352l-33 -4l-5 9zM126 592l33 -4h352l3 -5l-3 -5h-352l-33 -4l-5 9zM126 537l33 -4h27l3 -5l-3 -5h-27l-33 -4l-5 9zM126 482l33 -4h27l3 -5 l-3 -5h-27l-33 -4l-5 9zM126 455l33 -4h27l3 -5l-3 -5h-27l-33 -5l-5 10zM126 399l33 -3h322l3 -5l-3 -5h-322l-33 -4l-5 9zM126 373l33 -4h322l3 -5l-3 -5h-322l-33 -4l-5 9zM126 346l33 -4h322l3 -5l-3 -5h-322l-33 -4l-5 9zM126 291l33 -4h27l3 -5l-3 -5h-27l-33 -4l-5 9 zM126 264l33 -4h27l3 -5l-3 -5h-27l-33 -4l-5 9zM126 236l33 -4h27l3 -5l-3 -5h-27l-33 -4l-5 9zM126 209l33 -4h27l3 -5l-3 -5h-27l-33 -4l-5 9zM126 182l33 -4h27l3 -5l-3 -5h-27l-33 -4l-5 9zM126 154l33 -4h27l3 -5l-3 -5h-27l-33 -4l-5 9zM126 100l33 -4h373l3 -5 l-3 -5h-373l-33 -4l-5 9zM126 73l33 -4h373l3 -5l-3 -5h-373l-33 -4l-5 9zM126 46l33 -4h373l3 -5l-3 -5h-406l-5 5z" />
<glyph unicode="&#xc9;" horiz-adv-x="626" d="M377 687h-69l-5 5l5 9l33 -4h36l3 -5zM327 724h71l3 -5l-3 -5h-38l-33 -4l-5 9zM126 564l33 -4h27l3 -5l-3 -5h-27l-33 -4l-5 9zM126 428l33 -4h27l3 -5l-3 -5h-27l-33 -4l-5 9zM126 318l33 -4h27l3 -5l-3 -5h-27l-33 -4l-5 9zM126 127l33 -4h27l3 -5l-3 -5h-27l-33 -5 l-5 10zM126 510l33 -4h27l3 -5l-3 -5h-27l-33 -4l-5 9zM126 642h385l3 -5l-3 -5h-352l-33 -4l-5 9zM126 619l33 -4h352l3 -5l-3 -5h-352l-33 -4l-5 9zM126 592l33 -4h352l3 -5l-3 -5h-352l-33 -4l-5 9zM126 537l33 -4h27l3 -5l-3 -5h-27l-33 -4l-5 9zM126 482l33 -4h27l3 -5 l-3 -5h-27l-33 -4l-5 9zM126 455l33 -4h27l3 -5l-3 -5h-27l-33 -5l-5 10zM126 399l33 -3h322l3 -5l-3 -5h-322l-33 -4l-5 9zM126 373l33 -4h322l3 -5l-3 -5h-322l-33 -4l-5 9zM126 346l33 -4h322l3 -5l-3 -5h-322l-33 -4l-5 9zM126 291l33 -4h27l3 -5l-3 -5h-27l-33 -4l-5 9 zM126 264l33 -4h27l3 -5l-3 -5h-27l-33 -4l-5 9zM126 236l33 -4h27l3 -5l-3 -5h-27l-33 -4l-5 9zM126 209l33 -4h27l3 -5l-3 -5h-27l-33 -4l-5 9zM126 182l33 -4h27l3 -5l-3 -5h-27l-33 -4l-5 9zM126 154l33 -4h27l3 -5l-3 -5h-27l-33 -4l-5 9zM126 100l33 -4h373l3 -5 l-3 -5h-373l-33 -4l-5 9zM126 73l33 -4h373l3 -5l-3 -5h-373l-33 -4l-5 9zM126 46l33 -4h373l3 -5l-3 -5h-406l-5 5z" />
<glyph unicode="&#xca;" horiz-adv-x="626" d="M249 687l-5 5l5 9l33 -4h114l3 -5l-3 -5h-147zM271 724h106l3 -5l-3 -5h-73l-33 -4l-5 9zM126 564l33 -4h27l3 -5l-3 -5h-27l-33 -4l-5 9zM126 428l33 -4h27l3 -5l-3 -5h-27l-33 -4l-5 9zM126 318l33 -4h27l3 -5l-3 -5h-27l-33 -4l-5 9zM126 127l33 -4h27l3 -5l-3 -5h-27 l-33 -5l-5 10zM126 510l33 -4h27l3 -5l-3 -5h-27l-33 -4l-5 9zM126 642h385l3 -5l-3 -5h-352l-33 -4l-5 9zM126 619l33 -4h352l3 -5l-3 -5h-352l-33 -4l-5 9zM126 592l33 -4h352l3 -5l-3 -5h-352l-33 -4l-5 9zM126 537l33 -4h27l3 -5l-3 -5h-27l-33 -4l-5 9zM126 482l33 -4 h27l3 -5l-3 -5h-27l-33 -4l-5 9zM126 455l33 -4h27l3 -5l-3 -5h-27l-33 -5l-5 10zM126 399l33 -3h322l3 -5l-3 -5h-322l-33 -4l-5 9zM126 373l33 -4h322l3 -5l-3 -5h-322l-33 -4l-5 9zM126 346l33 -4h322l3 -5l-3 -5h-322l-33 -4l-5 9zM126 291l33 -4h27l3 -5l-3 -5h-27 l-33 -4l-5 9zM126 264l33 -4h27l3 -5l-3 -5h-27l-33 -4l-5 9zM126 236l33 -4h27l3 -5l-3 -5h-27l-33 -4l-5 9zM126 209l33 -4h27l3 -5l-3 -5h-27l-33 -4l-5 9zM126 182l33 -4h27l3 -5l-3 -5h-27l-33 -4l-5 9zM126 154l33 -4h27l3 -5l-3 -5h-27l-33 -4l-5 9zM126 100l33 -4 h373l3 -5l-3 -5h-373l-33 -4l-5 9zM126 73l33 -4h373l3 -5l-3 -5h-373l-33 -4l-5 9zM126 46l33 -4h373l3 -5l-3 -5h-406l-5 5z" />
<glyph unicode="&#xcb;" horiz-adv-x="626" d="M206 701l33 -4h27l3 -5l-3 -5h-60l-5 5zM396 701l33 -4h27l3 -5l-3 -5h-60l-5 5zM396 724h60l3 -5l-3 -5h-27l-33 -4l-5 9zM206 724h60l3 -5l-3 -5h-27l-33 -4l-5 9zM126 564l33 -4h27l3 -5l-3 -5h-27l-33 -4l-5 9zM126 428l33 -4h27l3 -5l-3 -5h-27l-33 -4l-5 9z M126 318l33 -4h27l3 -5l-3 -5h-27l-33 -4l-5 9zM126 127l33 -4h27l3 -5l-3 -5h-27l-33 -5l-5 10zM126 510l33 -4h27l3 -5l-3 -5h-27l-33 -4l-5 9zM126 642h385l3 -5l-3 -5h-352l-33 -4l-5 9zM126 619l33 -4h352l3 -5l-3 -5h-352l-33 -4l-5 9zM126 592l33 -4h352l3 -5l-3 -5 h-352l-33 -4l-5 9zM126 537l33 -4h27l3 -5l-3 -5h-27l-33 -4l-5 9zM126 482l33 -4h27l3 -5l-3 -5h-27l-33 -4l-5 9zM126 455l33 -4h27l3 -5l-3 -5h-27l-33 -5l-5 10zM126 399l33 -3h322l3 -5l-3 -5h-322l-33 -4l-5 9zM126 373l33 -4h322l3 -5l-3 -5h-322l-33 -4l-5 9z M126 346l33 -4h322l3 -5l-3 -5h-322l-33 -4l-5 9zM126 291l33 -4h27l3 -5l-3 -5h-27l-33 -4l-5 9zM126 264l33 -4h27l3 -5l-3 -5h-27l-33 -4l-5 9zM126 236l33 -4h27l3 -5l-3 -5h-27l-33 -4l-5 9zM126 209l33 -4h27l3 -5l-3 -5h-27l-33 -4l-5 9zM126 182l33 -4h27l3 -5 l-3 -5h-27l-33 -4l-5 9zM126 154l33 -4h27l3 -5l-3 -5h-27l-33 -4l-5 9zM126 100l33 -4h373l3 -5l-3 -5h-373l-33 -4l-5 9zM126 73l33 -4h373l3 -5l-3 -5h-373l-33 -4l-5 9zM126 46l33 -4h373l3 -5l-3 -5h-406l-5 5z" />
<glyph unicode="&#xcc;" horiz-adv-x="311" d="M164 687h-37l-5 5l5 9l33 -4h4l3 -5zM106 724h39l3 -5l-3 -5h-6l-33 -4l-5 9zM126 127l33 -4h27l3 -5l-3 -5h-27l-33 -5l-5 10zM126 455l33 -4h27l3 -5l-3 -5h-27l-33 -5l-5 10zM126 236l33 -4h27l3 -5l-3 -5h-27l-33 -4l-5 9zM126 264l33 -4h27l3 -5l-3 -5h-27l-33 -4 l-5 9zM126 100l33 -4h27l3 -5l-3 -5h-27l-33 -4l-5 9zM126 318l33 -4h27l3 -5l-3 -5h-27l-33 -4l-5 9zM126 346l33 -4h27l3 -5l-3 -5h-27l-33 -4l-5 9zM126 619l33 -4h27l3 -5l-3 -5h-27l-33 -4l-5 9zM126 373l33 -4h27l3 -5l-3 -5h-27l-33 -4l-5 9zM126 428l33 -4h27l3 -5 l-3 -5h-27l-33 -4l-5 9zM126 73l33 -4h27l3 -5l-3 -5h-27l-33 -4l-5 9zM126 482l33 -4h27l3 -5l-3 -5h-27l-33 -4l-5 9zM126 510l33 -4h27l3 -5l-3 -5h-27l-33 -4l-5 9zM126 537l33 -4h27l3 -5l-3 -5h-27l-33 -4l-5 9zM126 291l33 -4h27l3 -5l-3 -5h-27l-33 -4l-5 9z M126 592l33 -4h27l3 -5l-3 -5h-27l-33 -4l-5 9zM126 564l33 -4h27l3 -5l-3 -5h-27l-33 -4l-5 9zM126 154l33 -4h27l3 -5l-3 -5h-27l-33 -4l-5 9zM126 182l33 -4h27l3 -5l-3 -5h-27l-33 -4l-5 9zM126 209l33 -4h27l3 -5l-3 -5h-27l-33 -4l-5 9zM126 399l33 -3h27l3 -5l-3 -5 h-27l-33 -4l-5 9zM126 46l33 -4h27l3 -5l-3 -5h-60l-5 5zM126 642h60l3 -5l-3 -5h-27l-33 -4l-5 9z" />
<glyph unicode="&#xcd;" horiz-adv-x="311" d="M186 687h-50l-5 5l5 9l33 -4h17l3 -5zM155 724h52l3 -5l-3 -5h-31l-21 -4l-5 9zM126 127l33 -4h27l3 -5l-3 -5h-27l-33 -5l-5 10zM126 455l33 -4h27l3 -5l-3 -5h-27l-33 -5l-5 10zM126 264l33 -4h27l3 -5l-3 -5h-27l-33 -4l-5 9zM126 291l33 -4h27l3 -5l-3 -5h-27l-33 -4 l-5 9zM126 318l33 -4h27l3 -5l-3 -5h-27l-33 -4l-5 9zM126 346l33 -4h27l3 -5l-3 -5h-27l-33 -4l-5 9zM126 373l33 -4h27l3 -5l-3 -5h-27l-33 -4l-5 9zM126 236l33 -4h27l3 -5l-3 -5h-27l-33 -4l-5 9zM126 100l33 -4h27l3 -5l-3 -5h-27l-33 -4l-5 9zM126 428l33 -4h27l3 -5 l-3 -5h-27l-33 -4l-5 9zM126 482l33 -4h27l3 -5l-3 -5h-27l-33 -4l-5 9zM126 73l33 -4h27l3 -5l-3 -5h-27l-33 -4l-5 9zM126 537l33 -4h27l3 -5l-3 -5h-27l-33 -4l-5 9zM126 564l33 -4h27l3 -5l-3 -5h-27l-33 -4l-5 9zM126 592l33 -4h27l3 -5l-3 -5h-27l-33 -4l-5 9z M126 619l33 -4h27l3 -5l-3 -5h-27l-33 -4l-5 9zM126 209l33 -4h27l3 -5l-3 -5h-27l-33 -4l-5 9zM126 154l33 -4h27l3 -5l-3 -5h-27l-33 -4l-5 9zM126 510l33 -4h27l3 -5l-3 -5h-27l-33 -4l-5 9zM126 182l33 -4h27l3 -5l-3 -5h-27l-33 -4l-5 9zM126 399l33 -3h27l3 -5l-3 -5 h-27l-33 -4l-5 9zM126 642h60l3 -5l-3 -5h-27l-33 -4l-5 9zM126 46l33 -4h27l3 -5l-3 -5h-60l-5 5z" />
<glyph unicode="&#xce;" horiz-adv-x="311" d="M100 687l-5 5l5 9l33 -4h77l3 -5l-3 -5h-110zM122 724h69l3 -5l-3 -5h-36l-33 -4l-5 9zM126 455l33 -4h27l3 -5l-3 -5h-27l-33 -5l-5 10zM126 127l33 -4h27l3 -5l-3 -5h-27l-33 -5l-5 10zM126 291l33 -4h27l3 -5l-3 -5h-27l-33 -4l-5 9zM126 318l33 -4h27l3 -5l-3 -5h-27 l-33 -4l-5 9zM126 346l33 -4h27l3 -5l-3 -5h-27l-33 -4l-5 9zM126 236l33 -4h27l3 -5l-3 -5h-27l-33 -4l-5 9zM126 209l33 -4h27l3 -5l-3 -5h-27l-33 -4l-5 9zM126 182l33 -4h27l3 -5l-3 -5h-27l-33 -4l-5 9zM126 482l33 -4h27l3 -5l-3 -5h-27l-33 -4l-5 9zM126 73l33 -4h27 l3 -5l-3 -5h-27l-33 -4l-5 9zM126 510l33 -4h27l3 -5l-3 -5h-27l-33 -4l-5 9zM126 100l33 -4h27l3 -5l-3 -5h-27l-33 -4l-5 9zM126 564l33 -4h27l3 -5l-3 -5h-27l-33 -4l-5 9zM126 428l33 -4h27l3 -5l-3 -5h-27l-33 -4l-5 9zM126 619l33 -4h27l3 -5l-3 -5h-27l-33 -4l-5 9z M126 537l33 -4h27l3 -5l-3 -5h-27l-33 -4l-5 9zM126 373l33 -4h27l3 -5l-3 -5h-27l-33 -4l-5 9zM126 592l33 -4h27l3 -5l-3 -5h-27l-33 -4l-5 9zM126 154l33 -4h27l3 -5l-3 -5h-27l-33 -4l-5 9zM126 264l33 -4h27l3 -5l-3 -5h-27l-33 -4l-5 9zM126 399l33 -3h27l3 -5l-3 -5 h-27l-33 -4l-5 9zM126 46l33 -4h27l3 -5l-3 -5h-60l-5 5zM126 642h60l3 -5l-3 -5h-27l-33 -4l-5 9z" />
<glyph unicode="&#xcf;" horiz-adv-x="311" d="M196 724h50l3 -5l-3 -5h-17l-33 -4l-5 9zM69 724h50l3 -5l-3 -5h-17l-33 -4l-5 9zM196 701l33 -4h17l3 -5l-3 -5h-50l-5 5zM69 701l33 -4h17l3 -5l-3 -5h-50l-5 5zM126 455l33 -4h27l3 -5l-3 -5h-27l-33 -5l-5 10zM126 127l33 -4h27l3 -5l-3 -5h-27l-33 -5l-5 10z M126 182l33 -4h27l3 -5l-3 -5h-27l-33 -4l-5 9zM126 291l33 -4h27l3 -5l-3 -5h-27l-33 -4l-5 9zM126 100l33 -4h27l3 -5l-3 -5h-27l-33 -4l-5 9zM126 346l33 -4h27l3 -5l-3 -5h-27l-33 -4l-5 9zM126 373l33 -4h27l3 -5l-3 -5h-27l-33 -4l-5 9zM126 537l33 -4h27l3 -5l-3 -5 h-27l-33 -4l-5 9zM126 564l33 -4h27l3 -5l-3 -5h-27l-33 -4l-5 9zM126 482l33 -4h27l3 -5l-3 -5h-27l-33 -4l-5 9zM126 73l33 -4h27l3 -5l-3 -5h-27l-33 -4l-5 9zM126 428l33 -4h27l3 -5l-3 -5h-27l-33 -4l-5 9zM126 510l33 -4h27l3 -5l-3 -5h-27l-33 -4l-5 9zM126 592 l33 -4h27l3 -5l-3 -5h-27l-33 -4l-5 9zM126 209l33 -4h27l3 -5l-3 -5h-27l-33 -4l-5 9zM126 264l33 -4h27l3 -5l-3 -5h-27l-33 -4l-5 9zM126 318l33 -4h27l3 -5l-3 -5h-27l-33 -4l-5 9zM126 236l33 -4h27l3 -5l-3 -5h-27l-33 -4l-5 9zM126 619l33 -4h27l3 -5l-3 -5h-27 l-33 -4l-5 9zM126 154l33 -4h27l3 -5l-3 -5h-27l-33 -4l-5 9zM126 399l33 -3h27l3 -5l-3 -5h-27l-33 -4l-5 9zM126 642h60l3 -5l-3 -5h-27l-33 -4l-5 9zM126 46l33 -4h27l3 -5l-3 -5h-60l-5 5z" />
<glyph unicode="&#xd0;" horiz-adv-x="742" d="M126 564l33 -4h29l3 -5l-3 -5h-29l-33 -4l-5 9zM126 318l33 -4h28l3 -5l-3 -5h-28l-33 -4l-5 9zM126 291l33 -4h28l3 -5l-3 -5h-28l-33 -4l-5 9zM126 264l33 -4h28l3 -5l-3 -5h-28l-33 -4l-5 9zM652 250h-73l-3 5l3 5h73l3 -5zM126 510l33 -4h29l3 -5l-3 -5h-29l-33 -4 l-5 9zM622 496h-91l-3 5l3 5h91l3 -5zM126 455l33 -4h29l3 -5l-3 -5h-29l-33 -5l-5 10zM42 400l33 -3h266l3 -5l-3 -5h-266l-33 -4l-5 9zM126 642h311l3 -5l-3 -5h-278l-33 -4l-5 9zM126 619l33 -4h353l3 -5l-3 -5h-353l-33 -4l-5 9zM126 592l33 -4h394l3 -5l-3 -5h-394 l-33 -4l-5 9zM126 537l33 -4h29l3 -5l-3 -5h-29l-33 -4l-5 9zM126 482l33 -4h29l3 -5l-3 -5h-29l-33 -4l-5 9zM126 428l33 -4h29l3 -5l-3 -5h-29l-33 -4l-5 9zM42 374l33 -4h265l3 -5l-3 -5h-265l-33 -4l-5 9zM42 347l33 -4h265l3 -5l-3 -5h-265l-33 -4l-5 9zM126 236l33 -4 h28l3 -5l-3 -5h-28l-33 -4l-5 9zM126 209l33 -4h28l3 -5l-3 -5h-28l-33 -4l-5 9zM126 182l33 -4h28l3 -5l-3 -5h-28l-33 -4l-5 9zM126 154l33 -4h28l3 -5l-3 -5h-28l-33 -4l-5 9zM126 127l33 -4h28l3 -5l-3 -5h-28l-33 -5l-5 10zM126 100l33 -4h394l3 -5l-3 -5h-394l-33 -4 l-5 9zM126 73l33 -4h353l3 -5l-3 -5h-353l-33 -4l-5 9zM126 46l33 -4h278l3 -5l-3 -5h-311l-5 5zM582 550h-133l-8 5l3 5h138l3 -5zM604 523h-106l-3 5l3 5h106l3 -5zM635 468h-83l-3 5l3 5h83l3 -5zM645 441h-77l-3 5l3 5h77l3 -5zM651 414h-72l-3 5l3 5h72l3 -5zM656 386 h-69l-3 5l3 5h69l3 -5zM660 359h-69l-3 5l3 5h69l3 -5zM661 332h-69l-3 5l3 5h69l3 -5zM660 304h-69l-3 5l3 5h69l3 -5zM656 277h-69l-3 5l3 5h69l3 -5zM645 222h-77l-3 5l3 5h77l3 -5zM635 195h-83l-3 5l3 5h83l3 -5zM622 168h-91l-3 5l3 5h91l3 -5zM604 140h-106l-3 5l3 5 h106l3 -5zM582 113h-138l-3 5l8 5h133l3 -5z" />
<glyph unicode="&#xd1;" horiz-adv-x="780" d="M296 701l33 -4h164l3 -5l-3 -5h-164l-33 -4l-5 9zM312 729l33 -4h160l3 -5l-3 -5h-160l-33 -4l-5 9zM126 592l33 -4h118l3 -5l-3 -5h-118l-33 -4l-5 9zM654 86h-151l-3 5l3 5h151l3 -5zM126 619l33 -4h101l3 -5l-3 -5h-101l-33 -4l-5 9zM654 59h-133l-3 5l3 5h133l3 -5z M126 642h116l3 -5l-3 -5h-83l-33 -4l-5 9zM654 32h-116l-3 5l3 5h116l3 -5zM295 550h-89l-3 5l3 5h89l3 -5zM312 523h-89l-3 5l3 5h89l3 -5zM329 496h-89l-3 5l3 5h89l3 -5zM364 441h-89l-3 5l3 5h89l3 -5zM382 414h-89l-3 5l3 5h89l3 -5zM434 332h-88l-3 5l3 5h88l3 -5z M451 304h-88l-3 5l3 5h88l3 -5zM469 277h-88l-3 5l3 5h88l3 -5zM486 250h-88l-3 5l3 5h88l3 -5zM347 468h-88l-3 5l3 5h88l3 -5zM399 386h-88l-3 5l3 5h88l3 -5zM504 222h-87l-3 5l3 5h87l3 -5zM521 195h-87l-3 5l3 5h87l3 -5zM556 140h-87l-3 5l3 5h87l3 -5zM415 359h-87 l-3 5l3 5h87l3 -5zM537 168h-86l-3 5l3 5h86l3 -5zM572 113h-86l-3 5l3 5h86l3 -5zM126 455l33 -4h27l3 -5l-3 -5h-27l-33 -5l-5 10zM126 127l33 -4h27l3 -5l-3 -5h-27l-33 -5l-5 10zM126 510l33 -4h27l3 -5l-3 -5h-27l-33 -4l-5 9zM126 428l33 -4h27l3 -5l-3 -5h-27l-33 -4 l-5 9zM126 482l33 -4h27l3 -5l-3 -5h-27l-33 -4l-5 9zM126 373l33 -4h27l3 -5l-3 -5h-27l-33 -4l-5 9zM126 346l33 -4h27l3 -5l-3 -5h-27l-33 -4l-5 9zM126 318l33 -4h27l3 -5l-3 -5h-27l-33 -4l-5 9zM126 291l33 -4h27l3 -5l-3 -5h-27l-33 -4l-5 9zM126 264l33 -4h27l3 -5 l-3 -5h-27l-33 -4l-5 9zM126 236l33 -4h27l3 -5l-3 -5h-27l-33 -4l-5 9zM126 209l33 -4h27l3 -5l-3 -5h-27l-33 -4l-5 9zM126 154l33 -4h27l3 -5l-3 -5h-27l-33 -4l-5 9zM126 564l33 -4h27l3 -5l-3 -5h-27l-33 -4l-5 9zM126 182l33 -4h27l3 -5l-3 -5h-27l-33 -4l-5 9z M126 537l33 -4h27l3 -5l-3 -5h-27l-33 -4l-5 9zM126 100l33 -4h27l3 -5l-3 -5h-27l-33 -4l-5 9zM126 73l33 -4h27l3 -5l-3 -5h-27l-33 -4l-5 9zM126 399l33 -3h27l3 -5l-3 -5h-27l-33 -4l-5 9zM126 46l33 -4h27l3 -5l-3 -5h-60l-5 5zM654 550h-60l-3 5l3 5h60l3 -5zM654 304 h-60l-3 5l3 5h60l3 -5zM654 414h-60l-3 5l3 5h60l3 -5zM654 222h-60l-3 5l3 5h60l3 -5zM654 468h-60l-3 5l3 5h60l3 -5zM654 250h-60l-3 5l3 5h60l3 -5zM654 168h-60l-3 5l3 5h60l3 -5zM654 277h-60l-3 5l3 5h60l3 -5zM654 113h-60l-3 5l3 5h60l3 -5zM654 386h-60l-3 5l3 5 h60l3 -5zM654 523h-60l-3 5l3 5h60l3 -5zM654 140h-60l-3 5l3 5h60l3 -5zM654 441h-60l-3 5l3 5h60l3 -5zM654 496h-60l-3 5l3 5h60l3 -5zM654 359h-60l-3 5l3 5h60l3 -5zM654 195h-60l-3 5l3 5h60l3 -5zM654 332h-60l-3 5l3 5h60l3 -5zM653 605h-59l-3 5l3 5h59l3 -5z M653 632h-59l-3 5l3 5h59l3 -5zM653 578h-59l-3 5l3 5h59l3 -5zM475 753l34 -1l3 -5l-3 -5l-34 -4l-5 9zM327 660l-30 -1l-5 6l5 9l30 -4l3 -5z" />
<glyph unicode="&#xd2;" horiz-adv-x="750" d="M413 694h-69l-5 4l5 10l33 -5h36l3 -5zM323 726h71l3 -5l-3 -4h-38l-33 -4l-5 8zM165 577l34 -4h80l3 -5l-9 -5h-74l-34 -4l-5 9zM591 563h-113l-9 5l3 5h119l3 -5zM112 495l34 -4h47l3 -5l-3 -5h-47l-34 -4l-5 9zM642 481h-78l-3 5l3 5h78l3 -5zM102 468l34 -4h42l3 -5 l-3 -5h-42l-34 -5l-5 10zM94 441l34 -4h41l3 -5l-3 -5h-37l-34 -4l-5 9zM202 86l34 -4h324l3 -5l-3 -5h-324l-34 -4l-5 9zM653 454h-76l-3 5l3 5h76l3 -5zM660 427h-72l-3 5l3 5h72l3 -5zM233 632l34 -4h256l3 -5l-3 -5h-256l-34 -4l-5 9zM193 605l34 -4h332l3 -5l-3 -5 h-332l-34 -4l-5 9zM143 550l34 -4h60l3 -5l-3 -5h-60l-34 -4l-5 9zM126 523l34 -4h53l3 -5l-3 -5h-53l-34 -4l-5 9zM92 412l24 -3h45l3 -5l-3 -5h-45l-24 -4l-5 9zM88 386l34 -4h33l3 -5l-3 -5h-33l-34 -4l-5 9zM86 359l34 -4h33l3 -5l-3 -5h-33l-34 -4l-5 9zM86 331l34 -4 h33l3 -5l-3 -5h-33l-34 -4l-5 9zM88 304l34 -4h33l3 -5l-3 -5h-33l-34 -4l-5 9zM92 277l30 -4h39l3 -5l-3 -5h-39l-29 -4l-5 9zM98 249l34 -4h37l3 -5l-3 -5h-37l-34 -4l-5 9zM107 222l34 -4h39l3 -5l-3 -5h-39l-34 -4l-5 9zM118 195l34 -4h43l3 -5l-3 -5h-43l-34 -4l-5 9z M132 167l34 -4h50l3 -5l-3 -5h-50l-34 -4l-5 9zM150 140l34 -4h61l3 -5l-3 -5h-61l-34 -5l-5 10zM171 113l34 -4h78l8 -5l-3 -5h-83l-34 -4l-5 9zM310 32l34 -4h113l3 -5l-3 -5h-147l-5 5zM303 655h149l3 -5l-3 -5h-115l-34 -4l-5 9zM247 59l34 -4h240l3 -5l-3 -5h-240 l-34 -4l-5 9zM612 536h-98l-3 5l3 5h98l3 -5zM629 509h-86l-3 5l3 5h86l3 -5zM628 153h-86l-3 5l3 5h86l3 -5zM611 126h-94l-3 5l3 5h94l3 -5zM590 99h-120l-3 5l8 5h115l3 -5zM667 399h-70l-3 5l3 5h70l3 -5zM672 372h-70l-3 5l3 5h70l3 -5zM673 345h-69l-3 5l3 5h69l3 -5z M673 317h-69l-3 5l3 5h69l3 -5zM670 290h-68l-3 5l3 5h68l3 -5zM667 263h-70l-3 5l3 5h70l3 -5zM661 235h-74l-3 5l3 5h74l3 -5zM653 208h-75l-3 5l3 5h75l3 -5zM642 181h-80l-3 5l3 5h80l3 -5z" />
<glyph unicode="&#xd3;" horiz-adv-x="750" d="M426 694h-69l-5 5l5 8l33 -4h36l3 -4zM375 726h71l3 -5l-3 -4h-38l-33 -4l-5 8zM165 577l34 -4h80l3 -5l-9 -5h-74l-34 -4l-5 9zM591 563h-113l-9 5l3 5h119l3 -5zM112 495l34 -4h47l3 -5l-3 -5h-47l-34 -4l-5 9zM642 481h-78l-3 5l3 5h78l3 -5zM102 468l34 -4h42l3 -5 l-3 -5h-42l-34 -5l-5 10zM94 441l34 -4h41l3 -5l-3 -5h-37l-34 -4l-5 9zM202 86l34 -4h324l3 -5l-3 -5h-324l-34 -4l-5 9zM653 454h-76l-3 5l3 5h76l3 -5zM660 427h-72l-3 5l3 5h72l3 -5zM233 632l34 -4h256l3 -5l-3 -5h-256l-34 -4l-5 9zM193 605l34 -4h332l3 -5l-3 -5 h-332l-34 -4l-5 9zM143 550l34 -4h60l3 -5l-3 -5h-60l-34 -4l-5 9zM126 523l34 -4h53l3 -5l-3 -5h-53l-34 -4l-5 9zM92 412l24 -3h45l3 -5l-3 -5h-45l-24 -4l-5 9zM88 386l34 -4h33l3 -5l-3 -5h-33l-34 -4l-5 9zM86 359l34 -4h33l3 -5l-3 -5h-33l-34 -4l-5 9zM86 331l34 -4 h33l3 -5l-3 -5h-33l-34 -4l-5 9zM88 304l34 -4h33l3 -5l-3 -5h-33l-34 -4l-5 9zM92 277l30 -4h39l3 -5l-3 -5h-39l-29 -4l-5 9zM98 249l34 -4h37l3 -5l-3 -5h-37l-34 -4l-5 9zM107 222l34 -4h39l3 -5l-3 -5h-39l-34 -4l-5 9zM118 195l34 -4h43l3 -5l-3 -5h-43l-34 -4l-5 9z M132 167l34 -4h50l3 -5l-3 -5h-50l-34 -4l-5 9zM150 140l34 -4h61l3 -5l-3 -5h-61l-34 -5l-5 10zM171 113l34 -4h78l8 -5l-3 -5h-83l-34 -4l-5 9zM310 32l34 -4h113l3 -5l-3 -5h-147l-5 5zM303 655h149l3 -5l-3 -5h-115l-34 -4l-5 9zM247 59l34 -4h240l3 -5l-3 -5h-240 l-34 -4l-5 9zM612 536h-98l-3 5l3 5h98l3 -5zM629 509h-86l-3 5l3 5h86l3 -5zM628 153h-86l-3 5l3 5h86l3 -5zM611 126h-94l-3 5l3 5h94l3 -5zM590 99h-120l-3 5l8 5h115l3 -5zM667 399h-70l-3 5l3 5h70l3 -5zM672 372h-70l-3 5l3 5h70l3 -5zM673 345h-69l-3 5l3 5h69l3 -5z M673 317h-69l-3 5l3 5h69l3 -5zM670 290h-68l-3 5l3 5h68l3 -5zM667 263h-70l-3 5l3 5h70l3 -5zM661 235h-74l-3 5l3 5h74l3 -5zM653 208h-75l-3 5l3 5h75l3 -5zM642 181h-80l-3 5l3 5h80l3 -5z" />
<glyph unicode="&#xd4;" horiz-adv-x="750" d="M313 707l33 -4h114l3 -4l-3 -5h-147l-5 5zM335 726h106l3 -5l-3 -4h-73l-33 -4l-5 8zM165 577l34 -4h80l3 -5l-9 -5h-74l-34 -4l-5 9zM591 563h-113l-9 5l3 5h119l3 -5zM112 495l34 -4h47l3 -5l-3 -5h-47l-34 -4l-5 9zM642 481h-78l-3 5l3 5h78l3 -5zM102 468l34 -4h42 l3 -5l-3 -5h-42l-34 -5l-5 10zM94 441l34 -4h41l3 -5l-3 -5h-37l-34 -4l-5 9zM202 86l34 -4h324l3 -5l-3 -5h-324l-34 -4l-5 9zM653 454h-76l-3 5l3 5h76l3 -5zM660 427h-72l-3 5l3 5h72l3 -5zM233 632l34 -4h256l3 -5l-3 -5h-256l-34 -4l-5 9zM193 605l34 -4h332l3 -5 l-3 -5h-332l-34 -4l-5 9zM143 550l34 -4h60l3 -5l-3 -5h-60l-34 -4l-5 9zM126 523l34 -4h53l3 -5l-3 -5h-53l-34 -4l-5 9zM92 412l24 -3h45l3 -5l-3 -5h-45l-24 -4l-5 9zM88 386l34 -4h33l3 -5l-3 -5h-33l-34 -4l-5 9zM86 359l34 -4h33l3 -5l-3 -5h-33l-34 -4l-5 9zM86 331 l34 -4h33l3 -5l-3 -5h-33l-34 -4l-5 9zM88 304l34 -4h33l3 -5l-3 -5h-33l-34 -4l-5 9zM92 277l30 -4h39l3 -5l-3 -5h-39l-29 -4l-5 9zM98 249l34 -4h37l3 -5l-3 -5h-37l-34 -4l-5 9zM107 222l34 -4h39l3 -5l-3 -5h-39l-34 -4l-5 9zM118 195l34 -4h43l3 -5l-3 -5h-43l-34 -4 l-5 9zM132 167l34 -4h50l3 -5l-3 -5h-50l-34 -4l-5 9zM150 140l34 -4h61l3 -5l-3 -5h-61l-34 -5l-5 10zM171 113l34 -4h78l8 -5l-3 -5h-83l-34 -4l-5 9zM310 32l34 -4h113l3 -5l-3 -5h-147l-5 5zM303 655h149l3 -5l-3 -5h-115l-34 -4l-5 9zM247 59l34 -4h240l3 -5l-3 -5 h-240l-34 -4l-5 9zM612 536h-98l-3 5l3 5h98l3 -5zM629 509h-86l-3 5l3 5h86l3 -5zM628 153h-86l-3 5l3 5h86l3 -5zM611 126h-94l-3 5l3 5h94l3 -5zM590 99h-120l-3 5l8 5h115l3 -5zM667 399h-70l-3 5l3 5h70l3 -5zM672 372h-70l-3 5l3 5h70l3 -5zM673 345h-69l-3 5l3 5h69 l3 -5zM673 317h-69l-3 5l3 5h69l3 -5zM670 290h-68l-3 5l3 5h68l3 -5zM667 263h-70l-3 5l3 5h70l3 -5zM661 235h-74l-3 5l3 5h74l3 -5zM653 208h-75l-3 5l3 5h75l3 -5zM642 181h-80l-3 5l3 5h80l3 -5z" />
<glyph unicode="&#xd5;" horiz-adv-x="750" d="M273 707l33 -4h162l3 -5l-3 -4h-162l-33 -4l-5 8zM287 730l33 -4h160l3 -5l-3 -4h-160l-33 -4l-5 8zM450 753l34 -1l3 -5l-3 -5l-34 -4l-5 9zM165 577l34 -4h80l3 -5l-9 -5h-74l-34 -4l-5 9zM591 563h-113l-9 5l3 5h119l3 -5zM112 495l34 -4h47l3 -5l-3 -5h-47l-34 -4 l-5 9zM642 481h-78l-3 5l3 5h78l3 -5zM102 468l34 -4h42l3 -5l-3 -5h-42l-34 -5l-5 10zM94 441l34 -4h41l3 -5l-3 -5h-37l-34 -4l-5 9zM202 86l34 -4h324l3 -5l-3 -5h-324l-34 -4l-5 9zM653 454h-76l-3 5l3 5h76l3 -5zM660 427h-72l-3 5l3 5h72l3 -5zM233 632l34 -4h256 l3 -5l-3 -5h-256l-34 -4l-5 9zM193 605l34 -4h332l3 -5l-3 -5h-332l-34 -4l-5 9zM143 550l34 -4h60l3 -5l-3 -5h-60l-34 -4l-5 9zM126 523l34 -4h53l3 -5l-3 -5h-53l-34 -4l-5 9zM92 412l24 -3h45l3 -5l-3 -5h-45l-24 -4l-5 9zM88 386l34 -4h33l3 -5l-3 -5h-33l-34 -4l-5 9z M86 359l34 -4h33l3 -5l-3 -5h-33l-34 -4l-5 9zM86 331l34 -4h33l3 -5l-3 -5h-33l-34 -4l-5 9zM88 304l34 -4h33l3 -5l-3 -5h-33l-34 -4l-5 9zM92 277l30 -4h39l3 -5l-3 -5h-39l-29 -4l-5 9zM98 249l34 -4h37l3 -5l-3 -5h-37l-34 -4l-5 9zM107 222l34 -4h39l3 -5l-3 -5h-39 l-34 -4l-5 9zM118 195l34 -4h43l3 -5l-3 -5h-43l-34 -4l-5 9zM132 167l34 -4h50l3 -5l-3 -5h-50l-34 -4l-5 9zM150 140l34 -4h61l3 -5l-3 -5h-61l-34 -5l-5 10zM171 113l34 -4h78l8 -5l-3 -5h-83l-34 -4l-5 9zM310 32l34 -4h113l3 -5l-3 -5h-147l-5 5zM303 655h149l3 -5 l-3 -5h-115l-34 -4l-5 9zM247 59l34 -4h240l3 -5l-3 -5h-240l-34 -4l-5 9zM612 536h-98l-3 5l3 5h98l3 -5zM629 509h-86l-3 5l3 5h86l3 -5zM628 153h-86l-3 5l3 5h86l3 -5zM611 126h-94l-3 5l3 5h94l3 -5zM590 99h-120l-3 5l8 5h115l3 -5zM667 399h-70l-3 5l3 5h70l3 -5z M672 372h-70l-3 5l3 5h70l3 -5zM673 345h-69l-3 5l3 5h69l3 -5zM673 317h-69l-3 5l3 5h69l3 -5zM670 290h-68l-3 5l3 5h68l3 -5zM667 263h-70l-3 5l3 5h70l3 -5zM661 235h-74l-3 5l3 5h74l3 -5zM653 208h-75l-3 5l3 5h75l3 -5zM642 181h-80l-3 5l3 5h80l3 -5z" />
<glyph unicode="&#xd6;" horiz-adv-x="750" d="M246 724h60l3 -5l-3 -5h-27l-33 -4l-5 9zM436 724h60l3 -5l-3 -5h-27l-33 -4l-5 9zM246 701l33 -4h17l3 -5l-3 -5h-17l-33 -4l-5 9zM446 701l33 -4h17l3 -5l-3 -5h-50l-5 5zM165 577l34 -4h80l3 -5l-9 -5h-74l-34 -4l-5 9zM591 563h-113l-9 5l3 5h119l3 -5zM112 495 l34 -4h47l3 -5l-3 -5h-47l-34 -4l-5 9zM642 481h-78l-3 5l3 5h78l3 -5zM102 468l34 -4h42l3 -5l-3 -5h-42l-34 -5l-5 10zM94 441l34 -4h41l3 -5l-3 -5h-37l-34 -4l-5 9zM202 86l34 -4h324l3 -5l-3 -5h-324l-34 -4l-5 9zM653 454h-76l-3 5l3 5h76l3 -5zM660 427h-72l-3 5l3 5 h72l3 -5zM233 632l34 -4h256l3 -5l-3 -5h-256l-34 -4l-5 9zM193 605l34 -4h332l3 -5l-3 -5h-332l-34 -4l-5 9zM143 550l34 -4h60l3 -5l-3 -5h-60l-34 -4l-5 9zM126 523l34 -4h53l3 -5l-3 -5h-53l-34 -4l-5 9zM92 412l24 -3h45l3 -5l-3 -5h-45l-24 -4l-5 9zM88 386l34 -4h33 l3 -5l-3 -5h-33l-34 -4l-5 9zM86 359l34 -4h33l3 -5l-3 -5h-33l-34 -4l-5 9zM86 331l34 -4h33l3 -5l-3 -5h-33l-34 -4l-5 9zM88 304l34 -4h33l3 -5l-3 -5h-33l-34 -4l-5 9zM92 277l30 -4h39l3 -5l-3 -5h-39l-29 -4l-5 9zM98 249l34 -4h37l3 -5l-3 -5h-37l-34 -4l-5 9z M107 222l34 -4h39l3 -5l-3 -5h-39l-34 -4l-5 9zM118 195l34 -4h43l3 -5l-3 -5h-43l-34 -4l-5 9zM132 167l34 -4h50l3 -5l-3 -5h-50l-34 -4l-5 9zM150 140l34 -4h61l3 -5l-3 -5h-61l-34 -5l-5 10zM171 113l34 -4h78l8 -5l-3 -5h-83l-34 -4l-5 9zM310 32l34 -4h113l3 -5l-3 -5 h-147l-5 5zM303 655h149l3 -5l-3 -5h-115l-34 -4l-5 9zM247 59l34 -4h240l3 -5l-3 -5h-240l-34 -4l-5 9zM612 536h-98l-3 5l3 5h98l3 -5zM629 509h-86l-3 5l3 5h86l3 -5zM628 153h-86l-3 5l3 5h86l3 -5zM611 126h-94l-3 5l3 5h94l3 -5zM590 99h-120l-3 5l8 5h115l3 -5z M667 399h-70l-3 5l3 5h70l3 -5zM672 372h-70l-3 5l3 5h70l3 -5zM673 345h-69l-3 5l3 5h69l3 -5zM673 317h-69l-3 5l3 5h69l3 -5zM670 290h-68l-3 5l3 5h68l3 -5zM667 263h-70l-3 5l3 5h70l3 -5zM661 235h-74l-3 5l3 5h74l3 -5zM653 208h-75l-3 5l3 5h75l3 -5zM642 181h-80 l-3 5l3 5h80l3 -5z" />
<glyph unicode="&#xd7;" d="M442 99l-39 -38l-153 152l-153 -152l-39 38l153 153l-153 154l38 39l154 -154l154 154l38 -39l-153 -154z" />
<glyph unicode="&#xd8;" horiz-adv-x="750" d="M138 86l34 -4h388l3 -5l-3 -5h-388l-34 -4l-5 9zM193 605l34 -4h373l3 -5l-3 -5h-373l-34 -4l-5 9zM119 59l34 -4h368l3 -5l-3 -5h-368l-34 -4l-5 9zM233 632l34 -4h351l3 -5l-3 -5h-351l-34 -4l-5 9zM118 195l34 -4h148l3 -5l-3 -5h-148l-34 -4l-5 9zM629 509h-178l-3 5 l3 5h178l3 -5zM132 167l34 -4h114l3 -5l-3 -5h-114l-34 -4l-5 9zM303 655h149l3 -5l-3 -5h-115l-34 -4l-5 9zM310 32l34 -4h113l3 -5l-3 -5h-147l-5 5zM612 536h-142l-3 5l3 5h142l3 -5zM171 113l34 -4h78l8 -5l-3 -5h-83l-34 -4l-5 9zM150 140l34 -4h77l3 -5l-3 -5h-77 l-34 -5l-5 10zM165 577l34 -4h80l3 -5l-9 -5h-74l-34 -4l-5 9zM590 99h-120l-3 5l8 5h115l3 -5zM591 563h-113l-9 5l3 5h119l3 -5zM143 550l34 -4h60l3 -5l-3 -5h-60l-34 -4l-5 9zM126 523l34 -4h53l3 -5l-3 -5h-53l-34 -4l-5 9zM100 32l34 -4h48l3 -5l-3 -5h-48l-34 -4 l-5 9zM112 495l34 -4h47l3 -5l-3 -5h-47l-34 -4l-5 9zM102 468l34 -4h42l3 -5l-3 -5h-42l-34 -5l-5 10zM611 126h-94l-3 5l3 5h94l3 -5zM547 655h92l3 -5l-3 -5h-92l-3 5zM107 222l34 -4h39l3 -5l-3 -5h-39l-34 -4l-5 9zM94 441l34 -4h41l3 -5l-3 -5h-37l-34 -4l-5 9z M98 249l34 -4h37l3 -5l-3 -5h-37l-34 -4l-5 9zM628 153h-86l-3 5l3 5h86l3 -5zM88 386l34 -4h33l3 -5l-3 -5h-33l-34 -4l-5 9zM86 359l34 -4h33l3 -5l-3 -5h-33l-34 -4l-5 9zM86 331l34 -4h33l3 -5l-3 -5h-33l-34 -4l-5 9zM88 304l34 -4h33l3 -5l-3 -5h-33l-34 -4l-5 9z M92 277l30 -4h39l3 -5l-3 -5h-39l-29 -4l-5 9zM277 272h82l3 -5l-3 -5h-82l-3 5zM394 434h82l3 -5l-3 -5h-82l-3 5zM315 326h82l3 -5l-3 -5h-82l-3 5zM374 407h82l3 -5l-3 -5h-82l-3 5zM335 353h82l3 -5l-3 -5h-82l-3 5zM354 380h82l3 -5l-3 -5h-82l-3 5zM414 461h82l3 -5 l-3 -5h-82l-3 5zM433 488h82l3 -5l-3 -5h-82l-3 5zM296 299h82l3 -5l-3 -5h-82l-3 5zM257 245h82l3 -5l-3 -5h-82l-3 5zM236 218h82l3 -5l-3 -5h-82l-3 5zM92 412l24 -3h45l3 -5l-3 -5h-45l-24 -4l-5 9zM642 181h-80l-3 5l3 5h80l3 -5zM642 481h-78l-3 5l3 5h78l3 -5z M653 454h-76l-3 5l3 5h76l3 -5zM653 208h-75l-3 5l3 5h75l3 -5zM661 235h-74l-3 5l3 5h74l3 -5zM660 427h-72l-3 5l3 5h72l3 -5zM672 372h-70l-3 5l3 5h70l3 -5zM667 263h-70l-3 5l3 5h70l3 -5zM667 399h-70l-3 5l3 5h70l3 -5zM673 317h-69l-3 5l3 5h69l3 -5zM673 345h-69 l-3 5l3 5h69l3 -5zM670 290h-68l-3 5l3 5h68l3 -5z" />
<glyph unicode="&#xd9;" horiz-adv-x="779" d="M176 110l34 -4h76l8 -5l-3 -5h-81l-34 -4l-5 9zM608 96h-119l-3 5l8 5h114l3 -5zM127 510l33 -4h27l3 -5l-3 -5h-27l-33 -4l-5 9zM127 482l33 -4h27l3 -5l-3 -5h-27l-33 -4l-5 9zM654 496h-62l-3 5l3 5h62l3 -5zM654 468h-62l-3 5l3 5h62l3 -5zM127 642h60l3 -5l-3 -5 h-27l-33 -4l-5 9zM127 619l33 -4h27l3 -5l-3 -5h-27l-33 -4l-5 9zM127 592l33 -4h27l3 -5l-3 -5h-27l-33 -4l-5 9zM127 564l33 -4h27l3 -5l-3 -5h-27l-33 -4l-5 9zM127 537l33 -4h27l3 -5l-3 -5h-27l-33 -4l-5 9zM127 455l33 -4h27l3 -5l-3 -5h-27l-33 -5l-5 10zM127 428 l33 -4h27l3 -5l-3 -5h-27l-33 -4l-5 9zM127 399l33 -3h27l3 -5l-3 -5h-27l-33 -4l-5 9zM127 373l33 -4h27l3 -5l-3 -5h-27l-33 -4l-5 9zM127 347l33 -4h27l3 -5l-3 -5h-27l-33 -4l-5 9zM127 320l33 -4h27l3 -5l-3 -5h-27l-33 -4l-5 9zM127 294l33 -4h27l3 -5l-3 -5h-27 l-33 -4l-5 9zM127 268l33 -4h27l3 -5l-3 -5h-27l-33 -4l-5 9zM654 605h-62l-3 5l3 5h62l3 -5zM654 578h-62l-3 5l3 5h62l3 -5zM654 550h-62l-3 5l3 5h62l3 -5zM654 523h-62l-3 5l3 5h62l3 -5zM654 441h-62l-3 5l3 5h62l3 -5zM654 414h-62l-3 5l3 5h62l3 -5zM654 386h-62 l-3 5l3 5h62l3 -5zM654 359h-62l-3 5l3 5h62l3 -5zM654 333h-62l-3 5l3 5h62l3 -5zM654 306h-62l-3 5l3 5h62l3 -5zM654 280h-62l-3 5l3 5h62l3 -5zM654 254h-62l-3 5l3 5h62l3 -5zM654 227h-61l-4 5l4 5h61l3 -5zM651 201h-63l-3 5l3 5h63l3 -5zM646 175h-68l-3 5l3 5h68 l3 -5zM637 148h-74l-3 5l3 5h74l3 -5zM625 122h-87l-3 5l3 5h87l3 -5zM654 632h-62l-3 5l3 5h62l3 -5zM127 241l34 -4h27l3 -5l-3 -5h-27l-34 -4l-5 9zM130 215l34 -4h28l3 -5l-3 -5h-28l-34 -4l-5 9zM135 189l34 -4h33l3 -5l-3 -5h-33l-34 -4l-5 9zM144 162l34 -4h41l3 -5 l-3 -5h-41l-34 -4l-5 9zM156 136l34 -4h52l3 -5l-3 -5h-52l-34 -5l-5 10zM204 84l34 -4h345l3 -5l-3 -5h-345l-34 -4l-5 9zM310 32l34 -4h134l3 -5l-3 -5h-168l-5 5zM245 58l34 -4h262l3 -5l-3 -5h-262l-34 -4l-5 9zM381 687h-69l-5 5l5 9l33 -4h36l3 -5zM291 724h71l3 -5 l-3 -5h-38l-33 -4l-5 9z" />
<glyph unicode="&#xda;" horiz-adv-x="779" d="M176 110l34 -4h76l8 -5l-3 -5h-81l-34 -4l-5 9zM608 96h-119l-3 5l8 5h114l3 -5zM127 510l33 -4h27l3 -5l-3 -5h-27l-33 -4l-5 9zM127 482l33 -4h27l3 -5l-3 -5h-27l-33 -4l-5 9zM654 496h-62l-3 5l3 5h62l3 -5zM654 468h-62l-3 5l3 5h62l3 -5zM127 642h60l3 -5l-3 -5 h-27l-33 -4l-5 9zM127 619l33 -4h27l3 -5l-3 -5h-27l-33 -4l-5 9zM127 592l33 -4h27l3 -5l-3 -5h-27l-33 -4l-5 9zM127 564l33 -4h27l3 -5l-3 -5h-27l-33 -4l-5 9zM127 537l33 -4h27l3 -5l-3 -5h-27l-33 -4l-5 9zM127 455l33 -4h27l3 -5l-3 -5h-27l-33 -5l-5 10zM127 428 l33 -4h27l3 -5l-3 -5h-27l-33 -4l-5 9zM127 399l33 -3h27l3 -5l-3 -5h-27l-33 -4l-5 9zM127 373l33 -4h27l3 -5l-3 -5h-27l-33 -4l-5 9zM127 347l33 -4h27l3 -5l-3 -5h-27l-33 -4l-5 9zM127 320l33 -4h27l3 -5l-3 -5h-27l-33 -4l-5 9zM127 294l33 -4h27l3 -5l-3 -5h-27 l-33 -4l-5 9zM127 268l33 -4h27l3 -5l-3 -5h-27l-33 -4l-5 9zM654 605h-62l-3 5l3 5h62l3 -5zM654 578h-62l-3 5l3 5h62l3 -5zM654 550h-62l-3 5l3 5h62l3 -5zM654 523h-62l-3 5l3 5h62l3 -5zM654 441h-62l-3 5l3 5h62l3 -5zM654 414h-62l-3 5l3 5h62l3 -5zM654 386h-62 l-3 5l3 5h62l3 -5zM654 359h-62l-3 5l3 5h62l3 -5zM654 333h-62l-3 5l3 5h62l3 -5zM654 306h-62l-3 5l3 5h62l3 -5zM654 280h-62l-3 5l3 5h62l3 -5zM654 254h-62l-3 5l3 5h62l3 -5zM654 227h-61l-4 5l4 5h61l3 -5zM651 201h-63l-3 5l3 5h63l3 -5zM646 175h-68l-3 5l3 5h68 l3 -5zM637 148h-74l-3 5l3 5h74l3 -5zM625 122h-87l-3 5l3 5h87l3 -5zM654 632h-62l-3 5l3 5h62l3 -5zM127 241l34 -4h27l3 -5l-3 -5h-27l-34 -4l-5 9zM130 215l34 -4h28l3 -5l-3 -5h-28l-34 -4l-5 9zM135 189l34 -4h33l3 -5l-3 -5h-33l-34 -4l-5 9zM144 162l34 -4h41l3 -5 l-3 -5h-41l-34 -4l-5 9zM156 136l34 -4h52l3 -5l-3 -5h-52l-34 -5l-5 10zM204 84l34 -4h345l3 -5l-3 -5h-345l-34 -4l-5 9zM310 32l34 -4h134l3 -5l-3 -5h-168l-5 5zM245 58l34 -4h262l3 -5l-3 -5h-262l-34 -4l-5 9zM435 687h-69l-5 5l5 9l33 -4h36l3 -5zM385 724h71l3 -5 l-3 -5h-38l-33 -4l-5 9z" />
<glyph unicode="&#xdb;" horiz-adv-x="779" d="M176 110l34 -4h76l8 -5l-3 -5h-81l-34 -4l-5 9zM608 96h-119l-3 5l8 5h114l3 -5zM127 510l33 -4h27l3 -5l-3 -5h-27l-33 -4l-5 9zM127 482l33 -4h27l3 -5l-3 -5h-27l-33 -4l-5 9zM654 496h-62l-3 5l3 5h62l3 -5zM654 468h-62l-3 5l3 5h62l3 -5zM204 84l34 -4h345l3 -5 l-3 -5h-345l-34 -4l-5 9zM245 58l34 -4h262l3 -5l-3 -5h-262l-34 -4l-5 9zM310 32l34 -4h134l3 -5l-3 -5h-168l-5 5zM318 724h106l3 -5l-3 -5h-73l-33 -4l-5 9zM156 136l34 -4h52l3 -5l-3 -5h-52l-34 -5l-5 10zM144 162l34 -4h41l3 -5l-3 -5h-41l-34 -4l-5 9zM625 122h-87 l-3 5l3 5h87l3 -5zM135 189l34 -4h33l3 -5l-3 -5h-33l-34 -4l-5 9zM130 215l34 -4h28l3 -5l-3 -5h-28l-34 -4l-5 9zM127 455l33 -4h27l3 -5l-3 -5h-27l-33 -5l-5 10zM127 241l34 -4h27l3 -5l-3 -5h-27l-34 -4l-5 9zM127 592l33 -4h27l3 -5l-3 -5h-27l-33 -4l-5 9zM127 428 l33 -4h27l3 -5l-3 -5h-27l-33 -4l-5 9zM127 373l33 -4h27l3 -5l-3 -5h-27l-33 -4l-5 9zM127 347l33 -4h27l3 -5l-3 -5h-27l-33 -4l-5 9zM127 320l33 -4h27l3 -5l-3 -5h-27l-33 -4l-5 9zM127 619l33 -4h27l3 -5l-3 -5h-27l-33 -4l-5 9zM127 294l33 -4h27l3 -5l-3 -5h-27 l-33 -4l-5 9zM127 268l33 -4h27l3 -5l-3 -5h-27l-33 -4l-5 9zM127 564l33 -4h27l3 -5l-3 -5h-27l-33 -4l-5 9zM127 537l33 -4h27l3 -5l-3 -5h-27l-33 -4l-5 9zM127 399l33 -3h27l3 -5l-3 -5h-27l-33 -4l-5 9zM637 148h-74l-3 5l3 5h74l3 -5zM359 697l-8 -10h-22l-33 -4l-5 9 l5 9l33 -4h30zM127 642h60l3 -5l-3 -5h-27l-33 -4l-5 9zM646 175h-68l-3 5l3 5h68l3 -5zM651 201h-63l-3 5l3 5h63l3 -5zM654 333h-62l-3 5l3 5h62l3 -5zM654 578h-62l-3 5l3 5h62l3 -5zM654 280h-62l-3 5l3 5h62l3 -5zM654 523h-62l-3 5l3 5h62l3 -5zM654 306h-62l-3 5l3 5 h62l3 -5zM654 550h-62l-3 5l3 5h62l3 -5zM654 441h-62l-3 5l3 5h62l3 -5zM654 386h-62l-3 5l3 5h62l3 -5zM654 414h-62l-3 5l3 5h62l3 -5zM654 359h-62l-3 5l3 5h62l3 -5zM654 254h-62l-3 5l3 5h62l3 -5zM654 605h-62l-3 5l3 5h62l3 -5zM654 632h-62l-3 5l3 5h62l3 -5z M654 227h-61l-4 5l4 5h61l3 -5zM386 687l-8 10h65l3 -5l-3 -5h-57z" />
<glyph unicode="&#xdc;" horiz-adv-x="779" d="M263 724h60l3 -5l-3 -5h-27l-33 -4l-5 9zM456 724h60l3 -5l-3 -5h-27l-33 -4l-5 9zM176 110l34 -4h76l8 -5l-3 -5h-81l-34 -4l-5 9zM608 96h-119l-3 5l8 5h114l3 -5zM127 510l33 -4h27l3 -5l-3 -5h-27l-33 -4l-5 9zM127 482l33 -4h27l3 -5l-3 -5h-27l-33 -4l-5 9z M654 468h-62l-3 5l3 5h62l3 -5zM654 496h-62l-3 5l3 5h62l3 -5zM204 84l34 -4h345l3 -5l-3 -5h-345l-34 -4l-5 9zM245 58l34 -4h262l3 -5l-3 -5h-262l-34 -4l-5 9zM310 32l34 -4h134l3 -5l-3 -5h-168l-5 5zM156 136l34 -4h52l3 -5l-3 -5h-52l-34 -5l-5 10zM144 162l34 -4h41 l3 -5l-3 -5h-41l-34 -4l-5 9zM625 122h-87l-3 5l3 5h87l3 -5zM135 189l34 -4h33l3 -5l-3 -5h-33l-34 -4l-5 9zM130 215l34 -4h28l3 -5l-3 -5h-28l-34 -4l-5 9zM127 455l33 -4h27l3 -5l-3 -5h-27l-33 -5l-5 10zM127 241l34 -4h27l3 -5l-3 -5h-27l-34 -4l-5 9zM127 294l33 -4 h27l3 -5l-3 -5h-27l-33 -4l-5 9zM127 268l33 -4h27l3 -5l-3 -5h-27l-33 -4l-5 9zM127 619l33 -4h27l3 -5l-3 -5h-27l-33 -4l-5 9zM127 592l33 -4h27l3 -5l-3 -5h-27l-33 -4l-5 9zM127 428l33 -4h27l3 -5l-3 -5h-27l-33 -4l-5 9zM127 373l33 -4h27l3 -5l-3 -5h-27l-33 -4 l-5 9zM127 564l33 -4h27l3 -5l-3 -5h-27l-33 -4l-5 9zM127 537l33 -4h27l3 -5l-3 -5h-27l-33 -4l-5 9zM127 347l33 -4h27l3 -5l-3 -5h-27l-33 -4l-5 9zM127 320l33 -4h27l3 -5l-3 -5h-27l-33 -4l-5 9zM127 399l33 -3h27l3 -5l-3 -5h-27l-33 -4l-5 9zM637 148h-74l-3 5l3 5 h74l3 -5zM127 642h60l3 -5l-3 -5h-27l-33 -4l-5 9zM456 701l33 -4h27l3 -5l-3 -5h-60l-5 5zM646 175h-68l-3 5l3 5h68l3 -5zM263 701l33 -4h27l6 -5l-6 -5h-60l-2 5zM651 201h-63l-3 5l3 5h63l3 -5zM654 441h-62l-3 5l3 5h62l3 -5zM654 605h-62l-3 5l3 5h62l3 -5zM654 578 h-62l-3 5l3 5h62l3 -5zM654 254h-62l-3 5l3 5h62l3 -5zM654 414h-62l-3 5l3 5h62l3 -5zM654 280h-62l-3 5l3 5h62l3 -5zM654 523h-62l-3 5l3 5h62l3 -5zM654 333h-62l-3 5l3 5h62l3 -5zM654 632h-62l-3 5l3 5h62l3 -5zM654 386h-62l-3 5l3 5h62l3 -5zM654 359h-62l-3 5l3 5 h62l3 -5zM654 306h-62l-3 5l3 5h62l3 -5zM654 550h-62l-3 5l3 5h62l3 -5zM654 227h-61l-4 5l4 5h61l3 -5z" />
<glyph unicode="&#xdd;" horiz-adv-x="642" d="M334 687h-69l-5 5l5 9l33 -4h36l3 -5zM244 724h71l3 -5l-3 -5h-38l-33 -4l-5 9zM161 510l33 -4h48l3 -5l-3 -5h-48l-33 -4l-5 9zM181 482l33 -4h47l3 -5l-3 -5h-47l-33 -4l-5 9zM483 496h-81l-3 5l3 5h81l3 -5zM463 468h-79l-3 5l3 5h79l3 -5zM65 642h81l3 -5l-3 -5h-48 l-33 -4l-5 9zM84 619l33 -4h48l3 -5l-3 -5h-48l-33 -4l-5 9zM103 592l33 -4h48l3 -5l-3 -5h-48l-33 -4l-5 9zM123 564l33 -4h48l3 -5l-3 -5h-48l-33 -4l-5 9zM142 537l33 -4h48l3 -5l-3 -5h-48l-33 -4l-5 9zM201 455l33 -4h46l3 -5l-3 -5h-46l-33 -5l-5 10zM219 428l33 -4 h47l3 -5l-3 -5h-47l-33 -4l-5 9zM239 399l33 -3h133l3 -5l-3 -5h-133l-33 -4l-5 9zM258 373l33 -4h95l3 -5l-3 -5h-95l-33 -4l-5 9zM277 346l33 -4h57l3 -5l-3 -5h-57l-33 -4l-5 9zM560 605h-84l-3 5l3 5h84l3 -5zM541 578h-84l-3 5l3 5h84l3 -5zM521 550h-82l-3 5l3 5h82 l3 -5zM502 523h-81l-3 5l3 5h81l3 -5zM444 441h-79l-3 5l3 5h79l3 -5zM425 414h-78l-3 5l3 5h78l3 -5zM579 632h-85l-3 5l3 5h85l3 -5zM292 318l33 -4h27l3 -5l-3 -5h-27l-33 -4l-5 9zM292 127l33 -4h27l3 -5l-3 -5h-27l-33 -5l-5 10zM292 291l33 -4h27l3 -5l-3 -5h-27 l-33 -4l-5 9zM292 264l33 -4h27l3 -5l-3 -5h-27l-33 -4l-5 9zM292 236l33 -4h27l3 -5l-3 -5h-27l-33 -4l-5 9zM292 209l33 -4h27l3 -5l-3 -5h-27l-33 -4l-5 9zM292 182l33 -4h27l3 -5l-3 -5h-27l-33 -4l-5 9zM292 154l33 -4h27l3 -5l-3 -5h-27l-33 -4l-5 9zM292 100l33 -4 h27l3 -5l-3 -5h-27l-33 -4l-5 9zM292 73l33 -4h27l3 -5l-3 -5h-27l-33 -4l-5 9zM292 46l33 -4h27l3 -5l-3 -5h-60l-5 5z" />
<glyph unicode="&#xde;" horiz-adv-x="641" d="M126 619l33 -4h27l3 -5l-3 -5h-27l-33 -4l-5 9zM126 182l33 -4h27l3 -5l-3 -5h-27l-33 -4l-5 9zM126 155l33 -4h27l3 -5l-3 -5h-27l-33 -4l-5 9zM126 510l33 -4h27l3 -5l-3 -5h-27l-33 -4l-5 9zM126 483l33 -4h27l3 -5l-3 -5h-27l-33 -4l-5 9zM126 292l33 -4h27l3 -5 l-3 -5h-27l-33 -4l-5 9zM527 496h-107l-8 5l3 5h112l3 -5zM539 469h-81l-3 5l3 5h81l3 -5zM126 592l280 -4l3 -5l-3 -5h-247l-33 -4l-5 9zM126 565l33 -4h312l3 -5l-3 -5h-312l-33 -4l-5 9zM126 538l33 -4h345l3 -5l-3 -5h-345l-33 -4l-5 9zM126 456l33 -4h27l3 -5l-3 -5 h-27l-33 -4l-5 9zM126 428l33 -4h27l3 -5l-3 -5h-27l-33 -4l-5 9zM126 401l33 -4h27l3 -5l-3 -5h-27l-33 -5l-5 10zM126 374l33 -4h27l3 -5l-3 -5h-27l-33 -4l-5 9zM126 345l33 -3h27l3 -5l-3 -5h-27l-33 -4l-5 9zM126 319l33 -4h27l3 -5l-3 -5h-27l-33 -4l-5 9zM126 264 l33 -4h345l3 -5l-3 -5h-345l-33 -4l-5 9zM126 237l33 -4h312l3 -5l-3 -5h-312l-33 -4l-5 9zM126 210l33 -4h247l3 -5l-3 -5h-247l-33 -4l-5 9zM126 128l33 -4h27l3 -5l-3 -5h-27l-33 -4l-5 9zM126 73l33 -4h27l3 -5l-3 -5h-27l-33 -4l-5 9zM126 46l33 -4h27l3 -5l-3 -5h-60 l-5 5zM548 442h-71l-3 5l3 5h71l3 -5zM553 414h-66l-3 5l3 5h66l3 -5zM555 387h-66l-3 5l3 5h66l3 -5zM553 360h-66l-3 5l3 5h66l3 -5zM548 332h-71l-3 5l3 5h71l3 -5zM539 305h-80l-3 5l3 5h80l3 -5zM527 278h-107l-3 5l8 5h102l3 -5zM126 101l33 -4h27l3 -5l-3 -5h-27 l-33 -4l-5 9zM126 642h60l3 -5l-3 -5h-27l-33 -4l-5 9z" />
<glyph unicode="&#xdf;" horiz-adv-x="1294" d="M150 577l34 -4h50l3 -5l-6 -5h-47l-34 -4l-5 9zM500 222l34 -4h36l3 -5l-3 -5h-36l-34 -4l-5 9zM556 563h-99l-8 5l3 5h104l3 -5zM172 605l34 -4h320l3 -5l-3 -5h-320l-34 -4l-5 9zM208 632l33 -4h245l3 -5l-3 -5h-245l-34 -4l-5 9zM136 550l34 -4h39l3 -5l-3 -5h-39 l-34 -4l-5 9zM129 523l34 -4h33l3 -5l-3 -5h-33l-34 -4l-5 9zM127 495l34 -4h34l3 -5l-3 -5h-34l-34 -4l-5 9zM129 468l34 -4h39l3 -5l-3 -5h-39l-34 -5l-5 10zM137 441l34 -4h51l3 -5l-3 -5h-51l-34 -4l-5 9zM153 412l34 -3h86l3 -5l-3 -5h-86l-34 -4l-5 9zM175 386l34 -4 h156l3 -5l-3 -5h-156l-34 -4l-5 9zM214 359l34 -4h210l3 -5l-3 -5h-210l-34 -4l-5 9zM286 331l34 -4h187l3 -5l-3 -5h-187l-34 -4l-5 9zM386 304l34 -4h118l3 -5l-3 -5h-118l-34 -4l-5 9zM461 277l34 -4h60l3 -5l-3 -5h-60l-29 -4l-10 9zM489 249l34 -4h42l3 -5l-3 -5h-42 l-34 -4l-5 9zM502 195l36 -4h33l3 -5l-3 -5h-33l-36 -4l-5 9zM501 167l34 -4h32l3 -5l-3 -5h-32l-34 -4l-5 9zM486 140l34 -4h40l3 -5l-3 -5h-40l-34 -5l-5 10zM462 113l29 -4h54l3 -5l-3 -5h-54l-34 -4l-5 9zM137 86l34 -4h346l3 -5l-3 -5h-346l-34 -4l-5 9zM253 32l34 -4 h126l3 -5l-3 -5h-160l-5 5zM258 655h165l3 -5l-3 -5h-131l-34 -4l-5 9zM179 59l34 -4h264l3 -5l-3 -5h-264l-34 -4l-5 9zM101 113l34 -4h76l8 -5l-3 -5h-81l-34 -4l-5 9zM118 140l34 -4h17l8 -5l-3 -5h-22l-34 -5l-5 10zM540 536h-45l-4 5l3 5h46l3 -5zM519 514h-8l-3 5l3 5 h8l3 -5zM148 153l-8 -3l-3 8l3 8l8 -3l3 -5zM787 577l34 -4h50l3 -5l-6 -5h-47l-34 -4l-5 9zM1137 222l34 -4h36l3 -5l-3 -5h-36l-34 -4l-5 9zM1193 563h-99l-8 5l3 5h104l3 -5zM809 605l34 -4h320l3 -5l-3 -5h-320l-34 -4l-5 9zM845 632l33 -4h245l3 -5l-3 -5h-245l-34 -4 l-5 9zM773 550l34 -4h39l3 -5l-3 -5h-39l-34 -4l-5 9zM766 523l34 -4h33l3 -5l-3 -5h-33l-34 -4l-5 9zM764 495l34 -4h34l3 -5l-3 -5h-34l-34 -4l-5 9zM766 468l34 -4h39l3 -5l-3 -5h-39l-34 -5l-5 10zM774 441l34 -4h51l3 -5l-3 -5h-51l-34 -4l-5 9zM790 412l34 -3h86l3 -5 l-3 -5h-86l-34 -4l-5 9zM812 386l34 -4h156l3 -5l-3 -5h-156l-34 -4l-5 9zM851 359l34 -4h210l3 -5l-3 -5h-210l-34 -4l-5 9zM923 331l34 -4h187l3 -5l-3 -5h-187l-34 -4l-5 9zM1023 304l34 -4h118l3 -5l-3 -5h-118l-34 -4l-5 9zM1098 277l34 -4h60l3 -5l-3 -5h-60l-29 -4 l-10 9zM1126 249l34 -4h42l3 -5l-3 -5h-42l-34 -4l-5 9zM1139 195l36 -4h33l3 -5l-3 -5h-33l-36 -4l-5 9zM1138 167l34 -4h32l3 -5l-3 -5h-32l-34 -4l-5 9zM1123 140l34 -4h40l3 -5l-3 -5h-40l-34 -5l-5 10zM1099 113l29 -4h54l3 -5l-3 -5h-54l-34 -4l-5 9zM774 86l34 -4 h346l3 -5l-3 -5h-346l-34 -4l-5 9zM890 32l34 -4h126l3 -5l-3 -5h-160l-5 5zM895 655h165l3 -5l-3 -5h-131l-34 -4l-5 9zM816 59l34 -4h264l3 -5l-3 -5h-264l-34 -4l-5 9zM738 113l34 -4h76l8 -5l-3 -5h-81l-34 -4l-5 9zM755 140l34 -4h17l8 -5l-3 -5h-22l-34 -5l-5 10z M1177 536h-45l-4 5l3 5h46l3 -5zM1156 514h-8l-3 5l3 5h8l3 -5zM785 153l-8 -3l-3 8l3 8l8 -3l3 -5z" />
<glyph unicode="&#xe0;" horiz-adv-x="675" d="M495 178h69l3 -5l-3 -5h-69l-3 5zM146 168l-33 -4l-5 9l5 9l33 -4h36l3 -5l-3 -5h-36zM454 288h70l3 -5l-3 -5h-70l-3 5zM186 278l-33 -3l-5 8l5 9l33 -4h37l3 -5l-3 -5h-37zM360 687h-69l-5 5l5 9l33 -4h36l3 -5zM382 479h71l3 -5l-3 -5h-71l-3 5zM372 506h71l3 -5 l-3 -5h-71l-3 5zM196 305l-33 -4l-5 9l5 9l33 -4h37l3 -5l-3 -5h-37zM257 469l-33 -4l-5 9l5 9l33 -4h38l3 -5l-3 -5h-38zM266 496l-33 -4l-5 9l5 9l33 -4h39l3 -5l-3 -5h-39zM270 724h71l3 -5l-3 -5h-38l-33 -4l-5 9zM535 69h69l3 -5l-3 -5h-69l-3 5zM525 96h69l3 -5l-3 -5 h-69l-3 5zM515 124h69l3 -5l-3 -5h-69l-3 5zM505 151h69l3 -5l-3 -5h-69l-3 5zM443 315h71l3 -5l-3 -5h-71l-3 5zM434 342h70l3 -5l-3 -5h-70l-3 5zM423 370h71l3 -5l-3 -5h-71l-3 5zM413 397h70l3 -5l-3 -5h-70l-3 5zM403 424h70l3 -5l-3 -5h-70l-3 5zM392 452h71l3 -5 l-3 -5h-71l-3 5zM362 534h71l3 -5l-3 -5h-71l-3 5zM351 561h72l3 -5l-3 -5h-72l-3 5zM545 42h69l3 -5l-3 -5h-69l-3 5zM130 32h-67l-5 5l5 9l33 -4h34l3 -5zM106 59l-33 -4l-5 9l5 9l33 -4h35l3 -5l-3 -5h-35zM116 86l-33 -4l-5 9l5 9l33 -4h35l3 -5l-3 -5h-35zM126 114 l-33 -4l-5 9l5 9l33 -4h36l3 -5l-3 -5h-36zM136 141l-33 -4l-5 9l5 9l33 -4h36l3 -5l-3 -5h-36zM206 332l-33 -4l-5 9l5 9l33 -4h37l3 -5l-3 -5h-37zM217 360l-33 -4l-5 9l5 9l33 -4h36l3 -5l-3 -5h-36zM227 387l-33 -4l-5 9l5 9l33 -4h36l3 -5l-3 -5h-36zM236 414l-33 -4 l-5 9l5 9l33 -4h38l3 -5l-3 -5h-38zM247 442l-33 -4l-5 9l5 9l33 -4h37l3 -5l-3 -5h-37zM277 524l-33 -4l-5 9l5 9l33 -4h38l3 -5l-3 -5h-38zM287 551l-33 -4l-5 9l5 10l33 -5h38l3 -5l-3 -5h-38zM297 578l-33 -4l-5 9l5 9l33 -4h116l3 -5l-3 -5h-116zM307 605l-33 -4l-5 9 l5 9l33 -4h96l3 -5l-3 -5h-96zM316 632l-33 -4l-5 9l5 5h111l3 -5l-3 -5h-78zM156 196l-33 -4l-5 9l5 9l33 -4h398l3 -5l-3 -5h-398zM166 223l-33 -4l-5 9l5 10l33 -5h378l3 -5l-3 -5h-378zM176 250l-33 -4l-5 9l5 9l33 -4h358l3 -5l-3 -5h-358z" />
<glyph unicode="&#xe1;" horiz-adv-x="675" d="M495 178h69l3 -5l-3 -5h-69l-3 5zM146 168l-33 -4l-5 9l5 9l33 -4h36l3 -5l-3 -5h-36zM454 288h70l3 -5l-3 -5h-70l-3 5zM186 278l-33 -3l-5 8l5 9l33 -4h37l3 -5l-3 -5h-37zM382 687h-69l-5 5l5 9l33 -4h36l3 -5zM382 479h71l3 -5l-3 -5h-71l-3 5zM372 506h71l3 -5 l-3 -5h-71l-3 5zM196 305l-33 -4l-5 9l5 9l33 -4h37l3 -5l-3 -5h-37zM257 469l-33 -4l-5 9l5 9l33 -4h38l3 -5l-3 -5h-38zM266 496l-33 -4l-5 9l5 9l33 -4h39l3 -5l-3 -5h-39zM332 724h71l3 -5l-3 -5h-38l-33 -4l-5 9zM535 69h69l3 -5l-3 -5h-69l-3 5zM525 96h69l3 -5l-3 -5 h-69l-3 5zM515 124h69l3 -5l-3 -5h-69l-3 5zM505 151h69l3 -5l-3 -5h-69l-3 5zM443 315h71l3 -5l-3 -5h-71l-3 5zM434 342h70l3 -5l-3 -5h-70l-3 5zM423 370h71l3 -5l-3 -5h-71l-3 5zM413 397h70l3 -5l-3 -5h-70l-3 5zM403 424h70l3 -5l-3 -5h-70l-3 5zM392 452h71l3 -5 l-3 -5h-71l-3 5zM362 534h71l3 -5l-3 -5h-71l-3 5zM351 561h72l3 -5l-3 -5h-72l-3 5zM545 42h69l3 -5l-3 -5h-69l-3 5zM130 32h-67l-5 5l5 9l33 -4h34l3 -5zM106 59l-33 -4l-5 9l5 9l33 -4h35l3 -5l-3 -5h-35zM116 86l-33 -4l-5 9l5 9l33 -4h35l3 -5l-3 -5h-35zM126 114 l-33 -4l-5 9l5 9l33 -4h36l3 -5l-3 -5h-36zM136 141l-33 -4l-5 9l5 9l33 -4h36l3 -5l-3 -5h-36zM206 332l-33 -4l-5 9l5 9l33 -4h37l3 -5l-3 -5h-37zM217 360l-33 -4l-5 9l5 9l33 -4h36l3 -5l-3 -5h-36zM227 387l-33 -4l-5 9l5 9l33 -4h36l3 -5l-3 -5h-36zM236 414l-33 -4 l-5 9l5 9l33 -4h38l3 -5l-3 -5h-38zM247 442l-33 -4l-5 9l5 9l33 -4h37l3 -5l-3 -5h-37zM277 524l-33 -4l-5 9l5 9l33 -4h38l3 -5l-3 -5h-38zM287 551l-33 -4l-5 9l5 10l33 -5h38l3 -5l-3 -5h-38zM297 578l-33 -4l-5 9l5 9l33 -4h116l3 -5l-3 -5h-116zM307 605l-33 -4l-5 9 l5 9l33 -4h96l3 -5l-3 -5h-96zM316 632l-33 -4l-5 9l5 5h111l3 -5l-3 -5h-78zM156 196l-33 -4l-5 9l5 9l33 -4h398l3 -5l-3 -5h-398zM166 223l-33 -4l-5 9l5 10l33 -5h378l3 -5l-3 -5h-378zM176 250l-33 -4l-5 9l5 9l33 -4h358l3 -5l-3 -5h-358z" />
<glyph unicode="&#xe2;" horiz-adv-x="675" d="M146 168l-33 -4l-5 9l5 9l33 -4h36l3 -5l-3 -5h-36zM495 178h69l3 -5l-3 -5h-69l-3 5zM186 278l-33 -3l-5 8l5 9l33 -4h37l3 -5l-3 -5h-37zM454 288h70l3 -5l-3 -5h-70l-3 5zM196 305l-33 -4l-5 9l5 9l33 -4h37l3 -5l-3 -5h-37zM266 496l-33 -4l-5 9l5 9l33 -4h39l3 -5 l-3 -5h-39zM257 469l-33 -4l-5 9l5 9l33 -4h38l3 -5l-3 -5h-38zM382 479h71l3 -5l-3 -5h-71l-3 5zM372 506h71l3 -5l-3 -5h-71l-3 5zM156 196l-33 -4l-5 9l5 9l33 -4h398l3 -5l-3 -5h-398zM166 223l-33 -4l-5 9l5 10l33 -5h378l3 -5l-3 -5h-378zM176 250l-33 -4l-5 9l5 9 l33 -4h358l3 -5l-3 -5h-358zM297 578l-33 -4l-5 9l5 9l33 -4h116l3 -5l-3 -5h-116zM263 687l-5 5l5 9l33 -4h114l3 -5l-3 -5h-147zM307 605l-33 -4l-5 9l5 9l33 -4h96l3 -5l-3 -5h-96zM316 632l-33 -4l-5 9l5 5h111l3 -5l-3 -5h-78zM285 724h106l3 -5l-3 -5h-73l-33 -4l-5 9 zM287 551l-33 -4l-5 9l5 10l33 -5h38l3 -5l-3 -5h-38zM236 414l-33 -4l-5 9l5 9l33 -4h38l3 -5l-3 -5h-38zM277 524l-33 -4l-5 9l5 9l33 -4h38l3 -5l-3 -5h-38zM206 332l-33 -4l-5 9l5 9l33 -4h37l3 -5l-3 -5h-37zM247 442l-33 -4l-5 9l5 9l33 -4h37l3 -5l-3 -5h-37z M136 141l-33 -4l-5 9l5 9l33 -4h36l3 -5l-3 -5h-36zM217 360l-33 -4l-5 9l5 9l33 -4h36l3 -5l-3 -5h-36zM126 114l-33 -4l-5 9l5 9l33 -4h36l3 -5l-3 -5h-36zM227 387l-33 -4l-5 9l5 9l33 -4h36l3 -5l-3 -5h-36zM106 59l-33 -4l-5 9l5 9l33 -4h35l3 -5l-3 -5h-35zM116 86 l-33 -4l-5 9l5 9l33 -4h35l3 -5l-3 -5h-35zM130 32h-67l-5 5l5 9l33 -4h34l3 -5zM351 561h72l3 -5l-3 -5h-72l-3 5zM443 315h71l3 -5l-3 -5h-71l-3 5zM423 370h71l3 -5l-3 -5h-71l-3 5zM392 452h71l3 -5l-3 -5h-71l-3 5zM362 534h71l3 -5l-3 -5h-71l-3 5zM434 342h70l3 -5 l-3 -5h-70l-3 5zM403 424h70l3 -5l-3 -5h-70l-3 5zM413 397h70l3 -5l-3 -5h-70l-3 5zM515 124h69l3 -5l-3 -5h-69l-3 5zM505 151h69l3 -5l-3 -5h-69l-3 5zM545 42h69l3 -5l-3 -5h-69l-3 5zM525 96h69l3 -5l-3 -5h-69l-3 5zM535 69h69l3 -5l-3 -5h-69l-3 5z" />
<glyph unicode="&#xe3;" horiz-adv-x="675" d="M156 196l-33 -4l-5 9l5 9l33 -4h398l3 -5l-3 -5h-398zM166 223l-33 -4l-5 9l5 10l33 -5h378l3 -5l-3 -5h-378zM176 250l-33 -4l-5 9l5 9l33 -4h358l3 -5l-3 -5h-358zM230 701l33 -4h164l3 -5l-3 -5h-164l-33 -4l-5 9zM246 729l33 -4h160l3 -5l-3 -5h-160l-33 -4l-5 9z M297 578l-33 -4l-5 9l5 9l33 -4h116l3 -5l-3 -5h-116zM307 605l-33 -4l-5 9l5 9l33 -4h96l3 -5l-3 -5h-96zM316 632l-33 -4l-5 9l5 5h111l3 -5l-3 -5h-78zM287 551l-33 -4l-5 9l5 10l33 -5h38l3 -5l-3 -5h-38zM266 496l-33 -4l-5 9l5 9l33 -4h39l3 -5l-3 -5h-39zM236 414 l-33 -4l-5 9l5 9l33 -4h38l3 -5l-3 -5h-38zM257 469l-33 -4l-5 9l5 9l33 -4h38l3 -5l-3 -5h-38zM277 524l-33 -4l-5 9l5 9l33 -4h38l3 -5l-3 -5h-38zM196 305l-33 -4l-5 9l5 9l33 -4h37l3 -5l-3 -5h-37zM206 332l-33 -4l-5 9l5 9l33 -4h37l3 -5l-3 -5h-37zM247 442l-33 -4 l-5 9l5 9l33 -4h37l3 -5l-3 -5h-37zM217 360l-33 -4l-5 9l5 9l33 -4h36l3 -5l-3 -5h-36zM227 387l-33 -4l-5 9l5 9l33 -4h36l3 -5l-3 -5h-36zM126 114l-33 -4l-5 9l5 9l33 -4h36l3 -5l-3 -5h-36zM136 141l-33 -4l-5 9l5 9l33 -4h36l3 -5l-3 -5h-36zM146 168l-33 -4l-5 9l5 9 l33 -4h36l3 -5l-3 -5h-36zM186 278l-33 -3l-5 8l5 9l33 -4h37l3 -5l-3 -5h-37zM106 59l-33 -4l-5 9l5 9l33 -4h35l3 -5l-3 -5h-35zM116 86l-33 -4l-5 9l5 9l33 -4h35l3 -5l-3 -5h-35zM130 32h-67l-5 5l5 9l33 -4h34l3 -5zM351 561h72l3 -5l-3 -5h-72l-3 5zM443 315h71l3 -5 l-3 -5h-71l-3 5zM372 506h71l3 -5l-3 -5h-71l-3 5zM423 370h71l3 -5l-3 -5h-71l-3 5zM392 452h71l3 -5l-3 -5h-71l-3 5zM382 479h71l3 -5l-3 -5h-71l-3 5zM362 534h71l3 -5l-3 -5h-71l-3 5zM454 288h70l3 -5l-3 -5h-70l-3 5zM434 342h70l3 -5l-3 -5h-70l-3 5zM413 397h70 l3 -5l-3 -5h-70l-3 5zM403 424h70l3 -5l-3 -5h-70l-3 5zM545 42h69l3 -5l-3 -5h-69l-3 5zM495 178h69l3 -5l-3 -5h-69l-3 5zM525 96h69l3 -5l-3 -5h-69l-3 5zM505 151h69l3 -5l-3 -5h-69l-3 5zM515 124h69l3 -5l-3 -5h-69l-3 5zM535 69h69l3 -5l-3 -5h-69l-3 5zM409 753 l34 -1l3 -5l-3 -5l-34 -4l-5 9zM245 659h-14l-5 6l5 9l14 -5l3 -5z" />
<glyph unicode="&#xe4;" horiz-adv-x="675" d="M403 724h60l3 -5l-3 -5h-27l-33 -4l-5 9zM266 496l-33 -4l-5 9l5 9l33 -4h39l3 -5l-3 -5h-39zM213 724h60l3 -5l-3 -5h-27l-33 -4l-5 9zM257 469l-33 -4l-5 9l5 9l33 -4h38l3 -5l-3 -5h-38zM213 701l33 -4h27l3 -5l-3 -5h-60l-5 5zM403 701l33 -4h27l3 -5l-3 -5h-60l-5 5 zM146 168l-33 -4l-5 9l5 9l33 -4h36l3 -5l-3 -5h-36zM495 178h69l3 -5l-3 -5h-69l-3 5zM186 278l-33 -3l-5 8l5 9l33 -4h37l3 -5l-3 -5h-37zM454 288h70l3 -5l-3 -5h-70l-3 5zM196 305l-33 -4l-5 9l5 9l33 -4h37l3 -5l-3 -5h-37zM382 479h71l3 -5l-3 -5h-71l-3 5zM372 506 h71l3 -5l-3 -5h-71l-3 5zM156 196l-33 -4l-5 9l5 9l33 -4h398l3 -5l-3 -5h-398zM166 223l-33 -4l-5 9l5 10l33 -5h378l3 -5l-3 -5h-378zM176 250l-33 -4l-5 9l5 9l33 -4h358l3 -5l-3 -5h-358zM297 578l-33 -4l-5 9l5 9l33 -4h116l3 -5l-3 -5h-116zM307 605l-33 -4l-5 9l5 9 l33 -4h96l3 -5l-3 -5h-96zM316 632l-33 -4l-5 9l5 5h111l3 -5l-3 -5h-78zM287 551l-33 -4l-5 9l5 10l33 -5h38l3 -5l-3 -5h-38zM236 414l-33 -4l-5 9l5 9l33 -4h38l3 -5l-3 -5h-38zM277 524l-33 -4l-5 9l5 9l33 -4h38l3 -5l-3 -5h-38zM206 332l-33 -4l-5 9l5 9l33 -4h37 l3 -5l-3 -5h-37zM247 442l-33 -4l-5 9l5 9l33 -4h37l3 -5l-3 -5h-37zM136 141l-33 -4l-5 9l5 9l33 -4h36l3 -5l-3 -5h-36zM126 114l-33 -4l-5 9l5 9l33 -4h36l3 -5l-3 -5h-36zM217 360l-33 -4l-5 9l5 9l33 -4h36l3 -5l-3 -5h-36zM227 387l-33 -4l-5 9l5 9l33 -4h36l3 -5 l-3 -5h-36zM106 59l-33 -4l-5 9l5 9l33 -4h35l3 -5l-3 -5h-35zM116 86l-33 -4l-5 9l5 9l33 -4h35l3 -5l-3 -5h-35zM130 32h-67l-5 5l5 9l33 -4h34l3 -5zM351 561h72l3 -5l-3 -5h-72l-3 5zM443 315h71l3 -5l-3 -5h-71l-3 5zM423 370h71l3 -5l-3 -5h-71l-3 5zM392 452h71l3 -5 l-3 -5h-71l-3 5zM362 534h71l3 -5l-3 -5h-71l-3 5zM413 397h70l3 -5l-3 -5h-70l-3 5zM403 424h70l3 -5l-3 -5h-70l-3 5zM434 342h70l3 -5l-3 -5h-70l-3 5zM505 151h69l3 -5l-3 -5h-69l-3 5zM545 42h69l3 -5l-3 -5h-69l-3 5zM525 96h69l3 -5l-3 -5h-69l-3 5zM535 69h69l3 -5 l-3 -5h-69l-3 5zM515 124h69l3 -5l-3 -5h-69l-3 5z" />
<glyph unicode="&#xe5;" horiz-adv-x="675" d="M321 752l35 -1h2l3 -5l-3 -5h-2l-35 -4l-5 9zM287 729l33 -4h76l3 -5l-3 -5h-76l-33 -4l-5 9zM281 701l33 -4l3 -5l-3 -5l-33 -4l-5 9zM363 697h34l3 -5l-3 -5h-34l-3 5zM535 69h69l3 -5l-3 -5h-69l-3 5zM525 96h69l3 -5l-3 -5h-69l-3 5zM515 124h69l3 -5l-3 -5h-69l-3 5 zM505 151h69l3 -5l-3 -5h-69l-3 5zM495 178h69l3 -5l-3 -5h-69l-3 5zM454 288h70l3 -5l-3 -5h-70l-3 5zM443 315h71l3 -5l-3 -5h-71l-3 5zM434 342h70l3 -5l-3 -5h-70l-3 5zM423 370h71l3 -5l-3 -5h-71l-3 5zM413 397h70l3 -5l-3 -5h-70l-3 5zM403 424h70l3 -5l-3 -5h-70 l-3 5zM392 452h71l3 -5l-3 -5h-71l-3 5zM382 479h71l3 -5l-3 -5h-71l-3 5zM372 506h71l3 -5l-3 -5h-71l-3 5zM362 534h71l3 -5l-3 -5h-71l-3 5zM351 561h72l3 -5l-3 -5h-72l-3 5zM545 42h69l3 -5l-3 -5h-69l-3 5zM130 32h-67l-5 5l5 9l33 -4h34l3 -5zM106 59l-33 -4l-5 9 l5 9l33 -4h35l3 -5l-3 -5h-35zM116 86l-33 -4l-5 9l5 9l33 -4h35l3 -5l-3 -5h-35zM126 114l-33 -4l-5 9l5 9l33 -4h36l3 -5l-3 -5h-36zM136 141l-33 -4l-5 9l5 9l33 -4h36l3 -5l-3 -5h-36zM146 168l-33 -4l-5 9l5 9l33 -4h36l3 -5l-3 -5h-36zM186 278l-33 -3l-5 8l5 9l33 -4 h37l3 -5l-3 -5h-37zM196 305l-33 -4l-5 9l5 9l33 -4h37l3 -5l-3 -5h-37zM206 332l-33 -4l-5 9l5 9l33 -4h37l3 -5l-3 -5h-37zM217 360l-33 -4l-5 9l5 9l33 -4h36l3 -5l-3 -5h-36zM227 387l-33 -4l-5 9l5 9l33 -4h36l3 -5l-3 -5h-36zM236 414l-33 -4l-5 9l5 9l33 -4h38l3 -5 l-3 -5h-38zM247 442l-33 -4l-5 9l5 9l33 -4h37l3 -5l-3 -5h-37zM257 469l-33 -4l-5 9l5 9l33 -4h38l3 -5l-3 -5h-38zM266 496l-33 -4l-5 9l5 9l33 -4h39l3 -5l-3 -5h-39zM277 524l-33 -4l-5 9l5 9l33 -4h38l3 -5l-3 -5h-38zM287 551l-33 -4l-5 9l5 10l33 -5h38l3 -5l-3 -5 h-38zM297 578l-33 -4l-5 9l5 9l33 -4h116l3 -5l-3 -5h-116zM307 605l-33 -4l-5 9l5 9l33 -4h96l3 -5l-3 -5h-96zM316 632l-33 -4l-5 9l5 5h111l3 -5l-3 -5h-78zM156 196l-33 -4l-5 9l5 9l33 -4h398l3 -5l-3 -5h-398zM166 223l-33 -4l-5 9l5 10l33 -5h378l3 -5l-3 -5h-378z M176 250l-33 -4l-5 9l5 9l33 -4h358l3 -5l-3 -5h-358z" />
<glyph unicode="&#xe6;" horiz-adv-x="972" d="M185 276l-33 -4l-5 9l5 9l33 -4h36l3 -5l-3 -5h-36zM553 386h-60l-3 5l3 5h60l3 -5zM553 113h-60l-3 5l3 5h60l3 -5zM553 550h-60l-3 5l3 5h60l3 -5zM266 496l-33 -4l-5 9l5 9l33 -4h39l3 -5l-3 -5h-39zM126 114l-33 -4l-5 9l5 9l33 -4h36l3 -5l-3 -5h-36zM146 168 l-33 -4l-5 9l5 9l33 -4h36l3 -5l-3 -5h-36zM116 86l-33 -4l-5 9l5 9l33 -4h35l3 -5l-3 -5h-35zM553 277h-60l-3 5l3 5h60l3 -5zM553 168h-60l-3 5l3 5h60l3 -5zM553 414h-60l-3 5l3 5h60l3 -5zM287 551l-33 -4l-5 9l5 10l33 -5h38l3 -5l-3 -5h-38zM227 385l-33 -4l-5 9l5 9 l33 -4h36l3 -5l-3 -5h-36zM236 414l-33 -4l-5 9l5 9l33 -4h38l3 -5l-3 -5h-38zM163 318l33 -4h631l3 -5l-3 -5h-631l-33 -4l-5 9zM173 345l33 -4h621l3 -5l-3 -5h-621l-33 -4l-5 9zM184 371l33 -3h610l3 -5l-3 -5h-610l-33 -4l-5 9zM297 578l-33 -4l-5 9l5 9l33 -4h560l3 -5 l-3 -5h-560zM307 605l-33 -4l-5 9l5 9l33 -4h550l3 -5l-3 -5h-550zM316 632l-33 -4l-5 9l5 5h574l3 -5l-3 -5h-541zM878 32h-385l-3 5l3 5h385l3 -5zM878 59h-385l-3 5l3 5h385l3 -5zM878 86h-385l-3 5l3 5h385l3 -5zM257 469l-33 -4l-5 9l5 9l33 -4h38l3 -5l-3 -5h-38z M277 524l-33 -4l-5 9l5 9l33 -4h38l3 -5l-3 -5h-38zM247 442l-33 -4l-5 9l5 9l33 -4h37l3 -5l-3 -5h-37zM136 141l-33 -4l-5 9l5 9l33 -4h36l3 -5l-3 -5h-36zM175 249l-33 -4l-5 9l5 9l33 -4h36l3 -5l-3 -5h-36zM155 195l-33 -4l-5 9l5 9l33 -4h36l3 -5l-3 -5h-36zM165 222 l-33 -4l-5 9l5 9l33 -4h36l3 -5l-3 -5h-36zM106 59l-33 -4l-5 9l5 9l33 -4h35l3 -5l-3 -5h-35zM130 32h-67l-5 5l5 9l33 -4h34l3 -5zM553 523h-60l-3 5l3 5h60l3 -5zM553 140h-60l-3 5l3 5h60l3 -5zM553 468h-60l-3 5l3 5h60l3 -5zM553 441h-60l-3 5l3 5h60l3 -5zM553 250 h-60l-3 5l3 5h60l3 -5zM553 496h-60l-3 5l3 5h60l3 -5zM553 195h-60l-3 5l3 5h60l3 -5zM553 222h-60l-3 5l3 5h60l3 -5z" />
<glyph unicode="&#xe7;" horiz-adv-x="682" d="M192 86l34 -4h329l3 -5l-3 -5h-329l-34 -4l-5 9zM190 605l34 -4h328l3 -5l-3 -5h-328l-34 -4l-5 9zM232 59l34 -4h252l3 -5l-3 -5h-252l-34 -4l-5 9zM228 632l34 -4h251l3 -5l-3 -5h-251l-34 -4l-5 9zM284 655h156l3 -5l-3 -5h-122l-34 -4l-5 9zM301 32l34 -4h115l3 -5 l-3 -5h-149l-5 5zM159 113l34 -4h79l8 -5l-3 -5h-84l-34 -4l-5 9zM161 577l34 -4h77l3 -5l-8 -5h-72l-34 -4l-5 9zM589 99h-125l-3 5l8 5h120l3 -5zM588 563h-114l-8 5l3 5h119l3 -5zM140 140l34 -4h63l3 -5l-3 -5h-63l-34 -5l-5 10zM141 550l34 -4h61l3 -5l-3 -5h-61 l-34 -4l-5 9zM122 167l34 -4h57l3 -5l-3 -5h-57l-34 -4l-5 9zM125 523l34 -4h51l3 -5l-3 -5h-51l-34 -4l-5 9zM110 195l34 -4h49l3 -5l-3 -5h-49l-34 -4l-5 9zM101 222l34 -4h44l3 -5l-3 -5h-44l-34 -4l-5 9zM113 495l34 -4h43l3 -5l-3 -5h-43l-34 -4l-5 9zM102 468l34 -4 h41l3 -5l-3 -5h-41l-34 -5l-5 10zM94 249l34 -4h39l3 -5l-3 -5h-39l-34 -4l-5 9zM598 536h-88l-3 5l3 5h88l3 -5zM597 126h-88l-3 5l3 5h88l3 -5zM95 441l34 -4h37l3 -5l-3 -5h-37l-34 -4l-5 9zM85 386l34 -4h33l3 -5l-3 -5h-33l-34 -4l-5 9zM83 331l34 -4h33l3 -5l-3 -5 h-33l-34 -4l-5 9zM89 277l34 -4h33l3 -5l-3 -5h-33l-34 -4l-5 9zM83 359l34 -4h33l3 -5l-3 -5h-33l-34 -4l-5 9zM85 304l34 -4h33l3 -5l-3 -5h-33l-34 -4l-5 9zM89 412l34 -3h33l3 -5l-3 -5h-33l-34 -4l-5 9zM332 -24h71l3 -5l-3 -5h-38l-33 -4l-5 9zM382 -61h-69l-5 5l5 9 l33 -4h36l3 -5zM569 153h-33l-3 5l3 5h33l3 -5zM571 509h-28l-3 5l3 5h28l3 -5z" />
<glyph unicode="&#xe8;" horiz-adv-x="626" d="M356 687h-69l-5 5l5 9l33 -4h36l3 -5zM266 724h71l3 -5l-3 -5h-38l-33 -4l-5 9zM126 564l33 -4h27l3 -5l-3 -5h-27l-33 -4l-5 9zM126 428l33 -4h27l3 -5l-3 -5h-27l-33 -4l-5 9zM126 318l33 -4h27l3 -5l-3 -5h-27l-33 -4l-5 9zM126 127l33 -4h27l3 -5l-3 -5h-27l-33 -5 l-5 10zM126 510l33 -4h27l3 -5l-3 -5h-27l-33 -4l-5 9zM126 642h385l3 -5l-3 -5h-352l-33 -4l-5 9zM126 619l33 -4h352l3 -5l-3 -5h-352l-33 -4l-5 9zM126 592l33 -4h352l3 -5l-3 -5h-352l-33 -4l-5 9zM126 537l33 -4h27l3 -5l-3 -5h-27l-33 -4l-5 9zM126 482l33 -4h27l3 -5 l-3 -5h-27l-33 -4l-5 9zM126 455l33 -4h27l3 -5l-3 -5h-27l-33 -5l-5 10zM126 399l33 -3h322l3 -5l-3 -5h-322l-33 -4l-5 9zM126 373l33 -4h322l3 -5l-3 -5h-322l-33 -4l-5 9zM126 346l33 -4h322l3 -5l-3 -5h-322l-33 -4l-5 9zM126 291l33 -4h27l3 -5l-3 -5h-27l-33 -4l-5 9 zM126 264l33 -4h27l3 -5l-3 -5h-27l-33 -4l-5 9zM126 236l33 -4h27l3 -5l-3 -5h-27l-33 -4l-5 9zM126 209l33 -4h27l3 -5l-3 -5h-27l-33 -4l-5 9zM126 182l33 -4h27l3 -5l-3 -5h-27l-33 -4l-5 9zM126 154l33 -4h27l3 -5l-3 -5h-27l-33 -4l-5 9zM126 100l33 -4h373l3 -5 l-3 -5h-373l-33 -4l-5 9zM126 73l33 -4h373l3 -5l-3 -5h-373l-33 -4l-5 9zM126 46l33 -4h373l3 -5l-3 -5h-406l-5 5z" />
<glyph unicode="&#xe9;" horiz-adv-x="626" d="M377 687h-69l-5 5l5 9l33 -4h36l3 -5zM327 724h71l3 -5l-3 -5h-38l-33 -4l-5 9zM126 564l33 -4h27l3 -5l-3 -5h-27l-33 -4l-5 9zM126 428l33 -4h27l3 -5l-3 -5h-27l-33 -4l-5 9zM126 318l33 -4h27l3 -5l-3 -5h-27l-33 -4l-5 9zM126 127l33 -4h27l3 -5l-3 -5h-27l-33 -5 l-5 10zM126 510l33 -4h27l3 -5l-3 -5h-27l-33 -4l-5 9zM126 642h385l3 -5l-3 -5h-352l-33 -4l-5 9zM126 619l33 -4h352l3 -5l-3 -5h-352l-33 -4l-5 9zM126 592l33 -4h352l3 -5l-3 -5h-352l-33 -4l-5 9zM126 537l33 -4h27l3 -5l-3 -5h-27l-33 -4l-5 9zM126 482l33 -4h27l3 -5 l-3 -5h-27l-33 -4l-5 9zM126 455l33 -4h27l3 -5l-3 -5h-27l-33 -5l-5 10zM126 399l33 -3h322l3 -5l-3 -5h-322l-33 -4l-5 9zM126 373l33 -4h322l3 -5l-3 -5h-322l-33 -4l-5 9zM126 346l33 -4h322l3 -5l-3 -5h-322l-33 -4l-5 9zM126 291l33 -4h27l3 -5l-3 -5h-27l-33 -4l-5 9 zM126 264l33 -4h27l3 -5l-3 -5h-27l-33 -4l-5 9zM126 236l33 -4h27l3 -5l-3 -5h-27l-33 -4l-5 9zM126 209l33 -4h27l3 -5l-3 -5h-27l-33 -4l-5 9zM126 182l33 -4h27l3 -5l-3 -5h-27l-33 -4l-5 9zM126 154l33 -4h27l3 -5l-3 -5h-27l-33 -4l-5 9zM126 100l33 -4h373l3 -5 l-3 -5h-373l-33 -4l-5 9zM126 73l33 -4h373l3 -5l-3 -5h-373l-33 -4l-5 9zM126 46l33 -4h373l3 -5l-3 -5h-406l-5 5z" />
<glyph unicode="&#xea;" horiz-adv-x="626" d="M249 687l-5 5l5 9l33 -4h114l3 -5l-3 -5h-147zM271 724h106l3 -5l-3 -5h-73l-33 -4l-5 9zM126 564l33 -4h27l3 -5l-3 -5h-27l-33 -4l-5 9zM126 428l33 -4h27l3 -5l-3 -5h-27l-33 -4l-5 9zM126 318l33 -4h27l3 -5l-3 -5h-27l-33 -4l-5 9zM126 127l33 -4h27l3 -5l-3 -5h-27 l-33 -5l-5 10zM126 510l33 -4h27l3 -5l-3 -5h-27l-33 -4l-5 9zM126 642h385l3 -5l-3 -5h-352l-33 -4l-5 9zM126 619l33 -4h352l3 -5l-3 -5h-352l-33 -4l-5 9zM126 592l33 -4h352l3 -5l-3 -5h-352l-33 -4l-5 9zM126 537l33 -4h27l3 -5l-3 -5h-27l-33 -4l-5 9zM126 482l33 -4 h27l3 -5l-3 -5h-27l-33 -4l-5 9zM126 455l33 -4h27l3 -5l-3 -5h-27l-33 -5l-5 10zM126 399l33 -3h322l3 -5l-3 -5h-322l-33 -4l-5 9zM126 373l33 -4h322l3 -5l-3 -5h-322l-33 -4l-5 9zM126 346l33 -4h322l3 -5l-3 -5h-322l-33 -4l-5 9zM126 291l33 -4h27l3 -5l-3 -5h-27 l-33 -4l-5 9zM126 264l33 -4h27l3 -5l-3 -5h-27l-33 -4l-5 9zM126 236l33 -4h27l3 -5l-3 -5h-27l-33 -4l-5 9zM126 209l33 -4h27l3 -5l-3 -5h-27l-33 -4l-5 9zM126 182l33 -4h27l3 -5l-3 -5h-27l-33 -4l-5 9zM126 154l33 -4h27l3 -5l-3 -5h-27l-33 -4l-5 9zM126 100l33 -4 h373l3 -5l-3 -5h-373l-33 -4l-5 9zM126 73l33 -4h373l3 -5l-3 -5h-373l-33 -4l-5 9zM126 46l33 -4h373l3 -5l-3 -5h-406l-5 5z" />
<glyph unicode="&#xeb;" horiz-adv-x="626" d="M206 701l33 -4h27l3 -5l-3 -5h-60l-5 5zM396 701l33 -4h27l3 -5l-3 -5h-60l-5 5zM396 724h60l3 -5l-3 -5h-27l-33 -4l-5 9zM206 724h60l3 -5l-3 -5h-27l-33 -4l-5 9zM126 564l33 -4h27l3 -5l-3 -5h-27l-33 -4l-5 9zM126 428l33 -4h27l3 -5l-3 -5h-27l-33 -4l-5 9z M126 318l33 -4h27l3 -5l-3 -5h-27l-33 -4l-5 9zM126 127l33 -4h27l3 -5l-3 -5h-27l-33 -5l-5 10zM126 510l33 -4h27l3 -5l-3 -5h-27l-33 -4l-5 9zM126 642h385l3 -5l-3 -5h-352l-33 -4l-5 9zM126 619l33 -4h352l3 -5l-3 -5h-352l-33 -4l-5 9zM126 592l33 -4h352l3 -5l-3 -5 h-352l-33 -4l-5 9zM126 537l33 -4h27l3 -5l-3 -5h-27l-33 -4l-5 9zM126 482l33 -4h27l3 -5l-3 -5h-27l-33 -4l-5 9zM126 455l33 -4h27l3 -5l-3 -5h-27l-33 -5l-5 10zM126 399l33 -3h322l3 -5l-3 -5h-322l-33 -4l-5 9zM126 373l33 -4h322l3 -5l-3 -5h-322l-33 -4l-5 9z M126 346l33 -4h322l3 -5l-3 -5h-322l-33 -4l-5 9zM126 291l33 -4h27l3 -5l-3 -5h-27l-33 -4l-5 9zM126 264l33 -4h27l3 -5l-3 -5h-27l-33 -4l-5 9zM126 236l33 -4h27l3 -5l-3 -5h-27l-33 -4l-5 9zM126 209l33 -4h27l3 -5l-3 -5h-27l-33 -4l-5 9zM126 182l33 -4h27l3 -5 l-3 -5h-27l-33 -4l-5 9zM126 154l33 -4h27l3 -5l-3 -5h-27l-33 -4l-5 9zM126 100l33 -4h373l3 -5l-3 -5h-373l-33 -4l-5 9zM126 73l33 -4h373l3 -5l-3 -5h-373l-33 -4l-5 9zM126 46l33 -4h373l3 -5l-3 -5h-406l-5 5z" />
<glyph unicode="&#xec;" horiz-adv-x="311" d="M164 687h-37l-5 5l5 9l33 -4h4l3 -5zM106 724h39l3 -5l-3 -5h-6l-33 -4l-5 9zM126 127l33 -4h27l3 -5l-3 -5h-27l-33 -5l-5 10zM126 455l33 -4h27l3 -5l-3 -5h-27l-33 -5l-5 10zM126 236l33 -4h27l3 -5l-3 -5h-27l-33 -4l-5 9zM126 264l33 -4h27l3 -5l-3 -5h-27l-33 -4 l-5 9zM126 100l33 -4h27l3 -5l-3 -5h-27l-33 -4l-5 9zM126 318l33 -4h27l3 -5l-3 -5h-27l-33 -4l-5 9zM126 346l33 -4h27l3 -5l-3 -5h-27l-33 -4l-5 9zM126 619l33 -4h27l3 -5l-3 -5h-27l-33 -4l-5 9zM126 373l33 -4h27l3 -5l-3 -5h-27l-33 -4l-5 9zM126 428l33 -4h27l3 -5 l-3 -5h-27l-33 -4l-5 9zM126 73l33 -4h27l3 -5l-3 -5h-27l-33 -4l-5 9zM126 482l33 -4h27l3 -5l-3 -5h-27l-33 -4l-5 9zM126 510l33 -4h27l3 -5l-3 -5h-27l-33 -4l-5 9zM126 537l33 -4h27l3 -5l-3 -5h-27l-33 -4l-5 9zM126 291l33 -4h27l3 -5l-3 -5h-27l-33 -4l-5 9z M126 592l33 -4h27l3 -5l-3 -5h-27l-33 -4l-5 9zM126 564l33 -4h27l3 -5l-3 -5h-27l-33 -4l-5 9zM126 154l33 -4h27l3 -5l-3 -5h-27l-33 -4l-5 9zM126 182l33 -4h27l3 -5l-3 -5h-27l-33 -4l-5 9zM126 209l33 -4h27l3 -5l-3 -5h-27l-33 -4l-5 9zM126 399l33 -3h27l3 -5l-3 -5 h-27l-33 -4l-5 9zM126 46l33 -4h27l3 -5l-3 -5h-60l-5 5zM126 642h60l3 -5l-3 -5h-27l-33 -4l-5 9z" />
<glyph unicode="&#xed;" horiz-adv-x="311" d="M186 687h-50l-5 5l5 9l33 -4h17l3 -5zM155 724h52l3 -5l-3 -5h-31l-21 -4l-5 9zM126 127l33 -4h27l3 -5l-3 -5h-27l-33 -5l-5 10zM126 455l33 -4h27l3 -5l-3 -5h-27l-33 -5l-5 10zM126 264l33 -4h27l3 -5l-3 -5h-27l-33 -4l-5 9zM126 291l33 -4h27l3 -5l-3 -5h-27l-33 -4 l-5 9zM126 318l33 -4h27l3 -5l-3 -5h-27l-33 -4l-5 9zM126 346l33 -4h27l3 -5l-3 -5h-27l-33 -4l-5 9zM126 373l33 -4h27l3 -5l-3 -5h-27l-33 -4l-5 9zM126 236l33 -4h27l3 -5l-3 -5h-27l-33 -4l-5 9zM126 100l33 -4h27l3 -5l-3 -5h-27l-33 -4l-5 9zM126 428l33 -4h27l3 -5 l-3 -5h-27l-33 -4l-5 9zM126 482l33 -4h27l3 -5l-3 -5h-27l-33 -4l-5 9zM126 73l33 -4h27l3 -5l-3 -5h-27l-33 -4l-5 9zM126 537l33 -4h27l3 -5l-3 -5h-27l-33 -4l-5 9zM126 564l33 -4h27l3 -5l-3 -5h-27l-33 -4l-5 9zM126 592l33 -4h27l3 -5l-3 -5h-27l-33 -4l-5 9z M126 619l33 -4h27l3 -5l-3 -5h-27l-33 -4l-5 9zM126 209l33 -4h27l3 -5l-3 -5h-27l-33 -4l-5 9zM126 154l33 -4h27l3 -5l-3 -5h-27l-33 -4l-5 9zM126 510l33 -4h27l3 -5l-3 -5h-27l-33 -4l-5 9zM126 182l33 -4h27l3 -5l-3 -5h-27l-33 -4l-5 9zM126 399l33 -3h27l3 -5l-3 -5 h-27l-33 -4l-5 9zM126 642h60l3 -5l-3 -5h-27l-33 -4l-5 9zM126 46l33 -4h27l3 -5l-3 -5h-60l-5 5z" />
<glyph unicode="&#xee;" horiz-adv-x="311" d="M100 687l-5 5l5 9l33 -4h77l3 -5l-3 -5h-110zM122 724h69l3 -5l-3 -5h-36l-33 -4l-5 9zM126 455l33 -4h27l3 -5l-3 -5h-27l-33 -5l-5 10zM126 127l33 -4h27l3 -5l-3 -5h-27l-33 -5l-5 10zM126 291l33 -4h27l3 -5l-3 -5h-27l-33 -4l-5 9zM126 318l33 -4h27l3 -5l-3 -5h-27 l-33 -4l-5 9zM126 346l33 -4h27l3 -5l-3 -5h-27l-33 -4l-5 9zM126 236l33 -4h27l3 -5l-3 -5h-27l-33 -4l-5 9zM126 209l33 -4h27l3 -5l-3 -5h-27l-33 -4l-5 9zM126 182l33 -4h27l3 -5l-3 -5h-27l-33 -4l-5 9zM126 482l33 -4h27l3 -5l-3 -5h-27l-33 -4l-5 9zM126 73l33 -4h27 l3 -5l-3 -5h-27l-33 -4l-5 9zM126 510l33 -4h27l3 -5l-3 -5h-27l-33 -4l-5 9zM126 100l33 -4h27l3 -5l-3 -5h-27l-33 -4l-5 9zM126 564l33 -4h27l3 -5l-3 -5h-27l-33 -4l-5 9zM126 428l33 -4h27l3 -5l-3 -5h-27l-33 -4l-5 9zM126 619l33 -4h27l3 -5l-3 -5h-27l-33 -4l-5 9z M126 537l33 -4h27l3 -5l-3 -5h-27l-33 -4l-5 9zM126 373l33 -4h27l3 -5l-3 -5h-27l-33 -4l-5 9zM126 592l33 -4h27l3 -5l-3 -5h-27l-33 -4l-5 9zM126 154l33 -4h27l3 -5l-3 -5h-27l-33 -4l-5 9zM126 264l33 -4h27l3 -5l-3 -5h-27l-33 -4l-5 9zM126 399l33 -3h27l3 -5l-3 -5 h-27l-33 -4l-5 9zM126 46l33 -4h27l3 -5l-3 -5h-60l-5 5zM126 642h60l3 -5l-3 -5h-27l-33 -4l-5 9z" />
<glyph unicode="&#xef;" horiz-adv-x="311" d="M196 724h50l3 -5l-3 -5h-17l-33 -4l-5 9zM69 724h50l3 -5l-3 -5h-17l-33 -4l-5 9zM196 701l33 -4h17l3 -5l-3 -5h-50l-5 5zM69 701l33 -4h17l3 -5l-3 -5h-50l-5 5zM126 455l33 -4h27l3 -5l-3 -5h-27l-33 -5l-5 10zM126 127l33 -4h27l3 -5l-3 -5h-27l-33 -5l-5 10z M126 182l33 -4h27l3 -5l-3 -5h-27l-33 -4l-5 9zM126 291l33 -4h27l3 -5l-3 -5h-27l-33 -4l-5 9zM126 100l33 -4h27l3 -5l-3 -5h-27l-33 -4l-5 9zM126 346l33 -4h27l3 -5l-3 -5h-27l-33 -4l-5 9zM126 373l33 -4h27l3 -5l-3 -5h-27l-33 -4l-5 9zM126 537l33 -4h27l3 -5l-3 -5 h-27l-33 -4l-5 9zM126 564l33 -4h27l3 -5l-3 -5h-27l-33 -4l-5 9zM126 482l33 -4h27l3 -5l-3 -5h-27l-33 -4l-5 9zM126 73l33 -4h27l3 -5l-3 -5h-27l-33 -4l-5 9zM126 428l33 -4h27l3 -5l-3 -5h-27l-33 -4l-5 9zM126 510l33 -4h27l3 -5l-3 -5h-27l-33 -4l-5 9zM126 592 l33 -4h27l3 -5l-3 -5h-27l-33 -4l-5 9zM126 209l33 -4h27l3 -5l-3 -5h-27l-33 -4l-5 9zM126 264l33 -4h27l3 -5l-3 -5h-27l-33 -4l-5 9zM126 318l33 -4h27l3 -5l-3 -5h-27l-33 -4l-5 9zM126 236l33 -4h27l3 -5l-3 -5h-27l-33 -4l-5 9zM126 619l33 -4h27l3 -5l-3 -5h-27 l-33 -4l-5 9zM126 154l33 -4h27l3 -5l-3 -5h-27l-33 -4l-5 9zM126 399l33 -3h27l3 -5l-3 -5h-27l-33 -4l-5 9zM126 642h60l3 -5l-3 -5h-27l-33 -4l-5 9zM126 46l33 -4h27l3 -5l-3 -5h-60l-5 5z" />
<glyph unicode="&#xf0;" horiz-adv-x="742" d="M126 564l33 -4h29l3 -5l-3 -5h-29l-33 -4l-5 9zM126 318l33 -4h28l3 -5l-3 -5h-28l-33 -4l-5 9zM126 291l33 -4h28l3 -5l-3 -5h-28l-33 -4l-5 9zM126 264l33 -4h28l3 -5l-3 -5h-28l-33 -4l-5 9zM652 250h-73l-3 5l3 5h73l3 -5zM126 510l33 -4h29l3 -5l-3 -5h-29l-33 -4 l-5 9zM622 496h-91l-3 5l3 5h91l3 -5zM126 455l33 -4h29l3 -5l-3 -5h-29l-33 -5l-5 10zM42 400l33 -3h266l3 -5l-3 -5h-266l-33 -4l-5 9zM126 642h311l3 -5l-3 -5h-278l-33 -4l-5 9zM126 619l33 -4h353l3 -5l-3 -5h-353l-33 -4l-5 9zM126 592l33 -4h394l3 -5l-3 -5h-394 l-33 -4l-5 9zM126 537l33 -4h29l3 -5l-3 -5h-29l-33 -4l-5 9zM126 482l33 -4h29l3 -5l-3 -5h-29l-33 -4l-5 9zM126 428l33 -4h29l3 -5l-3 -5h-29l-33 -4l-5 9zM42 374l33 -4h265l3 -5l-3 -5h-265l-33 -4l-5 9zM42 347l33 -4h265l3 -5l-3 -5h-265l-33 -4l-5 9zM126 236l33 -4 h28l3 -5l-3 -5h-28l-33 -4l-5 9zM126 209l33 -4h28l3 -5l-3 -5h-28l-33 -4l-5 9zM126 182l33 -4h28l3 -5l-3 -5h-28l-33 -4l-5 9zM126 154l33 -4h28l3 -5l-3 -5h-28l-33 -4l-5 9zM126 127l33 -4h28l3 -5l-3 -5h-28l-33 -5l-5 10zM126 100l33 -4h394l3 -5l-3 -5h-394l-33 -4 l-5 9zM126 73l33 -4h353l3 -5l-3 -5h-353l-33 -4l-5 9zM126 46l33 -4h278l3 -5l-3 -5h-311l-5 5zM582 550h-133l-8 5l3 5h138l3 -5zM604 523h-106l-3 5l3 5h106l3 -5zM635 468h-83l-3 5l3 5h83l3 -5zM645 441h-77l-3 5l3 5h77l3 -5zM651 414h-72l-3 5l3 5h72l3 -5zM656 386 h-69l-3 5l3 5h69l3 -5zM660 359h-69l-3 5l3 5h69l3 -5zM661 332h-69l-3 5l3 5h69l3 -5zM660 304h-69l-3 5l3 5h69l3 -5zM656 277h-69l-3 5l3 5h69l3 -5zM645 222h-77l-3 5l3 5h77l3 -5zM635 195h-83l-3 5l3 5h83l3 -5zM622 168h-91l-3 5l3 5h91l3 -5zM604 140h-106l-3 5l3 5 h106l3 -5zM582 113h-138l-3 5l8 5h133l3 -5z" />
</font>
</defs>
</svg>
